<svg width="160" height="37" viewBox="0 0 160 37" fill="none" xmlns="http://www.w3.org/2000/svg">
<path d="M46.8669 24.362C46.8669 25.1331 46.7085 25.7256 46.3919 26.1395C46.0836 26.5536 45.5682 26.7605 44.8458 26.7605C44.1639 26.7605 43.681 26.5536 43.3968 26.1395C43.1209 25.7256 42.9829 25.1331 42.9829 24.362V11.4927C42.9829 10.7216 43.1209 10.129 43.3968 9.71508C43.681 9.30111 44.1639 9.09413 44.8458 9.09413C45.5682 9.09413 46.0836 9.30111 46.3919 9.71508C46.7085 10.129 46.8669 10.7216 46.8669 11.4927V24.362Z" fill="#F0F2F5"/>
<path d="M48.0459 20.6242C48.0459 19.7637 48.1839 18.9521 48.4599 18.1891C48.744 17.418 49.166 16.7443 49.7261 16.168C50.2943 15.5917 51.0005 15.1331 51.8447 14.7922C52.6969 14.4512 53.6952 14.2808 54.8398 14.2808C55.9356 14.2808 56.9055 14.4391 57.7497 14.7556C58.5938 15.0722 59.3041 15.5146 59.8803 16.0828C60.4566 16.6428 60.8949 17.3124 61.1953 18.0916C61.4956 18.8628 61.6458 19.7069 61.6458 20.6242C61.6458 21.4765 61.5037 22.2841 61.2196 23.0471C60.9356 23.8019 60.5094 24.4675 59.9412 25.0439C59.3731 25.612 58.6628 26.0665 57.8106 26.4075C56.9582 26.7403 55.968 26.9066 54.8398 26.9066C53.7278 26.9066 52.7456 26.7484 51.8933 26.4318C51.0491 26.1071 50.339 25.6647 49.7627 25.1046C49.1945 24.5365 48.7642 23.871 48.4721 23.108C48.1879 22.3368 48.0459 21.5089 48.0459 20.6242ZM52.1003 20.6242C52.1003 21.1599 52.149 21.6713 52.2464 22.1582C52.3438 22.6371 52.4981 23.0592 52.7091 23.4245C52.9282 23.7897 53.2123 24.082 53.5613 24.3011C53.9104 24.5121 54.3365 24.6177 54.8398 24.6177C55.3024 24.6177 55.7042 24.5203 56.0451 24.3254C56.3942 24.1307 56.6782 23.8587 56.8974 23.5097C57.1247 23.1607 57.2951 22.7427 57.4087 22.2557C57.5224 21.7605 57.5792 21.2167 57.5792 20.6242C57.5792 20.0884 57.5264 19.5811 57.421 19.1022C57.3235 18.6153 57.1653 18.1891 56.9461 17.8238C56.7269 17.4505 56.4429 17.1582 56.0938 16.9472C55.7529 16.7281 55.3348 16.6185 54.8398 16.6185C54.3446 16.6185 53.9226 16.724 53.5735 16.9351C53.2245 17.1461 52.9404 17.4342 52.7212 17.7995C52.5021 18.1648 52.3438 18.5909 52.2464 19.0779C52.149 19.5649 52.1003 20.0803 52.1003 20.6242Z" fill="#F0F2F5"/>
<path d="M71.6398 24.4107C71.4206 24.8165 71.1528 25.1615 70.8362 25.4456C70.5278 25.7297 70.1828 25.9651 69.8014 26.1518C69.428 26.3303 69.0262 26.4642 68.596 26.5536C68.1739 26.6347 67.7397 26.6753 67.2932 26.6753C66.5464 26.6753 65.8647 26.5414 65.2477 26.2735C64.6309 26.0056 64.0993 25.6201 63.6528 25.1169C63.2145 24.6055 62.8736 23.9805 62.6301 23.2419C62.3865 22.5032 62.2648 21.659 62.2648 20.7094C62.2648 19.8165 62.3784 18.9805 62.6058 18.2012C62.833 17.422 63.1617 16.7443 63.5919 16.168C64.0303 15.5917 64.566 15.1371 65.1991 14.8044C65.8321 14.4716 66.5546 14.3051 67.3663 14.3051C68.2916 14.3051 69.1114 14.4837 69.8257 14.8408C70.5481 15.198 71.1691 15.7824 71.6886 16.5941V16.2776C71.6886 15.6932 71.8468 15.2549 72.1634 14.9626C72.488 14.6623 72.9345 14.5121 73.5027 14.5121C73.8436 14.5121 74.1317 14.5689 74.3671 14.6826C74.6024 14.7882 74.7891 14.9504 74.9271 15.1697C75.0652 15.3807 75.1625 15.6445 75.2194 15.961C75.2843 16.2694 75.3167 16.6225 75.3167 17.0203V25.1778C75.3167 26.168 75.191 27.0527 74.9394 27.8319C74.6958 28.6111 74.3143 29.2687 73.7948 29.8044C73.2754 30.3401 72.6098 30.7459 71.7981 31.0219C70.9864 31.306 70.0205 31.448 68.9004 31.448C68.1131 31.448 67.415 31.4115 66.8062 31.3384C66.2056 31.2736 65.6861 31.1721 65.2477 31.0341C64.8095 30.8798 64.4767 30.7094 64.2494 30.5227C64.0303 30.336 63.9207 30.0925 63.9207 29.7922C63.9207 29.6217 63.945 29.4594 63.9937 29.3051C64.0424 29.151 64.1155 29.013 64.2128 28.8912C64.3184 28.7776 64.4523 28.6843 64.6147 28.6111C64.7851 28.5463 64.992 28.5138 65.2356 28.5138C65.4953 28.5138 65.7551 28.53 66.0148 28.5625C66.2826 28.5949 66.5587 28.6274 66.8427 28.6598C67.1349 28.7005 67.4393 28.7369 67.7559 28.7695C68.0806 28.8019 68.4296 28.8182 68.803 28.8182C69.2494 28.8182 69.6471 28.7735 69.9962 28.6843C70.3452 28.5949 70.6414 28.4367 70.8849 28.2094C71.1285 27.9821 71.3152 27.6777 71.445 27.2962C71.5749 26.9228 71.6398 26.4439 71.6398 25.8595V24.4107ZM71.6398 20.6242C71.6398 20.0316 71.5952 19.4918 71.5059 19.0049C71.4248 18.5178 71.2826 18.1039 71.0797 17.7629C70.8768 17.4139 70.6049 17.1461 70.264 16.9594C69.9231 16.7646 69.497 16.6672 68.9856 16.6672C68.4823 16.6672 68.0644 16.7686 67.7316 16.9715C67.4069 17.1744 67.1472 17.4545 66.9524 17.8116C66.7575 18.1688 66.6196 18.5868 66.5383 19.0658C66.4653 19.5446 66.4288 20.056 66.4288 20.5998C66.4288 21.8417 66.6479 22.7752 67.0863 23.4001C67.5245 24.0251 68.1617 24.3377 68.9978 24.3377C69.3874 24.3296 69.7405 24.2564 70.057 24.1184C70.3817 23.9724 70.6618 23.7492 70.8971 23.4488C71.1325 23.1485 71.3152 22.767 71.445 22.3043C71.5749 21.8417 71.6398 21.2817 71.6398 20.6242Z" fill="#F0F2F5"/>
<path d="M76.4349 20.6242C76.4349 19.7637 76.5729 18.9521 76.8489 18.1891C77.133 17.418 77.555 16.7443 78.1151 16.168C78.6833 15.5917 79.3894 15.1331 80.2336 14.7922C81.0859 14.4512 82.0843 14.2808 83.2288 14.2808C84.3245 14.2808 85.2945 14.4391 86.1386 14.7556C86.9828 15.0722 87.693 15.5146 88.2693 16.0828C88.8456 16.6428 89.284 17.3124 89.5842 18.0916C89.8846 18.8628 90.0347 19.7069 90.0347 20.6242C90.0347 21.4765 89.8927 22.2841 89.6086 23.0471C89.3245 23.8019 88.8984 24.4675 88.3302 25.0439C87.762 25.612 87.0518 26.0665 86.1995 26.4075C85.3472 26.7403 84.357 26.9066 83.2288 26.9066C82.1167 26.9066 81.1346 26.7484 80.2823 26.4318C79.4382 26.1071 78.7279 25.6647 78.1516 25.1046C77.5835 24.5365 77.1533 23.871 76.861 23.108C76.577 22.3368 76.4349 21.5089 76.4349 20.6242ZM80.4893 20.6242C80.4893 21.1599 80.538 21.6713 80.6355 22.1582C80.7328 22.6371 80.887 23.0592 81.0981 23.4245C81.3172 23.7897 81.6013 24.082 81.9504 24.3011C82.2993 24.5121 82.7255 24.6177 83.2288 24.6177C83.6914 24.6177 84.0932 24.5203 84.4341 24.3254C84.7831 24.1307 85.0672 23.8587 85.2864 23.5097C85.5137 23.1607 85.6841 22.7427 85.7977 22.2557C85.9114 21.7605 85.9682 21.2167 85.9682 20.6242C85.9682 20.0884 85.9155 19.5811 85.8099 19.1022C85.7125 18.6153 85.5542 18.1891 85.3351 17.8238C85.116 17.4505 84.8318 17.1582 84.4828 16.9472C84.1419 16.7281 83.7239 16.6185 83.2288 16.6185C82.7336 16.6185 82.3115 16.724 81.9625 16.9351C81.6135 17.1461 81.3294 17.4342 81.1103 17.7995C80.8911 18.1648 80.7328 18.5909 80.6355 19.0779C80.538 19.5649 80.4893 20.0803 80.4893 20.6242Z" fill="#F0F2F5"/>
<path d="M95.256 10.1777C95.256 10.4456 95.1952 10.685 95.0734 10.8961C94.9516 11.099 94.7934 11.2694 94.5986 11.4075C94.4038 11.5455 94.1764 11.6509 93.9167 11.7239C93.6652 11.7889 93.4054 11.8214 93.1375 11.8214C92.8534 11.8214 92.5815 11.7848 92.3218 11.7118C92.0702 11.6388 91.847 11.5333 91.6522 11.3952C91.4574 11.2491 91.3031 11.0746 91.1894 10.8717C91.0759 10.6688 91.019 10.4375 91.019 10.1777C91.019 9.94234 91.0718 9.72724 91.1773 9.53244C91.2909 9.32952 91.4411 9.155 91.6278 9.00889C91.8145 8.8628 92.0378 8.74915 92.2975 8.66799C92.5572 8.58682 92.8413 8.54623 93.1497 8.54623C93.4176 8.54623 93.6773 8.58276 93.929 8.65581C94.1887 8.72886 94.4159 8.83438 94.6107 8.97237C94.8055 9.11036 94.9598 9.28081 95.0734 9.48373C95.1952 9.68666 95.256 9.91798 95.256 10.1777ZM95.0734 24.362C95.0734 25.1331 94.9152 25.7256 94.5986 26.1395C94.2901 26.5536 93.7747 26.7605 93.0523 26.7605C92.3705 26.7605 91.8875 26.5536 91.6035 26.1395C91.3275 25.7256 91.1894 25.1331 91.1894 24.362V16.9106C91.1894 16.1395 91.3275 15.547 91.6035 15.1331C91.8875 14.7192 92.3705 14.5121 93.0523 14.5121C93.7747 14.5121 94.2901 14.7192 94.5986 15.1331C94.9152 15.547 95.0734 16.1395 95.0734 16.9106V24.362Z" fill="#F0F2F5"/>
<path d="M100.672 20.5998C100.672 21.1437 100.713 21.6509 100.794 22.1218C100.883 22.5925 101.029 23.0064 101.232 23.3636C101.443 23.7126 101.719 23.9886 102.06 24.1915C102.409 24.3945 102.839 24.4959 103.351 24.4959C103.821 24.4959 104.215 24.3985 104.532 24.2037C104.856 24.0008 105.116 23.7248 105.311 23.3758C105.505 23.0186 105.644 22.6006 105.725 22.1218C105.814 21.6428 105.859 21.1233 105.859 20.5633C105.859 20.1169 105.826 19.6623 105.761 19.1997C105.697 18.7288 105.575 18.3028 105.396 17.9213C105.218 17.5397 104.97 17.2272 104.654 16.9837C104.337 16.7403 103.923 16.6185 103.412 16.6185C102.9 16.6185 102.466 16.6996 102.109 16.862C101.76 17.0243 101.476 17.2719 101.257 17.6047C101.045 17.9375 100.895 18.3555 100.806 18.8587C100.717 19.3539 100.672 19.9342 100.672 20.5998ZM100.66 16.9107C100.863 16.4805 101.123 16.1031 101.439 15.7784C101.756 15.4537 102.105 15.1818 102.486 14.9626C102.868 14.7435 103.265 14.5811 103.679 14.4756C104.102 14.362 104.519 14.3051 104.933 14.3051C105.68 14.3051 106.354 14.4716 106.955 14.8044C107.555 15.1371 108.066 15.5917 108.488 16.168C108.918 16.7362 109.248 17.4099 109.475 18.1891C109.702 18.9602 109.816 19.7882 109.816 20.6728C109.816 21.59 109.694 22.4301 109.45 23.1931C109.216 23.9562 108.878 24.6136 108.439 25.1655C108.009 25.7094 107.49 26.1355 106.881 26.4439C106.281 26.7524 105.611 26.9066 104.873 26.9066C103.964 26.9066 103.152 26.6956 102.438 26.2735C101.723 25.8514 101.131 25.2589 100.66 24.4959V28.8791C100.66 29.6501 100.502 30.2427 100.185 30.6566C99.8766 31.0705 99.3612 31.2776 98.6388 31.2776C97.957 31.2776 97.474 31.0705 97.1899 30.6566C96.914 30.2427 96.776 29.6501 96.776 28.8791V16.9107C96.776 16.1395 96.914 15.547 97.1899 15.1331C97.474 14.7192 97.957 14.5121 98.6388 14.5121C99.3612 14.5121 99.8766 14.7192 100.185 15.1331C100.502 15.547 100.66 16.1395 100.66 16.9107Z" fill="#F0F2F5"/>
<path d="M114.1 17.7752C114.1 18.0916 114.238 18.3392 114.513 18.5178C114.79 18.6883 115.171 18.8303 115.658 18.944C116.121 19.0495 116.595 19.151 117.083 19.2483C117.57 19.3458 118.045 19.4594 118.507 19.5893C118.969 19.711 119.404 19.8572 119.81 20.0275C120.215 20.198 120.573 20.4131 120.881 20.6728C121.19 20.9245 121.433 21.2329 121.611 21.5981C121.79 21.9553 121.88 22.3856 121.88 22.8887C121.88 23.5219 121.75 24.086 121.49 24.5811C121.23 25.0682 120.861 25.4821 120.382 25.8231C119.912 26.164 119.348 26.4277 118.69 26.6144C118.032 26.8011 117.306 26.8985 116.51 26.9066C115.756 26.9066 115.029 26.858 114.33 26.7605C113.633 26.6713 113.012 26.5291 112.468 26.3343C111.933 26.1395 111.502 25.9002 111.177 25.616C110.853 25.3238 110.691 24.983 110.691 24.5934C110.691 24.2524 110.8 23.9886 111.019 23.8019C111.238 23.6153 111.518 23.5219 111.86 23.5219C111.99 23.5219 112.143 23.5462 112.322 23.5949C112.501 23.6436 112.695 23.7045 112.906 23.7776C113.117 23.8506 113.34 23.9317 113.576 24.0211C113.819 24.1022 114.071 24.1753 114.33 24.2402C114.656 24.3296 114.988 24.4026 115.329 24.4594C115.678 24.5081 116.035 24.5325 116.401 24.5325C116.628 24.5325 116.851 24.5121 117.07 24.4716C117.289 24.4229 117.485 24.3539 117.655 24.2646C117.834 24.1672 117.979 24.0454 118.094 23.8993C118.207 23.7533 118.275 23.5747 118.3 23.3636C118.324 23.3149 118.345 23.2662 118.361 23.2175C118.377 23.1688 118.385 23.112 118.385 23.0471C118.385 22.8197 118.28 22.6168 118.069 22.4382C117.866 22.2597 117.577 22.1176 117.204 22.0122C116.579 21.8661 115.982 21.7322 115.414 21.6104C114.847 21.4886 114.319 21.3588 113.832 21.2208C113.353 21.0828 112.914 20.9245 112.516 20.7459C112.127 20.5674 111.794 20.3482 111.518 20.0884C111.251 19.8287 111.039 19.5162 110.885 19.151C110.739 18.7857 110.666 18.3433 110.666 17.8238C110.666 17.2638 110.792 16.7646 111.043 16.3262C111.303 15.8798 111.673 15.5065 112.152 15.2061C112.631 14.9058 113.21 14.6786 113.893 14.5244C114.575 14.362 115.345 14.2808 116.206 14.2808C117.748 14.2808 118.921 14.4675 119.725 14.8408C120.536 15.2061 120.942 15.685 120.942 16.2776C120.942 16.6104 120.832 16.8661 120.613 17.0446C120.394 17.2151 120.13 17.3003 119.822 17.3003C119.659 17.3003 119.489 17.2719 119.31 17.2151C119.14 17.1501 118.933 17.0811 118.69 17.0081C118.446 16.927 118.154 16.858 117.813 16.8011C117.481 16.7362 117.066 16.7037 116.571 16.7037C116.197 16.7037 115.857 16.7199 115.548 16.7524C115.248 16.7848 114.988 16.8417 114.769 16.9228C114.558 17.0041 114.392 17.1136 114.27 17.2516C114.156 17.3896 114.1 17.5641 114.1 17.7752Z" fill="#F0F2F5"/>
<path d="M126.821 22.2434C126.821 22.6249 126.87 22.9577 126.967 23.2419C127.072 23.5259 127.215 23.7654 127.393 23.9602C127.572 24.1469 127.779 24.2889 128.013 24.3863C128.258 24.4756 128.517 24.5203 128.793 24.5203C129.118 24.5203 129.431 24.4716 129.731 24.3741C130.031 24.2768 130.295 24.1266 130.523 23.9236C130.757 23.7207 130.944 23.4651 131.083 23.1566C131.22 22.8482 131.289 22.487 131.289 22.0731V16.9107C131.289 16.1395 131.428 15.547 131.703 15.1331C131.988 14.7192 132.471 14.5121 133.152 14.5121C133.874 14.5121 134.39 14.7192 134.698 15.1331C135.015 15.547 135.173 16.1395 135.173 16.9107V24.362C135.173 25.1331 135.015 25.7256 134.698 26.1395C134.39 26.5536 133.874 26.7605 133.152 26.7605C132.471 26.7605 131.988 26.5536 131.703 26.1395C131.428 25.7256 131.289 25.1331 131.289 24.362C131.119 24.7354 130.896 25.0763 130.619 25.3847C130.351 25.6932 130.035 25.9611 129.67 26.1883C129.312 26.4075 128.915 26.5779 128.477 26.6996C128.047 26.8214 127.579 26.8823 127.076 26.8823C126.533 26.8823 126.009 26.7889 125.505 26.6023C125.011 26.4075 124.572 26.1233 124.191 25.7499C123.81 25.3685 123.505 24.8977 123.278 24.3377C123.05 23.7776 122.937 23.1242 122.937 22.3774V16.9107C122.937 16.1395 123.075 15.547 123.351 15.1331C123.635 14.7192 124.117 14.5121 124.8 14.5121C125.522 14.5121 126.037 14.7192 126.346 15.1331C126.663 15.547 126.821 16.1395 126.821 16.9107V22.2434Z" fill="#F0F2F5"/>
<path d="M136.936 16.9107C136.936 16.1395 137.074 15.547 137.351 15.1331C137.634 14.7192 138.117 14.5121 138.799 14.5121C139.522 14.5121 140.037 14.7192 140.346 15.1331C140.662 15.547 140.821 16.1395 140.821 16.9107C140.983 16.521 141.202 16.168 141.478 15.8514C141.762 15.5268 142.083 15.2508 142.439 15.0235C142.805 14.7963 143.199 14.6217 143.621 14.5C144.043 14.3701 144.481 14.3051 144.936 14.3051C145.358 14.3051 145.771 14.362 146.178 14.4756C146.591 14.5811 146.973 14.7556 147.323 14.9992C147.679 15.2345 147.992 15.5349 148.26 15.9002C148.528 16.2654 148.734 16.7037 148.881 17.2151C149.132 16.6713 149.429 16.2127 149.769 15.8393C150.11 15.4659 150.48 15.1655 150.877 14.9383C151.275 14.711 151.689 14.5487 152.119 14.4512C152.558 14.3539 152.995 14.3051 153.434 14.3051C153.953 14.3051 154.449 14.3985 154.919 14.5851C155.398 14.7718 155.816 15.056 156.173 15.4375C156.539 15.8108 156.827 16.2857 157.038 16.862C157.257 17.4301 157.366 18.0958 157.366 18.8587V24.362C157.366 25.1331 157.208 25.7256 156.891 26.1395C156.584 26.5536 156.067 26.7605 155.345 26.7605C154.664 26.7605 154.181 26.5536 153.897 26.1395C153.621 25.7256 153.483 25.1331 153.483 24.362V19.0292C153.483 18.6639 153.434 18.3392 153.337 18.0552C153.239 17.7629 153.101 17.5195 152.923 17.3247C152.752 17.1218 152.55 16.9715 152.314 16.8742C152.079 16.7686 151.826 16.7158 151.559 16.7158C151.226 16.7158 150.91 16.7686 150.61 16.8742C150.31 16.9796 150.046 17.142 149.818 17.3611C149.599 17.5804 149.42 17.8604 149.282 18.2012C149.152 18.5421 149.088 18.9521 149.088 19.431V24.362C149.088 25.1331 148.929 25.7256 148.613 26.1395C148.304 26.5536 147.789 26.7605 147.066 26.7605C146.384 26.7605 145.901 26.5536 145.618 26.1395C145.341 25.7256 145.203 25.1331 145.203 24.362V19.2605C145.203 18.4245 145.029 17.7914 144.68 17.3611C144.339 16.931 143.872 16.7158 143.28 16.7158C142.931 16.7158 142.606 16.7727 142.305 16.8863C142.005 17 141.745 17.1663 141.526 17.3856C141.307 17.6047 141.132 17.8766 141.003 18.2012C140.881 18.5259 140.821 18.8993 140.821 19.3214V24.362C140.821 25.1331 140.662 25.7256 140.346 26.1395C140.037 26.5536 139.522 26.7605 138.799 26.7605C138.117 26.7605 137.634 26.5536 137.351 26.1395C137.074 25.7256 136.936 25.1331 136.936 24.362V16.9107Z" fill="#F0F2F5"/>
<path d="M17.6624 24.6826C14.2195 24.6826 11.4286 21.8916 11.4286 18.4488C11.4286 15.006 14.2195 12.2151 17.6624 12.2151C21.1052 12.2151 23.8961 15.006 23.8961 18.4488C23.8961 21.8916 21.1052 24.6826 17.6624 24.6826Z" fill="#F0F2F5"/>
<path d="M5.58568 20.5783C3.77919 20.8968 2.54094 22.6419 3.23439 24.3402C4.20254 26.7111 5.74709 28.8235 7.74949 30.4742C10.6128 32.8344 14.2242 34.0956 17.9343 34.0309C21.6445 33.9661 25.2098 32.5796 27.989 30.1208C29.9325 28.4014 31.4024 26.2363 32.2873 23.833C32.921 22.1116 31.6225 20.4108 29.806 20.1555C27.9896 19.9003 26.3586 21.2224 25.4614 22.8224C24.9751 23.6897 24.3437 24.4765 23.5873 25.1457C21.9927 26.5565 19.9471 27.3519 17.8185 27.3891C15.6898 27.4262 13.6177 26.7027 11.9748 25.3484C11.1955 24.706 10.5371 23.9417 10.0208 23.0919C9.06828 21.5243 7.39218 20.2597 5.58568 20.5783Z" fill="#F0F2F5"/>
<path d="M33.1262 20.3964C33.2058 19.7583 33.2467 19.1084 33.2467 18.4488C33.2467 9.84179 26.2694 2.86441 17.6623 2.86441C9.05526 2.86441 2.07788 9.84179 2.07788 18.4488C2.07788 19.2953 2.14536 20.1259 2.27524 20.9358C2.99107 19.9558 4.10828 19.2563 5.31503 19.0435C6.62069 18.8133 7.80731 19.13 8.81063 19.7219C8.75136 19.3061 8.72069 18.881 8.72069 18.4488C8.72069 13.5105 12.724 9.50722 17.6623 9.50722C22.6006 9.50722 26.6039 13.5105 26.6039 18.4488C26.6039 18.7744 26.5865 19.096 26.5526 19.4126C27.5347 18.7858 28.7098 18.4276 30.0229 18.6123C31.236 18.7827 32.3766 19.4425 33.1262 20.3964Z" fill="#1C1C22"/>
<rect x="0.5" y="1.2865" width="159" height="34.3247" stroke="#161513"/>
</svg>
