<svg width="160" height="33" viewBox="0 0 160 33" fill="none" xmlns="http://www.w3.org/2000/svg">
<g clip-path="url(#clip0_228_899)">
<path d="M48.0728 24.7277V8.43974H51.1442V21.9355H58.5901V24.7277H48.0728Z" fill="#F0F2F5"/>
<path d="M65.2214 25.0535C64.0735 25.0535 63.0419 24.8208 62.1267 24.3554C61.2114 23.8901 60.4901 23.2153 59.9627 22.3311C59.4353 21.4469 59.1716 20.3843 59.1716 19.1433V18.771C59.1716 17.53 59.4353 16.4674 59.9627 15.5832C60.4901 14.699 61.2114 14.0242 62.1267 13.5588C63.0419 13.0935 64.0735 12.8608 65.2214 12.8608C66.3693 12.8608 67.4009 13.0935 68.3161 13.5588C69.2313 14.0242 69.9526 14.699 70.4801 15.5832C71.0075 16.4674 71.2712 17.53 71.2712 18.771V19.1433C71.2712 20.3843 71.0075 21.4469 70.4801 22.3311C69.9526 23.2153 69.2313 23.8901 68.3161 24.3554C67.4009 24.8208 66.3693 25.0535 65.2214 25.0535ZM65.2214 22.4474C66.1211 22.4474 66.8657 22.1604 67.4552 21.5865C68.0446 20.997 68.3394 20.1593 68.3394 19.0735V18.8408C68.3394 17.7549 68.0446 16.925 67.4552 16.351C66.8812 15.7616 66.1366 15.4668 65.2214 15.4668C64.3217 15.4668 63.5771 15.7616 62.9876 16.351C62.3981 16.925 62.1034 17.7549 62.1034 18.8408V19.0735C62.1034 20.1593 62.3981 20.997 62.9876 21.5865C63.5771 22.1604 64.3217 22.4474 65.2214 22.4474Z" fill="#F0F2F5"/>
<path d="M72.3721 19.0037V18.6314C72.3721 17.4214 72.6125 16.3898 73.0934 15.5366C73.5743 14.668 74.2103 14.0087 75.0014 13.5588C75.8081 13.0935 76.6845 12.8608 77.6308 12.8608C78.6856 12.8608 79.4845 13.0469 80.0274 13.4192C80.5704 13.7915 80.9659 14.1793 81.2141 14.5826H81.633V13.1865H84.5183V26.7753C84.5183 27.5665 84.2856 28.1947 83.8202 28.6601C83.3548 29.141 82.7344 29.3814 81.9587 29.3814H74.2336V26.8219H80.9349C81.3693 26.8219 81.5864 26.5892 81.5864 26.1238V23.1222H81.1676C81.0125 23.3704 80.7953 23.6263 80.5161 23.8901C80.2369 24.1382 79.8646 24.3477 79.3992 24.5183C78.9338 24.6889 78.3444 24.7743 77.6308 24.7743C76.6845 24.7743 75.8081 24.5493 75.0014 24.0995C74.2103 23.6341 73.5743 22.9748 73.0934 22.1216C72.6125 21.253 72.3721 20.2136 72.3721 19.0037ZM78.4685 22.2147C79.3682 22.2147 80.1205 21.9277 80.7255 21.3538C81.3305 20.7798 81.633 19.9732 81.633 18.9339V18.7012C81.633 17.6463 81.3305 16.8397 80.7255 16.2812C80.136 15.7073 79.3837 15.4203 78.4685 15.4203C77.5687 15.4203 76.8164 15.7073 76.2114 16.2812C75.6064 16.8397 75.3039 17.6463 75.3039 18.7012V18.9339C75.3039 19.9732 75.6064 20.7798 76.2114 21.3538C76.8164 21.9277 77.5687 22.2147 78.4685 22.2147Z" fill="#F0F2F5"/>
<path d="M92.213 25.0535C91.0651 25.0535 90.0335 24.8208 89.1182 24.3554C88.203 23.8901 87.4817 23.2153 86.9543 22.3311C86.4269 21.4469 86.1631 20.3843 86.1631 19.1433V18.771C86.1631 17.53 86.4269 16.4674 86.9543 15.5832C87.4817 14.699 88.203 14.0242 89.1182 13.5588C90.0335 13.0935 91.0651 12.8608 92.213 12.8608C93.3609 12.8608 94.3924 13.0935 95.3077 13.5588C96.2229 14.0242 96.9442 14.699 97.4717 15.5832C97.9991 16.4674 98.2628 17.53 98.2628 18.771V19.1433C98.2628 20.3843 97.9991 21.4469 97.4717 22.3311C96.9442 23.2153 96.2229 23.8901 95.3077 24.3554C94.3924 24.8208 93.3609 25.0535 92.213 25.0535ZM92.213 22.4474C93.1127 22.4474 93.8573 22.1604 94.4467 21.5865C95.0362 20.997 95.3309 20.1593 95.3309 19.0735V18.8408C95.3309 17.7549 95.0362 16.925 94.4467 16.351C93.8728 15.7616 93.1282 15.4668 92.213 15.4668C91.3132 15.4668 90.5687 15.7616 89.9792 16.351C89.3897 16.925 89.095 17.7549 89.095 18.8408V19.0735C89.095 20.1593 89.3897 20.997 89.9792 21.5865C90.5687 22.1604 91.3132 22.4474 92.213 22.4474Z" fill="#F0F2F5"/>
<path d="M99.922 24.7277V13.1865H102.854V24.7277H99.922ZM101.388 11.837C100.86 11.837 100.411 11.6663 100.038 11.325C99.6816 10.9838 99.5032 10.5339 99.5032 9.97546C99.5032 9.41702 99.6816 8.96716 100.038 8.62589C100.411 8.28462 100.86 8.11398 101.388 8.11398C101.931 8.11398 102.381 8.28462 102.737 8.62589C103.094 8.96716 103.273 9.41702 103.273 9.97546C103.273 10.5339 103.094 10.9838 102.737 11.325C102.381 11.6663 101.931 11.837 101.388 11.837Z" fill="#F0F2F5"/>
<path d="M105.056 29.3814V13.1865H107.941V14.5826H108.36C108.623 14.1328 109.034 13.7372 109.593 13.3959C110.151 13.0392 110.95 12.8608 111.99 12.8608C112.92 12.8608 113.781 13.0935 114.572 13.5588C115.364 14.0087 116 14.6757 116.48 15.5599C116.961 16.4441 117.202 17.5145 117.202 18.771V19.1433C117.202 20.3998 116.961 21.4701 116.48 22.3543C116 23.2385 115.364 23.9133 114.572 24.3787C113.781 24.8285 112.92 25.0535 111.99 25.0535C111.292 25.0535 110.702 24.9682 110.221 24.7975C109.756 24.6424 109.376 24.4407 109.081 24.1925C108.802 23.9288 108.577 23.6651 108.406 23.4014H107.987V29.3814H105.056ZM111.105 22.4939C112.021 22.4939 112.773 22.207 113.362 21.633C113.967 21.0435 114.27 20.1904 114.27 19.0735V18.8408C114.27 17.7239 113.967 16.8785 113.362 16.3045C112.757 15.715 112.005 15.4203 111.105 15.4203C110.206 15.4203 109.453 15.715 108.848 16.3045C108.243 16.8785 107.941 17.7239 107.941 18.8408V19.0735C107.941 20.1904 108.243 21.0435 108.848 21.633C109.453 22.207 110.206 22.4939 111.105 22.4939Z" fill="#F0F2F5"/>
<path d="M123.64 25.0535C122.135 25.0535 120.902 24.7277 119.94 24.0762C118.979 23.4247 118.397 22.4939 118.195 21.284L120.894 20.5859C121.003 21.1289 121.181 21.5554 121.43 21.8657C121.693 22.1759 122.011 22.4009 122.384 22.5405C122.771 22.6646 123.19 22.7266 123.64 22.7266C124.323 22.7266 124.827 22.6103 125.152 22.3776C125.478 22.1294 125.641 21.8269 125.641 21.4701C125.641 21.1133 125.486 20.8419 125.176 20.6557C124.865 20.4541 124.369 20.2912 123.687 20.1671L123.035 20.0507C122.228 19.8956 121.492 19.6862 120.825 19.4225C120.157 19.1433 119.622 18.7632 119.219 18.2823C118.816 17.8015 118.614 17.181 118.614 16.4209C118.614 15.2729 119.033 14.3965 119.871 13.7915C120.708 13.171 121.81 12.8608 123.175 12.8608C124.462 12.8608 125.533 13.1477 126.386 13.7217C127.239 14.2957 127.797 15.048 128.061 15.9788L125.339 16.8164C125.215 16.227 124.959 15.8081 124.571 15.5599C124.198 15.3117 123.733 15.1876 123.175 15.1876C122.616 15.1876 122.19 15.2885 121.895 15.4901C121.6 15.6763 121.453 15.94 121.453 16.2812C121.453 16.6535 121.608 16.9328 121.918 17.1189C122.228 17.2895 122.647 17.4214 123.175 17.5145L123.826 17.6308C124.695 17.7859 125.478 17.9954 126.176 18.2591C126.89 18.5073 127.448 18.8718 127.852 19.3527C128.27 19.8181 128.48 20.4541 128.48 21.2607C128.48 22.4707 128.038 23.4092 127.154 24.0762C126.285 24.7277 125.114 25.0535 123.64 25.0535Z" fill="#F0F2F5"/>
<path d="M134.4 24.9139C133.5 24.9139 132.709 24.7122 132.026 24.3089C131.359 23.8901 130.84 23.3161 130.467 22.587C130.095 21.8579 129.909 21.0203 129.909 20.074V13.1865H132.841V19.8413C132.841 20.71 133.05 21.3615 133.469 21.7959C133.903 22.2302 134.516 22.4474 135.307 22.4474C136.207 22.4474 136.905 22.1527 137.401 21.5632C137.898 20.9582 138.146 20.1205 138.146 19.0502V13.1865H141.078V24.7277H138.192V23.2153H137.774C137.588 23.6031 137.238 23.9831 136.727 24.3554C136.215 24.7277 135.439 24.9139 134.4 24.9139Z" fill="#F0F2F5"/>
<path d="M143.293 24.7277V13.1865H146.178V14.443H146.597C146.799 14.0552 147.133 13.7217 147.598 13.4425C148.063 13.1477 148.676 13.0004 149.436 13.0004C150.258 13.0004 150.918 13.1633 151.414 13.489C151.91 13.7993 152.29 14.2103 152.554 14.7223H152.973C153.237 14.2259 153.609 13.8148 154.09 13.489C154.571 13.1633 155.253 13.0004 156.137 13.0004C156.851 13.0004 157.495 13.1555 158.069 13.4658C158.658 13.7605 159.124 14.2181 159.465 14.8386C159.822 15.4436 160 16.2114 160 17.1422V24.7277H157.068V17.3516C157.068 16.7156 156.905 16.2425 156.58 15.9322C156.254 15.6065 155.796 15.4436 155.207 15.4436C154.54 15.4436 154.02 15.6607 153.648 16.0951C153.291 16.5139 153.113 17.1189 153.113 17.91V24.7277H150.181V17.3516C150.181 16.7156 150.018 16.2425 149.692 15.9322C149.366 15.6065 148.909 15.4436 148.319 15.4436C147.652 15.4436 147.132 15.6607 146.76 16.0951C146.403 16.5139 146.225 17.1189 146.225 17.91V24.7277H143.293Z" fill="#F0F2F5"/>
<path d="M38.781 16.0023C38.781 11.8881 37.1466 7.94234 34.2374 5.03315C31.3282 2.12396 27.3825 0.489594 23.2683 0.489594C19.1541 0.489593 15.2084 2.12396 12.2992 5.03315C9.38999 7.94234 7.75562 11.8881 7.75562 16.0023H12.6034C14.2098 16.0023 15.4626 14.6561 16.051 13.1613C16.4373 12.1799 17.0235 11.278 17.7837 10.5177C19.2383 9.06311 21.2112 8.24593 23.2683 8.24593C25.3254 8.24593 27.2983 9.06311 28.7529 10.5177C30.2075 11.9723 31.0246 13.9452 31.0246 16.0023H38.781Z" fill="#1C1C22"/>
<path d="M29.8444 21.9387C30.624 20.0566 31.0253 18.0394 31.0253 16.0023H38.7808C38.7808 24.5697 31.8355 31.5149 23.2681 31.5149C21.9264 31.5149 20.6244 31.3446 19.3828 31.0244C20.0853 30.8434 20.7758 30.6129 21.449 30.3341C23.3311 29.5545 25.0412 28.4119 26.4817 26.9714C27.9222 25.5309 29.0649 23.8208 29.8444 21.9387Z" fill="#F0F2F5"/>
<path d="M0 16.0022C-2.91433e-07 18.0394 0.401247 20.0566 1.18083 21.9387C1.96042 23.8208 3.10307 25.5309 4.54356 26.9714C5.98404 28.4118 7.69415 29.5545 9.57623 30.3341C11.4583 31.1137 13.4755 31.5149 15.5127 31.5149C17.5498 31.5149 19.567 31.1137 21.4491 30.3341C23.3312 29.5545 25.0413 28.4118 26.4818 26.9714C27.9223 25.5309 29.0649 23.8208 29.8445 21.9387C30.6241 20.0566 31.0254 18.0394 31.0254 16.0022H26.1776C24.5712 16.0022 23.3184 17.3484 22.73 18.8431C22.7133 18.8857 22.6961 18.9281 22.6786 18.9705C22.2888 19.9115 21.7175 20.7666 20.9972 21.4868C20.277 22.207 19.4219 22.7784 18.4809 23.1682C17.5399 23.558 16.5313 23.7586 15.5127 23.7586C14.4941 23.7586 13.4855 23.558 12.5445 23.1682C11.6034 22.7784 10.7484 22.207 10.0281 21.4868C9.30787 20.7666 8.73655 19.9115 8.34676 18.9705C7.95696 18.0294 7.75634 17.0208 7.75634 16.0022H0Z" fill="#1C1C22"/>
<path d="M0.00146484 16.0023C0.00146484 7.43483 6.94671 0.489594 15.5141 0.489594C16.8555 0.489594 18.1571 0.659839 19.3986 0.979916C16.7347 1.66616 14.2773 3.05494 12.299 5.03316C9.3898 7.94232 7.75545 11.8881 7.75545 16.0023H0.00146484Z" fill="#F0F2F5"/>
</g>
<rect x="0.5" y="0.989594" width="159" height="31" stroke="#161513"/>
<defs>
<clipPath id="clip0_228_899">
<rect y="0.489594" width="160" height="32" fill="white"/>
</clipPath>
</defs>
</svg>
