<svg width="160" height="46" viewBox="0 0 160 46" fill="none" xmlns="http://www.w3.org/2000/svg">
<path d="M53.4432 29.3006V11.5219H50.5278V29.3006H53.4432Z" fill="#F0F2F5"/>
<path d="M55.2274 23.3744C55.2274 27.0066 57.6648 29.5874 61.3687 29.5874C65.0726 29.5874 67.51 27.0066 67.51 23.3744C67.51 19.7422 65.0726 17.1614 61.3687 17.1614C57.6648 17.1614 55.2274 19.7422 55.2274 23.3744ZM58.1666 23.3744C58.1666 21.2477 59.4331 19.7661 61.3687 19.7661C63.3043 19.7661 64.5708 21.2477 64.5708 23.3744C64.5708 25.4773 63.3043 26.9827 61.3687 26.9827C59.4331 26.9827 58.1666 25.4773 58.1666 23.3744Z" fill="#F0F2F5"/>
<path d="M68.4906 23.1354C68.4906 26.5765 70.7129 29.0617 74.0345 29.0617C75.755 29.0617 77.2366 28.3687 77.9774 27.2217V29.229C77.9774 31.1645 76.7587 32.4549 74.7275 32.4549C72.9114 32.4549 71.6688 31.5708 71.5015 30.0175H68.5623C68.9446 33.1001 71.3103 35.1074 74.5602 35.1074C78.3836 35.1074 80.821 32.5983 80.821 28.7032V17.496H78.2402L78.0729 19.097C77.3561 17.8544 75.8745 17.1136 74.1301 17.1136C70.7607 17.1136 68.4906 19.6705 68.4906 23.1354ZM71.4537 23.0638C71.4537 21.1043 72.6963 19.6705 74.5363 19.6705C76.5436 19.6705 77.8818 21.1282 77.8818 23.0638C77.8818 25.0232 76.5436 26.5287 74.5363 26.5287C72.7202 26.5287 71.4537 25.0471 71.4537 23.0638Z" fill="#F0F2F5"/>
<path d="M82.2637 23.3744C82.2637 27.0066 84.7011 29.5874 88.405 29.5874C92.1089 29.5874 94.5463 27.0066 94.5463 23.3744C94.5463 19.7422 92.1089 17.1614 88.405 17.1614C84.7011 17.1614 82.2637 19.7422 82.2637 23.3744ZM85.2029 23.3744C85.2029 21.2477 86.4694 19.7661 88.405 19.7661C90.3406 19.7661 91.607 21.2477 91.607 23.3744C91.607 25.4773 90.3406 26.9827 88.405 26.9827C86.4694 26.9827 85.2029 25.4773 85.2029 23.3744Z" fill="#F0F2F5"/>
<path d="M97.7014 15.0825C98.6572 15.0825 99.4458 14.3178 99.4458 13.338C99.4458 12.3822 98.6572 11.6175 97.7014 11.6175C96.7216 11.6175 95.9808 12.3822 95.9808 13.338C95.9808 14.3178 96.7216 15.0825 97.7014 15.0825ZM96.2437 29.3006H99.159V17.496H96.2437V29.3006Z" fill="#F0F2F5"/>
<path d="M101.713 34.7728H104.557V27.6757C105.298 28.8944 106.899 29.6113 108.667 29.6113C112.156 29.6113 114.235 26.9349 114.187 23.2549C114.115 19.551 111.989 17.1375 108.643 17.1375C106.851 17.1375 105.226 17.9261 104.509 19.2882L104.342 17.496H101.713V34.7728ZM104.676 23.3983C104.676 21.2716 105.967 19.79 107.998 19.79C110.029 19.79 111.248 21.2954 111.248 23.3983C111.248 25.5012 110.029 26.9827 107.998 26.9827C105.967 26.9827 104.676 25.5251 104.676 23.3983Z" fill="#F0F2F5"/>
<path d="M114.927 25.764C115.022 28.1058 116.838 29.6113 119.658 29.6113C122.43 29.6113 124.318 28.1297 124.318 25.8357C124.318 24.1391 123.266 22.9921 121.331 22.5141L119.252 22.0123C118.368 21.7734 117.77 21.4627 117.77 20.698C117.77 19.8856 118.416 19.3121 119.467 19.3121C120.566 19.3121 121.283 19.9334 121.283 20.9609H123.936C123.84 18.6191 122.096 17.1375 119.539 17.1375C117.006 17.1375 115.118 18.6191 115.118 20.8653C115.118 22.3947 116.002 23.6612 118.272 24.2586L120.327 24.7843C121.092 24.9993 121.57 25.3578 121.57 26.0269C121.57 26.9588 120.686 27.389 119.61 27.389C118.32 27.389 117.579 26.7916 117.579 25.764H114.927Z" fill="#F0F2F5"/>
<path d="M130.366 29.6113C131.967 29.6113 133.496 28.8705 134.189 27.7713L134.38 29.3006H137.104V17.496H134.189V23.6851C134.189 25.8118 133.377 27.0066 131.465 27.0066C129.983 27.0066 128.956 26.2897 128.956 23.8523V17.496H126.041V24.8799C126.041 27.6996 127.57 29.6113 130.366 29.6113Z" fill="#F0F2F5"/>
<path d="M142.592 29.3006V22.5141C142.592 20.6025 143.715 19.6944 145.101 19.6944C146.487 19.6944 147.395 20.5786 147.395 22.2513V29.3006H150.239V22.538C150.239 20.6025 151.338 19.6944 152.724 19.6944C154.134 19.6944 155.042 20.5786 155.042 22.2513V29.3006H157.862V21.5822C157.862 18.858 156.356 17.1375 153.489 17.1375C151.697 17.1375 150.287 17.9978 149.713 19.3838C149.068 17.9978 147.778 17.1375 145.818 17.1375C144.432 17.1375 143.19 17.7827 142.497 18.8341L142.353 17.496H139.677V29.3006H142.592Z" fill="#F0F2F5"/>
<path d="M135.603 39.8503C136.037 39.8503 136.415 39.4845 136.415 39.0503C136.415 38.6045 136.037 38.2388 135.603 38.2388C135.157 38.2388 134.78 38.6045 134.78 39.0503C134.78 39.4845 135.157 39.8503 135.603 39.8503Z" fill="#F0F2F5"/>
<path d="M137.253 36.9017C137.253 38.6503 138.327 39.8274 139.893 39.8274C141.242 39.8274 142.27 39.016 142.487 37.8045H141.459C141.264 38.4788 140.67 38.8788 139.961 38.8788C138.956 38.8788 138.316 38.1017 138.316 36.8903C138.316 35.656 138.99 34.9017 139.984 34.9017C140.67 34.9017 141.264 35.2674 141.447 35.9874H142.476C142.293 34.7645 141.333 33.9417 139.996 33.9417C138.373 33.9417 137.253 35.1417 137.253 36.9017Z" fill="#F0F2F5"/>
<path d="M142.892 36.8903C142.892 38.5703 144.035 39.8274 145.75 39.8274C147.464 39.8274 148.607 38.5703 148.607 36.8903C148.607 35.2103 147.464 33.9531 145.75 33.9531C144.035 33.9531 142.892 35.2103 142.892 36.8903ZM143.978 36.8903C143.978 35.7474 144.675 34.9131 145.75 34.9131C146.824 34.9131 147.521 35.7474 147.521 36.8903C147.521 38.0331 146.824 38.8674 145.75 38.8674C144.675 38.8674 143.978 38.0331 143.978 36.8903Z" fill="#F0F2F5"/>
<path d="M150.598 39.7017V36.3417C150.598 35.4617 151.147 34.8903 151.947 34.8903C152.713 34.8903 153.193 35.3817 153.193 36.2617V39.7017H154.244V36.3531C154.244 35.4617 154.781 34.8903 155.593 34.8903C156.347 34.8903 156.827 35.3817 156.827 36.2617V39.7017H157.867V36.0331C157.867 34.7417 157.113 33.9531 155.833 33.9531C154.964 33.9531 154.29 34.376 154.016 35.0617C153.73 34.376 153.101 33.9531 152.187 33.9531C151.49 33.9531 150.873 34.2731 150.564 34.8217L150.484 34.1131H149.524V39.7017H150.598Z" fill="#F0F2F5"/>
<path fill-rule="evenodd" clip-rule="evenodd" d="M2.07788 23.5191L2.07989 23.3109L2.08402 23.1026L2.0903 22.8943L2.0987 22.686L2.10926 22.4777L2.12194 22.2694L2.13678 22.0612L2.15375 21.853L2.17286 21.6448L2.19412 21.4367L2.21752 21.229L2.24304 21.0212L2.27072 20.8136L2.30054 20.6062L2.33249 20.399L2.36658 20.1922L2.40281 19.9854L2.44115 19.7791L2.48164 19.573L2.52426 19.3671L2.56901 19.1616L2.61587 18.9565L2.66486 18.7519L2.71596 18.5475L2.76918 18.3437L2.82451 18.1401L2.88195 17.9371L2.9415 17.7346L3.00314 17.5326L3.06687 17.3312L3.1327 17.1302L3.20061 16.9298L3.27061 16.73L3.34267 16.5309L3.41681 16.3323L3.49301 16.1344L3.57127 15.9372L3.65158 15.7406L3.73394 15.5449L3.81834 15.3498L3.90477 15.1554L3.99323 14.9618L4.0837 14.7691L4.17619 14.5771L4.27068 14.3859L4.36717 14.1957L4.46564 14.0063L4.5661 13.8177L4.66852 13.6302L4.7729 13.4435L4.87925 13.2577L4.98753 13.073L5.09776 12.8892L5.2099 12.7065L5.32397 12.5247L5.43994 12.3441L5.55781 12.1645L5.67757 11.9859L5.7992 11.8086L5.9227 11.6323L6.04805 11.4571L6.17524 11.2832L6.30427 11.1103L6.43512 10.9388L6.56778 10.7684L6.70223 10.5992L6.83847 10.4313L6.97649 10.2646L7.11626 10.0993L7.25779 9.93527L7.40105 9.77256L7.54603 9.6112L7.69272 9.45118L7.84111 9.29256L7.99118 9.13532L8.14292 8.9795L8.29631 8.8251L8.45135 8.67214L8.60801 8.52065L8.76629 8.37063L8.92616 8.22212L9.08762 8.07511L9.25064 7.92964L9.41522 7.7857L9.58134 7.64331L9.74898 7.50251L9.91812 7.3633L10.0888 7.22569L10.2609 7.0897L10.4345 6.95534L10.6094 6.82264L10.7859 6.6916L10.9638 6.56225L11.143 6.43459L11.3236 6.30864L11.5056 6.18441L11.6889 6.06191L11.8735 5.94117L12.0595 5.82219L12.2468 5.70499L12.4353 5.58958L12.6251 5.47597L12.8161 5.36419L13.0083 5.25424L13.2017 5.14612L13.3963 5.03987L13.5921 4.93547L13.7889 4.83297L13.987 4.73235L14.1861 4.63364L14.3863 4.53684L14.5877 4.44196L14.79 4.34902L14.9934 4.25804L15.1978 4.16901L15.4032 4.08196L15.6095 3.99689L15.8168 3.9138L16.025 3.83271L16.2341 3.75365L16.4441 3.67659L16.655 3.60157L16.8668 3.52859L17.0793 3.45765L17.2926 3.38877L17.5068 3.32196L17.7217 3.25722L17.9374 3.19457L18.1537 3.13401L18.3709 3.07554L18.5886 3.01917L18.807 2.96493L19.026 2.91281L19.2458 2.86281L19.466 2.81495L19.6868 2.76923L19.9082 2.72566L20.1301 2.68424L20.3526 2.64498L20.5755 2.60789L20.7989 2.57297L21.0227 2.54022L21.2469 2.50967L21.4715 2.48129L21.6966 2.45511L21.9219 2.43111L22.1476 2.40933L22.3736 2.38975L22.5999 2.37237L22.8263 2.35721L24.0444 2.28765L24.1139 8.1564L24.1537 8.15594L24.3219 8.1557L24.4901 8.15712L24.6583 8.16018L24.8268 8.16491L24.9951 8.17129L25.1635 8.17931L25.3319 8.189L25.5003 8.20036L25.6686 8.21336L25.837 8.22803L26.0053 8.24436L26.1735 8.26235L26.3415 8.282L26.5095 8.30331L26.6773 8.32628L26.8449 8.3509L27.0124 8.3772L27.1798 8.40515L27.3469 8.43475L27.5138 8.46601L27.6805 8.49892L27.8468 8.5335L28.0131 8.56972L28.1789 8.60759L28.3444 8.6471L28.5097 8.68826L28.6746 8.73108L28.839 8.77553L29.0032 8.82162L29.167 8.86934L29.3303 8.91869L29.4933 8.96967L29.6558 9.02228L29.8178 9.07651L29.9794 9.13236L30.1404 9.18982L30.3011 9.24889L30.4611 9.30957L30.6205 9.37185L30.7795 9.43573L30.9378 9.50121L31.0955 9.56827L31.2527 9.63691L31.4093 9.70713L31.5652 9.77892L31.7204 9.85227L31.875 9.92719L32.0288 10.0037L32.182 10.0817L32.3344 10.1613L32.4861 10.2424L32.6371 10.325L32.7872 10.4092L32.9366 10.4948L33.0852 10.582L33.2329 10.6707L33.3798 10.7609L33.5259 10.8525L33.671 10.9457L33.8153 11.0403L33.9587 11.1364L34.1013 11.2339L34.2428 11.3328L34.3834 11.4333L34.5231 11.5351L34.6617 11.6384L34.7994 11.7431L34.9361 11.8492L35.0718 11.9567L35.2063 12.0655L35.3399 12.1758L35.4724 12.2874L35.6038 12.4004L35.7342 12.5147L35.8634 12.6303L35.9914 12.7473L36.1184 12.8656L36.2442 12.9852L36.3689 13.106L36.4923 13.2282L36.6146 13.3517L36.7356 13.4764L36.8555 13.6024L36.9741 13.7295L37.0915 13.8579L37.2075 13.9876L37.3223 14.1184L37.4359 14.2505L37.5481 14.3837L37.6591 14.518L37.7687 14.6536L37.8769 14.7902L37.9839 14.928L38.0894 15.0669L38.1936 15.2069L38.2964 15.348L38.3978 15.4903L38.4977 15.6335L38.5963 15.7777L38.6935 15.9231L38.7892 16.0695L38.8834 16.2169L38.9761 16.3653L39.0674 16.5146L39.1572 16.6649L39.2455 16.8162L39.3322 16.9684L39.4175 17.1215L39.5013 17.2756L39.5834 17.4305L39.6641 17.5864L39.7431 17.743L39.8206 17.9005L39.8966 18.059L39.971 18.2181L40.0437 18.3781L40.1149 18.539L40.1844 18.7005L40.2522 18.8629L40.3185 19.0259L40.3831 19.1898L40.4461 19.3542L40.5074 19.5195L40.567 19.6854L40.625 19.852L40.6813 20.0192L40.736 20.1871L40.7888 20.3555L40.8401 20.5245L40.8895 20.6942L40.9373 20.8644L40.9833 21.0352L41.0277 21.2065L41.0702 21.3783L41.1111 21.5506L41.1502 21.7234L41.1875 21.8967L41.2231 22.0703L41.2569 22.2445L41.2889 22.4191L41.3192 22.594L41.3477 22.7693L41.3744 22.945L41.3993 23.1211L41.4224 23.2974L41.4437 23.4741L41.4632 23.6511L41.4809 23.8283L41.4968 24.0058L41.5109 24.1835L41.5232 24.3615L41.5336 24.5397L41.5422 24.718L41.5491 24.8966L41.5539 25.0752L41.5572 25.254L41.5584 25.4329L41.5579 25.6119L41.5555 25.791L41.5512 25.9703L41.5452 26.1494L41.5373 26.3286L41.5276 26.5078L41.516 26.687L41.5026 26.8663L41.4873 27.0454L41.4702 27.2245L41.4513 27.4035L41.4304 27.5823L41.4077 27.7611L41.3833 27.9397L41.3569 28.1182L41.3288 28.2965L41.2988 28.4746L41.2669 28.6524L41.2332 28.8301L41.1977 29.0075L41.1603 29.1847L41.121 29.3615L41.08 29.5381L41.0372 29.7144L40.9924 29.8903L40.9458 30.0657L40.8975 30.2409L40.8473 30.4157L40.7954 30.59L40.7416 30.764L40.6859 30.9374L40.6285 31.1105L40.5693 31.283L40.5082 31.455L40.4455 31.6266L40.3808 31.7975L40.3145 31.9679L40.2463 32.1377L40.1764 32.307L40.1047 32.4756L40.0312 32.6437L39.956 32.811L39.879 32.9777L39.8003 33.1438L39.7199 33.3091L39.6376 33.4737L39.5537 33.6376L39.468 33.8008L39.3807 33.9631L39.2916 34.1247L39.2009 34.2855L39.1084 34.4455L39.0143 34.6046L38.9185 34.7629L38.821 34.9204L38.7218 35.0769L38.621 35.2325L38.5187 35.3872L38.4146 35.541L38.3089 35.6938L38.2016 35.8457L38.0927 35.9965L37.9822 36.1465L37.8701 36.2953L37.7564 36.4432L37.6412 36.5899L37.5244 36.7357L37.4061 36.8803L37.2862 37.0238L37.1647 37.1662L37.0418 37.3075L36.9174 37.4477L36.7914 37.5867L36.6641 37.7245L36.5352 37.8612L36.4048 37.9966L36.2731 38.1308L36.1398 38.2638L36.0052 38.3955L35.8692 38.526L35.7317 38.6552L35.5929 38.7831L35.4526 38.9098L35.311 39.035L35.1682 39.1589L35.0239 39.2816L34.8783 39.4029L34.7314 39.5227L34.5832 39.6412L34.4337 39.7583L34.283 39.8739L34.131 39.9881L33.9777 40.101L33.8233 40.2123L33.6676 40.3222L33.5107 40.4306L33.3527 40.5375L33.1935 40.6429L33.0331 40.7468L32.8716 40.8492L32.7091 40.95L32.5453 41.0493L32.3804 41.147L32.2145 41.2432L32.0476 41.3377L31.8795 41.4306L31.7106 41.522L31.5405 41.6117L31.3695 41.6998L31.1975 41.7864L31.0245 41.8711L30.8506 41.9543L30.6757 42.0358L30.4999 42.1156L30.3233 42.1937L30.1457 42.2701L29.9673 42.3448L29.7881 42.4178L29.6081 42.4891L29.4272 42.5586L29.2455 42.6265L29.063 42.6924L28.8798 42.7567L28.6959 42.8192L28.5112 42.88L28.3258 42.9389L28.1397 42.996L27.953 43.0514L27.7657 43.1049L27.5776 43.1566L27.389 43.2066L27.1998 43.2546L27.01 43.3008L26.8197 43.3453L26.6287 43.3878L26.4374 43.4285L26.2455 43.4674L26.053 43.5044L25.8602 43.5395L25.667 43.5726L25.4732 43.604L25.2791 43.6335L25.0845 43.6611L24.8897 43.6867L24.6945 43.7105L24.4989 43.7323L24.303 43.7523L24.1069 43.7704L23.9105 43.7865L23.7138 43.8007L23.5169 43.813L23.3197 43.8233L23.1225 43.8318L22.925 43.8382L22.7273 43.8428L22.5296 43.8454L22.3317 43.8461L22.1338 43.8448L21.9358 43.8416L21.7376 43.8365L21.5395 43.8294L21.3414 43.8203L21.1432 43.8094L20.9452 43.7964L20.7471 43.7816L20.5492 43.7647L20.3512 43.7459L20.1534 43.7253L19.9558 43.7026L19.7583 43.678L19.5609 43.6514L19.3638 43.6228L19.1668 43.5924L18.9701 43.56L18.7737 43.5257L18.5774 43.4893L18.3816 43.4511L18.1859 43.411L17.9907 43.3688L17.7957 43.3247L17.6012 43.2788L17.407 43.2309L17.2133 43.1811L17.0199 43.1293L16.8271 43.0757L16.6347 43.0201L16.4427 42.9627L16.2513 42.9032L16.0604 42.8419L15.8701 42.7788L15.6803 42.7136L15.4911 42.6466L15.3025 42.5778L15.1146 42.5071L14.9272 42.4345L14.7406 42.36L14.5547 42.2836L14.3694 42.2054L14.1849 42.1254L14.0011 42.0435L13.818 41.9598L13.6358 41.8741L13.4544 41.7868L13.2738 41.6975L13.094 41.6065L12.9151 41.5137L12.7371 41.4191L12.5599 41.3228L12.3836 41.2246L12.2084 41.1246L12.034 41.0229L11.8606 40.9194L11.6883 40.8143L11.5168 40.7073L11.3465 40.5987L11.1772 40.4883L11.0089 40.3763L10.8417 40.2624L10.6757 40.147L10.5107 40.0299L10.3469 39.911L10.1842 39.7906L10.0227 39.6684L9.86236 39.5447L9.70323 39.4194L9.54532 39.2923L9.38866 39.1638L9.23324 39.0336L9.07909 38.9019L8.92622 38.7686L8.77467 38.6336L8.62444 38.4972L8.47554 38.3593L8.32799 38.2198L8.18182 38.0789L8.03703 37.9364L7.89363 37.7925L7.75166 37.6471L7.61112 37.5002L7.47202 37.352L7.33439 37.2023L7.19824 37.0511L7.06358 36.8986L6.93043 36.7447L6.79881 36.5894L6.66872 36.4328L6.54019 36.2748L6.41322 36.1155L6.28783 35.9549L6.16404 35.793L6.04186 35.6298L5.9213 35.4653L5.80238 35.2996L5.6851 35.1326L5.5695 34.9645L5.45556 34.7952L5.34333 34.6246L5.23279 34.453L5.12396 34.2801L5.01686 34.106L4.91151 33.931L4.80791 33.7547L4.70608 33.5774L4.60602 33.399L4.50774 33.2196L4.41127 33.039L4.3166 32.8575L4.22377 32.6751L4.13276 32.4916L4.04361 32.3072L3.9563 32.1217L3.87086 31.9354L3.78729 31.7481L3.70561 31.5601L3.62583 31.371L3.54796 31.1812L3.47199 30.9904L3.39795 30.7988L3.32586 30.6065L3.2557 30.4134L3.18749 30.2195L3.12124 30.0249L3.05696 29.8295L2.99466 29.6334L2.93434 29.4366L2.87602 29.2392L2.8197 29.0411L2.76538 28.8424L2.71308 28.6431L2.66281 28.4432L2.61456 28.2427L2.56835 28.0416L2.52419 27.84L2.48207 27.6379L2.44201 27.4353L2.404 27.2323L2.36806 27.0287L2.3342 26.8248L2.30241 26.6204L2.27271 26.4157L2.24509 26.2105L2.21957 26.005L2.19615 25.7991L2.17482 25.593L2.1556 25.3867L2.13848 25.1799L2.12348 24.973L2.1106 24.7658L2.09983 24.5584L2.09119 24.3508L2.08467 24.1431L2.08027 23.9352L2.07802 23.7272L2.07788 23.5191ZM22.211 8.27933L22.1636 4.27912L22.1186 4.28346L21.9121 4.30545L21.706 4.32943L21.5001 4.35544L21.295 4.38339L21.0901 4.41338L20.8855 4.44537L20.6814 4.47932L20.4776 4.5153L20.2748 4.55315L20.0716 4.59312L19.87 4.63488L19.668 4.67876L19.4671 4.72449L19.2663 4.77226L19.0666 4.82186L18.8673 4.87346L18.6685 4.92698L18.4704 4.98243L18.2732 5.03973L18.0763 5.09902L17.8805 5.16014L17.6852 5.2232L17.4909 5.28801L17.2969 5.35487L17.104 5.42352L16.912 5.49398L16.7205 5.56636L16.53 5.64051L16.3406 5.71645L16.1518 5.79434L15.9638 5.874L15.7768 5.95548L15.5908 6.03866L15.4058 6.12366L15.2218 6.21037L15.0384 6.299L14.8564 6.38924L14.6753 6.48124L14.4952 6.57498L14.3162 6.67045L14.1385 6.76755L13.9614 6.86645L13.7855 6.96706L13.6112 7.06911L13.4374 7.17315L13.2652 7.27857L13.0942 7.38564L12.924 7.49446L12.7552 7.60487L12.5876 7.71689L12.4216 7.83023L12.2562 7.94557L12.0924 8.06216L11.9299 8.18035L11.7686 8.30016L11.6087 8.4214L11.4502 8.54409L11.2927 8.6685L11.137 8.7941L10.9824 8.92136L10.8293 9.04999L10.6775 9.18012L10.5272 9.3115L10.3781 9.44454L10.2307 9.57876L10.0846 9.71453L9.9401 9.85144L9.79697 9.98984L9.65542 10.1295L9.51532 10.2705L9.37657 10.413L9.23965 10.5565L9.10426 10.7012L8.97008 10.8475L8.83776 10.9949L8.70706 11.1432L8.57769 11.2932L8.45021 11.444L8.32415 11.5962L8.19977 11.7495L8.07703 11.904L7.95589 12.0595L7.83653 12.2161L7.71873 12.3738L7.60256 12.5327L7.48825 12.6924L7.37547 12.8535L7.26449 13.0153L7.15522 13.1782L7.0476 13.3422L6.94179 13.5071L6.83771 13.6728L6.73539 13.8395L6.63489 14.0071L6.53604 14.1758L6.43897 14.3453L6.34381 14.5155L6.25036 14.6866L6.15869 14.8587L6.06888 15.0314L5.98084 15.2051L5.89469 15.3793L5.81034 15.5544L5.72784 15.7301L5.64715 15.9068L5.56836 16.0839L5.49137 16.2619L5.41625 16.4405L5.34306 16.6196L5.27169 16.7994L5.20219 16.9799L5.13461 17.1609L5.06889 17.3425L5.00512 17.5245L4.94319 17.7073L4.88318 17.8905L4.82509 18.0741L4.76892 18.2581L4.71463 18.4429L4.6623 18.6278L4.61188 18.8133L4.56337 18.999L4.51679 19.1853L4.47216 19.3718L4.42946 19.5587L4.38869 19.7459L4.34986 19.9335L4.31298 20.1212L4.27803 20.3093L4.24503 20.4975L4.21397 20.6861L4.18487 20.8748L4.15771 21.0637L4.13251 21.2527L4.10925 21.4419L4.08794 21.6312L4.06858 21.8207L4.05118 22.0103L4.03572 22.1998L4.02221 22.3895L4.01066 22.5792L4.00105 22.7688L3.99339 22.9585L3.98768 23.1481L3.98392 23.3377L3.98209 23.5272L3.98221 23.7167L3.98427 23.906L3.98827 24.0953L3.9942 24.2844L4.00207 24.4733L4.01188 24.6621L4.0236 24.8506L4.03725 25.0389L4.05282 25.227L4.07032 25.4148L4.08971 25.6025L4.11103 25.7897L4.13425 25.9767L4.15938 26.1633L4.1864 26.3496L4.21533 26.5356L4.24612 26.721L4.27882 26.9061L4.31338 27.0909L4.34982 27.2751L4.38812 27.459L4.42829 27.6423L4.47032 27.8251L4.51419 28.0074L4.55991 28.1893L4.60747 28.3706L4.65684 28.5511L4.70806 28.7313L4.76109 28.9108L4.81593 29.0897L4.87257 29.268L4.93099 29.4456L4.99121 29.6225L5.05322 29.7987L5.11699 29.9743L5.1825 30.1491L5.24982 30.3232L5.31884 30.4965L5.3896 30.6691L5.46211 30.8408L5.53632 31.0117L5.61226 31.1819L5.68989 31.3512L5.76922 31.5197L5.85021 31.6872L5.93289 31.8539L6.01723 32.0197L6.10322 32.1846L6.19085 32.3485L6.28011 32.5116L6.37099 32.6735L6.46348 32.8346L6.55757 32.9947L6.65326 33.1536L6.75047 33.3117L6.84932 33.4686L6.94967 33.6245L7.0516 33.7794L7.15504 33.9332L7.25999 34.0858L7.36644 34.2374L7.47442 34.3878L7.58384 34.5371L7.69477 34.6853L7.80711 34.8322L7.92095 34.9779L8.03615 35.1225L8.1528 35.2658L8.27089 35.4081L8.3903 35.549L8.51113 35.6886L8.6333 35.827L8.75686 35.9641L8.88173 36.0999L9.00789 36.2345L9.13539 36.3677L9.26417 36.4996L9.39427 36.6302L9.52559 36.7593L9.6582 36.8872L9.792 37.0137L9.92703 37.1389L10.0633 37.2626L10.2008 37.3849L10.3393 37.5057L10.4791 37.6252L10.6201 37.7432L10.762 37.8598L10.9053 37.975L11.0495 38.0886L11.1949 38.2008L11.3413 38.3116L11.4888 38.4207L11.6373 38.5284L11.7868 38.6346L11.9372 38.7392L12.0888 38.8424L12.2412 38.9439L12.3948 39.0439L12.549 39.1424L12.7044 39.2392L12.8606 39.3346L13.0176 39.4283L13.1756 39.5205L13.3344 39.611L13.4941 39.6999L13.6545 39.7872L13.8159 39.8729L13.9778 39.957L14.1406 40.0395L14.3043 40.1202L14.4686 40.1993L14.6336 40.2769L14.7993 40.3527L14.9657 40.4268L15.1328 40.4993L15.3005 40.57L15.4689 40.6392L15.6379 40.7067L15.8074 40.7723L15.9776 40.8364L16.1482 40.8988L16.3194 40.9593L16.4913 41.0183L16.6635 41.0755L16.8363 41.131L17.0094 41.1847L17.1832 41.2367L17.3573 41.287L17.5318 41.3356L17.7068 41.3824L17.882 41.4275L18.0577 41.4708L18.2336 41.5124L18.41 41.5523L18.5867 41.5903L18.7635 41.6267L18.9407 41.6613L19.1182 41.6941L19.2959 41.7252L19.4737 41.7545L19.6518 41.782L19.8301 41.8078L20.0086 41.8318L20.1871 41.8541L20.3658 41.8746L20.5446 41.8933L20.7235 41.9103L20.9025 41.9255L21.0815 41.939L21.2605 41.9506L21.4396 41.9606L21.6187 41.9687L21.7977 41.9751L21.9767 41.9798L22.1557 41.9826L22.3345 41.9838L22.5133 41.9831L22.692 41.9807L22.8705 41.9767L23.0489 41.9708L23.2272 41.9632L23.4053 41.9538L23.583 41.9427L23.7607 41.9299L23.9381 41.9154L24.1153 41.8991L24.2921 41.881L24.4687 41.8613L24.6449 41.8399L24.8209 41.8167L24.9965 41.7918L25.1718 41.7652L25.3467 41.7369L25.5212 41.7069L25.6953 41.6752L25.8689 41.6418L26.0421 41.6068L26.2149 41.57L26.3872 41.5317L26.5589 41.4916L26.7302 41.4498L26.9009 41.4065L27.0711 41.3614L27.2407 41.3148L27.4098 41.2665L27.5782 41.2165L27.7461 41.165L27.9133 41.1119L28.08 41.057L28.2459 41.0007L28.411 40.9427L28.5756 40.8831L28.7395 40.822L28.9026 40.7592L29.065 40.695L29.2266 40.6293L29.3874 40.5618L29.5475 40.493L29.7068 40.4225L29.8651 40.3506L30.0228 40.2772L30.1796 40.2021L30.3354 40.1258L30.4906 40.0478L30.6446 39.9684L30.7979 39.8876L30.9503 39.8052L31.1016 39.7214L31.252 39.6362L31.4014 39.5497L31.5501 39.4616L31.6974 39.3722L31.8441 39.2813L31.9895 39.1892L32.1339 39.0956L32.2774 39.0006L32.4198 38.9042L32.5609 38.8067L32.701 38.7077L32.8402 38.6074L32.9781 38.5059L33.1151 38.403L33.2507 38.299L33.3854 38.1934L33.5187 38.0868L33.6509 37.979L33.7821 37.8698L33.912 37.7593L34.0405 37.6479L34.168 37.535L34.2941 37.4212L34.4191 37.306L34.5428 37.1898L34.6651 37.0725L34.7863 36.9538L34.9062 36.8341L35.0248 36.7134L35.1421 36.5916L35.2579 36.4687L35.3724 36.3449L35.4859 36.2196L35.5977 36.0937L35.7083 35.9665L35.8174 35.8385L35.9253 35.7094L36.0316 35.5794L36.1366 35.4484L36.2403 35.3163L36.3424 35.1836L36.4433 35.0496L36.5425 34.915L36.6405 34.7793L36.7371 34.6427L36.8319 34.5055L36.9255 34.3672L37.0174 34.2283L37.108 34.0884L37.1973 33.9476L37.2847 33.8063L37.3708 33.6642L37.4554 33.5209L37.5383 33.3774L37.6199 33.2329L37.7 33.0877L37.7783 32.942L37.8553 32.7953L37.9308 32.648L38.0044 32.5005L38.0767 32.3519L38.1475 32.2027L38.2166 32.0531L38.2841 31.9028L38.3501 31.752L38.4144 31.6007L38.4773 31.4486L38.5385 31.2961L38.598 31.1434L38.656 30.9897L38.7123 30.8359L38.7671 30.6814L38.8203 30.5266L38.8719 30.3713L38.9216 30.216L38.97 30.0595L39.0166 29.9032L39.0616 29.7465L39.105 29.5895L39.1468 29.4319L39.1868 29.2743L39.2253 29.1161L39.2621 28.9577L39.2973 28.7991L39.3309 28.6402L39.3627 28.4813L39.3929 28.3217L39.4215 28.1626L39.4484 28.0028L39.4736 27.8429L39.4972 27.683L39.5192 27.5228L39.5395 27.3628L39.5582 27.202L39.5751 27.0419L39.5905 26.8813L39.6041 26.721L39.6162 26.5602L39.6266 26.4L39.6353 26.2392L39.6423 26.0784L39.6478 25.918L39.6516 25.7579L39.6537 25.5972L39.6542 25.4367L39.653 25.2765L39.6502 25.1164L39.6458 24.9563L39.6396 24.7968L39.632 24.6367L39.6226 24.4774L39.6116 24.318L39.599 24.1591L39.5848 24L39.569 23.8415L39.5515 23.683L39.5324 23.525L39.5118 23.367L39.4895 23.2096L39.4655 23.0521L39.4401 22.8953L39.4131 22.7391L39.3844 22.5827L39.354 22.4269L39.3222 22.2717L39.2888 22.1163L39.254 21.9621L39.2173 21.8078L39.1794 21.6544L39.1396 21.5008L39.0985 21.3484L39.0558 21.1962L39.0115 21.0443L38.9658 20.8934L38.9185 20.7429L38.8696 20.5926L38.8194 20.4434L38.7674 20.2943L38.7142 20.1461L38.6594 19.9983L38.6032 19.8515L38.5453 19.7049L38.4861 19.5591L38.4255 19.4143L38.3635 19.2701L38.2997 19.1261L38.235 18.9834L38.1684 18.8409L38.1006 18.6997L38.0314 18.559L37.9607 18.4189L37.8888 18.2799L37.8153 18.1415L37.7404 18.0037L37.6646 17.8673L37.587 17.7312L37.5082 17.5962L37.4279 17.4619L37.3467 17.3289L37.2636 17.1962L37.1797 17.0648L37.0942 16.934L37.0075 16.8043L36.9198 16.6758L36.8304 16.5478L36.7399 16.421L36.6483 16.295L36.5553 16.1703L36.4612 16.0462L36.3658 15.9234L36.2693 15.8014L36.1715 15.6806L36.0726 15.5608L35.9724 15.4419L35.8711 15.3242L35.7688 15.2075L35.6654 15.092L35.5608 14.9775L35.4548 14.864L35.3483 14.752L35.2401 14.6406L35.1313 14.5308L35.0213 14.4218L34.9103 14.3141L34.7979 14.2073L34.6851 14.1022L34.5708 13.9979L34.4555 13.8948L34.3397 13.7931L34.2227 13.6925L34.1044 13.5929L33.9854 13.4947L33.8656 13.3978L33.7448 13.3021L33.623 13.2075L33.5006 13.1146L33.3769 13.0223L33.2527 12.9318L33.1275 12.8425L33.0014 12.7542L32.8748 12.6675L32.7468 12.5818L32.6188 12.4978L32.4893 12.4148L32.3594 12.3333L32.2285 12.253L32.0971 12.174L31.9649 12.0965L31.8323 12.0204L31.6983 11.9453L31.5644 11.872L31.4294 11.7998L31.2938 11.729L31.1577 11.6597L31.0207 11.5917L30.8833 11.525L30.7453 11.4598L30.6066 11.3959L30.4676 11.3336L30.3279 11.2725L30.1831 11.211L30.047 11.1548L29.9054 11.0978L29.764 11.0427L29.6215 10.9885L29.4789 10.9362L29.3358 10.8851L29.1923 10.8355L29.0482 10.7872L28.904 10.7405L28.7591 10.6952L28.614 10.6514L28.4687 10.6091L28.3229 10.5681L28.1765 10.5286L28.0303 10.4906L27.8838 10.4541L27.7364 10.4189L27.5895 10.3854L27.4418 10.3532L27.2942 10.3225L27.146 10.2933L26.9981 10.2656L26.8497 10.2393L26.7015 10.2145L26.5525 10.1911L26.4039 10.1693L26.255 10.1489L26.1059 10.13L25.9568 10.1126L25.8078 10.0966L25.6586 10.0821L25.5093 10.0691L25.3599 10.0576L25.2103 10.0475L25.0613 10.0389L24.9121 10.0318L24.7623 10.0262L24.6135 10.022L24.4643 10.0193L24.3152 10.018L24.1659 10.0182L24.136 10.0186L24.183 13.9897L24.2677 13.9893L24.3767 13.9899L24.4857 13.9915L24.5948 13.9944L24.704 13.9982L24.8132 14.0032L24.9223 14.0092L25.0316 14.0163L25.1409 14.0245L25.2502 14.0337L25.3595 14.0441L25.4687 14.0555L25.578 14.0681L25.6872 14.0817L25.7963 14.0964L25.9054 14.1123L26.0144 14.1291L26.1233 14.1471L26.2322 14.1662L26.3408 14.1864L26.4494 14.2077L26.5579 14.23L26.6662 14.2534L26.7744 14.2779L26.8823 14.3035L26.9902 14.3302L27.0977 14.358L27.2052 14.3869L27.3124 14.4168L27.4194 14.4479L27.5262 14.48L27.6327 14.5131L27.7389 14.5474L27.8448 14.5827L27.9506 14.6192L28.056 14.6567L28.1611 14.6952L28.2658 14.7348L28.3703 14.7755L28.4745 14.8173L28.5782 14.8601L28.6816 14.9041L28.7847 14.949L28.8873 14.995L28.9896 15.0419L29.0914 15.09L29.1929 15.1392L29.2939 15.1894L29.3945 15.2406L29.4946 15.2928L29.5942 15.346L29.6935 15.4004L29.7922 15.4557L29.8904 15.512L29.9881 15.5693L30.0854 15.6277L30.182 15.687L30.2781 15.7474L30.3737 15.8088L30.4687 15.8711L30.5632 15.9344L30.6571 15.9987L30.7504 16.0641L30.8431 16.1302L30.9351 16.1975L31.0266 16.2657L31.1175 16.3348L31.2075 16.405L31.2971 16.476L31.3859 16.5479L31.4741 16.6208L31.5616 16.6947L31.6485 16.7694L31.7346 16.8451L31.82 16.9216L31.9047 16.9991L31.9885 17.0775L32.0718 17.1567L32.1541 17.2368L32.2358 17.3179L32.3167 17.3998L32.3968 17.4826L32.4762 17.5661L32.5547 17.6506L32.6324 17.7359L32.7093 17.822L32.7853 17.9088L32.8605 17.9966L32.9349 18.0852L33.0085 18.1745L33.0811 18.2647L33.1529 18.3556L33.2238 18.4473L33.2938 18.5398L33.3629 18.6331L33.431 18.727L33.4983 18.8218L33.5646 18.9173L33.6301 19.0135L33.6945 19.1104L33.758 19.208L33.8205 19.3064L33.8821 19.4054L33.9428 19.505L34.0025 19.6054L34.061 19.7065L34.1187 19.8081L34.1753 19.9104L34.2309 20.0134L34.2856 20.117L34.3392 20.2212L34.3916 20.326L34.4432 20.4314L34.4937 20.5374L34.543 20.6439L34.5913 20.7511L34.6386 20.8588L34.6848 20.967L34.7299 21.0758L34.774 21.1851L34.8169 21.2949L34.8587 21.4052L34.8994 21.516L34.939 21.6273L34.9775 21.7391L35.0149 21.8513L35.0511 21.964L35.0862 22.0771L35.1202 22.1906L35.153 22.3046L35.1847 22.419L35.2151 22.5338L35.2445 22.6489L35.2727 22.7644L35.2997 22.8803L35.3256 22.9965L35.3502 23.1131L35.3737 23.23L35.3959 23.3472L35.417 23.4648L35.4369 23.5826L35.4556 23.7006L35.4731 23.8191L35.4894 23.9376L35.5045 24.0565L35.5184 24.1757L35.531 24.295L35.5424 24.4145L35.5527 24.5343L35.5616 24.6542L35.5694 24.7743L35.5759 24.8945L35.5812 25.0149L35.5852 25.1355L35.588 25.2562L35.5896 25.377L35.5899 25.4979L35.5889 25.6189L35.5868 25.7399L35.5833 25.8611L35.5787 25.9823L35.5727 26.1034L35.5656 26.2247L35.5572 26.346L35.5475 26.4673L35.5365 26.5885L35.5243 26.7098L35.5108 26.8309L35.4962 26.9522L35.4802 27.0732L35.4629 27.1943L35.4444 27.3152L35.4247 27.436L35.4037 27.5567L35.3814 27.6774L35.3579 27.7979L35.333 27.9182L35.307 28.0384L35.2798 28.1584L35.2512 28.2782L35.2214 28.3978L35.1903 28.5173L35.158 28.6364L35.1244 28.7554L35.0896 28.874L35.0536 28.9925L35.0163 29.1107L34.9776 29.2286L34.9378 29.3461L34.8968 29.4634L34.8546 29.5804L34.8111 29.697L34.7663 29.8133L34.7204 29.9292L34.6732 30.0447L34.6248 30.16L34.5751 30.2747L34.5243 30.3891L34.4723 30.503L34.419 30.6165L34.3645 30.7295L34.3088 30.8421L34.2519 30.9543L34.1938 31.0659L34.1346 31.177L34.0741 31.2877L34.0125 31.3978L33.9498 31.5074L33.8858 31.6164L33.8206 31.725L33.7544 31.8328L33.6869 31.9402L33.6182 32.0469L33.5485 32.1531L33.4776 32.2586L33.4056 32.3635L33.3324 32.4678L33.2581 32.5714L33.1827 32.6744L33.1062 32.7767L33.0286 32.8783L32.9499 32.9792L32.8701 33.0793L32.7892 33.1789L32.7072 33.2776L32.6242 33.3757L32.54 33.4729L32.4548 33.5694L32.3686 33.6651L32.2813 33.7601L32.193 33.8542L32.1038 33.9476L32.0134 34.0401L31.922 34.1318L31.8296 34.2226L31.7363 34.3127L31.6418 34.4018L31.5466 34.49L31.4502 34.5775L31.3529 34.664L31.2547 34.7496L31.1555 34.8344L31.0554 34.9181L30.9543 35.001L30.8524 35.0829L30.7495 35.1638L30.6457 35.2438L30.541 35.3229L30.4355 35.4009L30.329 35.478L30.2218 35.5541L30.1136 35.6292L30.0046 35.7032L29.8947 35.7763L29.7841 35.8483L29.6726 35.9192L29.5604 35.9892L29.4472 36.0579L29.3335 36.1258L29.2188 36.1925L29.1034 36.258L28.9873 36.3226L28.8704 36.386L28.7528 36.4484L28.6345 36.5096L28.5154 36.5696L28.3957 36.6285L28.2753 36.6864L28.1541 36.743L28.0324 36.7985L27.91 36.8529L27.787 36.906L27.6632 36.958L27.539 37.0088L27.4141 37.0585L27.2886 37.1069L27.1626 37.1541L27.0359 37.2002L26.9087 37.245L26.7809 37.2885L26.6527 37.3309L26.5239 37.3719L26.3947 37.4118L26.2649 37.4505L26.1346 37.4878L26.0039 37.5239L25.8727 37.5587L25.7411 37.5923L25.609 37.6246L25.4765 37.6557L25.3435 37.6854L25.2103 37.7138L25.0766 37.741L24.9426 37.7668L24.8083 37.7915L24.6735 37.8147L24.5385 37.8366L24.4032 37.8572L24.2675 37.8765L24.1315 37.8945L23.9953 37.9112L23.8589 37.9265L23.7221 37.9405L23.5852 37.9532L23.4481 37.9645L23.3107 37.9745L23.1732 37.9831L23.0354 37.9904L22.8975 37.9963L22.7594 38.0009L22.6213 38.0041L22.483 38.006L22.3445 38.0065L22.206 38.0057L22.0675 38.0034L21.9288 37.9999L21.7901 37.9949L21.6514 37.9885L21.5126 37.9809L21.3739 37.9718L21.2351 37.9614L21.0964 37.9496L20.9577 37.9364L20.819 37.9218L20.6804 37.9059L20.5419 37.8887L20.4034 37.87L20.2651 37.8499L20.1269 37.8285L19.9888 37.8058L19.8509 37.7816L19.7131 37.7561L19.5755 37.7292L19.4382 37.7009L19.3009 37.6712L19.164 37.6403L19.0273 37.6079L18.8908 37.5741L18.7546 37.539L18.6186 37.5025L18.4829 37.4647L18.3476 37.4255L18.2125 37.385L18.0778 37.3431L17.9434 37.2998L17.8095 37.2552L17.6758 37.2093L17.5426 37.162L17.4098 37.1134L17.2774 37.0634L17.1454 37.0121L17.0139 36.9596L16.8828 36.9055L16.7522 36.8503L16.6221 36.7937L16.4925 36.7358L16.3634 36.6765L16.2349 36.6161L16.1069 36.5543L15.9794 36.4911L15.8524 36.4267L15.7262 36.361L15.6005 36.294L15.4754 36.2257L15.3509 36.1562L15.2271 36.0854L15.1039 36.0134L14.9814 35.94L14.8595 35.8654L14.7383 35.7897L14.6179 35.7126L14.4982 35.6344L14.3793 35.5548L14.2611 35.474L14.1435 35.3922L14.0269 35.3091L13.9109 35.2247L13.7958 35.1392L13.6814 35.0524L13.568 34.9645L13.4553 34.8755L13.3435 34.7852L13.2326 34.6939L13.1225 34.6013L13.0133 34.5077L12.905 34.4129L12.7976 34.317L12.6911 34.2199L12.5856 34.1218L12.481 34.0226L12.3773 33.9223L12.2747 33.8209L12.173 33.7184L12.0724 33.6148L11.9726 33.5103L11.8739 33.4046L11.7764 33.298L11.6798 33.1903L11.5842 33.0816L11.4897 32.9719L11.3962 32.8613L11.304 32.7496L11.2126 32.6368L11.1226 32.5233L11.0335 32.4087L10.9456 32.2932L10.8589 32.1767L10.7732 32.0594L10.6887 31.9411L10.6055 31.8219L10.5233 31.7018L10.4423 31.5809L10.3626 31.4591L10.2841 31.3364L10.2068 31.2128L10.1307 31.0885L10.0558 30.9633L9.98217 30.8374L9.9098 30.7105L9.83868 30.583L9.76884 30.4546L9.70028 30.3256L9.633 30.1957L9.56701 30.0651L9.50234 29.9338L9.43897 29.8017L9.37692 29.6691L9.31621 29.5356L9.25682 29.4015L9.19879 29.2668L9.1421 29.1313L9.08676 28.9953L9.03281 28.8587L8.98022 28.7213L8.92901 28.5834L8.87918 28.4451L8.83075 28.3059L8.78373 28.1664L8.73811 28.0263L8.6939 27.8856L8.65112 27.7445L8.60976 27.6028L8.56983 27.4606L8.53133 27.318L8.4943 27.1748L8.4587 27.0313L8.42455 26.8873L8.39188 26.7429L8.36065 26.5981L8.33091 26.453L8.30264 26.3074L8.27584 26.1614L8.25054 26.0151L8.22672 25.8685L8.2044 25.7216L8.18356 25.5744L8.16424 25.4269L8.14642 25.279L8.13011 25.131L8.1153 24.9827L8.10202 24.8341L8.09026 24.6854L8.08001 24.5365L8.07128 24.3873L8.06409 24.238L8.05843 24.0886L8.05431 23.939L8.05171 23.7893L8.05065 23.6393L8.05114 23.4894L8.05315 23.3394L8.05673 23.1894L8.06183 23.0392L8.06849 22.889L8.0767 22.7389L8.08644 22.5886L8.09775 22.4385L8.11059 22.2883L8.12499 22.1383L8.14095 21.9881L8.15844 21.8382L8.1775 21.6883L8.1981 21.5385L8.22025 21.3887L8.24396 21.2392L8.26921 21.0898L8.29601 20.9406L8.32436 20.7915L8.35427 20.6427L8.3857 20.4941L8.4187 20.3456L8.45324 20.1975L8.48931 20.0495L8.52692 19.9019L8.56608 19.7546L8.60676 19.6074L8.64899 19.4607L8.69275 19.3144L8.73803 19.1683L8.78484 19.0225L8.83317 18.8773L8.88302 18.7323L8.9344 18.5878L8.98728 18.4437L9.04167 18.3L9.09757 18.1568L9.15497 18.0141L9.21387 17.8719L9.27427 17.7301L9.33615 17.5888L9.39952 17.4482L9.46436 17.308L9.53069 17.1684L9.59848 17.0294L9.66775 16.891L9.73847 16.7531L9.81065 16.616L9.88427 16.4793L9.95935 16.3434L10.0359 16.2082L10.1138 16.0735L10.1932 15.9397L10.2739 15.8065L10.3561 15.674L10.4398 15.5423L10.5247 15.4113L10.6112 15.2811L10.6989 15.1517L10.7881 15.023L10.8786 14.8951L10.9705 14.7681L11.0638 14.6419L11.1583 14.5165L11.2543 14.3921L11.3515 14.2684L11.4501 14.1457L11.55 14.024L11.6512 13.903L11.7537 13.783L11.8575 13.664L11.9626 13.5459L12.0689 13.4288L12.1765 13.3127L12.2854 13.1976L12.3955 13.0834L12.5068 12.9704L12.6193 12.8582L12.733 12.7472L12.8481 12.6373L12.9642 12.5283L13.0815 12.4205L13.2001 12.3137L13.3198 12.2082L13.4405 12.1037L13.5625 12.0003L13.6856 11.898L13.8097 11.797L13.935 11.697L14.0615 11.5983L14.1889 11.5007L14.3175 11.4044L14.4471 11.3093L14.5777 11.2153L14.7094 11.1227L14.8421 11.0312L14.9759 10.9411L15.1105 10.8522L15.2463 10.7645L15.3829 10.6782L15.5206 10.5931L15.6592 10.5094L15.7987 10.427L15.9391 10.3459L16.0805 10.2661L16.2227 10.1877L16.3658 10.1106L16.5098 10.0349L16.6546 9.96058L16.8003 9.88763L16.9468 9.81608L17.0941 9.74593L17.2422 9.67719L17.3911 9.60987L17.5408 9.54396L17.6913 9.47951L17.8425 9.41649L17.9943 9.35492L18.1469 9.29482L18.3002 9.23618L18.4542 9.17902L18.6089 9.12334L18.7642 9.06915L18.9202 9.01645L19.0767 8.96526L19.2338 8.91559L19.3916 8.86742L19.55 8.82078L19.7089 8.77568L19.8683 8.73211L20.0283 8.69008L20.1888 8.6496L20.3499 8.61069L20.5113 8.57333L20.6733 8.53753L20.8357 8.50331L20.9985 8.47066L21.1618 8.43961L21.3255 8.41013L21.4895 8.38225L21.654 8.35596L21.8188 8.33128L21.9839 8.3082L22.1493 8.28673L22.211 8.27933ZM22.2808 14.1693L22.2332 10.1546L22.0976 10.1735L21.9519 10.1954L21.806 10.2187L21.6611 10.2433L21.5159 10.2694L21.3715 10.2969L21.2274 10.3258L21.0838 10.356L20.9405 10.3877L20.7976 10.4208L20.655 10.4552L20.5131 10.491L20.3713 10.5283L20.2351 10.5655L20.0899 10.6067L19.9498 10.648L19.8102 10.6906L19.6714 10.7344L19.5329 10.7797L19.395 10.8264L19.2576 10.8742L19.121 10.9234L18.9849 10.974L18.8494 11.0257L18.7145 11.0789L18.5805 11.1333L18.4466 11.1891L18.3137 11.246L18.1815 11.3042L18.0501 11.3636L17.9191 11.4244L17.7888 11.4864L17.6597 11.5495L17.5308 11.614L17.4032 11.6795L17.2758 11.7466L17.1497 11.8144L17.0238 11.8839L16.8991 11.9541L16.7752 12.0257L16.652 12.0986L16.5297 12.1724L16.4081 12.2477L16.2876 12.3237L16.1678 12.4011L16.049 12.4795L15.9311 12.559L15.814 12.6398L15.6976 12.7216L15.5826 12.8042L15.4682 12.8883L15.3548 12.9733L15.2423 13.0593L15.131 13.1462L15.0203 13.2345L14.9109 13.3235L14.8025 13.4136L14.6948 13.5049L14.5885 13.5968L14.483 13.69L14.3785 13.7842L14.2751 13.8791L14.1728 13.975L14.0713 14.0721L13.9713 14.1697L13.8722 14.2684L13.774 14.3682L13.677 14.4686L13.5812 14.5701L13.4864 14.6724L13.3928 14.7754L13.3002 14.8794L13.2087 14.9844L13.1187 15.0898L13.0296 15.1963L12.9416 15.3037L12.8548 15.4116L12.7693 15.5203L12.6847 15.63L12.6015 15.7402L12.5194 15.8513L12.4386 15.9631L12.3589 16.0756L12.2806 16.1886L12.2034 16.3025L12.1273 16.4171L12.0525 16.5323L11.9791 16.6481L11.9069 16.7645L11.8358 16.8818L11.766 16.9994L11.6975 17.1178L11.6302 17.2367L11.5643 17.356L11.4996 17.4761L11.436 17.5968L11.374 17.7178L11.3131 17.8396L11.2536 17.9617L11.1953 18.0842L11.1383 18.2074L11.0827 18.331L11.0283 18.455L10.9752 18.5795L10.9236 18.7044L10.8732 18.8297L10.8241 18.9555L10.7763 19.0816L10.7299 19.2081L10.6847 19.335L10.6411 19.4621L10.5986 19.5897L10.5576 19.7176L10.5178 19.8458L10.4794 19.9742L10.4423 20.1029L10.4067 20.2319L10.3723 20.3612L10.3393 20.4907L10.3077 20.6204L10.2774 20.7504L10.2485 20.8805L10.2209 21.0109L10.1947 21.1414L10.1698 21.272L10.1463 21.4029L10.1242 21.5338L10.1034 21.6649L10.084 21.7959L10.066 21.9272L10.0493 22.0586L10.034 22.19L10.02 22.3214L10.0074 22.453L9.99611 22.5845L9.98622 22.7159L9.97768 22.8475L9.97049 22.9791L9.96467 23.1105L9.9602 23.2419L9.95707 23.3733L9.9553 23.5046L9.95488 23.6359L9.9558 23.767L9.95808 23.898L9.96169 24.029L9.96664 24.1597L9.97294 24.2904L9.98056 24.4208L9.98952 24.551L9.99981 24.6812L10.0114 24.8111L10.0244 24.9407L10.0386 25.0702L10.0542 25.1994L10.0711 25.3285L10.0893 25.4571L10.1088 25.5856L10.1297 25.7136L10.1518 25.8415L10.1752 25.9691L10.1999 26.0962L10.2259 26.2231L10.2531 26.3496L10.2817 26.4758L10.3115 26.6014L10.3426 26.7268L10.375 26.8518L10.4086 26.9764L10.4434 27.1004L10.4795 27.2242L10.5168 27.3474L10.5555 27.4702L10.5953 27.5926L10.6363 27.7144L10.6786 27.8356L10.722 27.9564L10.7667 28.0767L10.8126 28.1965L10.8597 28.3157L10.9079 28.4344L10.9574 28.5525L11.008 28.67L11.0598 28.7869L11.1127 28.9032L11.1668 29.0189L11.2221 29.134L11.2784 29.2485L11.336 29.3623L11.3946 29.4755L11.4543 29.588L11.5152 29.6998L11.5771 29.811L11.6402 29.9214L11.7043 30.0311L11.7695 30.1401L11.8358 30.2485L11.9031 30.356L11.9715 30.4628L12.041 30.569L12.1113 30.6741L12.1829 30.7788L12.2553 30.8825L12.3289 30.9854L12.4034 31.0876L12.4789 31.1889L12.5554 31.2893L12.6329 31.3891L12.7112 31.4879L12.7906 31.5858L12.8709 31.683L12.9522 31.7793L13.0343 31.8746L13.1175 31.9692L13.2014 32.0627L13.2863 32.1555L13.372 32.2472L13.4587 32.3381L13.5461 32.4281L13.6346 32.5172L13.7237 32.6053L13.8138 32.6924L13.9047 32.7787L13.9962 32.8639L14.0888 32.9482L14.182 33.0314L14.276 33.1137L14.3709 33.1951L14.4665 33.2754L14.5628 33.3548L14.6598 33.433L14.7576 33.5103L14.8561 33.5866L14.9553 33.6619L15.0552 33.7361L15.1557 33.8092L15.2569 33.8813L15.3588 33.9524L15.4614 34.0224L15.5646 34.0914L15.6684 34.1592L15.7728 34.226L15.8779 34.2918L15.9834 34.3564L16.0896 34.42L16.1964 34.4825L16.3036 34.5438L16.4116 34.604L16.5199 34.6631L16.6288 34.7212L16.7382 34.7781L16.8481 34.8338L16.9585 34.8886L17.0695 34.9421L17.1807 34.9946L17.2924 35.0458L17.4047 35.096L17.5173 35.1449L17.6303 35.1927L17.7438 35.2394L17.8576 35.285L17.9717 35.3293L18.0863 35.3725L18.2012 35.4146L18.3164 35.4556L18.432 35.4952L18.5479 35.5339L18.6641 35.5712L18.7805 35.6074L18.8973 35.6425L19.0143 35.6763L19.1315 35.7091L19.249 35.7405L19.3667 35.771L19.4846 35.8001L19.6028 35.828L19.7211 35.8548L19.8396 35.8805L19.9583 35.9049L20.077 35.9281L20.1961 35.9501L20.3151 35.971L20.4343 35.9907L20.5536 36.0091L20.673 36.0265L20.7925 36.0426L20.912 36.0575L21.0315 36.0712L21.1511 36.0838L21.2708 36.0951L21.3905 36.1053L21.5102 36.1143L21.6299 36.1222L21.7495 36.1287L21.869 36.1342L21.9887 36.1385L22.1082 36.1416L22.2276 36.1434L22.347 36.1442L22.4662 36.1438L22.5854 36.1421L22.7045 36.1394L22.8233 36.1354L22.9422 36.1304L23.0607 36.124L23.1792 36.1166L23.2974 36.108L23.4155 36.0983L23.5334 36.0873L23.6511 36.0753L23.7686 36.0621L23.8858 36.0478L24.0028 36.0323L24.1194 36.0158L24.2359 35.998L24.3521 35.9791L24.4678 35.9591L24.5834 35.9379L24.6987 35.9157L24.8136 35.8924L24.9283 35.8679L25.0423 35.8424L25.1562 35.8158L25.2697 35.7879L25.3828 35.7591L25.4955 35.7292L25.6079 35.6982L25.7198 35.666L25.8312 35.6329L25.9422 35.5987L26.0527 35.5634L26.163 35.527L26.2726 35.4896L26.3818 35.4512L26.4905 35.4117L26.5986 35.3712L26.7062 35.3296L26.8134 35.287L26.9201 35.2434L27.0261 35.1988L27.1316 35.1532L27.2366 35.1067L27.3409 35.0591L27.4448 35.0105L27.5481 34.9609L27.6506 34.9105L27.7528 34.8589L27.8541 34.8065L27.955 34.753L28.0549 34.6988L28.1545 34.6435L28.2534 34.5873L28.3514 34.5302L28.449 34.4721L28.5458 34.4132L28.6418 34.3533L28.7374 34.2925L28.832 34.231L28.926 34.1685L29.0194 34.105L29.1119 34.0408L29.2035 33.9759L29.2947 33.9098L29.3849 33.8432L29.4745 33.7755L29.5633 33.7071L29.651 33.638L29.7383 33.5679L29.8248 33.497L29.9101 33.4255L29.9951 33.3529L30.0789 33.2799L30.1619 33.2061L30.2444 33.1312L30.3257 33.056L30.4063 32.9798L30.4861 32.9029L30.5648 32.8254L30.6429 32.7471L30.7201 32.6681L30.7963 32.5884L30.8715 32.5081L30.946 32.4271L31.0197 32.3454L31.0922 32.2632L31.1641 32.1801L31.2349 32.0966L31.3047 32.0124L31.3738 31.9274L31.4417 31.8423L31.5088 31.7561L31.575 31.6696L31.6403 31.5823L31.7045 31.4946L31.7676 31.4065L31.8301 31.3175L31.8914 31.2282L31.9517 31.1384L32.0113 31.0479L32.0695 30.9572L32.127 30.8657L32.1834 30.7738L32.2389 30.6815L32.2933 30.5887L32.3469 30.4953L32.3991 30.4019L32.4507 30.3076L32.5011 30.2132L32.5503 30.1183L32.5988 30.0227L32.646 29.9273L32.6924 29.8309L32.7375 29.7348L32.782 29.6377L32.825 29.5407L32.8673 29.443L32.9084 29.3453L32.9484 29.2472L32.9875 29.1487L33.0255 29.0499L33.0623 28.9511L33.0983 28.8517L33.1331 28.7522L33.1668 28.6524L33.1995 28.5524L33.2312 28.452L33.2619 28.3516L33.2914 28.251L33.3199 28.15L33.3472 28.049L33.3736 27.9477L33.3988 27.8463L33.423 27.7449L33.4462 27.643L33.4682 27.5412L33.4893 27.4392L33.5092 27.3373L33.5281 27.2352L33.5458 27.1326L33.5626 27.0305L33.5782 26.9281L33.5928 26.8255L33.6063 26.7232L33.6188 26.6206L33.6302 26.5178L33.6405 26.4157L33.6498 26.3127L33.658 26.2101L33.6651 26.1078L33.6712 26.0052L33.6762 25.9027L33.6802 25.8004L33.6831 25.6977L33.6848 25.5957L33.6857 25.4933L33.6854 25.3911L33.6841 25.289L33.6817 25.1873L33.6783 25.0854L33.6738 24.9837L33.6683 24.8824L33.6618 24.7807L33.6542 24.6794L33.6457 24.5787L33.636 24.4776L33.6253 24.3771L33.6136 24.2764L33.6009 24.1763L33.5872 24.0762L33.5724 23.9763L33.5566 23.8767L33.5399 23.7775L33.5221 23.6785L33.5033 23.5798L33.4835 23.481L33.4627 23.3829L33.441 23.2852L33.4182 23.1875L33.3945 23.09L33.3698 22.9934L33.3441 22.8965L33.3175 22.8004L33.2898 22.7044L33.2613 22.609L33.2318 22.5137L33.2012 22.4189L33.1698 22.3246L33.1375 22.2307L33.1041 22.1369L33.07 22.0439L33.0348 21.9511L32.9987 21.859L32.9617 21.767L32.9238 21.6755L32.885 21.5848L32.8453 21.4942L32.8047 21.4043L32.7633 21.315L32.7209 21.2258L32.6776 21.1372L32.6336 21.0494L32.5885 20.9618L32.5428 20.8751L32.4962 20.7888L32.4486 20.7027L32.4004 20.6176L32.3511 20.5328L32.3012 20.4488L32.2502 20.3651L32.1988 20.2822L32.1462 20.1997L32.0932 20.118L32.0391 20.0368L31.9844 19.9563L31.9287 19.8762L31.8724 19.797L31.8154 19.7184L31.7575 19.6402L31.699 19.5629L31.6395 19.4861L31.5797 19.4101L31.5188 19.3346L31.4573 19.2599L31.3951 19.1858L31.3322 19.1124L31.2687 19.0399L31.2043 18.9678L31.1395 18.8966L31.0738 18.8259L31.0078 18.7563L30.9406 18.687L30.8732 18.6188L30.8048 18.5509L30.7361 18.4841L30.6668 18.418L30.5967 18.3526L30.526 18.2879L30.4547 18.2241L30.3829 18.161L30.3103 18.0985L30.2377 18.0372L30.164 17.9762L30.0899 17.9162L30.0153 17.8571L29.9401 17.7985L29.8645 17.741L29.7885 17.6843L29.7116 17.6282L29.6342 17.5728L29.5568 17.5187L29.4784 17.465L29.4001 17.4125L29.321 17.3606L29.2414 17.3095L29.1613 17.2592L29.0811 17.2099L29.0001 17.1613L28.9189 17.1137L28.837 17.0668L28.7553 17.021L28.6728 16.9759L28.5899 16.9315L28.5067 16.8881L28.4232 16.8457L28.3393 16.8039L28.2549 16.7631L28.1705 16.7232L28.0858 16.6842L28.0002 16.6459L27.915 16.6087L27.8292 16.5723L27.7429 16.5367L27.6566 16.5021L27.5701 16.4684L27.4833 16.4356L27.3959 16.4035L27.3087 16.3725L27.2211 16.3423L27.1332 16.313L27.0454 16.2846L26.9572 16.2572L26.8689 16.2306L26.78 16.2048L26.6914 16.1801L26.6026 16.1562L26.5135 16.1333L26.4244 16.1111L26.3348 16.0899L26.2455 16.0697L26.1561 16.0504L26.0663 16.0319L25.9764 16.0142L25.8869 15.9977L25.7968 15.9819L25.707 15.967L25.6167 15.953L25.5269 15.94L25.4364 15.9278L25.3466 15.9166L25.2564 15.9062L25.1662 15.8968L25.0761 15.8883L24.9858 15.8806L24.896 15.8738L24.8056 15.868L24.7156 15.863L24.6258 15.859L24.5354 15.8558L24.4458 15.8535L24.356 15.8521L24.2663 15.8516L24.205 15.8518L24.2515 19.7743L24.2792 19.7744L24.3308 19.7751L24.3824 19.7764L24.4341 19.778L24.4859 19.7804L24.5377 19.7832L24.5896 19.7866L24.6415 19.7905L24.6935 19.795L24.7455 19.8L24.7976 19.8055L24.8496 19.8115L24.9018 19.8181L24.9538 19.8253L25.006 19.833L25.0581 19.8413L25.1103 19.8501L25.1623 19.8595L25.2145 19.8695L25.2666 19.8799L25.3186 19.891L25.3707 19.9025L25.4227 19.9147L25.4746 19.9273L25.5265 19.9405L25.5783 19.9544L25.6301 19.9687L25.6818 19.9836L25.7335 19.999L25.785 20.015L25.8364 20.0317L25.8879 20.0488L25.9391 20.0665L25.9903 20.0846L26.0413 20.1034L26.0922 20.1228L26.143 20.1426L26.1937 20.1631L26.2442 20.1841L26.2946 20.2056L26.3449 20.2277L26.395 20.2504L26.4449 20.2735L26.4947 20.2973L26.5443 20.3215L26.5937 20.3464L26.6429 20.3718L26.6919 20.3977L26.7407 20.4242L26.7894 20.4512L26.8378 20.4787L26.886 20.5068L26.9339 20.5353L26.9817 20.5645L27.0292 20.5943L27.0764 20.6245L27.1234 20.6551L27.1701 20.6864L27.2167 20.7183L27.2629 20.7506L27.3088 20.7834L27.3546 20.8168L27.4 20.8507L27.445 20.8851L27.4898 20.92L27.5344 20.9554L27.5786 20.9913L27.6224 21.0277L27.666 21.0647L27.7093 21.1021L27.7522 21.14L27.7948 21.1785L27.8369 21.2174L27.8788 21.2568L27.9203 21.2967L27.9615 21.3371L28.0022 21.3779L28.0427 21.4193L28.0828 21.4611L28.1223 21.5033L28.1616 21.5461L28.2005 21.5894L28.239 21.633L28.2771 21.6772L28.3147 21.7217L28.352 21.7667L28.3887 21.8122L28.4251 21.8581L28.4611 21.9045L28.4966 21.9513L28.5317 21.9985L28.5663 22.0462L28.6004 22.0942L28.6341 22.1427L28.6674 22.1917L28.7001 22.241L28.7324 22.2907L28.7643 22.3408L28.7956 22.3913L28.8265 22.4423L28.8568 22.4936L28.8866 22.5452L28.916 22.5973L28.9448 22.6497L28.9732 22.7025L29.001 22.7557L29.0282 22.8092L29.055 22.863L29.0812 22.9173L29.1069 22.9719L29.132 23.0268L29.1566 23.082L29.1807 23.1376L29.2042 23.1935L29.2272 23.2497L29.2495 23.3063L29.2713 23.3631L29.2926 23.4202L29.3133 23.4777L29.3334 23.5354L29.3529 23.5934L29.3718 23.6517L29.3901 23.7103L29.4079 23.7691L29.425 23.8282L29.4415 23.8877L29.4575 23.9472L29.4729 24.007L29.4875 24.0672L29.5017 24.1276L29.5152 24.188L29.5281 24.2489L29.5403 24.3099L29.5519 24.371L29.5629 24.4325L29.5733 24.4941L29.583 24.5558L29.5921 24.6178L29.6005 24.68L29.6083 24.7423L29.6154 24.8048L29.622 24.8675L29.6278 24.9303L29.633 24.9932L29.6376 25.0564L29.6414 25.1196L29.6446 25.1829L29.6471 25.2464L29.6491 25.31L29.6502 25.3737L29.6509 25.4375L29.6507 25.5013L29.6499 25.5653L29.6485 25.6294L29.6463 25.6935L29.6435 25.7577L29.64 25.8219L29.6358 25.8862L29.6309 25.9505L29.6253 26.0149L29.6191 26.0793L29.6122 26.1438L29.6045 26.2082L29.5962 26.2727L29.5873 26.3372L29.5776 26.4016L29.5672 26.466L29.5561 26.5305L29.5444 26.5949L29.5319 26.6593L29.5188 26.7236L29.5049 26.7879L29.4903 26.8521L29.4752 26.9163L29.4592 26.9804L29.4426 27.0445L29.4253 27.1084L29.4072 27.1723L29.3885 27.236L29.3691 27.2997L29.3491 27.3633L29.3283 27.4267L29.3068 27.49L29.2846 27.5532L29.2617 27.6162L29.2381 27.6791L29.2139 27.7418L29.1889 27.8044L29.1633 27.8668L29.137 27.929L29.11 27.991L29.0822 28.053L29.0539 28.1146L29.0248 28.176L28.995 28.2373L28.9646 28.2983L28.9335 28.359L28.9017 28.4196L28.8692 28.4799L28.836 28.5399L28.8022 28.5998L28.7677 28.6593L28.7325 28.7186L28.6968 28.7775L28.6602 28.8363L28.6231 28.8947L28.5853 28.9528L28.5468 29.0107L28.5077 29.0681L28.4679 29.1254L28.4275 29.1822L28.3863 29.2387L28.3447 29.2949L28.3023 29.3507L28.2593 29.4062L28.2156 29.4614L28.1714 29.5161L28.1265 29.5705L28.081 29.6245L28.0349 29.6781L27.988 29.7313L27.9406 29.7841L27.8926 29.8365L27.844 29.8885L27.7949 29.94L27.745 29.9912L27.6946 30.0419L27.6436 30.0921L27.5921 30.142L27.5398 30.1913L27.487 30.2402L27.4337 30.2886L27.3798 30.3366L27.3254 30.3841L27.2703 30.431L27.2147 30.4775L27.1585 30.5235L27.1018 30.569L27.0445 30.6139L26.9868 30.6584L26.9285 30.7023L26.8696 30.7457L26.8102 30.7885L26.7503 30.8308L26.6899 30.8727L26.6289 30.9138L26.5675 30.9546L26.5056 30.9946L26.4432 31.0341L26.3802 31.0731L26.3168 31.1114L26.2529 31.1492L26.1886 31.1864L26.1238 31.2229L26.0585 31.2589L25.9928 31.2943L25.9266 31.329L25.86 31.3632L25.7929 31.3966L25.7255 31.4296L25.6575 31.4618L25.5892 31.4934L25.5205 31.5243L25.4513 31.5546L25.3818 31.5843L25.3119 31.6133L25.2415 31.6415L25.1708 31.6692L25.0997 31.6962L25.0282 31.7225L24.9564 31.7481L24.8843 31.7731L24.8118 31.7973L24.739 31.8208L24.6658 31.8436L24.5924 31.8657L24.5185 31.8872L24.4444 31.9079L24.37 31.928L24.2953 31.9472L24.2203 31.9658L24.145 31.9836L24.0695 32.0007L23.9936 32.017L23.9176 32.0327L23.8412 32.0476L23.7646 32.0617L23.6879 32.0751L23.6108 32.0878L23.5336 32.0996L23.4561 32.1107L23.3785 32.1211L23.3005 32.1308L23.2225 32.1396L23.1443 32.1476L23.0658 32.155L22.9873 32.1614L22.9085 32.1672L22.8296 32.1721L22.7506 32.1764L22.6714 32.1798L22.5922 32.1824L22.5127 32.1842L22.4332 32.1852L22.3536 32.1855L22.2739 32.185L22.1941 32.1837L22.1142 32.1815L22.0343 32.1786L21.9543 32.1748L21.8742 32.1703L21.7941 32.165L21.714 32.1588L21.6339 32.1519L21.5537 32.1441L21.4736 32.1356L21.3934 32.1261L21.3133 32.1159L21.2331 32.1049L21.153 32.0932L21.0729 32.0805L20.9929 32.0671L20.9129 32.0529L20.833 32.0378L20.7531 32.022L20.6733 32.0053L20.5936 31.9878L20.514 31.9694L20.4346 31.9503L20.3551 31.9305L20.2758 31.9097L20.1967 31.8881L20.1177 31.8657L20.0389 31.8426L19.9602 31.8186L19.8816 31.7937L19.8033 31.7682L19.725 31.7418L19.6471 31.7146L19.5693 31.6865L19.4917 31.6576L19.4144 31.628L19.3372 31.5976L19.2603 31.5663L19.1836 31.5343L19.1073 31.5015L19.0311 31.4678L18.9552 31.4334L18.8796 31.3982L18.8042 31.3621L18.7292 31.3254L18.6545 31.2878L18.5801 31.2494L18.506 31.2103L18.4323 31.1704L18.3588 31.1296L18.2858 31.0882L18.2129 31.0459L18.1406 31.0029L18.0686 30.9591L17.9971 30.9146L17.9258 30.8693L17.8549 30.8232L17.7845 30.7764L17.7145 30.7288L17.6449 30.6805L17.5758 30.6314L17.507 30.5817L17.4387 30.5311L17.3709 30.4799L17.3035 30.4279L17.2366 30.3751L17.1702 30.3217L17.1043 30.2676L17.0388 30.2127L16.9739 30.1572L16.9095 30.1009L16.8456 30.0439L16.7822 29.9863L16.7193 29.9279L16.657 29.8688L16.5953 29.8091L16.534 29.7487L16.4734 29.6877L16.4134 29.6259L16.3538 29.5635L16.2949 29.5005L16.2366 29.4367L16.179 29.3724L16.1218 29.3075L16.0654 29.2418L16.0095 29.1757L15.9542 29.1087L15.8997 29.0412L15.8458 28.9732L15.7925 28.9045L15.7398 28.8352L15.6879 28.7653L15.6366 28.6948L15.586 28.6238L15.5361 28.5521L15.4868 28.4799L15.4383 28.4071L15.3905 28.3338L15.3434 28.2599L15.297 28.1855L15.2514 28.1106L15.2064 28.0351L15.1622 27.9591L15.1188 27.8826L15.0761 27.8056L15.0341 27.7281L14.993 27.65L14.9526 27.5715L14.9129 27.4925L14.874 27.4132L14.836 27.3332L14.7987 27.2528L14.7622 27.172L14.7266 27.0908L14.6917 27.009L14.6576 26.9269L14.6244 26.8443L14.592 26.7614L14.5604 26.678L14.5297 26.5943L14.4998 26.5101L14.4707 26.4256L14.4425 26.3407L14.4151 26.2554L14.3886 26.1698L14.363 26.0839L14.3381 25.9976L14.3142 25.9109L14.2913 25.824L14.269 25.7367L14.2479 25.6491L14.2275 25.5613L14.208 25.4731L14.1894 25.3847L14.1717 25.296L14.1549 25.207L14.139 25.1178L14.124 25.0283L14.11 24.9387L14.0968 24.8487L14.0845 24.7586L14.0733 24.6682L14.0629 24.5777L14.0535 24.4869L14.0449 24.396L14.0374 24.3049L14.0307 24.2137L14.025 24.1223L14.0202 24.0307L14.0164 23.9391L14.0135 23.8472L14.0116 23.7553L14.0107 23.6633L14.0106 23.5712L14.0115 23.4789L14.0135 23.3867L14.0163 23.2943L14.0201 23.2018L14.0249 23.1094L14.0306 23.0169L14.0373 22.9243L14.0449 22.8318L14.0536 22.7392L14.0631 22.6466L14.0737 22.554L14.0853 22.4615L14.0977 22.369L14.1112 22.2765L14.1257 22.1841L14.1412 22.0917L14.1575 21.9993L14.1748 21.9071L14.1932 21.8149L14.2125 21.7229L14.2328 21.6309L14.254 21.5391L14.2762 21.4474L14.2994 21.3558L14.3236 21.2644L14.3487 21.1732L14.3748 21.082L14.4018 20.991L14.4299 20.9003L14.4589 20.8097L14.4888 20.7193L14.5198 20.6293L14.5516 20.5393L14.5845 20.4496L14.6182 20.3602L14.653 20.271L14.6888 20.1821L14.7255 20.0934L14.7631 20.0051L14.8016 19.917L14.8412 19.8292L14.8816 19.7417L14.9231 19.6545L14.9654 19.5678L15.0087 19.4812L15.0528 19.3951L15.098 19.3094L15.1441 19.224L15.1911 19.139L15.239 19.0543L15.2879 18.97L15.3376 18.8863L15.3883 18.8029L15.4399 18.7199L15.4924 18.6374L15.5458 18.5552L15.6001 18.4735L15.6552 18.3924L15.7113 18.3117L15.7683 18.2314L15.8261 18.1518L15.8848 18.0725L15.9444 17.9937L16.0048 17.9156L16.0661 17.8379L16.1284 17.7608L16.1914 17.6841L16.2552 17.6082L16.32 17.5326L16.3855 17.4577L16.4519 17.3834L16.5191 17.3097L16.5872 17.2366L16.6561 17.1641L16.7258 17.0922L16.7962 17.021L16.8675 16.9503L16.9396 16.8803L17.0124 16.811L17.0861 16.7423L17.1605 16.6743L17.2356 16.6069L17.3115 16.5402L17.3883 16.4744L17.4657 16.409L17.544 16.3445L17.6228 16.2807L17.7025 16.2175L17.7828 16.1552L17.864 16.0936L17.9457 16.0327L18.0282 15.9725L18.1114 15.9132L18.1953 15.8546L18.2799 15.7967L18.3652 15.7397L18.451 15.6835L18.5375 15.6281L18.6248 15.5735L18.7126 15.5197L18.8011 15.4667L18.8901 15.4145L18.9799 15.3632L19.0702 15.3127L19.1611 15.263L19.2526 15.2143L19.3447 15.1664L19.4374 15.1193L19.5306 15.0732L19.6244 15.0279L19.7187 14.9835L19.8136 14.94L19.9089 14.8974L20.0048 14.8558L20.1014 14.8149L20.1983 14.775L20.2956 14.7362L20.3936 14.6981L20.492 14.6611L20.5908 14.6249L20.6901 14.5898L20.79 14.5555L20.8901 14.5223L20.9908 14.4899L21.0918 14.4586L21.1933 14.4282L21.2951 14.3988L21.3974 14.3705L21.5 14.343L21.603 14.3165L21.7064 14.2911L21.81 14.2667L21.9141 14.2433L22.0185 14.2208L22.1232 14.1994L22.2281 14.1791L22.2808 14.1693ZM23.5711 21.7125L22.3736 21.9986L22.3032 16.0667L22.2468 16.0793L22.1618 16.0994L22.0769 16.1203L21.9927 16.1419L21.9085 16.1643L21.8249 16.1876L21.7413 16.2118L21.6585 16.2365L21.5754 16.2623L21.4935 16.2886L21.4113 16.3159L21.3296 16.344L21.2484 16.3727L21.1674 16.4023L21.0872 16.4325L21.0071 16.4637L20.9274 16.4954L20.8483 16.528L20.7692 16.5614L20.6912 16.5953L20.6132 16.6302L20.5359 16.6656L20.4587 16.702L20.3822 16.7389L20.3059 16.7766L20.2305 16.8149L20.1554 16.854L20.0808 16.8938L20.0067 16.9342L19.9331 16.9753L19.8599 17.0172L19.7876 17.0596L19.7152 17.1029L19.6437 17.1467L19.5728 17.1911L19.5024 17.2362L19.4324 17.282L19.3631 17.3285L19.2943 17.3755L19.226 17.4231L19.1585 17.4713L19.0913 17.5203L19.0248 17.5698L18.9589 17.6199L18.8936 17.6706L18.8289 17.7217L18.7649 17.7736L18.7014 17.826L18.6384 17.8791L18.5763 17.9325L18.5147 17.9867L18.4537 18.0412L18.3933 18.0964L18.3336 18.1522L18.2746 18.2084L18.2162 18.265L18.1583 18.3224L18.1013 18.38L18.0448 18.4383L17.9892 18.4969L17.9339 18.5563L17.8795 18.6159L17.8258 18.676L17.7727 18.7367L17.7205 18.7976L17.6687 18.8592L17.6179 18.9209L17.5675 18.9834L17.5181 19.0461L17.4692 19.1094L17.421 19.1731L17.3737 19.237L17.3269 19.3013L17.281 19.366L17.2357 19.4312L17.1911 19.4967L17.1474 19.5627L17.1044 19.6287L17.0621 19.6952L17.0204 19.7623L16.9797 19.8294L16.9395 19.8971L16.9002 19.9647L16.8616 20.033L16.8236 20.1015L16.7867 20.1701L16.7503 20.2391L16.7148 20.3084L16.6799 20.3781L16.6459 20.4478L16.6125 20.518L16.58 20.5882L16.5483 20.6588L16.5173 20.7295L16.487 20.8006L16.4576 20.8717L16.4289 20.9431L16.4011 21.0147L16.3739 21.0865L16.3476 21.1583L16.322 21.2305L16.2972 21.3028L16.2732 21.3752L16.2499 21.4478L16.2275 21.5206L16.2058 21.5934L16.185 21.6663L16.1648 21.7394L16.1454 21.8126L16.1269 21.8859L16.1092 21.9592L16.0921 22.0327L16.0759 22.1063L16.0605 22.1799L16.0459 22.2535L16.032 22.3271L16.0189 22.401L16.0066 22.4747L15.9951 22.5484L15.9843 22.6224L15.9743 22.6961L15.9652 22.77L15.9567 22.8437L15.949 22.9176L15.9422 22.9916L15.9361 23.0652L15.9308 23.139L15.9262 23.2127L15.9223 23.2863L15.9193 23.3599L15.917 23.4333L15.9156 23.5069L15.9148 23.5802L15.9149 23.6535L15.9156 23.7266L15.9172 23.7998L15.9194 23.8727L15.9225 23.9455L15.9262 24.0183L15.9308 24.0908L15.9361 24.1632L15.9421 24.2355L15.9488 24.3076L15.9563 24.3797L15.9645 24.4513L15.9735 24.5231L15.9831 24.5944L15.9936 24.6657L16.0047 24.7367L16.0166 24.8076L16.0292 24.8783L16.0425 24.9486L16.0565 25.0189L16.0711 25.0887L16.0866 25.1585L16.1027 25.2279L16.1195 25.2972L16.137 25.366L16.1553 25.4349L16.1741 25.5031L16.1936 25.5714L16.2139 25.6391L16.2348 25.7068L16.2564 25.774L16.2786 25.8408L16.3016 25.9076L16.3252 25.9739L16.3494 26.0398L16.3742 26.1055L16.3998 26.1709L16.4259 26.2358L16.4527 26.3004L16.4801 26.3646L16.5082 26.4286L16.5369 26.4922L16.5662 26.5554L16.5961 26.6181L16.6266 26.6805L16.6578 26.7427L16.6894 26.8042L16.7217 26.8654L16.7547 26.9263L16.7882 26.9867L16.8223 27.0467L16.8569 27.1064L16.8921 27.1654L16.928 27.2242L16.9642 27.2825L17.0011 27.3402L17.0386 27.3977L17.0765 27.4546L17.1151 27.5112L17.154 27.567L17.1936 27.6227L17.2337 27.6778L17.2742 27.7323L17.3155 27.7866L17.357 27.8402L17.3991 27.8933L17.4417 27.9459L17.4848 27.9982L17.5283 28.0497L17.5724 28.101L17.6169 28.1517L17.6618 28.2017L17.7074 28.2514L17.7531 28.3003L17.7994 28.3491L17.8462 28.3971L17.8933 28.4445L17.9409 28.4915L17.9889 28.5379L18.0374 28.5839L18.0862 28.6292L18.1354 28.6739L18.1851 28.7182L18.2351 28.7618L18.2855 28.805L18.3362 28.8476L18.3873 28.8895L18.4388 28.931L18.4908 28.9718L18.5428 29.012L18.5954 29.0517L18.6483 29.0909L18.7015 29.1294L18.755 29.1673L18.8088 29.2047L18.8629 29.2415L18.9174 29.2777L18.972 29.3132L19.027 29.3482L19.0825 29.3827L19.1379 29.4164L19.1937 29.4496L19.2499 29.4823L19.3061 29.5141L19.3627 29.5455L19.4197 29.5764L19.4767 29.6065L19.534 29.636L19.5914 29.6649L19.6493 29.6933L19.7071 29.7209L19.7654 29.748L19.8236 29.7745L19.882 29.8003L19.9408 29.8255L19.9998 29.8501L20.0587 29.8741L20.1179 29.8975L20.1772 29.9202L20.2368 29.9423L20.2963 29.9638L20.3562 29.9847L20.416 30.0048L20.4759 30.0245L20.5361 30.0435L20.5963 30.0619L20.6566 30.0796L20.7169 30.0967L20.7775 30.1131L20.8381 30.129L20.8987 30.1442L20.9593 30.1588L21.02 30.1727L21.0808 30.186L21.1417 30.1988L21.2026 30.2109L21.2634 30.2224L21.3243 30.2332L21.3853 30.2435L21.4463 30.2531L21.5073 30.2621L21.5681 30.2704L21.6291 30.2781L21.6899 30.2853L21.7509 30.2918L21.8118 30.2976L21.8727 30.3029L21.9335 30.3076L21.9941 30.3117L22.0549 30.3151L22.1155 30.3179L22.176 30.3202L22.2366 30.3217L22.2969 30.3228L22.3572 30.3232L22.4174 30.323L22.4775 30.3223L22.5376 30.3208L22.5976 30.3188L22.6572 30.3163L22.7168 30.3131L22.7766 30.3094L22.8358 30.305L22.8951 30.3001L22.9541 30.2946L23.0132 30.2886L23.072 30.2818L23.1305 30.2747L23.1891 30.2669L23.2472 30.2585L23.3052 30.2495L23.3633 30.2401L23.4209 30.23L23.4784 30.2194L23.5358 30.2082L23.5929 30.1964L23.6496 30.1842L23.7061 30.1714L23.7627 30.158L23.8189 30.1441L23.8748 30.1297L23.9305 30.1148L23.9858 30.0993L24.0412 30.0832L24.0961 30.0667L24.1505 30.0496L24.2052 30.032L24.2592 30.0139L24.313 29.9954L24.3665 29.9763L24.4197 29.9566L24.4728 29.9365L24.5255 29.9159L24.5777 29.8948L24.6298 29.8733L24.6815 29.8512L24.733 29.8286L24.784 29.8057L24.8349 29.7822L24.8853 29.7583L24.9352 29.7339L24.9851 29.7091L25.0343 29.6838L25.0835 29.658L25.1322 29.6318L25.1805 29.6052L25.2284 29.5781L25.2761 29.5506L25.3234 29.5227L25.3701 29.4943L25.4166 29.4655L25.4627 29.4363L25.5084 29.4068L25.5538 29.3768L25.5987 29.3465L25.6433 29.3156L25.6874 29.2844L25.7311 29.253L25.7744 29.221L25.8173 29.1886L25.8598 29.1559L25.9019 29.1229L25.9436 29.0894L25.9848 29.0558L26.0256 29.0217L26.0659 28.9872L26.1058 28.9524L26.1454 28.9173L26.1845 28.8817L26.2231 28.846L26.2612 28.8099L26.299 28.7735L26.3363 28.7367L26.3732 28.6997L26.4095 28.6624L26.4454 28.6247L26.4808 28.5869L26.5159 28.5485L26.5503 28.5102L26.5845 28.4713L26.618 28.4323L26.6511 28.3931L26.6839 28.3534L26.7159 28.3137L26.7477 28.2736L26.779 28.2334L26.8096 28.1929L26.84 28.1521L26.8697 28.1112L26.899 28.0699L26.9279 28.0284L26.9561 27.987L26.984 27.945L27.0114 27.903L27.0381 27.8608L27.0645 27.8185L27.0903 27.7759L27.1157 27.7331L27.1406 27.6901L27.1649 27.647L27.1888 27.6038L27.2122 27.5603L27.2351 27.5168L27.2574 27.4731L27.2793 27.4293L27.3007 27.3853L27.3216 27.3411L27.342 27.2969L27.3618 27.2525L27.3812 27.2082L27.4001 27.1635L27.4183 27.1189L27.4363 27.0739L27.4536 27.0294L27.4705 26.9841L27.4867 26.9395L27.5026 26.8942L27.518 26.8489L27.5327 26.8038L27.5471 26.7585L27.5609 26.7133L27.5743 26.6676L27.587 26.6225L27.5994 26.5767L27.6112 26.5316L27.6225 26.4859L27.6333 26.4402L27.6436 26.3948L27.6534 26.3495L27.6627 26.3035L27.6715 26.2581L27.6799 26.2123L27.6876 26.167L27.695 26.1215L27.7019 26.0759L27.7082 26.0303L27.714 25.9848L27.7194 25.9395L27.7243 25.8943L27.7287 25.8487L27.7326 25.8035L27.7361 25.7582L27.739 25.713L27.7415 25.6679L27.7434 25.6229L27.7449 25.5781L27.7459 25.5331L27.7466 25.4881L27.7467 25.4435L27.7462 25.3989L27.7454 25.3545L27.7441 25.3101L27.7423 25.2655L27.74 25.2218L27.7373 25.1771L27.7342 25.1336L27.7306 25.0898L27.7265 25.0458L27.7219 25.0023L27.7171 24.9591L27.7115 24.9154L27.7057 24.8726L27.6994 24.8295L27.6927 24.787L27.6855 24.7441L27.6779 24.7015L27.6699 24.6593L27.6615 24.6172L27.6525 24.575L27.6432 24.5334L27.6335 24.4917L27.6233 24.4504L27.6128 24.4093L27.6017 24.368L27.5905 24.3274L27.5787 24.2865L27.5665 24.2463L27.5539 24.2061L27.5409 24.1662L27.5275 24.1264L27.5137 24.0867L27.4997 24.0477L27.4852 24.0087L27.4702 23.9696L27.4549 23.9312L27.4392 23.8925L27.4233 23.8548L27.4068 23.8167L27.3902 23.7792L27.373 23.742L27.3556 23.7048L27.3378 23.668L27.3196 23.6314L27.3012 23.5951L27.2823 23.5591L27.2631 23.5234L27.2437 23.488L27.2239 23.4527L27.2036 23.4178L27.1832 23.3832L27.1625 23.349L27.1413 23.3148L27.1199 23.2812L27.0981 23.2478L27.0761 23.2146L27.0538 23.1817L27.0312 23.1493L27.0083 23.117L26.9851 23.0851L26.9616 23.0535L26.9378 23.0222L26.9139 22.9912L26.8895 22.9605L26.865 22.9303L26.8402 22.9002L26.8151 22.8705L26.7898 22.8411L26.7643 22.8121L26.7385 22.7834L26.7124 22.7551L26.6861 22.7269L26.6596 22.6993L26.6328 22.672L26.6058 22.6448L26.5787 22.6182L26.5512 22.592L26.5237 22.566L26.4956 22.5402L26.4678 22.515L26.4395 22.4899L26.4112 22.4654L26.3825 22.4411L26.3537 22.4173L26.3247 22.3937L26.2956 22.3706L26.2663 22.3477L26.2368 22.3252L26.2072 22.3031L26.1774 22.2813L26.1474 22.2599L26.1174 22.2389L26.0871 22.2181L26.0568 22.1979L26.0262 22.1779L25.9955 22.1583L25.9648 22.1391L25.9338 22.1202L25.9028 22.1017L25.8718 22.0836L25.8405 22.0658L25.809 22.0484L25.7776 22.0313L25.7461 22.0146L25.7145 21.9983L25.6829 21.9824L25.6509 21.9667L25.6191 21.9515L25.5871 21.9368L25.5551 21.9223L25.523 21.9081L25.4907 21.8943L25.4587 21.881L25.4262 21.868L25.3938 21.8553L25.3615 21.8431L25.3291 21.8311L25.2967 21.8196L25.2642 21.8084L25.2316 21.7975L25.1992 21.7871L25.1666 21.7769L25.134 21.7671L25.1016 21.7578L25.0687 21.7487L25.0363 21.7401L25.0037 21.7318L24.9711 21.7238L24.9385 21.7162L24.9059 21.709L24.8733 21.7021L24.8408 21.6955L24.8084 21.6893L24.776 21.6835L24.7433 21.678L24.7111 21.6729L24.6785 21.6681L24.6464 21.6637L24.614 21.6595L24.5818 21.6558L24.5498 21.6523L24.5176 21.6493L24.4856 21.6465L24.4536 21.6441L24.4217 21.642L24.3898 21.6403L24.358 21.6389L24.3265 21.6379L24.2948 21.6371L24.2633 21.6366L24.2319 21.6365L24.2006 21.6368L24.1693 21.6374L24.1382 21.6382L24.1072 21.6394L24.0764 21.6409L24.0455 21.6428L24.0149 21.6448L23.9844 21.6472L23.9539 21.65L23.9237 21.6531L23.8934 21.6564L23.8634 21.66L23.8335 21.664L23.8038 21.6682L23.7741 21.6728L23.7447 21.6776L23.7153 21.6827L23.6863 21.6881L23.6571 21.6938L23.6283 21.6997L23.5995 21.7059L23.5711 21.7125Z" fill="#F0F2F5"/>
<rect x="0.5" y="0.709732" width="159" height="44.7143" stroke="#161513"/>
</svg>
