<svg width="160" height="41" viewBox="0 0 160 41" fill="none" xmlns="http://www.w3.org/2000/svg">
<path d="M46.5923 28.4356H58.0433V24.9865H50.6622V11.9948H46.5923V28.4356Z" fill="#F0F2F5"/>
<path d="M64.8277 26.1362C63.1951 26.1362 62.3443 24.7105 62.3443 22.5721C62.3443 20.4336 63.1951 18.985 64.8277 18.985C66.4602 18.985 67.334 20.4336 67.334 22.5721C67.334 24.7105 66.4602 26.1362 64.8277 26.1362ZM64.8506 28.8035C68.6447 28.8035 71.128 26.1132 71.128 22.5721C71.128 19.031 68.6447 16.3407 64.8506 16.3407C61.0796 16.3407 58.5503 19.031 58.5503 22.5721C58.5503 26.1132 61.0796 28.8035 64.8506 28.8035Z" fill="#F0F2F5"/>
<path d="M77.6952 32.5055C79.4427 32.5055 80.9833 32.1146 82.018 31.1948C82.9608 30.3441 83.5816 29.0564 83.5816 27.2859V16.6626H79.9946V17.9273H79.9486C79.2588 16.9386 78.201 16.3177 76.6374 16.3177C73.7172 16.3177 71.6937 18.7551 71.6937 22.2042C71.6937 25.8142 74.1541 27.7917 76.7984 27.7917C78.224 27.7917 79.1208 27.2169 79.8106 26.4351H79.9026V27.6078C79.9026 29.0334 79.2358 29.8612 77.6492 29.8612C76.4075 29.8612 75.7867 29.3323 75.5797 28.7115H71.9467C72.3146 31.1719 74.453 32.5055 77.6952 32.5055ZM77.6722 25.0095C76.2695 25.0095 75.3498 23.8598 75.3498 22.0892C75.3498 20.2957 76.2695 19.146 77.6722 19.146C79.2358 19.146 80.0635 20.4796 80.0635 22.0662C80.0635 23.7218 79.3047 25.0095 77.6722 25.0095Z" fill="#F0F2F5"/>
<path d="M90.9573 26.1362C89.3247 26.1362 88.4739 24.7105 88.4739 22.5721C88.4739 20.4336 89.3247 18.985 90.9573 18.985C92.5899 18.985 93.4636 20.4336 93.4636 22.5721C93.4636 24.7105 92.5899 26.1362 90.9573 26.1362ZM90.9803 28.8035C94.7743 28.8035 97.2579 26.1132 97.2579 22.5721C97.2579 19.031 94.7743 16.3407 90.9803 16.3407C87.2093 16.3407 84.6799 19.031 84.6799 22.5721C84.6799 26.1132 87.2093 28.8035 90.9803 28.8035Z" fill="#F0F2F5"/>
<path d="M98.3521 28.4356H102.1V16.6626H98.3521V28.4356ZM98.3521 15.0301H102.1V11.9948H98.3521V15.0301Z" fill="#F0F2F5"/>
<path d="M103.726 32.3216H107.474V27.2169H107.52C108.256 28.2056 109.336 28.8035 110.854 28.8035C113.935 28.8035 115.982 26.3661 115.982 22.5491C115.982 19.008 114.073 16.3177 110.946 16.3177C109.336 16.3177 108.187 17.0305 107.382 18.0883H107.313V16.6626H103.726V32.3216ZM109.888 25.9062C108.279 25.9062 107.359 24.5956 107.359 22.6871C107.359 20.7786 108.187 19.3299 109.819 19.3299C111.429 19.3299 112.188 20.6636 112.188 22.6871C112.188 24.6875 111.314 25.9062 109.888 25.9062Z" fill="#F0F2F5"/>
<path d="M122.085 28.8035C125.166 28.8035 127.442 27.4698 127.442 24.8945C127.442 21.8823 125.005 21.3534 122.936 21.0085C121.441 20.7326 120.107 20.6176 120.107 19.7898C120.107 19.054 120.82 18.7091 121.74 18.7091C122.775 18.7091 123.487 19.031 123.625 20.0887H127.074C126.891 17.7663 125.097 16.3177 121.763 16.3177C118.981 16.3177 116.681 17.6054 116.681 20.0887C116.681 22.848 118.866 23.3999 120.912 23.7448C122.476 24.0207 123.901 24.1357 123.901 25.1934C123.901 25.9522 123.188 26.3661 122.062 26.3661C120.82 26.3661 120.038 25.7913 119.9 24.6186H116.359C116.474 27.2169 118.636 28.8035 122.085 28.8035Z" fill="#F0F2F5"/>
<path d="M132.533 28.7805C134.165 28.7805 135.2 28.1366 136.051 26.9869H136.12V28.4356H139.707V16.6626H135.959V23.2389C135.959 24.6416 135.177 25.6073 133.889 25.6073C132.694 25.6073 132.119 24.8945 132.119 23.6068V16.6626H128.394V24.3886C128.394 27.0099 129.819 28.7805 132.533 28.7805Z" fill="#F0F2F5"/>
<path d="M141.338 28.4356H145.086V21.8363C145.086 20.4336 145.775 19.4449 146.948 19.4449C148.075 19.4449 148.604 20.1807 148.604 21.4454V28.4356H152.352V21.8363C152.352 20.4336 153.018 19.4449 154.214 19.4449C155.341 19.4449 155.87 20.1807 155.87 21.4454V28.4356H159.618V20.7786C159.618 18.1342 158.284 16.3177 155.617 16.3177C154.099 16.3177 152.835 16.9616 151.915 18.3872H151.869C151.271 17.1225 150.098 16.3177 148.558 16.3177C146.856 16.3177 145.729 17.1225 144.994 18.3412H144.925V16.6626H141.338V28.4356Z" fill="#F0F2F5"/>
<path fill-rule="evenodd" clip-rule="evenodd" d="M8.2914 4.57724C6.92071 5.53567 5.68124 6.66885 4.60526 7.94446C9.00219 7.53625 14.5883 8.20281 21.0738 11.4456C27.9994 14.9083 33.5762 15.0254 37.4574 14.2767C37.1052 13.2105 36.6618 12.1857 36.1367 11.2115C31.6938 11.6801 25.998 11.0598 19.36 7.74094C15.1448 5.63335 11.4292 4.76516 8.2914 4.57724ZM33.5413 7.51739C30.0327 3.59725 24.9339 1.13019 19.2588 1.13019C17.5922 1.13019 15.9752 1.34299 14.4336 1.74286C16.5215 2.31254 18.7394 3.14598 21.0738 4.3132C25.9338 6.74315 30.1296 7.52555 33.5413 7.51739ZM38.2872 18.0194C33.5984 18.9453 27.1235 18.7551 19.36 14.8733C12.1019 11.2443 6.32513 11.29 2.42905 12.1558C2.22795 12.2004 2.03158 12.2474 1.83995 12.2962C1.32986 13.4056 0.922686 14.5722 0.630535 15.7836C0.942568 15.7002 1.26501 15.621 1.59768 15.547C6.3243 14.4967 13.0026 14.5423 21.0738 18.5779C28.332 22.207 34.1087 22.1613 38.0049 21.2954C38.1383 21.2658 38.2699 21.2352 38.3992 21.2036C38.4134 20.9015 38.4205 20.5975 38.4205 20.2918C38.4205 19.523 38.3753 18.7647 38.2872 18.0194ZM37.7736 25.2473C33.1302 26.0591 26.844 25.7476 19.36 22.0057C12.1019 18.3766 6.32513 18.4223 2.42905 19.2882C1.56423 19.4802 0.786259 19.7143 0.0999752 19.9614C0.098104 20.0713 0.097168 20.1815 0.097168 20.2918C0.097168 30.8745 8.67613 39.4535 19.2588 39.4535C28.1279 39.4535 35.5896 33.428 37.7736 25.2473Z" fill="#F0F2F5"/>
<rect x="0.5" y="1.34888" width="159" height="38.2814" stroke="#161513"/>
</svg>
