<svg width="160" height="21" viewBox="0 0 160 21" fill="none" xmlns="http://www.w3.org/2000/svg">
<path d="M79.6769 17.7254H74.2874V3.31696H79.6769V17.7254ZM74.8137 17.1991H79.1506V3.84327H74.8137V17.1991ZM87.1758 17.7254H81.8948V3.31696H92.9284C94.5091 3.18896 96.0832 3.63271 97.3642 4.56748C97.9157 5.07202 98.3432 5.69716 98.6132 6.3941C98.8833 7.09106 98.9887 7.84099 98.9211 8.58538C98.9998 9.87166 98.5904 11.1403 97.7748 12.138C96.8095 13.2454 95.2032 13.8159 93.0011 13.8359C92.4463 13.8506 88.2895 13.8359 87.179 13.8359L87.1758 17.7254ZM82.4179 17.1991H86.6495V13.3043H86.9137C86.9674 13.3043 92.3642 13.3212 92.9884 13.3043C95.04 13.2864 96.5148 12.778 97.3769 11.7854C98.103 10.8827 98.4636 9.74027 98.3874 8.58432C98.4521 7.91735 98.3623 7.24442 98.1251 6.61774C97.8877 5.99105 97.5093 5.42745 97.019 4.97064C95.8312 4.11811 94.3779 3.71794 92.9211 3.84222H82.4211L82.4179 17.1991ZM91.8106 10.5991H86.6137V6.67696H91.8453C92.2161 6.62571 92.5939 6.669 92.9435 6.80278C93.2932 6.93657 93.6034 7.15651 93.8453 7.44222C94.0648 7.80742 94.1682 8.23062 94.1421 8.6559C94.1618 9.05075 94.0765 9.44377 93.8948 9.79485C93.6452 10.0958 93.3223 10.3274 92.9573 10.4675C92.5923 10.6076 92.1974 10.6515 91.8106 10.5949V10.5991ZM87.14 10.0727H91.8106C92.6737 10.0727 93.2085 9.89275 93.4453 9.52222C93.5757 9.2529 93.6348 8.9546 93.6169 8.6559C93.6399 8.34228 93.5719 8.02868 93.4211 7.75275L93.4148 7.74327C93.1642 7.37485 92.6663 7.20327 91.8453 7.20327H87.14V10.0727ZM108.526 17.938C103.8 17.938 100.979 16.7643 99.9042 14.3506C99.7283 13.8844 99.609 13.3989 99.5484 12.9043L99.5021 12.6012H105.125L105.162 12.8222C105.205 13.0466 105.301 13.2579 105.44 13.4391C105.662 13.7075 106.403 14.158 108.862 14.158C111.818 14.158 111.818 13.6391 111.818 13.3601C111.818 12.8896 111.476 12.7285 109.065 12.4717L108.607 12.4285C107.7 12.3433 106.553 12.2349 106.028 12.1896C101.607 11.7896 99.6337 10.4159 99.6337 7.73696C99.6337 4.92327 102.993 3.10538 108.192 3.10538C112.433 3.10538 115.165 4.22327 116.312 6.43064C116.583 6.94409 116.766 7.5001 116.852 8.07485L116.888 8.37064H111.259L111.236 8.13275C111.214 7.94683 111.135 7.77242 111.008 7.6338C110.798 7.35169 110.133 6.88538 108.067 6.88538C105.532 6.88538 105.182 7.20959 105.182 7.55906C105.182 8.02538 105.983 8.19064 108.551 8.46538C109.621 8.55275 111.342 8.72959 111.932 8.80117C115.638 9.20327 117.292 10.5433 117.292 13.1475C117.293 15.3317 115.772 17.938 108.526 17.938ZM100.117 13.1275C100.17 13.4746 100.26 13.8149 100.387 14.1422C101.366 16.3412 104.029 17.4117 108.526 17.4117C112.286 17.4117 116.769 16.6749 116.769 13.1475C116.769 10.8391 115.306 9.6959 111.876 9.32432C111.286 9.25275 109.576 9.07696 108.507 8.98854C105.771 8.69169 104.658 8.5338 104.658 7.55906C104.658 6.55064 105.857 6.35906 108.069 6.35906C109.818 6.35906 110.947 6.67485 111.426 7.31169C111.557 7.46859 111.656 7.64954 111.717 7.84432H116.279C116.187 7.43722 116.042 7.044 115.847 6.67485C114.795 4.65485 112.223 3.63169 108.194 3.63169C103.315 3.63169 100.162 5.24327 100.162 7.73696C100.162 10.1159 101.932 11.2906 106.077 11.6654C106.603 11.7106 107.749 11.8191 108.659 11.9054L109.12 11.9485C111.359 12.1843 112.346 12.3317 112.346 13.3601C112.346 14.4675 111.069 14.6843 108.864 14.6843C106.824 14.6843 105.536 14.378 105.038 13.7749C104.884 13.5825 104.769 13.3629 104.697 13.1275H100.117ZM127.292 17.9201C121.797 17.9201 118.765 15.698 118.765 11.6622V3.31696H124.083V11.6622C124.083 13.0464 125.322 13.8401 127.481 13.8401C129.544 13.8401 130.825 13.0117 130.825 11.6801V3.31696H136.088V12.1043C136.094 15.8001 132.884 17.9201 127.288 17.9201H127.292ZM119.292 3.84327V11.6622C119.292 16.6496 124.3 17.3938 127.292 17.3938C130.384 17.3938 135.571 16.7064 135.571 12.1043V3.84327H131.36V11.6801C131.36 13.3117 129.84 14.3664 127.489 14.3664C125.033 14.3664 123.565 13.3559 123.565 11.6622V3.84327H119.292ZM158.392 17.7254H153.373V11.2201L150.526 17.7254H146.148L143.332 11.2327V17.7254H138.295V3.31696H144.92L148.362 11.2612L151.971 3.31696H158.398L158.392 17.7254ZM153.899 17.1991H157.865V3.84327H152.305L148.345 12.558L144.571 3.84327H138.817V17.1991H142.801V8.70011L146.485 17.2022H150.169L153.893 8.71275L153.899 17.1991ZM6.37266 3.58011H1.57898V17.4622H14.8253V13.7664H6.37266V3.58011ZM24.5011 3.26432C18.3821 3.26432 15.1642 6.16432 15.1642 10.4222C15.1642 15.2327 18.5421 17.6727 24.5011 17.6727C31.0611 17.6727 33.82 14.8433 33.82 10.4222C33.82 5.93275 30.7074 3.26222 24.5011 3.26222V3.26432ZM24.4832 6.87169C24.8997 6.86974 25.316 6.89399 25.7295 6.94432L20.3706 12.3033C20.117 11.7297 19.9933 11.1071 20.0085 10.4801C20.0085 8.30222 21.1053 6.86959 24.4832 6.86959V6.87169ZM24.5011 14.1222C24.0997 14.124 23.6987 14.1015 23.3 14.0549L28.6685 8.68643C28.9126 9.25054 29.0294 9.86152 29.0106 10.4759C29.0106 12.5949 28 14.1201 24.5011 14.1201V14.1222ZM43.3179 12.2275H48.2516C48.179 12.5699 48.0276 12.8906 47.8095 13.1643C46.7867 13.9976 45.4813 14.4031 44.1663 14.2959C43.5045 14.3667 42.8352 14.2944 42.2037 14.0839C41.5722 13.8735 40.9933 13.5297 40.5063 13.0759C40.0075 12.3442 39.7706 11.4655 39.8337 10.5822C39.753 9.65668 40.0107 8.73329 40.559 7.98327C41.2484 7.20432 42.4158 6.86854 44.1316 6.86854C45.2233 6.77815 46.3136 7.05851 47.2263 7.66433C47.514 7.89283 47.7291 8.20002 47.8453 8.54854H52.4211C52.3878 7.97429 52.2497 7.41099 52.0137 6.88643C50.9179 4.65801 48.3706 3.33169 44.039 3.33169C40.2716 3.33169 37.7432 4.48117 36.3463 6.21485C35.4238 7.46681 34.9502 8.99321 35.0021 10.5475C34.9424 12.137 35.4038 13.7023 36.3158 15.0054C37.6958 16.7949 40.1537 17.6749 43.1074 17.6749C45.0711 17.8118 47.0214 17.2618 48.6242 16.1191L48.7485 17.4622H52.5495V9.23906H43.3179V12.2275ZM63.3379 3.26117C57.22 3.26117 54.0011 6.16117 54.0011 10.4191C54.0011 15.2296 57.3779 17.6696 63.3379 17.6696C69.899 17.6696 72.6579 14.8401 72.6579 10.4191C72.6579 5.93275 69.5453 3.26222 63.3379 3.26222V3.26117ZM63.3211 6.86854C63.7267 6.86734 64.1319 6.89054 64.5348 6.93801L59.1969 12.2791C58.9512 11.7118 58.8316 11.0981 58.8463 10.4801C58.8421 8.30222 59.9432 6.86959 63.3211 6.86959V6.86854ZM63.3379 14.1191C62.9259 14.1209 62.5142 14.0969 62.1053 14.0475L67.4916 8.66011C67.745 9.23173 67.8662 9.85308 67.8463 10.478C67.8484 12.5949 66.8421 14.1201 63.3379 14.1201V14.1191Z" fill="#F0F2F5"/>
<rect x="0.5" y="0.989594" width="159" height="19" stroke="#161513"/>
</svg>
