<svg width="160" height="37" viewBox="0 0 160 37" fill="none" xmlns="http://www.w3.org/2000/svg">
<g clip-path="url(#clip0_228_872)">
<path d="M155.789 7.17034L159.605 11.0128C159.739 11.1189 159.837 11.2622 159.888 11.4245C159.966 12.3702 159.25 12.422 158.519 12.4748C158.203 12.4977 157.883 12.5208 157.625 12.6166C156.341 12.9639 155.196 13.6976 154.345 14.7179C153.493 15.7382 152.976 16.9959 152.864 18.3202C152.782 18.4732 152.657 18.599 152.505 18.6827C152.353 18.7665 152.18 18.8043 152.006 18.792C151.805 18.7741 151.617 18.6861 151.474 18.5432L150.222 17.282C150.231 17.3683 150.231 17.4538 150.231 17.5226V18.3545C150.231 18.407 150.233 18.4577 150.226 18.5083C150.218 18.5649 150.199 18.6215 150.154 18.6803V18.7576C150.154 18.797 150.159 18.8337 150.163 18.8709C150.172 18.947 150.182 19.0255 150.154 19.135C150.127 19.2371 150.124 19.3563 150.12 19.4626C150.119 19.5258 150.117 19.5845 150.111 19.6324C150.102 19.6988 150.102 19.7698 150.096 19.8407C150.091 19.907 150.08 19.9733 150.051 20.0355C150.011 20.1225 149.997 20.2056 149.993 20.2901C149.99 20.3305 149.99 20.3712 149.99 20.4129L149.939 20.6788L147.993 29.9589L147.838 30.6535L147.778 31.6657L146.92 36.0484L146.783 36.7345H77.3712L77.0367 36.4L76.9766 36.6917H69.5492L65.4151 32.5319L65.8096 30.6535H63.4767L62.0273 29.1869C60.2285 30.4968 58.0511 31.1835 55.8263 31.1425C53.4347 31.2366 51.1032 30.3792 49.3423 28.7581L47.0865 26.4853L46.5977 28.7666C46.5377 29.0926 46.4604 29.4014 46.3747 29.7016L46.2975 29.9846L46.1689 30.3963C46.1583 30.432 46.1439 30.4666 46.126 30.4992C45.9983 30.8774 45.8465 31.2469 45.6714 31.6056C45.676 31.6195 45.676 31.6346 45.6714 31.6485C45.6489 31.696 45.6231 31.7418 45.5941 31.7857C45.4647 32.042 45.3216 32.291 45.1653 32.5319C45.1364 32.5757 45.1106 32.6216 45.0882 32.6692L44.9938 32.772C44.7842 33.0727 44.555 33.3592 44.3077 33.6297C44.2398 33.6976 44.172 33.7613 44.103 33.8238C44.0326 33.8878 43.9611 33.9506 43.8874 34.0156L43.6987 34.1958C43.5798 34.2946 43.4581 34.39 43.3339 34.4818C43.2314 34.5576 43.1271 34.631 43.0212 34.7018C41.2536 35.7491 39.2146 36.2476 37.1632 36.1341C34.3329 36.1341 32.0686 35.3107 30.6363 33.8699L26.6052 29.813C24.995 30.7242 23.1718 31.1919 21.3219 31.1682C18.9375 31.242 16.6201 30.3729 14.8721 28.7495L12.6165 26.4767L11.8875 29.9846L11.7416 30.6793H4.15119L0 26.4938L0.214419 25.4818L4.77728 3.56808L4.91448 2.88195H12.5307L12.728 3.07066V2.88195H64.0429L64.2316 3.07066V2.88195H71.6591L75.8102 7.06742L75.6044 8.07089L75.3814 9.16874H77.517L77.8515 9.50328C78.7912 8.95255 79.8586 8.65688 80.9477 8.64558C81.7487 8.62976 82.544 8.78189 83.2826 9.0921C84.0212 9.40234 84.6866 9.86369 85.2361 10.4466L85.1246 10.318L87.1401 12.3507C88.3666 10.0436 91.1197 8.64558 94.859 8.64558C97.7582 8.64558 99.8939 9.38314 101.189 10.7211L102.647 12.1878L103.136 9.82913L103.281 9.14298H110.717L112.845 11.2786L113.145 9.83772L113.291 9.15157H127.923L128.317 9.54616C129.308 8.96134 130.443 8.66431 131.594 8.68845C132.286 8.66143 132.976 8.78817 133.614 9.05955C134.251 9.33093 134.821 9.74026 135.281 10.258C135.258 10.231 135.235 10.2041 135.212 10.1776C135.171 10.1284 135.13 10.0804 135.086 10.0359L135.831 10.7812C136.48 10.1089 137.261 9.57651 138.123 9.21669C138.986 8.85685 139.913 8.67704 140.848 8.68845C141.344 8.65793 141.84 8.70017 142.32 8.81256L141.509 7.99373C141.398 7.87537 141.323 7.72811 141.293 7.56902C141.263 7.40994 141.278 7.24546 141.337 7.09475C141.396 6.94398 141.497 6.81311 141.627 6.71721C141.758 6.62131 141.913 6.5643 142.075 6.55283H142.726C142.902 6.53608 143.077 6.51033 143.249 6.47562C144.161 6.28402 145.019 5.89225 145.76 5.32856C146.502 4.76493 147.109 4.04351 147.538 3.21646C147.576 3.15248 147.61 3.08668 147.641 3.0192V2.97633C147.936 2.34108 148.115 1.65871 148.173 0.960754C148.187 0.743874 148.285 0.540813 148.444 0.392772C148.603 0.244678 148.813 0.162595 149.03 0.163119H149.099C149.229 0.175473 149.355 0.217457 149.467 0.285824C149.578 0.354243 149.672 0.447214 149.743 0.55767C150.36 1.15805 153.79 4.64876 153.79 4.64876C154.076 4.95615 154.055 5.35521 154.033 5.75897C154.02 6.00862 154.006 6.2601 154.064 6.49279C154.221 6.52079 154.379 6.542 154.536 6.55634C154.688 6.57 154.84 6.57743 154.992 6.57854C155.169 6.58225 155.342 6.6412 155.484 6.74725C155.627 6.85327 155.734 7.00115 155.789 7.17034Z" fill="#161513"/>
<path d="M39.2559 9.99213H44.6765L41.6403 24.3925C41.0829 27.1199 40.0193 28.681 38.4068 29.7873C36.7759 30.7337 34.9032 31.181 33.0207 31.0738C29.4356 31.0738 25.9962 29.5729 25.6532 25.9278H31.108C31.2795 26.7855 32.0686 27.2743 33.2694 27.2743C34.8904 27.2743 35.6366 26.2966 35.9711 24.7613L36.2969 23.1746H36.1769C35.6983 23.7008 35.1177 24.1241 34.4705 24.4189C33.8232 24.7138 33.1228 24.8741 32.4117 24.89C29.2555 24.89 26.751 22.377 26.8024 18.6975C26.8711 14.4091 29.6671 9.53755 34.3587 9.53755C35.2477 9.47766 36.1353 9.6736 36.9166 10.1022C37.6978 10.5307 38.3399 11.1741 38.7671 11.9562H38.8614L39.2559 9.99213ZM34.5987 20.8675C36.683 20.8675 37.8408 18.466 37.8751 16.399C37.8751 15.0181 37.3347 13.6029 35.7395 13.6029C33.5609 13.6029 32.4546 16.0302 32.4203 18.1143C32.4203 19.5209 32.9606 20.8675 34.5559 20.8675M95.4515 21.3306C95.4515 22.2483 94.6616 22.6171 93.6238 22.6171C91.9086 22.6171 91.3342 21.7594 91.3256 20.5587H85.9309C85.8365 25.0358 89.8333 26.1422 93.3843 26.1422C97.921 26.1422 100.863 24.1781 100.924 20.2586C100.924 17.128 98.2556 16.176 95.6316 15.567C93.6156 15.1039 92.7324 14.7694 92.7406 14.006C92.7498 13.2427 93.6504 12.9339 94.5336 12.9339C95.6399 12.9339 96.3941 13.3285 96.4718 14.3406H101.713C101.652 10.601 98.2812 9.50327 94.8508 9.50327C90.6824 9.50327 87.4318 11.3987 87.3803 14.9838C87.3803 17.8055 89.2844 18.8433 92.1573 19.581C94.0014 20.0698 95.468 20.2242 95.4515 21.3306ZM135.53 12.3164H135.436C135.203 11.4718 134.687 10.7324 133.976 10.2207C133.265 9.70907 132.4 9.45591 131.525 9.50327C129.192 9.50327 127.769 10.6611 126.422 12.4108H126.328L126.825 9.99213H121.37L118.102 25.619H123.806L125.521 17.188C125.916 15.3526 126.851 14.0661 128.266 14.0661C129.681 14.0661 129.87 15.1982 129.578 16.5791L127.691 25.619H133.394L135.11 17.188C135.505 15.2325 136.44 14.0661 137.854 14.0661C139.27 14.0661 139.459 15.1382 139.167 16.5791L137.28 25.619H142.983L145.025 16.3303C145.883 12.4108 144.571 9.46889 140.806 9.46889C139.758 9.46459 138.726 9.72297 137.805 10.2204C136.883 10.7179 136.102 11.4385 135.53 12.3164ZM1.04639 25.619H6.93864L11.4929 3.70532H5.60924L1.04639 25.619ZM18.7832 9.52896C22.7628 9.52896 26.5624 11.7074 26.5023 16.6391C26.4508 22.0339 22.78 26.0736 17.1707 26.0736C13.3112 26.0736 9.45168 23.9294 9.52025 19.0234C9.61461 13.7573 13.234 9.52896 18.7832 9.52896ZM17.3337 22.2483C19.8467 22.2483 20.7644 18.6032 20.7644 16.459C20.7644 14.9238 20.2927 13.4228 18.6373 13.4228C16.1501 13.4228 15.301 17.2824 15.301 19.2722C15.301 20.8675 15.747 22.2483 17.368 22.2483M13.457 3.70532L12.5993 8.08806H62.0788L62.9365 3.70532H13.457ZM53.2533 9.52896C57.2329 9.52896 61.0324 11.7074 60.9724 16.6391C60.9209 22.0339 57.2415 26.0736 51.6323 26.0736C47.7727 26.0736 43.9131 23.9294 43.9904 19.0234C44.1104 13.7573 47.7298 9.52896 53.2533 9.52896ZM51.8296 22.2483C54.3426 22.2483 55.2602 18.6032 55.2602 16.459C55.2602 14.9238 54.78 13.4228 53.1246 13.4228C50.6459 13.4228 49.7882 17.2824 49.7882 19.2722C49.7882 20.8675 50.2342 22.2483 51.8638 22.2483M64.9606 3.70532L64.1029 8.08806H69.7979L70.6556 3.70532H64.9606ZM60.3978 25.619H66.1013L69.369 9.99213H63.6312L60.3978 25.619ZM78.5977 26.1422C77.6899 26.2066 76.7822 26.0169 75.9761 25.5942C75.1702 25.1716 74.4979 24.5327 74.0348 23.7493H73.9405L72.2252 31.657H66.4529L71.0844 9.99213H76.5049L76.0761 12.0762C76.6422 11.3064 77.3754 10.6749 78.2207 10.2292C79.0659 9.78359 80.0013 9.53536 80.9563 9.50327C84.387 9.50327 86.4025 12.4451 86.3426 16.2704C86.2653 21.0819 83.7695 26.1422 78.5634 26.1422H78.5977ZM78.3747 13.9289C76.1705 13.9289 74.8153 16.7506 74.7811 18.9206C74.7811 20.4301 75.3128 22.1111 77.1225 22.1111C79.4811 22.1111 80.4503 18.9892 80.476 16.905C80.476 15.4898 80.0643 13.9289 78.3747 13.9289ZM111.353 23.1575H111.447L110.95 25.6362H116.369L119.638 10.0092H113.943L112.124 18.7404C111.756 20.5501 110.641 21.5022 109.234 21.5022C107.827 21.5022 107.518 20.1813 107.802 18.8005L109.646 10.0092H103.951L101.935 19.6581C101.077 23.8608 103.033 26.1251 106.31 26.1251C107.338 26.115 108.347 25.8339 109.232 25.3098C110.117 24.7857 110.849 24.0374 111.353 23.1403V23.1575ZM141.946 31.7343L142.803 27.3515H75.167L74.3093 31.7343H141.946Z" fill="#F0F2F5"/>
<path d="M148.078 14.2805C148.022 14.2762 147.967 14.2608 147.917 14.2351C147.866 14.2095 147.821 14.1741 147.784 14.131C147.748 14.088 147.72 14.0381 147.703 13.9843C147.686 13.9304 147.679 13.8738 147.684 13.8173C147.755 13.0535 147.664 12.2832 147.418 11.5569C147.171 10.8306 146.773 10.1645 146.25 9.60257C145.728 9.04062 145.093 8.59534 144.387 8.29591C143.68 7.99649 142.918 7.84968 142.151 7.86509C142.038 7.86509 141.929 7.81992 141.849 7.73949C141.768 7.65907 141.723 7.54998 141.723 7.43625C141.723 7.32251 141.768 7.21344 141.849 7.13302C141.929 7.05259 142.038 7.00741 142.151 7.00741C142.357 7.0207 142.564 7.0207 142.769 7.00741C144.293 6.84511 145.712 6.15685 146.782 5.06105C147.854 3.96525 148.508 2.53046 148.635 1.00366C148.645 0.89597 148.693 0.795521 148.773 0.722376C148.852 0.649231 148.956 0.608787 149.064 0.609133C149.121 0.613462 149.176 0.628903 149.226 0.654558C149.276 0.680214 149.321 0.715582 149.358 0.758627C149.395 0.801673 149.423 0.851544 149.44 0.905374C149.457 0.959203 149.464 1.01592 149.459 1.07227C149.388 1.8354 149.478 2.605 149.724 3.33074C149.971 4.05647 150.368 4.72201 150.889 5.28383C151.411 5.84565 152.045 6.29111 152.75 6.59108C153.456 6.89105 154.216 7.03876 154.982 7.02456C155.096 7.02456 155.205 7.06975 155.286 7.15017C155.366 7.2306 155.411 7.33967 155.411 7.45341C155.411 7.56714 155.366 7.67623 155.286 7.75665C155.205 7.83707 155.096 7.88224 154.982 7.88224C153.353 7.90916 151.791 8.53685 150.596 9.6449C149.401 10.7529 148.656 12.2632 148.507 13.886C148.498 13.9937 148.45 14.0942 148.37 14.1673C148.291 14.2405 148.187 14.2809 148.078 14.2805Z" fill="#F0F2F5"/>
</g>
<rect x="0.5" y="0.663116" width="159" height="35.5714" stroke="#161513"/>
<defs>
<clipPath id="clip0_228_872">
<rect y="0.163116" width="160" height="36.5714" fill="white"/>
</clipPath>
</defs>
</svg>
