<svg width="160" height="42" viewBox="0 0 160 42" fill="none" xmlns="http://www.w3.org/2000/svg">
<path d="M47.5742 13.4153H51.4452V29.0669H47.5742V13.4153ZM52.9807 23.1572C52.9807 19.2862 55.3549 16.9766 59.0194 16.9766C62.6839 16.9766 65.0581 19.2862 65.0581 23.1572C65.0581 27.0282 62.7355 29.3508 59.0194 29.3508C55.3033 29.3508 52.9807 27.0927 52.9807 23.1572ZM61.1742 23.1572C61.1742 21.0282 60.3355 19.7766 59.0194 19.7766C57.7033 19.7766 56.8774 21.0669 56.8774 23.1572C56.8774 25.2475 57.6904 26.512 59.0194 26.512C60.3484 26.512 61.1742 25.3249 61.1742 23.1701V23.1572ZM66.5162 29.8282H70.2323C70.4092 30.2211 70.7082 30.5464 71.0848 30.7557C71.4614 30.9648 71.8956 31.0469 72.3226 30.9895C73.7936 30.9895 74.5678 30.1895 74.5678 29.0282V26.8604H74.4903C74.182 27.5248 73.6814 28.0815 73.0536 28.4588C72.4257 28.8359 71.6991 29.0163 70.9678 28.9766C68.142 28.9766 66.271 26.8217 66.271 23.1185C66.271 19.4153 68.0516 17.0798 71.0194 17.0798C71.7737 17.0502 72.519 17.2519 73.1555 17.6577C73.792 18.0637 74.2893 18.6544 74.5807 19.3508V17.1959H78.4516V28.9379C78.4516 31.7637 75.9613 33.5185 72.2839 33.5185C68.8645 33.5185 66.7355 31.983 66.5162 29.8411V29.8282ZM74.5807 23.1443C74.5807 21.2604 73.7162 20.0733 72.3484 20.0733C70.9807 20.0733 70.142 21.2475 70.142 23.1443C70.142 25.0411 70.9678 26.112 72.3484 26.112C73.7291 26.112 74.5807 25.0669 74.5807 23.1572V23.1443ZM79.9097 23.1443C79.9097 19.2733 82.2839 16.9637 85.9484 16.9637C89.6129 16.9637 92 19.2733 92 23.1443C92 27.0153 89.6774 29.3379 85.9484 29.3379C82.2194 29.3379 79.9097 27.0927 79.9097 23.1572V23.1443ZM88.1032 23.1443C88.1032 21.0153 87.2645 19.7637 85.9484 19.7637C84.6323 19.7637 83.871 21.0669 83.871 23.1701C83.871 25.2733 84.6839 26.5249 86 26.5249C87.3162 26.5249 88.1032 25.3249 88.1032 23.1701V23.1443ZM93.471 14.383C93.4608 13.9922 93.567 13.6071 93.7759 13.2767C93.9849 12.9463 94.2873 12.6853 94.6447 12.5269C95.0021 12.3685 95.3985 12.3198 95.7836 12.3869C96.1688 12.4541 96.5253 12.6341 96.808 12.9042C97.0909 13.1742 97.287 13.5221 97.3718 13.9038C97.4565 14.2855 97.4261 14.6837 97.2842 15.048C97.1423 15.4123 96.8955 15.7264 96.575 15.9502C96.2546 16.1741 95.8747 16.2979 95.4839 16.3056C95.2248 16.3234 94.9648 16.2874 94.7203 16.1999C94.4756 16.1124 94.2519 15.9754 94.0629 15.7972C93.8738 15.6191 93.7236 15.4038 93.6218 15.1648C93.5199 14.926 93.4685 14.6686 93.471 14.4088V14.383ZM93.471 17.2217H97.342V29.0669H93.471V17.2217ZM111.394 23.1443C111.394 27.0153 109.677 29.2217 106.736 29.2217C105.981 29.2701 105.23 29.0857 104.584 28.6935C103.938 28.3011 103.428 27.7198 103.123 27.0282H103.045V32.8604H99.1742V17.1959H103.045V19.312H103.123C103.413 18.6089 103.914 18.0126 104.556 17.6039C105.197 17.1953 105.95 16.9942 106.71 17.0282C109.677 17.0798 111.445 19.2991 111.445 23.1701L111.394 23.1443ZM107.523 23.1443C107.523 21.2604 106.658 20.0604 105.303 20.0604C103.948 20.0604 103.084 21.2733 103.071 23.1443C103.058 25.0153 103.948 26.2153 105.303 26.2153C106.658 26.2153 107.523 25.0411 107.523 23.1701V23.1443ZM118.039 16.9508C121.252 16.9508 123.2 18.4733 123.29 20.912H119.768C119.768 20.0733 119.071 19.5443 118 19.5443C116.929 19.5443 116.452 19.9572 116.452 20.5637C116.452 21.1701 116.877 21.3637 117.742 21.5443L120.219 22.0475C122.581 22.5508 123.587 23.5056 123.587 25.2991C123.587 27.7508 121.355 29.3249 118.065 29.3249C114.774 29.3249 112.619 27.7508 112.452 25.3379H116.181C116.297 26.2153 116.994 26.7314 118.129 26.7314C119.265 26.7314 119.781 26.3572 119.781 25.7379C119.781 25.1185 119.419 24.9895 118.49 24.7959L116.258 24.3185C113.948 23.8411 112.736 22.6153 112.736 20.8088C112.761 18.4862 114.839 16.9766 118.039 16.9766V16.9508ZM136.503 29.0411H132.774V26.8346H132.697C132.492 27.5754 132.04 28.2238 131.416 28.6722C130.791 29.1204 130.032 29.3417 129.265 29.2991C128.676 29.3326 128.088 29.2394 127.539 29.0259C126.99 28.8123 126.493 28.4835 126.082 28.0615C125.671 27.6395 125.356 27.1341 125.157 26.5797C124.958 26.0252 124.88 25.4345 124.929 24.8475V17.1959H128.8V23.9572C128.8 25.3637 129.523 26.112 130.723 26.112C131.004 26.1126 131.283 26.0531 131.539 25.9373C131.795 25.8216 132.025 25.6523 132.21 25.4409C132.395 25.2295 132.534 24.9808 132.616 24.7117C132.697 24.4424 132.721 24.1588 132.684 23.8798V17.1959H136.555L136.503 29.0411ZM138.374 17.1959H142.116V19.4798H142.194C142.399 18.7488 142.841 18.1065 143.45 17.6536C144.059 17.2007 144.803 16.9625 145.561 16.9766C146.334 16.9148 147.101 17.1459 147.711 17.624C148.32 18.1022 148.728 18.7923 148.852 19.5572H148.929C149.163 18.7842 149.648 18.1111 150.307 17.6439C150.965 17.1767 151.761 16.9419 152.568 16.9766C153.094 16.9589 153.618 17.0522 154.106 17.2504C154.595 17.4484 155.035 17.7471 155.4 18.1268C155.765 18.5065 156.046 18.9588 156.226 19.4541C156.404 19.9495 156.477 20.4771 156.439 21.0024V29.0669H152.568V22.0346C152.568 20.7443 151.987 20.1508 150.903 20.1508C150.662 20.1487 150.422 20.1985 150.201 20.2968C149.981 20.3951 149.783 20.5397 149.623 20.7207C149.463 20.9017 149.343 21.1149 149.272 21.346C149.201 21.5772 149.182 21.8208 149.213 22.0604V29.0669H145.536V21.983C145.536 20.7959 144.955 20.1508 143.897 20.1508C143.653 20.1509 143.41 20.2028 143.188 20.303C142.965 20.4034 142.765 20.5499 142.604 20.7327C142.441 20.9155 142.32 21.1308 142.246 21.3642C142.174 21.5975 142.151 21.8435 142.181 22.0862V29.0669H138.31L138.374 17.1959Z" fill="#F0F2F5"/>
<path d="M36.7484 14.1249C36.0917 12.6235 35.2227 11.2242 34.1677 9.97011C32.6084 8.06087 30.6623 6.50351 28.4576 5.40056C26.253 4.29762 23.8397 3.67407 21.3767 3.57096C18.9138 3.46785 16.4569 3.88751 14.1677 4.80235C11.8786 5.71718 9.80922 7.10643 8.09571 8.87866C6.38218 10.6509 5.06341 12.7659 4.22618 15.0846C3.38896 17.4031 3.05225 19.8728 3.23824 22.3309C3.42424 24.7891 4.12869 27.1799 5.30526 29.3461C6.48182 31.5124 8.10382 33.4049 10.0645 34.8991C11.3226 35.8771 12.7127 36.672 14.1935 37.2604C16.2696 38.1113 18.4917 38.5495 20.7354 38.5508C25.3669 38.5406 29.8054 36.6944 33.078 33.4169C36.3505 30.1395 38.1902 25.6984 38.1935 21.0669C38.1969 18.6778 37.7049 16.3141 36.7484 14.1249ZM20.7225 7.11848C22.7375 7.11827 24.7281 7.55866 26.5548 8.4088C26.1094 8.60128 25.641 8.73572 25.1613 8.80882C23.5827 9.03732 22.1204 9.7702 20.9925 10.8981C19.8646 12.0259 19.1317 13.4883 18.9032 15.0669C18.8029 15.9522 18.4002 16.7758 17.7632 17.3988C17.1262 18.0217 16.2938 18.4057 15.4064 18.4862C13.8278 18.7148 12.3655 19.4477 11.2376 20.5755C10.1098 21.7034 9.37687 23.1657 9.14837 24.7443C9.071 25.5861 8.71184 26.3772 8.12901 26.9895C7.1234 24.8647 6.67166 22.5199 6.81581 20.1736C6.95996 17.8273 7.69533 15.5555 8.95349 13.5697C10.2116 11.584 11.9517 9.94883 14.0117 8.81635C16.0717 7.68387 18.3847 7.09093 20.7354 7.09267L20.7225 7.11848ZM10.0516 30.0991C10.2064 29.9572 10.3613 29.8282 10.5161 29.6733C11.664 28.5604 12.4009 27.0913 12.6064 25.5056C12.6898 24.6142 13.0877 23.7817 13.729 23.1572C14.3462 22.5149 15.1767 22.1202 16.0645 22.0475C17.6431 21.819 19.1054 21.0861 20.2333 19.9582C21.3611 18.8304 22.094 17.368 22.3225 15.7895C22.3784 14.8572 22.7784 13.9789 23.4451 13.3249C24.0775 12.6951 24.916 12.3148 25.8064 12.254C27.2566 12.0544 28.6091 11.4097 29.6774 10.4088C30.8938 11.4179 31.9242 12.6319 32.7225 13.9959C32.6735 14.0621 32.6173 14.1228 32.5548 14.1766C31.9389 14.8246 31.1094 15.2279 30.2193 15.312C28.6391 15.5366 27.1745 16.2682 26.0459 17.3967C24.9174 18.5253 24.1858 19.9898 23.9613 21.5701C23.8703 22.4584 23.4751 23.2879 22.8425 23.9181C22.2099 24.5484 21.3789 24.9406 20.4903 25.0282C18.9071 25.2549 17.4393 25.9864 16.3049 27.1137C15.1705 28.2412 14.43 29.7044 14.1935 31.2862C14.1241 31.9168 13.9074 32.5224 13.5613 33.054C12.2374 32.2679 11.0517 31.2697 10.0516 30.0991ZM20.7225 35.0798C19.4133 35.0812 18.1102 34.8988 16.8516 34.5378C17.2822 33.7353 17.562 32.8606 17.6774 31.9572C17.7678 31.0709 18.1613 30.2429 18.7912 29.6129C19.4211 28.983 20.2491 28.5896 21.1354 28.4991C22.7164 28.2732 24.1816 27.5415 25.3121 26.4133C26.4424 25.2853 27.1773 23.8215 27.4064 22.2411C27.4969 21.3548 27.8903 20.5268 28.5202 19.8968C29.1502 19.2669 29.9782 18.8735 30.8645 18.783C32.0542 18.6283 33.1881 18.1853 34.1677 17.4927C34.7117 19.5545 34.7761 21.7135 34.3561 23.804C33.9361 25.8946 33.0427 27.8613 31.7446 29.5531C30.4465 31.2447 28.7783 32.6167 26.8676 33.5635C24.957 34.5104 22.8549 35.007 20.7225 35.0153V35.0798Z" fill="#F0F2F5"/>
<rect x="0.5" y="0.921722" width="159" height="40.2903" stroke="#161513"/>
</svg>
