<svg width="160" height="61" viewBox="0 0 160 61" fill="none" xmlns="http://www.w3.org/2000/svg">
<path d="M32.6082 30.8804C32.6082 28.6608 33.9334 27.1145 35.9587 27.1145C37.9839 27.1145 39.3091 28.6608 39.3091 30.8804C39.3091 33.0752 37.9839 34.6463 35.9587 34.6463C33.9334 34.6463 32.6082 33.0752 32.6082 30.8804Z" fill="#F0F2F5"/>
<path d="M49.7364 27.0148C47.8111 27.0148 46.511 28.5111 46.511 30.5562C46.511 32.6262 47.8361 34.1725 49.7364 34.1725C51.8366 34.1725 53.2369 32.6013 53.2369 30.5562C53.2369 28.5361 51.8366 27.0148 49.7364 27.0148Z" fill="#F0F2F5"/>
<path d="M60.8972 30.8804C60.8972 28.6608 62.2224 27.1145 64.2477 27.1145C66.273 27.1145 67.5981 28.6608 67.5981 30.8804C67.5981 33.0752 66.273 34.6463 64.2477 34.6463C62.2224 34.6463 60.8972 33.0752 60.8972 30.8804Z" fill="#F0F2F5"/>
<path d="M81.2729 30.9054C81.2729 28.6857 82.6231 27.1395 84.7484 27.1395C86.8737 27.1395 88.1488 28.7107 88.1488 30.9054C88.1488 33.1 86.8737 34.6463 84.7484 34.6463C82.6231 34.6463 81.2729 33.125 81.2729 30.9054Z" fill="#F0F2F5"/>
<path fill-rule="evenodd" clip-rule="evenodd" d="M80 56.9719C122.483 56.9719 156.923 44.918 156.923 30.0488C156.923 15.1796 122.483 3.12576 80 3.12576C37.5166 3.12576 3.0769 15.1796 3.0769 30.0488C3.0769 44.918 37.5166 56.9719 80 56.9719ZM27.6658 37.0654V18.5104H24.6153V37.0654H27.6658ZM29.5328 30.8804C29.5328 34.6712 32.0832 37.3648 35.9587 37.3648C39.8342 37.3648 42.3845 34.6712 42.3845 30.8804C42.3845 27.0896 39.8342 24.3961 35.9587 24.3961C32.0832 24.3961 29.5328 27.0896 29.5328 30.8804ZM49.2113 36.8161C45.7358 36.8161 43.4104 34.2224 43.4104 30.631C43.4104 27.0148 45.7858 24.3462 49.3112 24.3462C51.1365 24.3462 52.6867 25.1194 53.4368 26.4163L53.6118 24.7452H56.3122V36.442C56.3122 40.5072 53.7619 43.1257 49.7614 43.1257C46.3608 43.1257 43.8855 41.0309 43.4855 37.8136H46.5609C46.7359 39.4347 48.0361 40.3575 49.9363 40.3575C52.0616 40.3575 53.3368 39.0107 53.3368 36.9906V34.8957C52.5617 36.0928 51.0115 36.8161 49.2113 36.8161ZM57.8217 30.8804C57.8217 34.6712 60.3721 37.3648 64.2477 37.3648C68.1232 37.3648 70.6735 34.6712 70.6735 30.8804C70.6735 27.0896 68.1232 24.3961 64.2477 24.3961C60.3721 24.3961 57.8217 27.0896 57.8217 30.8804ZM75.8 20.4058C75.8 21.4283 74.9749 22.2264 73.9747 22.2264C72.9496 22.2264 72.1745 21.4283 72.1745 20.4058C72.1745 19.4082 72.9496 18.6101 73.9747 18.6101C74.9749 18.6101 75.8 19.4082 75.8 20.4058ZM75.4999 24.7452V37.0654H72.4496V24.7452H75.4999ZM78.1723 42.7766H81.1478V35.3696C81.9229 36.6415 83.5981 37.3896 85.4484 37.3896C89.0989 37.3896 91.2741 34.5964 91.2241 30.7557C91.1491 26.8901 88.9238 24.3712 85.4233 24.3712C83.5481 24.3712 81.8479 25.1942 81.0978 26.6157L80.9227 24.7452H78.1723V42.7766ZM96.9493 37.3896C93.9989 37.3896 92.0986 35.8184 91.9987 33.3744H94.774C94.774 34.4468 95.5491 35.0703 96.8993 35.0703C98.0245 35.0703 98.9496 34.6214 98.9496 33.6487C98.9496 32.9504 98.4495 32.5763 97.6494 32.3519L95.4992 31.8032C93.1238 31.1797 92.1987 29.8579 92.1987 28.2617C92.1987 25.9174 94.1739 24.3712 96.8243 24.3712C99.4996 24.3712 101.325 25.9174 101.425 28.3616H98.6496C98.6496 27.2891 97.8994 26.6407 96.7493 26.6407C95.6491 26.6407 94.9741 27.2392 94.9741 28.0872C94.9741 28.8853 95.5991 29.2095 96.5242 29.4588L98.6996 29.9826C100.725 30.4813 101.825 31.6785 101.825 33.4492C101.825 35.8434 99.8497 37.3896 96.9493 37.3896ZM108.153 37.3896C109.827 37.3896 111.427 36.6165 112.152 35.4693L112.353 37.0654H115.203V24.7452H112.152V31.2047C112.152 33.4243 111.302 34.6712 109.302 34.6712C107.753 34.6712 106.677 33.9231 106.677 31.3793V24.7452H103.627V32.4516C103.627 35.3945 105.227 37.3896 108.153 37.3896ZM120.946 29.9826V37.0654H117.895V24.7452H120.695L120.846 26.1419C121.571 25.0445 122.871 24.3712 124.321 24.3712C126.371 24.3712 127.722 25.269 128.397 26.7155C128.997 25.269 130.472 24.3712 132.348 24.3712C135.348 24.3712 136.923 26.1669 136.923 29.01V37.0654H133.972V29.7082C133.972 27.9625 133.023 27.0397 131.548 27.0397C130.097 27.0397 128.947 27.9875 128.947 30.0075V37.0654H125.971V29.7082C125.971 27.9625 125.022 27.0397 123.571 27.0397C122.122 27.0397 120.946 27.9875 120.946 29.9826Z" fill="#F0F2F5"/>
<rect x="0.5" y="0.548828" width="159" height="59.8" stroke="#161513"/>
</svg>
