<svg width="160" height="31" viewBox="0 0 160 31" fill="none" xmlns="http://www.w3.org/2000/svg">
<g clip-path="url(#clip0_228_926)">
<path d="M38.5656 1.76424H42.5602V23.5533H49.1333V27.1849H38.5656V1.76424Z" fill="#F0F2F5"/>
<path d="M56.6812 27.548C54.7202 27.548 53.2192 26.9912 52.1781 25.8775C51.1371 24.7638 50.6166 23.1902 50.6166 21.1565V7.79256C50.6166 5.75891 51.1371 4.18525 52.1781 3.07159C53.2192 1.95792 54.7202 1.40109 56.6812 1.40109C58.6422 1.40109 60.1432 1.95792 61.1843 3.07159C62.2253 4.18525 62.7458 5.75891 62.7458 7.79256V21.1565C62.7458 23.1902 62.2253 24.7638 61.1843 25.8775C60.1432 26.9912 58.6422 27.548 56.6812 27.548ZM56.6812 23.9165C58.0612 23.9165 58.7512 23.0812 58.7512 21.4107V7.53835C58.7512 5.86785 58.0612 5.0326 56.6812 5.0326C55.3012 5.0326 54.6112 5.86785 54.6112 7.53835V21.4107C54.6112 23.0812 55.3012 23.9165 56.6812 23.9165Z" fill="#F0F2F5"/>
<path d="M71.1124 27.548C69.1756 27.548 67.6988 27.0033 66.6819 25.9138C65.6651 24.8002 65.1567 23.2144 65.1567 21.1565V7.79256C65.1567 5.7347 65.6651 4.16104 66.6819 3.07159C67.6988 1.95792 69.1756 1.40109 71.1124 1.40109C73.0492 1.40109 74.526 1.95792 75.5428 3.07159C76.5597 4.16104 77.0681 5.7347 77.0681 7.79256V9.97146H73.2913V7.53835C73.2913 5.86785 72.6013 5.0326 71.2213 5.0326C69.8414 5.0326 69.1514 5.86785 69.1514 7.53835V21.4471C69.1514 23.0934 69.8414 23.9165 71.2213 23.9165C72.6013 23.9165 73.2913 23.0934 73.2913 21.4471V16.4719H71.294V12.8404H77.0681V21.1565C77.0681 23.2144 76.5597 24.8002 75.5428 25.9138C74.526 27.0033 73.0492 27.548 71.1124 27.548Z" fill="#F0F2F5"/>
<path d="M85.407 27.548C83.446 27.548 81.945 26.9912 80.904 25.8775C79.8629 24.7638 79.3424 23.1902 79.3424 21.1565V7.79256C79.3424 5.75891 79.8629 4.18525 80.904 3.07159C81.945 1.95792 83.446 1.40109 85.407 1.40109C87.3681 1.40109 88.8691 1.95792 89.9101 3.07159C90.9512 4.18525 91.4717 5.75891 91.4717 7.79256V21.1565C91.4717 23.1902 90.9512 24.7638 89.9101 25.8775C88.8691 26.9912 87.3681 27.548 85.407 27.548ZM85.407 23.9165C86.787 23.9165 87.477 23.0812 87.477 21.4107V7.53835C87.477 5.86785 86.787 5.0326 85.407 5.0326C84.0271 5.0326 83.3371 5.86785 83.3371 7.53835V21.4107C83.3371 23.0812 84.0271 23.9165 85.407 23.9165Z" fill="#F0F2F5"/>
<path d="M94.1808 1.76424H98.1755V27.1849H94.1808V1.76424Z" fill="#F0F2F5"/>
<path d="M101.167 1.76424H107.05C109.035 1.76424 110.524 2.29686 111.517 3.36211C112.51 4.42735 113.006 5.9889 113.006 8.04676V10.5525C113.006 12.6104 112.51 14.1719 111.517 15.2372C110.524 16.3024 109.035 16.835 107.05 16.835H105.162V27.1849H101.167V1.76424ZM107.05 13.2035C107.704 13.2035 108.188 13.0219 108.503 12.6588C108.842 12.2956 109.011 11.6783 109.011 10.8067V7.79256C109.011 6.92099 108.842 6.30363 108.503 5.94048C108.188 5.57733 107.704 5.39576 107.05 5.39576H105.162V13.2035H107.05Z" fill="#F0F2F5"/>
<path d="M120.51 27.548C118.574 27.548 117.109 27.0033 116.116 25.9138C115.124 24.8002 114.627 23.2144 114.627 21.1565V19.7039H118.404V21.4471C118.404 23.0934 119.094 23.9165 120.474 23.9165C121.152 23.9165 121.66 23.7228 121.999 23.3355C122.362 22.9239 122.544 22.2702 122.544 21.3744C122.544 20.3092 122.302 19.3771 121.818 18.5782C121.334 17.755 120.438 16.7745 119.13 15.6366C117.484 14.184 116.334 12.8767 115.68 11.7146C115.027 10.5283 114.7 9.19674 114.7 7.71993C114.7 5.71049 115.208 4.16104 116.225 3.07159C117.242 1.95792 118.719 1.40109 120.656 1.40109C122.568 1.40109 124.009 1.95792 124.977 3.07159C125.97 4.16104 126.466 5.7347 126.466 7.79256V8.8457H122.689V7.53835C122.689 6.66679 122.52 6.03732 122.181 5.64996C121.842 5.23839 121.346 5.0326 120.692 5.0326C119.36 5.0326 118.695 5.84364 118.695 7.46572C118.695 8.3857 118.937 9.24516 119.421 10.0441C119.929 10.843 120.837 11.8114 122.145 12.9493C123.815 14.4019 124.965 15.7214 125.595 16.9077C126.224 18.094 126.539 19.486 126.539 21.0839C126.539 23.166 126.018 24.7638 124.977 25.8775C123.96 26.9912 122.471 27.548 120.51 27.548Z" fill="#F0F2F5"/>
<path d="M134.64 27.548C132.703 27.548 131.226 27.0033 130.209 25.9138C129.192 24.8002 128.684 23.2144 128.684 21.1565V1.76424H132.679V21.4471C132.679 22.3186 132.848 22.9481 133.187 23.3355C133.55 23.7228 134.059 23.9165 134.712 23.9165C135.366 23.9165 135.862 23.7228 136.201 23.3355C136.564 22.9481 136.746 22.3186 136.746 21.4471V1.76424H140.595V21.1565C140.595 23.2144 140.087 24.8002 139.07 25.9138C138.053 27.0033 136.576 27.548 134.64 27.548Z" fill="#F0F2F5"/>
<path d="M143.44 1.76424H149.142L151.684 19.9581H151.756L154.299 1.76424H160V27.1849H156.223V7.93782H156.151L153.245 27.1849H149.904L146.999 7.93782H146.927V27.1849H143.44V1.76424Z" fill="#F0F2F5"/>
<path d="M0 27.1849C4.91448 27.1849 8.89841 23.2009 8.89841 18.2865C8.89841 13.372 4.91448 9.38803 0 9.38803V15.6169C1.47433 15.6169 2.66951 16.8121 2.66951 18.2865C2.66951 19.7608 1.47433 20.956 0 20.956V27.1849Z" fill="#F0F2F5"/>
<path d="M29.6614 12.3542C28.1408 11.8725 26.5215 11.6126 24.8414 11.6126C16.0363 11.6126 8.89844 18.7506 8.89844 27.5556C8.89844 28.4394 8.97036 29.3064 9.10862 30.151H19.0145C18.6609 29.3582 18.4643 28.4799 18.4643 27.5556C18.4643 24.0336 21.3194 21.1784 24.8414 21.1784C26.7664 21.1784 28.4921 22.0313 29.6614 23.3798V12.3542Z" fill="#F0F2F5"/>
<path d="M1.56445 0.489594C2.30219 7.16333 7.96024 12.3542 14.8306 12.3542C21.7009 12.3542 27.359 7.16333 28.0967 0.489594H18.5512C17.9619 1.96689 16.5181 3.0108 14.8306 3.0108C13.143 3.0108 11.6993 1.96689 11.1099 0.489594H1.56445Z" fill="#F0F2F5"/>
</g>
<rect x="0.5" y="0.989594" width="159" height="29" stroke="#161513"/>
<defs>
<clipPath id="clip0_228_926">
<rect y="0.489594" width="160" height="30" fill="white"/>
</clipPath>
</defs>
</svg>
