<svg width="160" height="31" viewBox="0 0 160 31" fill="none" xmlns="http://www.w3.org/2000/svg">
<g clip-path="url(#clip0_228_966)">
<path d="M63.2347 5.97584H59.8831V21.0993H69.1616V18.136H63.2347V5.97584Z" fill="#F0F2F5"/>
<path d="M69.4817 15.9696C69.4817 19.1987 71.648 21.3446 74.9179 21.3446C78.1674 21.3446 80.3338 19.1987 80.3338 15.9696C80.3338 12.7405 78.1674 10.5742 74.9179 10.5742C71.648 10.5742 69.4817 12.7405 69.4817 15.9696ZM72.6494 15.9491C72.6494 14.4164 73.5487 13.3946 74.9179 13.3946C76.2668 13.3946 77.1661 14.4164 77.1661 15.9491C77.1661 17.5024 76.2668 18.5243 74.9179 18.5243C73.5487 18.5243 72.6494 17.5024 72.6494 15.9491Z" fill="#F0F2F5"/>
<path d="M80.8401 15.8062C80.8401 18.8921 82.843 20.9767 85.6837 20.9767C87.053 20.9767 88.2384 20.4862 88.831 19.6892V21.0994C88.831 22.5095 87.9522 23.4496 86.399 23.4496C85.0092 23.4496 84.0487 22.7956 83.9874 21.6307H80.7992C81.0853 24.4306 83.2517 26.3108 86.2151 26.3108C89.7098 26.3108 91.917 24.0423 91.917 20.4453V10.8808H89.0762L88.9128 11.923C88.3405 11.0851 87.1347 10.5334 85.7451 10.5334C82.8838 10.5334 80.8401 12.6792 80.8401 15.8062ZM84.0283 15.7244C84.0283 14.2528 85.0092 13.2719 86.2559 13.2719C87.707 13.2719 88.7697 14.2325 88.7697 15.7244C88.7697 17.2163 87.7274 18.2382 86.2763 18.2382C85.0297 18.2382 84.0283 17.2163 84.0283 15.7244Z" fill="#F0F2F5"/>
<path d="M92.8342 15.9696C92.8342 19.1987 95.0007 21.3446 98.2709 21.3446C101.52 21.3446 103.687 19.1987 103.687 15.9696C103.687 12.7405 101.52 10.5742 98.2709 10.5742C95.0007 10.5742 92.8342 12.7405 92.8342 15.9696ZM96.0019 15.9491C96.0019 14.4164 96.901 13.3946 98.2709 13.3946C99.6192 13.3946 100.518 14.4164 100.518 15.9491C100.518 17.5024 99.6192 18.5243 98.2709 18.5243C96.901 18.5243 96.0019 17.5024 96.0019 15.9491Z" fill="#F0F2F5"/>
<path d="M106.4 9.28666C107.381 9.28666 108.178 8.48961 108.178 7.48819C108.178 6.48677 107.381 5.71016 106.4 5.71016C105.399 5.71016 104.602 6.48677 104.602 7.48819C104.602 8.48961 105.399 9.28666 106.4 9.28666ZM104.806 21.0994H107.974V10.8808H104.806V21.0994Z" fill="#F0F2F5"/>
<path d="M109.818 26.0042H112.924V20.0775C113.517 20.8541 114.866 21.3855 116.276 21.3855C119.321 21.3855 121.16 19.0557 121.079 15.8266C120.996 12.5362 119.096 10.5538 116.255 10.5538C114.804 10.5538 113.435 11.1873 112.863 12.1275L112.699 10.8808H109.818V26.0042ZM112.985 15.99C112.985 14.4573 114.007 13.4354 115.479 13.4354C116.97 13.4354 117.911 14.4777 117.911 15.99C117.911 17.5024 116.97 18.5447 115.479 18.5447C114.007 18.5447 112.985 17.5228 112.985 15.99Z" fill="#F0F2F5"/>
<path d="M121.414 17.8703C121.495 19.9344 123.131 21.365 125.706 21.365C128.179 21.365 129.896 20.057 129.896 17.952C129.896 16.4397 128.997 15.4383 127.32 15.0295L125.502 14.5799C124.848 14.4164 124.439 14.2528 124.439 13.7215C124.439 13.1901 124.867 12.8427 125.502 12.8427C126.217 12.8427 126.686 13.3128 126.667 14.0076H129.507C129.425 11.8821 127.811 10.5538 125.563 10.5538C123.295 10.5538 121.598 11.9026 121.598 13.9463C121.598 15.3156 122.354 16.4397 124.377 16.9711L126.175 17.4411C126.707 17.5841 126.931 17.8294 126.931 18.1768C126.931 18.6877 126.462 19.0148 125.665 19.0148C124.745 19.0148 124.255 18.5856 124.255 17.8703H121.414Z" fill="#F0F2F5"/>
<path d="M134.712 21.365C135.96 21.365 137.206 20.7927 137.84 19.9548L138.044 21.0993H141.008V10.8808H137.86V16.1945C137.86 17.7272 137.411 18.5651 135.96 18.5651C134.835 18.5651 134.1 18.0542 134.1 16.1536V10.8808H130.952V17.298C130.952 19.7301 132.301 21.365 134.712 21.365Z" fill="#F0F2F5"/>
<path d="M145.999 21.0994V15.52C145.999 13.8033 146.918 13.3128 147.818 13.3128C148.819 13.3128 149.473 13.9259 149.473 15.193V21.0994H152.579V15.52C152.579 13.7829 153.478 13.2924 154.378 13.2924C155.379 13.2924 156.053 13.9054 156.053 15.193V21.0994H159.12V14.4164C159.12 12.0866 157.893 10.5334 155.256 10.5334C153.785 10.5334 152.579 11.2486 152.048 12.3522C151.435 11.2486 150.372 10.5334 148.676 10.5334C147.552 10.5334 146.51 11.0442 145.897 11.8617L145.774 10.8808H142.83V21.0994H145.999Z" fill="#F0F2F5"/>
<path d="M0 15.0669C0 6.79876 6.70263 0.0961227 14.9708 0.0961227H34.6199C42.888 0.0961227 49.5906 6.79876 49.5906 15.0669V30.0376H14.9708C6.70263 30.0376 0 23.335 0 15.0669Z" fill="#F0F2F5"/>
<path d="M34.6199 5.71016H14.9707C9.80316 5.71016 5.61401 9.89931 5.61401 15.0669C5.61401 20.2345 9.80316 24.4236 14.9707 24.4236H34.6199C39.7874 24.4236 43.9766 20.2345 43.9766 15.0669C43.9766 9.89931 39.7874 5.71016 34.6199 5.71016Z" fill="#1C1C22"/>
<path d="M14.9707 19.7452C17.5545 19.7452 19.6491 17.6507 19.6491 15.0669C19.6491 12.4831 17.5545 10.3885 14.9707 10.3885C12.3869 10.3885 10.2924 12.4831 10.2924 15.0669C10.2924 17.6507 12.3869 19.7452 14.9707 19.7452Z" fill="#161513"/>
<path d="M13.0994 14.1312C13.6161 14.1312 14.035 13.7123 14.035 13.1955C14.035 12.6788 13.6161 12.2599 13.0994 12.2599C12.5826 12.2599 12.1637 12.6788 12.1637 13.1955C12.1637 13.7123 12.5826 14.1312 13.0994 14.1312Z" fill="#F0F2F5"/>
<path d="M35.5556 19.7452C38.1393 19.7452 40.2339 17.6507 40.2339 15.0669C40.2339 12.4831 38.1393 10.3885 35.5556 10.3885C32.9718 10.3885 30.8772 12.4831 30.8772 15.0669C30.8772 17.6507 32.9718 19.7452 35.5556 19.7452Z" fill="#161513"/>
<path d="M33.6842 14.1312C34.201 14.1312 34.6199 13.7123 34.6199 13.1955C34.6199 12.6788 34.201 12.2599 33.6842 12.2599C33.1674 12.2599 32.7485 12.6788 32.7485 13.1955C32.7485 13.7123 33.1674 14.1312 33.6842 14.1312Z" fill="#F0F2F5"/>
</g>
<rect x="0.5" y="0.596123" width="159" height="28.9415" stroke="#161513"/>
<defs>
<clipPath id="clip0_228_966">
<rect y="0.0961227" width="160" height="29.9415" fill="white"/>
</clipPath>
</defs>
</svg>
