<svg width="160" height="57" viewBox="0 0 160 57" fill="none" xmlns="http://www.w3.org/2000/svg">
<g clip-path="url(#clip0_228_940)">
<path fill-rule="evenodd" clip-rule="evenodd" d="M146.87 35.1503C145.213 35.2888 143.512 34.6781 142.314 33.3466L138.373 28.9714C137.026 27.4751 135.99 25.7521 135.299 23.9014C135.223 23.9311 135.145 23.963 135.07 23.9968C135.575 25.6445 136.35 27.2133 137.383 28.6337L140.843 33.3968C142.128 35.1657 144.295 35.916 146.302 35.4834C146.389 35.4397 146.474 35.3935 146.559 35.3446C146.665 35.2829 146.769 35.2181 146.87 35.1503ZM147.133 34.9625C145.437 35.1928 143.662 34.608 142.43 33.2407L138.491 28.8656C137.158 27.3843 136.132 25.6788 135.448 23.8469C135.514 23.8242 135.578 23.8029 135.644 23.7831C136.54 25.7861 137.85 27.6011 139.512 29.0976L143.887 33.0372C144.978 34.0189 146.353 34.4848 147.712 34.4505C147.534 34.6331 147.34 34.8044 147.133 34.9625ZM147.195 35.1135C147.102 35.1832 147.007 35.2504 146.909 35.3148C147.121 35.2419 147.331 35.1549 147.535 35.0537C147.422 35.0772 147.309 35.0971 147.195 35.1135ZM148.079 34.7452C147.872 34.8129 147.662 34.8676 147.451 34.9094C147.625 34.762 147.788 34.6052 147.94 34.4401C148.164 34.4252 148.387 34.3967 148.608 34.3546C148.514 34.4327 148.418 34.508 148.319 34.5807C148.239 34.6379 148.159 34.6928 148.079 34.7452ZM148.147 34.8891C147.585 35.2508 146.978 35.4974 146.356 35.6337C143.768 36.9371 140.579 36.0071 139.111 33.465L136.168 28.3663C135.423 27.0779 134.872 25.7037 134.517 24.2858L130.369 26.6802C127.735 28.2016 124.365 27.2988 122.844 24.6636C122.451 23.984 122.22 23.2556 122.138 22.5225C121.902 21.8972 121.787 21.2527 121.783 20.6163C121.613 19.9695 121.566 19.3163 121.628 18.6829C121.527 18.0226 121.548 17.3687 121.677 16.7459C121.645 16.0777 121.734 15.4287 121.927 14.8218C121.965 14.1539 122.122 13.5178 122.378 12.9344C122.486 12.2745 122.708 11.6586 123.023 11.1054C123.199 10.4605 123.485 9.87144 123.856 9.35424C124.098 8.73143 124.444 8.17555 124.866 7.7C125.173 7.1056 125.575 6.58866 126.045 6.15969C126.412 5.60068 126.866 5.12867 127.378 4.75126C127.802 4.23362 128.302 3.81159 128.851 3.4898C129.327 3.01928 129.868 2.65196 130.448 2.38934C130.97 1.97108 131.548 1.66245 132.151 1.46188C132.714 1.10043 133.321 0.853845 133.942 0.717497C136.531 -0.586153 139.719 0.3438 141.187 2.88603L143.641 7.13715C144.56 8.72779 145.186 10.4492 145.509 12.2222L149.93 9.66991C152.565 8.14852 155.934 9.05137 157.456 11.6865C157.848 12.3657 158.079 13.0937 158.161 13.8262C158.397 14.4518 158.513 15.0965 158.517 15.733C158.687 16.3796 158.734 17.0327 158.672 17.6661C158.773 18.3277 158.752 18.9828 158.623 19.6067C158.655 20.2744 158.565 20.9228 158.372 21.529C158.334 22.1961 158.178 22.8316 157.922 23.4144C157.815 24.0744 157.592 24.6902 157.277 25.2434C157.101 25.8886 156.815 26.4779 156.444 26.9954C156.202 27.6188 155.856 28.1751 155.432 28.651C155.126 29.2453 154.724 29.7621 154.254 30.1909C153.887 30.7501 153.434 31.2221 152.921 31.5996C152.498 32.1172 151.996 32.5391 151.448 32.8609C150.973 33.3315 150.43 33.6989 149.85 33.9615C149.328 34.3799 148.752 34.6886 148.147 34.8891ZM149.26 34.189C149.067 34.3111 148.867 34.4195 148.663 34.5142C148.754 34.4398 148.842 34.363 148.927 34.284C149.039 34.2558 149.149 34.2242 149.26 34.189ZM150.325 33.5348C150.517 33.4193 150.703 33.2906 150.884 33.149C150.778 33.1955 150.672 33.2386 150.564 33.2782C150.486 33.3657 150.408 33.4513 150.325 33.5348ZM150.253 33.3818C150.169 33.4692 150.08 33.5542 149.989 33.6368C149.916 33.7021 149.842 33.7649 149.768 33.8255C149.569 33.9144 149.366 33.9907 149.161 34.0544C149.318 33.8896 149.464 33.7167 149.597 33.5366C149.818 33.4984 150.038 33.4467 150.253 33.3818ZM150.771 33.0255C150.969 32.9407 151.163 32.8435 151.351 32.7344C151.418 32.6662 151.486 32.596 151.55 32.5235C151.633 32.4318 151.712 32.338 151.787 32.2424C151.58 32.3295 151.368 32.4038 151.152 32.465C151.037 32.6579 150.91 32.8452 150.771 33.0255ZM150.931 32.5225C150.794 32.7381 150.64 32.9457 150.471 33.1436C150.229 33.2304 149.981 33.2996 149.729 33.3508C149.882 33.1269 150.016 32.8935 150.132 32.6525C150.401 32.6288 150.668 32.5851 150.931 32.5225ZM151.263 32.2664C151.507 32.1892 151.747 32.0944 151.978 31.9827C152.127 31.7681 152.258 31.5456 152.372 31.3168C152.117 31.4066 151.856 31.4778 151.591 31.5296C151.501 31.7814 151.392 32.0278 151.263 32.2664ZM151.411 31.5619C151.31 31.8252 151.19 32.0821 151.048 32.3296C150.773 32.4038 150.493 32.4562 150.209 32.4862C150.333 32.2094 150.432 31.9235 150.507 31.632C150.811 31.6336 151.114 31.6099 151.411 31.5619ZM151.472 31.3909C151.572 31.0965 151.647 30.7948 151.694 30.4894C151.359 30.5127 151.02 30.5055 150.678 30.4656C150.665 30.8052 150.62 31.1428 150.545 31.4739C150.857 31.4734 151.168 31.4452 151.472 31.3909ZM151.651 31.3561C151.743 31.0679 151.812 30.7734 151.856 30.4756C152.159 30.4454 152.457 30.3902 152.748 30.3113C152.677 30.5837 152.583 30.8518 152.467 31.1129C152.202 31.2152 151.929 31.2967 151.651 31.3561ZM152.585 31.2365C152.491 31.4403 152.385 31.6398 152.265 31.8339C152.453 31.7287 152.636 31.612 152.811 31.4839C152.872 31.409 152.931 31.332 152.988 31.2532C153.06 31.1532 153.129 31.0518 153.194 30.9488C152.997 31.057 152.794 31.1531 152.585 31.2365ZM153.357 30.6704C153.139 30.8057 152.91 30.9249 152.676 31.0273C152.778 30.7766 152.861 30.5203 152.924 30.2604C153.183 30.1812 153.435 30.0831 153.679 29.9673C153.59 30.2067 153.482 30.4416 153.357 30.6704ZM153.476 30.7829C153.42 30.8844 153.36 30.9846 153.295 31.0835C153.46 30.9305 153.616 30.7658 153.762 30.5899C153.669 30.6574 153.573 30.7217 153.476 30.7829ZM154.133 30.0873C153.972 30.2331 153.803 30.3683 153.627 30.4925C153.726 30.2872 153.811 30.0775 153.882 29.8651C154.081 29.7605 154.273 29.6436 154.458 29.5154C154.404 29.6245 154.347 29.7325 154.284 29.8395C154.236 29.9239 154.185 30.0066 154.133 30.0873ZM154.573 29.6387C154.721 29.4693 154.858 29.2892 154.985 29.0991C154.899 29.176 154.811 29.2499 154.721 29.321C154.676 29.4278 154.626 29.5337 154.573 29.6387ZM154.841 29.0165C154.917 28.8017 154.98 28.5845 155.029 28.3655C155.215 28.2406 155.394 28.1043 155.564 27.9574C155.524 28.0716 155.477 28.1851 155.427 28.2979C155.387 28.387 155.346 28.4746 155.302 28.5606C155.157 28.7224 155.002 28.8745 154.841 29.0165ZM154.592 29.2215C154.692 28.9808 154.773 28.7358 154.837 28.4886C154.607 28.6292 154.367 28.753 154.118 28.8589C154.081 29.124 154.027 29.3876 153.95 29.6476C154.174 29.5212 154.387 29.3789 154.592 29.2215ZM153.752 29.7545C153.84 29.4828 153.905 29.2063 153.948 28.9278C153.667 29.0367 153.376 29.1228 153.078 29.1845C153.065 29.4853 153.027 29.7854 152.965 30.0816C153.236 29.9935 153.5 29.884 153.752 29.7545ZM152.792 30.1349C152.861 29.8317 152.903 29.5238 152.918 29.2151C152.588 29.2735 152.249 29.3018 151.905 29.2977C151.928 29.6368 151.919 29.9772 151.878 30.3144C152.189 30.2811 152.494 30.2208 152.792 30.1349ZM151.717 30.3291C151.76 29.9859 151.77 29.6391 151.746 29.2937C151.439 29.2811 151.129 29.2428 150.818 29.1766L150.566 29.1233C150.649 29.5146 150.687 29.9115 150.682 30.3069C151.03 30.3484 151.376 30.3551 151.717 30.3291ZM150.524 30.2855C150.527 29.885 150.485 29.4829 150.397 29.0872L149.053 28.8012C149.195 29.1871 149.293 29.5822 149.345 29.9793L149.658 30.0811C149.945 30.1744 150.235 30.2421 150.524 30.2855ZM149.178 29.9249C149.12 29.5323 149.017 29.1423 148.867 28.7621L145.059 27.9526C142.001 27.3024 139.227 25.7692 137.063 23.5763C137.046 23.5762 137.03 23.5762 137.013 23.5763C138.874 25.7353 141.304 27.3664 144.06 28.2618L149.178 29.9249ZM136.81 23.5819C138.7 25.8111 141.186 27.4944 144.01 28.4121L149.2 30.0986C149.247 30.5014 149.247 30.9057 149.201 31.3037C148.918 31.2304 148.637 31.1328 148.362 31.0099L142.983 28.6153C140.476 27.4991 138.329 25.7572 136.729 23.5866C136.756 23.5848 136.783 23.5833 136.81 23.5819ZM136.881 23.4208C136.891 23.4204 136.902 23.4201 136.912 23.4199C136.86 23.3657 136.808 23.3112 136.757 23.2562C136.752 23.2556 136.748 23.2548 136.743 23.2542C136.789 23.3101 136.834 23.3655 136.881 23.4208ZM136.516 23.224C136.571 23.2935 136.627 23.3626 136.684 23.4312C136.663 23.4327 136.641 23.4344 136.62 23.4363C136.568 23.3641 136.517 23.2918 136.466 23.2188C136.483 23.2204 136.499 23.2222 136.516 23.224ZM137.293 23.5826C139.417 25.691 142.119 27.1658 145.092 27.7978L148.795 28.5848C148.714 28.3984 148.621 28.2148 148.517 28.0346L148.278 27.6196L146.055 27.3859C142.795 27.0434 139.746 25.7037 137.305 23.5832C137.302 23.5831 137.298 23.5828 137.293 23.5826ZM137.78 23.7756C140.131 25.6944 143.007 26.9066 146.071 27.2287L148.18 27.4502L147.757 26.7183H146.984C143.663 26.7183 140.449 25.6772 137.78 23.7756ZM147.94 26.7183L148.375 27.4707L149.835 27.6242C149.736 27.4473 149.624 27.2742 149.502 27.106L149.22 26.7183H147.94ZM149.106 26.5602H147.849L147.519 25.9876C147.625 25.9785 147.733 25.9683 147.84 25.957L148.608 25.8763L149.106 26.5602ZM149.416 26.7183L149.63 27.013C149.778 27.2172 149.911 27.4281 150.027 27.6444L151.423 27.7912C151.285 27.4194 151.103 27.0593 150.879 26.7183H149.416ZM150.771 26.5602H149.302L148.79 25.8572L150.063 25.7234L150.385 26.0793C150.523 26.234 150.653 26.3946 150.771 26.5602ZM151.067 26.7183C151.288 27.0661 151.464 27.4322 151.599 27.8096L151.926 27.844C152.226 27.8756 152.524 27.8816 152.815 27.864C152.735 27.4717 152.611 27.0871 152.443 26.7183H151.067ZM152.367 26.5602H150.963C150.824 26.3572 150.67 26.1611 150.502 25.9735L150.258 25.7029L151.713 25.5501C151.972 25.8656 152.19 26.2048 152.367 26.5602ZM152.616 26.7183C152.777 27.0842 152.896 27.4645 152.975 27.8519C153.323 27.8203 153.663 27.7549 153.991 27.6585C153.962 27.3139 153.9 26.9725 153.806 26.6397C153.502 26.6914 153.19 26.7183 152.872 26.7183H152.616ZM153.759 26.4869C153.47 26.5351 153.175 26.5602 152.872 26.5602H152.543C152.371 26.1989 152.156 25.8532 151.901 25.5304L153.269 25.3865C153.474 25.7357 153.638 26.1052 153.759 26.4869ZM153.962 26.6106C154.053 26.9377 154.116 27.2725 154.146 27.6105C154.443 27.5135 154.729 27.3908 155.002 27.2452C155.007 26.9341 154.984 26.6242 154.935 26.3191C154.623 26.4449 154.298 26.5432 153.962 26.6106ZM154.907 26.1597C154.59 26.2899 154.259 26.3906 153.916 26.4584C153.798 26.0811 153.639 25.7154 153.441 25.3685L153.695 25.3417C154.011 25.3084 154.319 25.249 154.616 25.1659C154.744 25.4871 154.842 25.82 154.907 26.1597ZM155.084 26.256C155.135 26.5528 155.161 26.8542 155.161 27.1569C155.407 27.0143 155.642 26.8524 155.863 26.6731C155.892 26.389 155.898 26.1051 155.882 25.8238C155.63 25.9888 155.364 26.1335 155.084 26.256ZM155.869 25.6428C155.613 25.8163 155.341 25.9682 155.055 26.0958C154.989 25.7629 154.893 25.4363 154.767 25.1207C155.096 25.0184 155.409 24.8867 155.705 24.7288C155.787 25.0273 155.841 25.333 155.869 25.6428ZM156.034 25.721C156.055 25.9879 156.055 26.2572 156.034 26.5273C156.226 26.3572 156.406 26.1733 156.573 25.9768C156.621 25.7206 156.65 25.4641 156.66 25.2091C156.465 25.3945 156.255 25.5657 156.034 25.721ZM156.665 24.9838C156.465 25.1852 156.248 25.3708 156.018 25.5384C155.986 25.2374 155.929 24.9404 155.848 24.6504C156.113 24.4995 156.362 24.3277 156.596 24.1374C156.641 24.4153 156.664 24.6982 156.665 24.9838ZM156.823 25.0488C156.82 25.273 156.804 25.4985 156.773 25.7244C156.903 25.5518 157.022 25.3709 157.13 25.1824C157.156 25.0895 157.178 24.9954 157.197 24.9002C157.224 24.7793 157.246 24.6585 157.262 24.538C157.126 24.7172 156.979 24.8877 156.823 25.0488ZM157.298 24.2174C157.153 24.4299 156.994 24.6316 156.82 24.8208C156.813 24.5503 156.783 24.2824 156.736 24.0191C156.94 23.8416 157.13 23.6495 157.305 23.4448C157.322 23.6994 157.319 23.9574 157.298 24.2174ZM157.453 24.2718C157.443 24.3874 157.429 24.5033 157.409 24.6194C157.498 24.4128 157.573 24.1991 157.636 23.9791C157.577 24.0787 157.516 24.1763 157.453 24.2718ZM157.769 23.3692C157.681 23.5678 157.582 23.7601 157.472 23.9452C157.478 23.7174 157.472 23.4915 157.45 23.2684C157.589 23.092 157.717 22.9071 157.834 22.7149C157.829 22.8364 157.821 22.9586 157.807 23.0814C157.797 23.1782 157.784 23.2741 157.769 23.3692ZM157.989 22.7799C158.055 22.5655 158.108 22.3454 158.146 22.1205C158.099 22.2254 158.048 22.3287 157.995 22.4302C157.996 22.5461 157.995 22.6627 157.989 22.7799ZM157.98 22.1033C158.07 21.9079 158.149 21.7065 158.216 21.4999C158.221 21.4035 158.223 21.3065 158.223 21.2088C158.223 21.0857 158.22 20.9635 158.211 20.8424C158.116 21.0457 158.008 21.2428 157.888 21.4326C157.931 21.6523 157.963 21.8761 157.98 22.1033ZM157.837 21.2101C157.968 20.9893 158.083 20.7591 158.179 20.5212C158.146 20.2624 158.095 20.0094 158.025 19.7635C157.897 20.0001 157.751 20.2273 157.589 20.4433C157.69 20.6909 157.774 20.9471 157.837 21.2101ZM157.477 20.588C157.578 20.8505 157.66 21.1226 157.719 21.4019C157.566 21.6403 157.393 21.8666 157.202 22.0783C157.109 21.7906 156.99 21.512 156.852 21.2449C157.078 21.0425 157.288 20.8226 157.477 20.588ZM157.516 20.2746C157.684 20.0443 157.832 19.8011 157.961 19.5478C157.872 19.2763 157.763 19.0143 157.633 18.7639C157.47 19.017 157.285 19.2575 157.081 19.4825C157.247 19.7334 157.393 19.9983 157.516 20.2746ZM156.97 19.6012C157.138 19.86 157.285 20.1339 157.407 20.4198C157.218 20.6638 157.006 20.8923 156.775 21.1017C156.608 20.8054 156.416 20.5247 156.199 20.2633C156.479 20.0648 156.736 19.8428 156.97 19.6012ZM156.989 19.3482C157.197 19.1156 157.384 18.8664 157.548 18.6038C157.396 18.3321 157.222 18.0751 157.026 17.8354C156.819 18.1 156.587 18.3478 156.329 18.5744C156.573 18.8116 156.794 19.0707 156.989 19.3482ZM156.208 18.6777C156.457 18.9187 156.682 19.1831 156.879 19.467C156.644 19.7144 156.381 19.941 156.095 20.1427C155.835 19.8461 155.54 19.5766 155.218 19.3403L155.44 19.2125C155.714 19.0535 155.972 18.8742 156.208 18.6777ZM156.213 18.4652C156.477 18.2349 156.714 17.9821 156.922 17.7113C155.942 16.576 154.49 15.8576 152.872 15.8576H146.984C146.566 15.8576 146.154 15.8052 145.755 15.7041C145.75 15.8138 145.745 15.9236 145.738 16.0334C146.199 16.2392 146.695 16.3735 147.206 16.4274L153.062 17.0428C154.286 17.1714 155.373 17.6914 156.213 18.4652ZM145.727 16.2012C146.188 16.4006 146.681 16.5311 147.19 16.5846L153.045 17.2001C154.226 17.3243 155.277 17.8241 156.093 18.5683C155.867 18.7545 155.622 18.9244 155.36 19.0756L155.076 19.2397C154.499 18.8443 153.836 18.553 153.109 18.3984L147.35 17.1744C146.758 17.0485 146.201 16.8142 145.704 16.4888C145.712 16.393 145.719 16.2971 145.727 16.2012ZM145.583 15.9612C145.59 15.8614 145.594 15.7615 145.597 15.6617C145.562 15.6513 145.525 15.6405 145.489 15.6292C145.493 15.7253 145.496 15.8214 145.497 15.9177C145.525 15.9325 145.554 15.947 145.583 15.9612ZM145.498 16.0957C145.524 16.1079 145.548 16.1198 145.573 16.1316C145.567 16.2167 145.561 16.3017 145.553 16.3868C145.535 16.3734 145.516 16.36 145.497 16.3462C145.498 16.2627 145.498 16.1791 145.498 16.0957ZM145.337 15.8318C145.335 15.7465 145.333 15.6613 145.329 15.5761C145.304 15.5669 145.277 15.5577 145.252 15.5482C145.261 15.6312 145.27 15.7144 145.277 15.7975C145.296 15.8091 145.317 15.8205 145.337 15.8318ZM145.294 15.9888C145.309 15.9972 145.324 16.0055 145.34 16.0138C145.341 16.0847 145.341 16.1555 145.34 16.2264C145.329 16.2182 145.319 16.21 145.309 16.2017C145.304 16.1308 145.299 16.0596 145.294 15.9888ZM145.109 15.6948C145.101 15.6242 145.093 15.5537 145.086 15.4834C145.069 15.4768 145.054 15.4702 145.037 15.4633C145.05 15.5334 145.063 15.6035 145.076 15.6737C145.086 15.6807 145.097 15.6878 145.109 15.6948ZM145.11 15.8824C145.116 15.8857 145.121 15.8891 145.126 15.8924C145.131 15.9478 145.136 16.0033 145.14 16.0586L145.136 16.0553C145.129 15.9977 145.12 15.9399 145.11 15.8824ZM144.893 15.549C144.882 15.4943 144.872 15.4397 144.861 15.3851C144.856 15.3823 144.849 15.3794 144.843 15.3766C144.858 15.433 144.874 15.4895 144.888 15.546L144.893 15.549ZM144.787 15.1728C144.799 15.1788 144.81 15.1846 144.822 15.1904C144.808 15.121 144.792 15.0515 144.777 14.9822C144.761 14.9774 144.744 14.9724 144.728 14.9673C144.748 15.0356 144.767 15.1041 144.787 15.1728ZM144.543 14.9078C144.56 14.9611 144.576 15.0144 144.592 15.068L144.588 15.0655C144.568 15.0106 144.546 14.9559 144.526 14.9013C144.532 14.9035 144.537 14.9056 144.543 14.9078ZM144.672 14.7837C144.693 14.7909 144.715 14.7979 144.736 14.8048C144.717 14.7216 144.697 14.6386 144.677 14.5558C144.649 14.5522 144.622 14.5485 144.594 14.5446C144.621 14.6241 144.646 14.7038 144.672 14.7837ZM144.418 14.5158C144.441 14.5832 144.463 14.6506 144.485 14.7183C144.472 14.7137 144.46 14.7092 144.448 14.7045C144.422 14.6382 144.395 14.572 144.367 14.5061C144.383 14.5094 144.401 14.5127 144.418 14.5158ZM144.538 14.3758C144.57 14.381 144.602 14.3859 144.634 14.3904C144.608 14.2937 144.582 14.1972 144.555 14.101C144.517 14.1023 144.48 14.1031 144.442 14.1035C144.475 14.194 144.507 14.2848 144.538 14.3758ZM144.273 14.1026C144.302 14.1826 144.331 14.2629 144.359 14.3436C144.336 14.339 144.315 14.3343 144.292 14.3295C144.259 14.2527 144.225 14.1762 144.19 14.0999C144.218 14.101 144.246 14.1019 144.273 14.1026ZM144.383 13.9456C144.425 13.9456 144.467 13.9451 144.509 13.9441C144.476 13.8328 144.442 13.7219 144.408 13.6114C144.359 13.6209 144.312 13.6298 144.265 13.6379C144.306 13.74 144.345 13.8426 144.383 13.9456ZM144.104 13.6629C144.142 13.7558 144.178 13.849 144.213 13.9426C144.182 13.9414 144.149 13.9399 144.117 13.9381C144.076 13.8508 144.036 13.7638 143.994 13.6772C144.03 13.6728 144.067 13.6681 144.104 13.6629ZM144.204 13.4878C144.255 13.4793 144.307 13.4701 144.358 13.46C144.316 13.3324 144.272 13.2054 144.226 13.0791C144.17 13.1009 144.114 13.1217 144.057 13.1415C144.108 13.2563 144.156 13.3718 144.204 13.4878ZM143.907 13.1915C143.953 13.2976 143.999 13.4044 144.043 13.5117C144.001 13.517 143.961 13.5219 143.919 13.5263C143.869 13.4279 143.82 13.33 143.769 13.2327C143.815 13.2196 143.86 13.2059 143.907 13.1915ZM143.994 12.9964C144.053 12.9757 144.113 12.9536 144.173 12.9305C143.298 10.5697 141.859 8.43142 139.954 6.71572L136.306 3.43109C135.204 2.43932 133.804 1.98955 132.433 2.06459C132.241 2.27702 132.07 2.50297 131.917 2.73978C132.95 2.7908 133.98 3.13264 134.879 3.78566L138.849 6.67098C141.106 8.30974 142.869 10.4976 143.994 12.9964ZM131.821 2.89415C132.853 2.92822 133.887 3.26085 134.786 3.91362L138.757 6.79893C140.985 8.418 142.729 10.5785 143.842 13.0461C143.792 13.0614 143.742 13.076 143.693 13.0897C142.307 10.5171 140.226 8.35451 137.655 6.86981L133.403 4.41542C132.772 4.05061 132.098 3.8252 131.417 3.72962C131.526 3.44092 131.662 3.16124 131.821 2.89415ZM131.733 2.73377C131.874 2.50638 132.033 2.28828 132.208 2.08161C131.953 2.10632 131.699 2.14927 131.449 2.21035C131.26 2.38925 131.086 2.57972 130.927 2.77982C131.194 2.74488 131.464 2.72942 131.733 2.73377ZM130.791 2.95948C131.072 2.91438 131.355 2.89149 131.639 2.89125C131.489 3.1537 131.361 3.42746 131.256 3.70941C130.952 3.67607 130.65 3.66815 130.349 3.68482C130.476 3.43337 130.623 3.19069 130.791 2.95948ZM130.701 2.81407C130.836 2.63413 130.98 2.46118 131.138 2.29643C130.932 2.36011 130.73 2.43643 130.532 2.52532C130.457 2.58593 130.382 2.64888 130.31 2.71419C130.218 2.79671 130.131 2.88167 130.046 2.9689C130.262 2.90398 130.48 2.8523 130.701 2.81407ZM129.829 3.20722C130.07 3.12036 130.317 3.05115 130.569 2.99989C130.416 3.22369 130.282 3.45714 130.166 3.69801C129.897 3.72193 129.63 3.76552 129.368 3.82819C129.505 3.61262 129.658 3.405 129.829 3.20722ZM129.736 3.07258C129.812 2.98516 129.891 2.89965 129.973 2.81622C129.782 2.93167 129.595 3.06016 129.416 3.20165C129.521 3.15523 129.628 3.1122 129.736 3.07258ZM128.949 3.61633C129.136 3.50725 129.329 3.41019 129.528 3.32535C129.388 3.50567 129.261 3.69291 129.147 3.88582C128.931 3.94698 128.719 4.02124 128.512 4.10829C128.587 4.01263 128.665 3.91887 128.748 3.82717C128.814 3.75469 128.88 3.6844 128.949 3.61633ZM128.424 3.96384C128.245 4.09883 128.072 4.24618 127.909 4.40572C128.009 4.3485 128.11 4.29452 128.215 4.24382C128.281 4.14887 128.35 4.05549 128.424 3.96384ZM128.034 4.51691C127.845 4.62201 127.663 4.73879 127.488 4.86694C127.427 4.94176 127.368 5.01862 127.31 5.09751C127.238 5.1973 127.169 5.29878 127.105 5.40172C127.303 5.29346 127.506 5.19738 127.714 5.11398C127.807 4.91022 127.914 4.71078 128.034 4.51691ZM127.624 5.32322C127.388 5.42558 127.161 5.5448 126.942 5.6801C126.817 5.9089 126.71 6.14388 126.621 6.38313C126.864 6.26735 127.116 6.16924 127.374 6.0899C127.439 5.83009 127.521 5.57379 127.624 5.32322ZM127.55 6.03895C127.623 5.76662 127.716 5.4986 127.832 5.23761C128.096 5.13521 128.369 5.05377 128.648 4.99435C128.555 5.2824 128.486 5.57686 128.442 5.87452C128.14 5.90481 127.841 5.96011 127.55 6.03895ZM127.333 6.26871C127.063 6.35694 126.8 6.4665 126.547 6.59606C126.459 6.86772 126.394 7.14405 126.351 7.42237C126.632 7.31356 126.923 7.22739 127.22 7.16562C127.234 6.86495 127.271 6.5649 127.333 6.26871ZM127.38 7.13497C127.396 6.82636 127.439 6.51859 127.507 6.21535C127.804 6.12952 128.11 6.06911 128.42 6.03582C128.38 6.37281 128.371 6.71311 128.394 7.05207C128.049 7.0482 127.712 7.07661 127.38 7.13497ZM127.216 7.3283C126.911 7.39388 126.613 7.48589 126.326 7.60233C126.289 7.91115 126.28 8.22167 126.296 8.53023C126.619 8.43762 126.953 8.37396 127.295 8.34198C127.238 8.00713 127.211 7.66769 127.216 7.3283ZM127.454 8.32947C127.394 7.98848 127.368 7.64248 127.375 7.29673C127.71 7.23518 128.056 7.20555 128.405 7.21043C128.443 7.60396 128.522 7.99469 128.644 8.37534L128.39 8.34869C128.074 8.31542 127.761 8.30966 127.454 8.32947ZM127.324 8.49815C126.976 8.52983 126.636 8.59536 126.308 8.69172C126.337 9.03633 126.399 9.37767 126.494 9.7106C126.797 9.6588 127.11 9.63183 127.427 9.63183L127.683 9.63182C127.521 9.266 127.402 8.88568 127.324 8.49815ZM127.856 9.63182C127.688 9.26302 127.563 8.87843 127.483 8.4861C127.775 8.46834 128.072 8.47437 128.373 8.50599L128.7 8.54022C128.834 8.91767 129.011 9.28397 129.23 9.63182H127.856ZM127.755 9.78999H127.427C127.125 9.78999 126.828 9.81508 126.54 9.86327C126.661 10.245 126.825 10.6144 127.031 10.9636L128.397 10.8199C128.142 10.497 127.929 10.1513 127.755 9.78999ZM128.585 10.8002C128.326 10.4846 128.108 10.1454 127.931 9.78999H129.335C129.473 9.99325 129.628 10.1896 129.797 10.3775L130.039 10.6474L128.585 10.8002ZM128.518 10.9663L127.122 11.113C127.335 11.448 127.587 11.7626 127.878 12.0493L129.308 11.7453L129.039 11.5022C128.851 11.3331 128.677 11.1539 128.518 10.9663ZM129.5 11.7046L129.144 11.3847C128.989 11.2452 128.844 11.0987 128.71 10.9462L130.17 10.7927L130.752 11.4385C130.745 11.4399 130.738 11.4414 130.731 11.4429L129.5 11.7046ZM129.454 11.8761L128.016 12.1815C128.166 12.3191 128.326 12.4497 128.495 12.5722L128.881 12.8533L130.079 12.4643C130.086 12.4621 130.093 12.4599 130.099 12.4576L129.454 11.8761ZM130.274 12.4022L129.644 11.8354L130.764 11.5976C130.801 11.5897 130.838 11.5821 130.875 11.5745L131.355 12.1079C130.992 12.193 130.632 12.2911 130.274 12.4022ZM130.236 12.5802C130.199 12.5916 130.164 12.6031 130.128 12.6148L129.04 12.9682L129.726 13.4661C130.07 13.3182 130.418 13.1829 130.769 13.0604L130.236 12.5802ZM130.94 13.0019L130.411 12.5256C130.763 12.4184 131.119 12.324 131.476 12.2422L131.9 12.7131C131.577 12.799 131.257 12.8953 130.94 13.0019ZM130.903 13.1813C130.557 13.3 130.213 13.4309 129.874 13.5744L130.449 13.9928C130.754 13.8537 131.063 13.7244 131.374 13.6053L130.903 13.1813ZM131.54 13.5426L131.076 13.1235C131.388 13.0208 131.702 12.928 132.019 12.8453L132.389 13.2561C132.104 13.3435 131.821 13.4389 131.54 13.5426ZM131.506 13.7243C131.2 13.8397 130.896 13.9649 130.597 14.0998L132.466 15.4575C133.298 16.0622 133.917 16.9037 134.251 17.8621C134.254 17.85 134.255 17.8378 134.258 17.8257C134.121 16.6591 133.564 15.5776 132.687 14.7869L131.506 13.7243ZM134.197 18.2189C133.906 17.1649 133.266 16.2344 132.373 15.5855L130.432 14.1752C130.1 14.3294 129.773 14.4956 129.45 14.6737L132.225 16.2755C133.068 16.7629 133.745 17.4817 134.182 18.3368C134.187 18.2975 134.192 18.2581 134.197 18.2189ZM134.145 18.6278C133.731 17.7033 133.034 16.9255 132.145 16.4125L129.289 14.7636C129.256 14.7823 129.223 14.8012 129.191 14.8201L128.201 15.3917L132.07 17.1142C132.902 17.4848 133.61 18.072 134.126 18.8045C134.132 18.7455 134.138 18.6867 134.145 18.6278ZM134.103 19.052C133.595 18.2697 132.87 17.6436 132.005 17.2586L128.032 15.4895L126.759 16.224C126.944 16.3084 127.136 16.3833 127.335 16.4477L132.003 17.9645C132.803 18.2242 133.515 18.6782 134.084 19.2764C134.09 19.2016 134.095 19.1268 134.103 19.052ZM134.07 19.4941C133.503 18.8609 132.776 18.3819 131.954 18.115L127.285 16.5981C127.045 16.52 126.814 16.4269 126.592 16.3203L125.377 17.0222C125.922 17.3846 126.544 17.6521 127.224 17.7967L132.025 18.8172C132.772 18.976 133.465 19.3014 134.056 19.7608C134.06 19.672 134.065 19.5831 134.07 19.4941ZM134.209 19.885C134.212 19.813 134.216 19.7409 134.218 19.6688C134.221 19.6722 134.225 19.6755 134.227 19.6788C134.229 19.754 134.23 19.8292 134.232 19.9043C134.225 19.8979 134.217 19.8915 134.209 19.885ZM134.049 19.9574C133.458 19.4745 132.754 19.1338 131.992 18.972L127.191 17.9515C126.464 17.7969 125.801 17.5056 125.224 17.1102L124.939 17.2745C124.678 17.4257 124.433 17.5956 124.208 17.7817C125.022 18.5259 126.073 19.0257 127.255 19.1499L132.137 19.6631C132.813 19.7341 133.46 19.941 134.043 20.2645C134.044 20.1621 134.046 20.0598 134.049 19.9574ZM134.201 20.3556C134.201 20.2669 134.202 20.178 134.204 20.0892C134.216 20.1001 134.229 20.1112 134.241 20.1222C134.245 20.2114 134.25 20.3004 134.255 20.3893C134.237 20.378 134.218 20.3668 134.201 20.3556ZM134.042 20.4458C133.458 20.1079 132.804 19.8923 132.121 19.8204L127.238 19.3073C126.015 19.1786 124.927 18.6586 124.086 17.8848C123.823 18.1153 123.586 18.3682 123.377 18.6389C124.359 19.7742 125.809 20.4927 127.427 20.4925H132.336C132.924 20.4925 133.503 20.5963 134.046 20.7936C134.043 20.6778 134.042 20.5619 134.042 20.4458ZM134.206 20.8548C134.203 20.7504 134.202 20.6461 134.201 20.5417C134.223 20.556 134.246 20.5706 134.269 20.5855C134.277 20.6876 134.286 20.7897 134.295 20.8915C134.265 20.8791 134.236 20.8668 134.206 20.8548ZM134.051 20.9642C133.509 20.7588 132.928 20.6508 132.336 20.6508H127.427C125.774 20.6508 124.29 19.9222 123.28 18.7686C123.097 19.0217 122.938 19.2892 122.803 19.5675C123.884 21.101 125.741 22.0198 127.74 21.8097L132.621 21.2966C133.109 21.2454 133.596 21.2664 134.069 21.3553C134.061 21.225 134.056 21.0946 134.051 20.9642ZM134.23 21.388C134.222 21.2682 134.216 21.1482 134.212 21.0282C134.245 21.0424 134.279 21.057 134.312 21.072C134.325 21.1873 134.339 21.3023 134.353 21.4172C134.312 21.4069 134.27 21.3973 134.23 21.388ZM134.079 21.5183C133.609 21.4259 133.124 21.4029 132.637 21.4539L127.756 21.9669C125.73 22.1799 123.846 21.2668 122.726 19.7321C122.61 19.9922 122.516 20.2608 122.443 20.5352C123.572 22.4854 125.864 23.5808 128.188 23.0869L132.989 22.0662C133.362 21.987 133.74 21.9512 134.116 21.9575C134.102 21.8114 134.089 21.6648 134.079 21.5183ZM134.276 21.9629C134.262 21.8264 134.25 21.6896 134.24 21.5527C134.286 21.5633 134.331 21.5744 134.376 21.5862C134.394 21.7155 134.414 21.8445 134.434 21.9733C134.381 21.969 134.329 21.9654 134.276 21.9629ZM134.132 22.1161C133.762 22.1084 133.389 22.1428 133.022 22.221L128.221 23.2416C125.884 23.7382 123.579 22.6742 122.39 20.7541C122.334 21.0044 122.297 21.2589 122.278 21.5154C123.412 23.9128 126.177 25.1517 128.767 24.3104L133.435 22.7935C133.684 22.7127 133.938 22.6519 134.193 22.6111C134.17 22.4464 134.15 22.2815 134.132 22.1161ZM134.349 22.5887C134.328 22.4335 134.309 22.2779 134.291 22.1221C134.348 22.1252 134.405 22.1292 134.462 22.1343C134.488 22.2792 134.514 22.4237 134.543 22.5677C134.479 22.5734 134.414 22.5804 134.349 22.5887ZM134.215 22.7677C133.968 22.8072 133.724 22.8659 133.484 22.944L128.815 24.4609C126.243 25.2967 123.501 24.1381 122.263 21.8378C122.26 22.0533 122.27 22.2694 122.294 22.4854C122.328 22.5756 122.365 22.6654 122.405 22.7546C123.607 25.4546 126.77 26.6688 129.47 25.4668L133.954 23.4702C134.071 23.4182 134.189 23.371 134.309 23.3285C134.274 23.1421 134.242 22.9551 134.215 22.7677ZM134.46 23.2772C134.428 23.1004 134.397 22.923 134.372 22.7452C134.439 22.7366 134.508 22.7294 134.576 22.7236C134.611 22.8862 134.649 23.0482 134.688 23.2096C134.612 23.2303 134.536 23.2528 134.46 23.2772ZM134.339 23.4857C134.231 23.5248 134.124 23.5677 134.019 23.6147L129.534 25.6113C126.852 26.8055 123.726 25.6833 122.398 23.1054C122.514 23.6123 122.707 24.1107 122.981 24.5846C124.458 27.1441 127.731 28.021 130.291 26.5432L134.477 24.1258C134.427 23.9134 134.381 23.6999 134.339 23.4857ZM134.621 24.0441C134.573 23.8415 134.529 23.6381 134.49 23.4337C134.569 23.4081 134.648 23.3846 134.728 23.363C134.775 23.5465 134.825 23.7291 134.879 23.9109C134.792 23.9527 134.706 23.9972 134.621 24.0441ZM134.659 24.2038C135.011 25.6229 135.561 26.9984 136.305 28.2872L139.248 33.3859C140.571 35.6763 143.331 36.6194 145.731 35.7334C143.844 35.9236 141.91 35.1342 140.715 33.4897L137.255 28.7267C136.217 27.298 135.435 25.7208 134.926 24.0642C134.836 24.1078 134.747 24.1544 134.659 24.2038ZM135.025 23.844C135.097 23.8119 135.171 23.7815 135.244 23.753C135.189 23.5967 135.134 23.4395 135.083 23.2814C135.015 23.2942 134.947 23.3085 134.881 23.3243C134.926 23.4984 134.974 23.6716 135.025 23.844ZM134.842 23.1709C134.905 23.1559 134.97 23.1422 135.034 23.1296C134.989 22.9894 134.947 22.8486 134.907 22.7073C134.849 22.7082 134.792 22.7101 134.736 22.7128C134.769 22.8661 134.804 23.0188 134.842 23.1709ZM134.703 22.5563C134.757 22.5532 134.81 22.5512 134.863 22.5499C134.828 22.424 134.795 22.2977 134.764 22.1709C134.717 22.1639 134.672 22.1574 134.626 22.1517C134.65 22.2869 134.676 22.4218 134.703 22.5563ZM134.598 21.9892C134.64 21.994 134.682 21.9993 134.724 22.0052C134.697 21.8925 134.672 21.7795 134.648 21.6661C134.612 21.6547 134.578 21.6438 134.542 21.6331C134.559 21.752 134.578 21.8707 134.598 21.9892ZM134.518 21.4613C134.55 21.4702 134.58 21.4792 134.611 21.4886C134.59 21.3884 134.571 21.288 134.554 21.1873C134.529 21.1748 134.505 21.1626 134.48 21.1507C134.493 21.2544 134.505 21.3579 134.518 21.4613ZM134.461 20.9658C134.48 20.9749 134.5 20.9842 134.519 20.9936C134.504 20.9057 134.49 20.8177 134.477 20.7296C134.463 20.7197 134.449 20.7101 134.437 20.7004C134.444 20.7889 134.452 20.8774 134.461 20.9658ZM134.422 20.4967C134.429 20.5023 134.438 20.508 134.446 20.5136C134.436 20.4391 134.425 20.3644 134.416 20.2897C134.414 20.2867 134.41 20.2835 134.408 20.2805C134.411 20.3526 134.416 20.4247 134.422 20.4967ZM134.659 20.8695C134.67 20.9408 134.683 21.012 134.695 21.0831C134.703 21.0878 134.712 21.0927 134.721 21.0975C134.703 21.0245 134.687 20.9513 134.669 20.8781C134.665 20.8751 134.663 20.8723 134.659 20.8695ZM134.776 21.309C134.761 21.3005 134.747 21.2923 134.731 21.284C134.748 21.3711 134.766 21.4582 134.783 21.5451C134.804 21.5522 134.824 21.5593 134.844 21.5667C134.822 21.481 134.797 21.3951 134.776 21.309ZM135.03 21.6374C135.009 21.5682 134.99 21.4988 134.971 21.4292C134.975 21.4316 134.979 21.434 134.982 21.4364C135.007 21.5074 135.031 21.5782 135.056 21.6488C135.048 21.6449 135.039 21.6412 135.03 21.6374ZM134.899 21.7558C134.874 21.746 134.848 21.7363 134.823 21.7269C134.844 21.8288 134.869 21.9304 134.893 22.0317C134.924 22.0373 134.956 22.0431 134.988 22.0494C134.957 21.9518 134.927 21.8539 134.899 21.7558ZM135.166 22.0873C135.139 22.0029 135.112 21.9183 135.087 21.8334C135.102 21.84 135.117 21.8467 135.133 21.8535C135.164 21.9368 135.196 22.0198 135.228 22.1024C135.208 22.0972 135.187 22.0923 135.166 22.0873ZM135.042 22.2221C135.007 22.2143 134.97 22.2069 134.935 22.2001C134.964 22.3167 134.994 22.4328 135.027 22.5487C135.069 22.549 135.112 22.5499 135.154 22.5515C135.116 22.4421 135.079 22.3323 135.042 22.2221ZM135.326 22.5602C135.29 22.4619 135.256 22.3633 135.223 22.2642C135.249 22.2708 135.276 22.2777 135.302 22.2848C135.341 22.3795 135.38 22.4739 135.421 22.5677C135.389 22.5649 135.357 22.5625 135.326 22.5602ZM135.211 22.7121C135.164 22.7099 135.119 22.7084 135.072 22.7075C135.11 22.8395 135.149 22.9708 135.191 23.1017C135.243 23.0932 135.296 23.0854 135.35 23.0786C135.302 22.957 135.256 22.8349 135.211 22.7121ZM135.512 23.0603C135.468 22.9485 135.426 22.8361 135.384 22.7234C135.421 22.7264 135.458 22.7299 135.495 22.7338C135.542 22.8396 135.59 22.945 135.639 23.0497C135.597 23.0527 135.554 23.0562 135.512 23.0603ZM135.409 23.2304C135.354 23.2373 135.296 23.2452 135.241 23.2539C135.289 23.4029 135.34 23.5511 135.393 23.6984C135.455 23.6768 135.517 23.6563 135.58 23.6373C135.521 23.5024 135.464 23.3668 135.409 23.2304ZM135.733 23.593C135.679 23.4673 135.625 23.3407 135.573 23.2135C135.62 23.2095 135.666 23.2062 135.713 23.2035C135.77 23.3208 135.829 23.4375 135.888 23.5535C135.836 23.5659 135.785 23.579 135.733 23.593ZM135.798 23.7394C136.684 25.7142 137.978 27.5037 139.618 28.9802L143.994 32.9196C145.095 33.9112 146.495 34.3611 147.867 34.2861C148.057 34.0736 148.229 33.8477 148.381 33.6108C147.349 33.5597 146.319 33.2179 145.421 32.5649L140.658 29.1045C138.683 27.6699 137.086 25.8146 135.964 23.6982C135.909 23.7109 135.854 23.7247 135.798 23.7394ZM136.126 23.6643C137.234 25.7428 138.808 27.5653 140.75 28.9765L145.514 32.437C146.411 33.0896 147.445 33.4223 148.477 33.4565C148.636 33.1893 148.772 32.9095 148.881 32.6208C148.202 32.5252 147.528 32.2998 146.896 31.9351L141.797 28.9915C139.52 27.6769 137.628 25.8311 136.263 23.6398C136.217 23.6473 136.171 23.6555 136.126 23.6643ZM136.048 23.5183C136.09 23.5099 136.132 23.5019 136.174 23.4946C136.113 23.3955 136.055 23.2958 135.996 23.1955C135.959 23.1954 135.923 23.1958 135.886 23.1967C135.939 23.3045 135.992 23.4118 136.048 23.5183ZM135.809 23.0406C135.842 23.0395 135.874 23.0386 135.906 23.0381C135.856 22.9489 135.807 22.8593 135.759 22.7691C135.732 22.7648 135.704 22.7607 135.677 22.7568C135.721 22.8519 135.765 22.9465 135.809 23.0406ZM135.603 22.587C135.623 22.5897 135.644 22.5925 135.666 22.5954C135.625 22.5165 135.585 22.4372 135.544 22.3575C135.529 22.3523 135.512 22.3473 135.497 22.3422C135.531 22.4241 135.567 22.5057 135.603 22.587ZM135.42 22.1535C135.429 22.1562 135.439 22.1589 135.448 22.1619C135.416 22.0943 135.383 22.0266 135.351 21.9587C135.347 21.9567 135.343 21.9546 135.34 21.9526C135.366 22.0198 135.392 22.0867 135.42 22.1535ZM135.761 22.4344C135.794 22.4986 135.827 22.5625 135.862 22.6262C135.87 22.628 135.881 22.6298 135.891 22.6316C135.851 22.5678 135.812 22.5037 135.774 22.4393C135.769 22.4377 135.765 22.436 135.761 22.4344ZM136.008 22.8162C135.991 22.8127 135.975 22.8092 135.958 22.8059C136.001 22.8838 136.044 22.9612 136.089 23.0383C136.11 23.0387 136.132 23.0392 136.154 23.04C136.104 22.9658 136.056 22.8913 136.008 22.8162ZM136.35 23.0502C136.31 22.9904 136.27 22.9304 136.231 22.8701C136.235 22.8712 136.239 22.8725 136.244 22.8736C136.288 22.9335 136.334 22.9932 136.381 23.0525C136.371 23.0516 136.361 23.051 136.35 23.0502ZM136.263 23.2031C136.236 23.2016 136.208 23.2003 136.182 23.1992C136.235 23.2892 136.288 23.3788 136.343 23.4676C136.375 23.4631 136.406 23.4589 136.438 23.4551C136.378 23.3716 136.32 23.2877 136.263 23.2031ZM136.545 23.6022C136.508 23.6061 136.471 23.6102 136.434 23.6149C137.783 25.7587 139.643 27.5648 141.877 28.8544L146.975 31.7982C147.599 32.1583 148.265 32.3786 148.937 32.4687C149.05 32.1419 149.133 31.8047 149.181 31.4619C148.884 31.3859 148.588 31.2836 148.297 31.1544L142.919 28.7597C140.357 27.619 138.166 25.8311 136.545 23.6022ZM149.336 31.499C149.288 31.8353 149.208 32.1664 149.098 32.4878C149.408 32.5198 149.721 32.5244 150.029 32.5022C150.159 32.2199 150.264 31.9275 150.344 31.6288C150.009 31.617 149.671 31.5743 149.336 31.499ZM149.356 31.3414C149.698 31.419 150.042 31.4619 150.383 31.4717C150.462 31.1348 150.508 30.7909 150.521 30.4449C150.217 30.4003 149.912 30.3297 149.61 30.2316L149.365 30.1522C149.406 30.5499 149.402 30.9488 149.356 31.3414ZM149.949 32.6657C149.648 32.6824 149.346 32.6744 149.044 32.6411C148.938 32.923 148.809 33.1969 148.659 33.4594C148.943 33.4591 149.228 33.4363 149.507 33.3912C149.675 33.16 149.822 32.9173 149.949 32.6657ZM149.371 33.5709C149.105 33.6058 148.834 33.6212 148.565 33.6168C148.424 33.8443 148.265 34.0624 148.09 34.2692C148.345 34.2444 148.599 34.2015 148.849 34.1404C149.039 33.9615 149.214 33.771 149.371 33.5709ZM138.375 23.9906C140.914 25.6546 143.902 26.5602 146.984 26.5602H147.666L147.343 26.0014C144.206 26.2318 141.087 25.5233 138.375 23.9906ZM138.989 24.1428C141.523 25.4473 144.38 26.0462 147.256 25.8491L146.979 25.3695C144.25 25.6577 141.497 25.2322 138.989 24.1428ZM147.15 25.3504L147.431 25.8361C147.562 25.8256 147.693 25.8135 147.823 25.7997L148.502 25.7286L148.122 25.2066C147.799 25.2647 147.474 25.3126 147.15 25.3504ZM148.019 25.0642C147.702 25.1197 147.383 25.1654 147.064 25.2011L146.819 24.7771C147.111 24.7318 147.403 24.6782 147.693 24.6163L148.019 25.0642ZM148.295 25.1746L148.683 25.7094L149.933 25.5781L149.368 24.9498L148.612 25.1104C148.507 25.1329 148.4 25.1542 148.295 25.1746ZM149.246 24.8142L148.579 24.9556C148.449 24.9831 148.321 25.0088 148.192 25.033L147.862 24.5795C148.18 24.5079 148.498 24.4264 148.814 24.3347L149.246 24.8142ZM149.545 24.9118L150.127 25.5577L151.589 25.404C151.454 25.2516 151.309 25.1054 151.154 24.9659L150.799 24.6455L149.545 24.9118ZM150.654 24.5148L149.423 24.7761L148.982 24.2849C149.084 24.2537 149.187 24.2213 149.29 24.1879L150.025 23.9492L150.654 24.5148ZM150.99 24.6049L151.261 24.8485C151.449 25.0175 151.622 25.1964 151.78 25.3838L153.177 25.2372C152.964 24.9022 152.712 24.5875 152.42 24.3008L150.99 24.6049ZM152.282 24.1686L150.844 24.4741L150.199 23.8927L151.417 23.497L151.804 23.7784C151.973 23.9008 152.132 24.0312 152.282 24.1686ZM152.606 24.2617C152.893 24.556 153.142 24.8775 153.352 25.2188L153.679 25.1843C153.98 25.1527 154.272 25.0968 154.554 25.0188C154.394 24.6518 154.192 24.3014 153.95 23.9757L152.606 24.2617ZM153.844 23.8367L152.471 24.1286C152.293 23.9588 152.102 23.7989 151.897 23.6504L151.602 23.4365L152.994 22.9846C153.313 23.2393 153.597 23.5258 153.844 23.8367ZM154.119 23.9396C154.353 24.264 154.55 24.6111 154.706 24.9741C155.041 24.8706 155.36 24.7358 155.661 24.5733C155.561 24.2422 155.429 23.9214 155.267 23.6154C154.982 23.7291 154.682 23.8203 154.371 23.8863L154.119 23.9396ZM155.19 23.4756C154.918 23.5827 154.634 23.6688 154.338 23.7316L154.016 23.8001C153.771 23.4826 153.489 23.189 153.173 22.9264L154.481 22.5013C154.756 22.8001 154.993 23.1273 155.19 23.4756ZM155.413 23.5546C155.572 23.8553 155.702 24.17 155.802 24.4942C156.072 24.3375 156.328 24.1579 156.564 23.9586C156.504 23.6535 156.416 23.3551 156.306 23.0669C156.027 23.2548 155.729 23.4185 155.413 23.5546ZM156.245 22.9168C155.963 23.1098 155.66 23.2773 155.338 23.4151C155.144 23.0706 154.913 22.7459 154.646 22.4477L154.89 22.3686C155.192 22.2703 155.481 22.1483 155.754 22.0053C155.947 22.2927 156.11 22.5981 156.245 22.9168ZM156.439 22.9739C156.55 23.2539 156.637 23.5433 156.701 23.8392C156.912 23.6485 157.109 23.4414 157.286 23.2203C157.256 22.9363 157.204 22.6574 157.129 22.3857C156.917 22.5993 156.686 22.7964 156.439 22.9739ZM157.078 22.2113C156.863 22.4342 156.63 22.6393 156.377 22.8235C156.244 22.5115 156.081 22.212 155.892 21.9295C156.192 21.7612 156.471 21.5673 156.729 21.3513C156.87 21.6265 156.987 21.9141 157.078 22.2113ZM156.653 21.2085C156.486 20.9055 156.289 20.619 156.069 20.3534C155.812 20.5241 155.538 20.6756 155.247 20.805L155.013 20.909C155.309 21.1776 155.573 21.4764 155.803 21.7987C156.108 21.628 156.392 21.4299 156.653 21.2085ZM155.662 21.8744C155.43 21.5487 155.159 21.248 154.856 20.9795L153.599 21.5389C153.942 21.7671 154.251 22.0297 154.528 22.3198L154.841 22.2182C155.129 22.1248 155.403 22.0094 155.662 21.8744ZM154.361 22.3742C154.082 22.0908 153.771 21.8355 153.427 21.6156L152.09 22.2105L152.405 22.3925C152.625 22.5187 152.83 22.6577 153.026 22.8081L154.361 22.3742ZM152.842 22.8676C152.678 22.7466 152.507 22.6335 152.326 22.5294L151.912 22.2901L150.742 22.8109L151.445 23.3216L152.842 22.8676ZM151.258 23.3821L150.575 22.8852L149.869 23.1996C149.77 23.2435 149.671 23.2863 149.572 23.3281L150.063 23.7705L151.258 23.3821ZM149.889 23.8269L149.411 23.3953C149.106 23.5193 148.799 23.6337 148.489 23.7382L148.865 24.1549C148.99 24.1174 149.116 24.0783 149.242 24.0375L149.889 23.8269ZM148.696 24.204L148.325 23.7926C148.043 23.8844 147.759 23.9682 147.473 24.0439L147.76 24.44C148.074 24.3711 148.386 24.2924 148.696 24.204ZM147.591 24.4762L147.308 24.0864C147.048 24.1523 146.786 24.2116 146.523 24.2641L146.734 24.6301C147.021 24.5868 147.307 24.5356 147.591 24.4762ZM146.566 24.6547L146.359 24.296C144.345 24.676 142.274 24.6633 140.26 24.2548C142.312 24.8132 144.457 24.9499 146.566 24.6547ZM140.896 24.2101C142.681 24.4999 144.5 24.4793 146.276 24.1508L146.099 23.8466C144.401 24.2528 142.644 24.3771 140.896 24.2101ZM146.259 23.8075L146.439 24.1194C146.697 24.0689 146.954 24.012 147.208 23.9485L146.965 23.6135C146.731 23.6836 146.495 23.7483 146.259 23.8075ZM146.866 23.4779C146.637 23.5455 146.408 23.6078 146.176 23.6648L145.71 22.8568C145.175 21.9292 144.965 20.8561 145.102 19.8057C145.176 20.7141 145.497 21.5934 146.042 22.3429L146.866 23.4779ZM147.125 23.5647L147.373 23.9065C147.653 23.8335 147.933 23.7526 148.209 23.6638L147.887 23.3059C147.634 23.3987 147.38 23.4849 147.125 23.5647ZM147.773 23.1791C147.526 23.2689 147.277 23.3523 147.026 23.4294L146.169 22.25C145.54 21.3832 145.218 20.3377 145.244 19.2784C145.413 20.1744 145.825 21.0155 146.444 21.7041L147.773 23.1791ZM148.046 23.2463L148.373 23.6101C148.678 23.5088 148.98 23.3979 149.28 23.2775L148.869 22.9071C148.597 23.028 148.322 23.1412 148.046 23.2463ZM148.739 22.7912C148.474 22.9085 148.204 23.0181 147.933 23.1201L146.562 21.5983C145.849 20.8057 145.421 19.8049 145.333 18.754L145.335 18.7476C145.597 19.618 146.093 20.4083 146.78 21.0265L148.739 22.7912ZM149.026 22.8359L149.442 23.2111C149.563 23.1607 149.684 23.1087 149.804 23.0551L150.427 22.7779L149.905 22.3987C149.615 22.5539 149.322 22.6996 149.026 22.8359ZM149.763 22.2953C149.478 22.4463 149.19 22.588 148.898 22.7206L146.885 20.909C146.146 20.2434 145.636 19.3719 145.409 18.4168C145.416 18.3912 145.421 18.3655 145.426 18.3399C145.782 19.1208 146.335 19.8047 147.041 20.3178L149.763 22.2953ZM150.06 22.315L150.594 22.7036L151.742 22.1923L151.011 21.7696L150.34 22.1563C150.248 22.2102 150.154 22.2631 150.06 22.315ZM150.852 21.6783L150.262 22.0193C150.147 22.0852 150.033 22.1494 149.917 22.2122L147.134 20.1899C146.389 19.6478 145.818 18.9092 145.482 18.0662C145.489 18.0229 145.498 17.9796 145.506 17.9363C145.935 18.6105 146.523 19.1788 147.228 19.5857L150.852 21.6783ZM151.168 21.6783L151.921 22.1128L153.263 21.5151C153.088 21.4118 152.905 21.3173 152.715 21.2326L152.278 21.0379L151.168 21.6783ZM152.099 20.9584L151.011 21.587L147.307 19.4487C146.573 19.0247 145.968 18.4198 145.548 17.7007C145.557 17.6429 145.567 17.5851 145.576 17.5273C146.055 18.0838 146.654 18.5338 147.337 18.8379L152.099 20.9584ZM152.447 20.9401L152.78 21.0881C153.009 21.1908 153.23 21.3075 153.44 21.4367L154.722 20.8656C154.416 20.6128 154.079 20.3916 153.714 20.2087L152.447 20.9401ZM153.54 20.1261L152.268 20.8607L147.401 18.6934C146.696 18.3798 146.084 17.906 145.608 17.3181C145.618 17.2473 145.627 17.1766 145.636 17.1059C146.137 17.5399 146.724 17.8742 147.366 18.083L152.966 19.9023C153.164 19.9667 153.356 20.0415 153.54 20.1261ZM153.877 20.1146C154.241 20.3057 154.578 20.5344 154.882 20.794L155.183 20.6605C155.459 20.5375 155.719 20.394 155.964 20.2326C155.698 19.933 155.398 19.6623 155.068 19.427L153.877 20.1146ZM154.923 19.3277L153.708 20.0295C153.487 19.923 153.255 19.8299 153.015 19.7518L147.416 17.9325C146.758 17.7192 146.161 17.3702 145.66 16.9154C145.669 16.8323 145.679 16.7492 145.686 16.666C146.182 16.9788 146.734 17.2049 147.318 17.3291L153.077 18.5532C153.756 18.6976 154.378 18.9653 154.923 19.3277ZM145.538 16.5681C145.522 16.5582 145.509 16.5483 145.495 16.5382C145.492 16.6094 145.491 16.6806 145.487 16.752C145.497 16.7612 145.506 16.7705 145.516 16.7798C145.524 16.7092 145.53 16.6387 145.538 16.5681ZM145.493 16.977C145.488 16.9724 145.483 16.9678 145.478 16.9633C145.476 17.0217 145.472 17.0801 145.468 17.1385L145.472 17.1429C145.479 17.0877 145.486 17.0323 145.493 16.977ZM145.335 16.592C145.336 16.5362 145.337 16.4806 145.338 16.425C145.333 16.4209 145.328 16.417 145.322 16.4129C145.326 16.4712 145.328 16.5296 145.331 16.588L145.335 16.592ZM144.243 14.6207C144.222 14.569 144.201 14.5175 144.178 14.4661C144.171 14.4647 144.165 14.4632 144.159 14.4617C144.187 14.5139 144.212 14.5662 144.239 14.6186L144.243 14.6207ZM144.062 14.274C144.075 14.2774 144.086 14.2807 144.099 14.2839C144.071 14.219 144.042 14.1542 144.013 14.0897C143.995 14.0885 143.978 14.0871 143.961 14.0855C143.995 14.1481 144.028 14.211 144.062 14.274ZM143.769 14.0655C143.796 14.1141 143.822 14.163 143.849 14.212L143.845 14.2105C143.813 14.1612 143.782 14.112 143.75 14.0631C143.756 14.0638 143.763 14.0647 143.769 14.0655ZM143.868 13.9177C143.891 13.9202 143.914 13.9225 143.936 13.9245C143.9 13.8473 143.863 13.7704 143.825 13.6938C143.798 13.6961 143.77 13.6981 143.743 13.6999C143.785 13.7721 143.826 13.8448 143.868 13.9177ZM143.564 13.7084C143.601 13.7695 143.637 13.8309 143.671 13.8925C143.658 13.8906 143.646 13.8886 143.633 13.8866C143.594 13.8274 143.553 13.7683 143.512 13.7097C143.53 13.7094 143.548 13.7089 143.564 13.7084ZM143.652 13.5466C143.685 13.5451 143.717 13.5432 143.749 13.5409C143.704 13.4516 143.658 13.3628 143.611 13.2744C143.575 13.2834 143.539 13.2919 143.502 13.3001C143.553 13.3818 143.602 13.464 143.652 13.5466ZM143.337 13.3342C143.383 13.4064 143.427 13.4791 143.472 13.5522C143.449 13.5525 143.426 13.5526 143.403 13.5525C143.354 13.4841 143.305 13.4163 143.256 13.3489C143.283 13.3442 143.31 13.3394 143.337 13.3342ZM143.412 13.1578C143.453 13.1492 143.493 13.14 143.534 13.1302C142.164 10.5984 140.11 8.47005 137.576 7.00679L133.324 4.5524C132.701 4.1921 132.034 3.97178 131.361 3.88171C131.248 4.20829 131.166 4.54538 131.117 4.88795C131.416 4.96407 131.712 5.06631 132.003 5.19579L136.486 7.19238C139.351 8.46788 141.751 10.5525 143.412 13.1578ZM131.097 5.04609C131.38 5.1195 131.662 5.21723 131.938 5.34029L136.423 7.33687C139.239 8.59106 141.602 10.6354 143.246 13.1902C143.214 13.1958 143.182 13.201 143.15 13.2059C141.203 10.6085 138.489 8.65217 135.359 7.63535L131.097 6.25071C131.051 5.84808 131.051 5.44395 131.097 5.04609ZM130.963 4.85092C131.012 4.51482 131.091 4.18389 131.201 3.86266C130.89 3.83062 130.578 3.82618 130.269 3.84836C130.14 4.13059 130.034 4.42283 129.954 4.72142C130.291 4.73308 130.627 4.77573 130.963 4.85092ZM129.915 4.87846C130.256 4.88816 130.601 4.9309 130.942 5.00844C130.896 5.40096 130.893 5.79955 130.933 6.19714L130.691 6.11845C130.387 6.02003 130.082 5.94928 129.778 5.90477C129.79 5.55895 129.836 5.21513 129.915 4.87846ZM129.792 4.71818C129.867 4.42683 129.967 4.14118 130.089 3.86445C129.806 3.89446 129.526 3.94693 129.252 4.02109C129.109 4.2685 128.988 4.52523 128.888 4.78852C129.185 4.74049 129.488 4.71666 129.792 4.71818ZM128.827 4.95942C129.131 4.9051 129.441 4.87696 129.754 4.87633C129.679 5.20725 129.633 5.54471 129.62 5.8841C129.279 5.84436 128.94 5.83721 128.604 5.86072C128.651 5.55544 128.726 5.25377 128.827 4.95942ZM128.582 6.02101C128.538 6.36408 128.528 6.71088 128.552 7.05617C128.86 7.06857 129.171 7.10703 129.482 7.17324L129.731 7.22617C129.649 6.83492 129.611 6.43809 129.616 6.04292C129.269 6.00149 128.922 5.99493 128.582 6.02101ZM129.774 6.06416C129.771 6.46455 129.813 6.86656 129.901 7.26222L131.246 7.54811C131.102 7.16214 131.006 6.76708 130.952 6.37002L130.641 6.26887C130.354 6.17535 130.063 6.10754 129.774 6.06416ZM131.12 6.42442C131.178 6.81694 131.281 7.20697 131.43 7.58726L134.283 8.19384C137.644 8.90808 140.66 10.6881 142.902 13.2379C142.924 13.2355 142.947 13.2331 142.97 13.2303C141.045 10.6939 138.38 8.78325 135.31 7.78577L131.12 6.42442ZM143.079 13.376C143.062 13.3784 143.045 13.3807 143.027 13.3828C143.074 13.4369 143.12 13.4913 143.166 13.5461C143.178 13.5468 143.192 13.5474 143.205 13.5479C143.163 13.4904 143.121 13.433 143.079 13.376ZM143.319 13.7098C143.313 13.7097 143.307 13.7095 143.3 13.7093C143.337 13.7548 143.374 13.8003 143.409 13.8462L143.415 13.8472C143.384 13.8012 143.352 13.7554 143.319 13.7098ZM142.945 13.5296C142.909 13.4872 142.872 13.445 142.836 13.403C142.829 13.4035 142.823 13.4041 142.816 13.4047C142.857 13.4459 142.899 13.4873 142.94 13.5291L142.945 13.5296ZM142.665 13.2563C142.678 13.2556 142.692 13.2548 142.705 13.2541C140.494 10.7769 137.539 9.04741 134.25 8.34854L131.503 7.7645C131.583 7.95144 131.676 8.1357 131.782 8.31641L132.02 8.73018L133.272 8.8618C136.825 9.23518 140.128 10.7935 142.665 13.2563ZM132.118 8.89949L133.256 9.01909C136.721 9.38335 139.947 10.8865 142.444 13.2631H142.438C139.66 10.9689 136.17 9.67998 132.541 9.63315L132.118 8.89949ZM131.826 8.70974L131.644 8.39549C131.517 8.17639 131.408 7.9522 131.314 7.72442L129.942 7.43258C130.041 7.81695 130.183 8.19418 130.371 8.55685L131.826 8.70974ZM130.462 8.72548L131.924 8.87906L132.358 9.63184C132.35 9.63183 132.343 9.63182 132.336 9.63182L131.077 9.63183L130.796 9.24519C130.673 9.07642 130.562 8.90288 130.462 8.72548ZM130.184 8.53716C130.001 8.16821 129.863 7.78541 129.769 7.39598L129.449 7.32796C129.153 7.26502 128.857 7.22791 128.565 7.21506C128.604 7.61361 128.687 8.0091 128.816 8.39346L130.184 8.53716ZM128.875 8.55862L130.27 8.70533C130.387 8.92207 130.519 9.13351 130.668 9.33815L130.881 9.63183H129.42C129.195 9.2908 129.013 8.93057 128.875 8.55862ZM129.528 9.78999C129.646 9.95587 129.774 10.1167 129.914 10.2717L130.234 10.6269L131.486 10.4953C131.493 10.4946 131.5 10.4938 131.507 10.4931L130.997 9.78999H129.528ZM131.192 9.78999L131.69 10.4752C132.063 10.4409 132.436 10.4198 132.808 10.4119L132.449 9.7904C132.411 9.79013 132.373 9.78999 132.336 9.78999H131.192ZM132.634 9.7928L132.989 10.4091C136.178 10.3778 139.303 11.3083 141.956 13.0791C139.294 11.0184 136.028 9.85695 132.634 9.7928ZM141.409 12.9167C138.91 11.3704 136.024 10.5545 133.081 10.5667L133.393 11.1088C136.17 10.9973 138.937 11.6174 141.409 12.9167ZM133.215 11.117L132.899 10.5685C132.532 10.5742 132.165 10.5928 131.798 10.6244L132.217 11.2C132.549 11.1618 132.882 11.1341 133.215 11.117ZM132.324 11.3472C132.65 11.3115 132.978 11.2861 133.304 11.271L133.581 11.7497C133.284 11.776 132.987 11.8107 132.692 11.8539L132.324 11.3472ZM132.037 11.2218L131.615 10.6412C131.577 10.6449 131.54 10.6487 131.502 10.6526L130.364 10.7722L130.932 11.4016C131.299 11.3285 131.667 11.2686 132.037 11.2218ZM131.055 11.5386C131.417 11.4688 131.779 11.412 132.143 11.368L132.516 11.8806C132.187 11.9324 131.858 11.9947 131.531 12.0675L131.055 11.5386ZM131.653 12.2027L132.072 12.6681C132.362 12.5943 132.653 12.5288 132.945 12.4716L132.62 12.0244C132.296 12.0737 131.973 12.1331 131.653 12.2027ZM132.796 11.9986L133.116 12.439C133.379 12.3907 133.642 12.349 133.906 12.3141L133.667 11.9009C133.376 11.9253 133.087 11.9579 132.796 11.9986ZM133.842 11.8872L134.076 12.2924C136.15 12.0405 138.264 12.199 140.295 12.7711C138.223 12.027 136.024 11.7286 133.842 11.8872ZM139.729 12.7859C137.902 12.3383 136.016 12.2242 134.162 12.4415L134.235 12.5675C134.277 12.6399 134.317 12.7131 134.356 12.7871C136.123 12.4828 137.942 12.479 139.729 12.7859ZM134.192 12.816C134.161 12.759 134.131 12.7026 134.099 12.6466L133.992 12.4624C133.733 12.4955 133.477 12.535 133.22 12.581L133.495 12.9596C133.726 12.9065 133.958 12.8586 134.192 12.816ZM133.596 13.0988C133.818 13.0487 134.042 13.0036 134.265 12.9633C134.736 13.937 134.867 15.0416 134.637 16.1005C134.625 15.0702 134.295 14.0612 133.681 13.2165L133.596 13.0988ZM133.328 12.9988L133.048 12.6129C132.761 12.6676 132.475 12.7303 132.192 12.8011L132.556 13.2057C132.811 13.1301 133.069 13.0613 133.328 12.9988ZM132.673 13.3361C132.923 13.2636 133.176 13.1973 133.429 13.1375L133.553 13.3094C134.264 14.2869 134.582 15.4919 134.451 16.6875C134.331 15.6643 133.897 14.6955 133.199 13.9196L132.673 13.3361ZM132.505 13.3857C132.226 13.4701 131.949 13.5622 131.674 13.6623L132.792 14.6693C133.568 15.3676 134.1 16.2854 134.326 17.2901C134.331 16.0878 133.889 14.9231 133.081 14.0255L132.505 13.3857ZM138.579 23.6506C141.039 24.2684 143.589 24.2768 146.016 23.7036L145.573 22.936C144.909 21.786 144.73 20.4194 145.073 19.1367C145.082 19.106 145.089 19.0751 145.098 19.0444C145.109 18.9018 145.124 18.7591 145.147 18.6168C145.152 18.5851 145.157 18.5535 145.162 18.5217C145.157 18.379 145.158 18.2356 145.166 18.0919C145.167 18.0595 145.169 18.027 145.171 17.9945C145.15 17.8535 145.138 17.7112 145.13 17.5678C145.128 17.5358 145.126 17.5038 145.125 17.4718C145.091 17.3332 145.062 17.1927 145.039 17.0505C145.034 17.0189 145.029 16.9871 145.023 16.9554C144.975 16.8213 144.932 16.6845 144.895 16.5456C144.886 16.5142 144.877 16.483 144.87 16.4518C144.808 16.3236 144.75 16.1923 144.698 16.0584C144.687 16.028 144.676 15.9979 144.664 15.9677C144.588 15.8468 144.518 15.7222 144.453 15.5944C144.438 15.5658 144.424 15.5374 144.409 15.509C144.321 15.3963 144.237 15.2795 144.16 15.1587C144.142 15.1321 144.124 15.1057 144.108 15.0793C144.008 14.9761 143.912 14.8684 143.822 14.7562C143.802 14.7316 143.782 14.7071 143.762 14.6828C143.652 14.5904 143.547 14.4933 143.444 14.3912C143.422 14.3685 143.399 14.3459 143.376 14.3233C143.258 14.2433 143.143 14.1579 143.031 14.0675C143.006 14.0471 142.98 14.0266 142.955 14.0064C142.829 13.9394 142.706 13.8668 142.587 13.7887C142.56 13.7714 142.533 13.7541 142.505 13.737C142.373 13.6831 142.242 13.6236 142.114 13.5581C142.086 13.5436 142.057 13.5292 142.029 13.515C141.892 13.4754 141.755 13.4298 141.62 13.3781C141.591 13.3668 141.562 13.3555 141.531 13.3443C141.39 13.3193 141.251 13.2881 141.111 13.2508C138.91 12.6612 136.631 12.5627 134.428 12.9351C134.931 14.0024 135.044 15.2182 134.735 16.3667C134.663 16.6382 134.598 16.9109 134.54 17.1846C134.512 17.3812 134.488 17.5779 134.467 17.7748C134.46 17.9725 134.456 18.1701 134.456 18.3673C134.47 18.5671 134.488 18.7663 134.508 18.9648C134.542 19.1607 134.58 19.3556 134.621 19.5495C134.676 19.7403 134.734 19.9296 134.795 20.1175C134.869 20.3023 134.946 20.4853 135.027 20.6665C135.121 20.8436 135.218 21.0186 135.318 21.1913C135.43 21.3574 135.544 21.5211 135.661 21.6824C135.789 21.8351 135.92 21.9851 136.052 22.1324C136.194 22.2701 136.339 22.4047 136.485 22.5363C136.641 22.6586 136.799 22.7776 136.959 22.8934C137.129 23.0005 137.302 23.104 137.476 23.204C137.653 23.2915 137.834 23.3755 138.015 23.456C138.202 23.5245 138.39 23.5894 138.579 23.6506ZM140.858 12.8159C138.56 11.7061 136.027 11.175 133.483 11.2638L133.755 11.7352C136.164 11.5484 138.596 11.9136 140.858 12.8159ZM139.625 24.2332C141.929 25.128 144.419 25.4694 146.891 25.2195L146.651 24.8022C144.297 25.1417 141.895 24.9473 139.625 24.2332ZM128.707 4.82077C128.442 4.87267 128.182 4.94388 127.928 5.03357C128.041 4.80495 128.171 4.58247 128.32 4.36805C128.552 4.25638 128.791 4.16167 129.035 4.08445C128.907 4.3229 128.797 4.56909 128.707 4.82077ZM157.256 22.2535C157.44 22.0557 157.609 21.845 157.762 21.6232C157.804 21.8748 157.83 22.1315 157.836 22.3921C157.714 22.6186 157.576 22.8358 157.423 23.0419C157.388 22.7738 157.331 22.5103 157.256 22.2535ZM122.105 21.8901C122.105 21.7749 122.109 21.6599 122.117 21.5452C122.068 21.44 122.022 21.3325 121.98 21.2231C122.007 21.4459 122.048 21.6687 122.105 21.8901ZM121.941 20.5955C121.966 20.6887 121.993 20.7818 122.023 20.8746C122.062 20.992 122.103 21.1069 122.149 21.2196C122.177 20.9965 122.219 20.7754 122.274 20.5578C122.164 20.3625 122.065 20.1591 121.979 19.9481C121.953 20.1621 121.94 20.3784 121.941 20.5955ZM122.027 19.6289C122.113 19.8751 122.216 20.1117 122.334 20.3379C122.411 20.0797 122.507 19.8271 122.62 19.5823C122.47 19.3611 122.335 19.128 122.217 18.8843C122.136 19.1272 122.072 19.3761 122.027 19.6289ZM122.123 18.6769C122.045 18.8873 121.981 19.1026 121.929 19.3214C121.896 19.2045 121.866 19.0857 121.841 18.9652C121.82 18.8695 121.803 18.7741 121.788 18.6787C121.81 18.4629 121.845 18.2497 121.893 18.0398C121.957 18.2586 122.034 18.4712 122.123 18.6769ZM122.293 18.6721C122.41 18.9327 122.546 19.1817 122.701 19.4172C122.837 19.1484 122.995 18.8899 123.175 18.6447C122.984 18.4124 122.811 18.1643 122.659 17.9026C122.517 18.1492 122.394 18.4066 122.293 18.6721ZM122.569 17.7424C122.431 17.9742 122.309 18.2156 122.206 18.4643C122.112 18.2273 122.034 17.9812 121.974 17.7275C122.046 17.4805 122.135 17.2395 122.241 17.0061C122.333 17.2608 122.443 17.5068 122.569 17.7424ZM122.752 17.7468C122.904 18.0182 123.078 18.2751 123.273 18.5149C123.48 18.2502 123.713 18.0024 123.971 17.7756C123.727 17.5384 123.507 17.2793 123.311 17.0019C123.102 17.2346 122.916 17.484 122.752 17.7468ZM123.219 16.8676C123.014 17.0927 122.83 17.3334 122.666 17.5866C122.537 17.3362 122.428 17.0744 122.339 16.803C122.468 16.5494 122.616 16.3061 122.783 16.0755C122.907 16.3518 123.053 16.6166 123.219 16.8676ZM123.421 16.8831C123.618 17.1669 123.843 17.4313 124.092 17.6723C124.328 17.4759 124.585 17.2966 124.86 17.1376L125.082 17.0095C124.76 16.7733 124.466 16.5038 124.205 16.2072C123.919 16.4087 123.657 16.6356 123.421 16.8831ZM124.101 16.0864C123.821 16.285 123.564 16.5073 123.33 16.7489C123.161 16.49 123.015 16.2162 122.892 15.9304C123.082 15.6862 123.294 15.4576 123.526 15.2481C123.692 15.5443 123.884 15.8251 124.101 16.0864ZM124.336 16.1173C124.602 16.4168 124.902 16.6876 125.232 16.9229L126.423 16.2353C126.059 16.0441 125.722 15.8155 125.417 15.5558L125.117 15.6895C124.841 15.8124 124.58 15.9559 124.336 16.1173ZM125.286 15.4408L125.053 15.545C124.762 15.6744 124.488 15.8257 124.232 15.9964C124.01 15.7308 123.814 15.4444 123.648 15.1414C123.908 14.92 124.192 14.7217 124.498 14.5512C124.726 14.8735 124.99 15.1723 125.286 15.4408ZM125.578 15.4843C125.884 15.7371 126.221 15.9583 126.586 16.1412L127.853 15.41L127.52 15.2621C127.29 15.1593 127.069 15.0426 126.86 14.9134L125.578 15.4843ZM126.701 14.8111L125.445 15.3704C125.141 15.1019 124.871 14.8012 124.638 14.4755C124.897 14.3405 125.172 14.2251 125.459 14.1316L125.771 14.0302C126.048 14.3203 126.358 14.5829 126.701 14.8111ZM127.036 14.835C127.211 14.9384 127.394 15.0328 127.585 15.1175L128.022 15.3122L129.111 14.6831C129.117 14.6795 129.124 14.6758 129.13 14.6721L128.378 14.2375L127.036 14.835ZM128.208 14.1398L126.873 14.7346C126.529 14.5145 126.216 14.2593 125.939 13.9758L127.274 13.5422C127.468 13.6925 127.675 13.8317 127.895 13.9581L128.208 14.1398ZM128.556 14.1581L129.29 14.5815C129.616 14.3984 129.949 14.2276 130.286 14.069L129.705 13.6471C129.671 13.6622 129.636 13.6774 129.601 13.6929L128.556 14.1581ZM129.557 13.5395C129.55 13.5424 129.544 13.5454 129.536 13.5484L128.387 14.0603L127.973 13.8212C127.793 13.7169 127.62 13.6038 127.456 13.4826L128.853 13.0287L129.557 13.5395ZM128.696 12.9137L128.401 12.7002C128.197 12.5516 128.006 12.3916 127.829 12.2216L126.455 12.5134C126.702 12.8244 126.985 13.1108 127.305 13.3657L128.696 12.9137ZM127.126 13.4238C126.809 13.1611 126.527 12.8675 126.283 12.55L125.963 12.6182C125.667 12.681 125.382 12.7672 125.109 12.8744C125.307 13.2227 125.544 13.5499 125.818 13.8487L127.126 13.4238ZM125.653 13.9023C125.387 13.6041 125.156 13.2795 124.962 12.9351C124.64 13.0727 124.337 13.2401 124.055 13.4331C124.189 13.7518 124.354 14.0571 124.547 14.3445C124.82 14.2015 125.108 14.0796 125.41 13.9812L125.653 13.9023ZM124.407 14.4203C124.219 14.1377 124.057 13.8384 123.923 13.5264C123.671 13.7106 123.436 13.9156 123.222 14.1386C123.313 14.4358 123.431 14.7234 123.572 14.9984C123.829 14.7826 124.108 14.5885 124.407 14.4203ZM123.449 15.1048C123.31 14.8379 123.192 14.5593 123.098 14.2716C122.908 14.4834 122.734 14.7099 122.58 14.9485C122.64 15.2278 122.722 15.4996 122.824 15.7621C123.013 15.5275 123.221 15.3074 123.449 15.1048ZM122.711 15.907C122.61 15.6593 122.526 15.4031 122.462 15.1404C122.332 15.3615 122.217 15.5921 122.12 15.8303C122.153 16.0888 122.205 16.3417 122.274 16.5873C122.403 16.3504 122.549 16.123 122.711 15.907ZM122.169 16.7899C122.102 16.5761 122.048 16.3567 122.007 16.1325C121.937 16.3367 121.88 16.5456 121.836 16.7583C121.84 16.8542 121.848 16.9504 121.858 17.0471C121.871 17.1699 121.888 17.2914 121.909 17.4113C121.983 17.1989 122.07 16.9915 122.169 16.7899ZM121.81 17.7233C121.784 17.6104 121.762 17.4961 121.743 17.3804C121.724 17.6035 121.718 17.8295 121.727 18.0572C121.751 17.9448 121.779 17.8335 121.81 17.7233ZM121.84 16.1338C121.876 16.0242 121.915 15.9159 121.958 15.8091C121.944 15.6937 121.934 15.5772 121.927 15.4598C121.884 15.6805 121.854 15.9055 121.84 16.1338ZM122.084 14.8509C122.079 14.947 122.076 15.0439 122.076 15.1413C122.076 15.2648 122.08 15.3875 122.088 15.509C122.184 15.3054 122.293 15.1079 122.412 14.9178C122.368 14.6979 122.337 14.4737 122.32 14.2463C122.229 14.4421 122.15 14.6439 122.084 14.8509ZM122.464 13.9575C122.47 14.2185 122.495 14.4755 122.538 14.7272C122.691 14.5052 122.86 14.2943 123.044 14.0963C122.969 13.8395 122.913 13.5758 122.876 13.3075C122.724 13.5137 122.586 13.731 122.464 13.9575ZM122.85 13.0811C122.711 13.2575 122.583 13.4425 122.466 13.6349C122.471 13.5135 122.479 13.3913 122.492 13.2687C122.503 13.1714 122.515 13.0751 122.531 12.9798C122.618 12.7811 122.718 12.5888 122.828 12.4037C122.822 12.6316 122.829 12.8577 122.85 13.0811ZM123.014 13.1292C123.044 13.4133 123.097 13.6924 123.171 13.9641C123.383 13.7506 123.614 13.5535 123.861 13.376C123.751 13.0958 123.663 12.8064 123.599 12.5104C123.388 12.7011 123.192 12.908 123.014 13.1292ZM123.564 12.3305C123.36 12.508 123.17 12.7 122.995 12.9046C122.979 12.6499 122.981 12.3917 123.002 12.1316C123.147 11.9191 123.306 11.7176 123.48 11.5286C123.488 11.7992 123.516 12.0671 123.564 12.3305ZM123.736 12.3911C123.797 12.6962 123.883 12.9946 123.995 13.283C124.273 13.0952 124.571 12.9315 124.886 12.7955C124.728 12.4947 124.598 12.1801 124.497 11.8558C124.227 12.0125 123.973 12.1919 123.736 12.3911ZM124.452 11.6997C124.188 11.8504 123.938 12.0221 123.704 12.2123C123.659 11.9343 123.636 11.6512 123.635 11.3656C123.836 11.1644 124.052 10.979 124.282 10.8116C124.314 11.1126 124.371 11.4096 124.452 11.6997ZM124.639 11.7768C124.739 12.1078 124.871 12.4287 125.033 12.7346C125.319 12.6209 125.618 12.5296 125.93 12.4634L126.179 12.4104C125.945 12.0861 125.749 11.739 125.593 11.3762C125.258 11.4796 124.94 11.6144 124.639 11.7768ZM125.532 11.2295C125.204 11.3318 124.891 11.4635 124.594 11.6211C124.514 11.3228 124.459 11.017 124.431 10.7072C124.687 10.5338 124.958 10.382 125.244 10.2544C125.31 10.5874 125.406 10.9139 125.532 11.2295ZM125.746 11.3314C125.906 11.6984 126.108 12.0486 126.349 12.3744L127.694 12.0885C127.406 11.7941 127.157 11.4726 126.947 11.1314L126.621 11.1657C126.32 11.1973 126.028 11.2533 125.746 11.3314ZM126.858 10.9817L126.604 11.0084C126.288 11.0417 125.98 11.1011 125.684 11.1844C125.555 10.8632 125.457 10.5302 125.392 10.1906C125.708 10.0605 126.04 9.95975 126.383 9.89187C126.501 10.2691 126.66 10.6348 126.858 10.9817ZM126.338 9.73958C126.246 9.41255 126.184 9.07774 126.153 8.73969C125.856 8.83682 125.57 8.95941 125.297 9.10515C125.293 9.41615 125.315 9.726 125.364 10.0311C125.676 9.9053 126.001 9.80711 126.338 9.73958ZM125.214 10.0943C125.165 9.79747 125.139 9.49614 125.138 9.19343C124.892 9.33596 124.657 9.49775 124.437 9.67696C124.408 9.96099 124.401 10.2449 124.417 10.5261C124.669 10.3613 124.936 10.2166 125.214 10.0943ZM124.265 10.629C124.246 10.3622 124.245 10.0927 124.265 9.82279C124.074 9.99268 123.894 10.1764 123.728 10.3725C123.679 10.6288 123.65 10.8853 123.64 11.1403C123.835 10.9551 124.044 10.7841 124.265 10.629ZM123.477 11.3006C123.48 11.0764 123.496 10.8508 123.527 10.6249C123.397 10.7974 123.278 10.9781 123.17 11.1664C123.145 11.2597 123.122 11.3541 123.102 11.4497C123.077 11.5703 123.055 11.6907 123.038 11.811C123.174 11.6319 123.321 11.4615 123.477 11.3006ZM122.848 12.0771C122.858 11.9615 122.872 11.8455 122.89 11.7293C122.802 11.936 122.727 12.1498 122.665 12.3699C122.723 12.2703 122.784 12.1727 122.848 12.0771ZM123.367 10.574C123.436 10.481 123.506 10.3904 123.58 10.3022C123.602 10.1883 123.629 10.0745 123.659 9.96094C123.549 10.1572 123.452 10.3617 123.367 10.574ZM123.996 9.43036C123.961 9.52036 123.929 9.61181 123.898 9.70462C123.86 9.82188 123.827 9.9395 123.797 10.0573C123.951 9.89355 124.115 9.73944 124.287 9.59579C124.313 9.37316 124.352 9.15057 124.406 8.92918C124.26 9.08716 124.123 9.25445 123.996 9.43036ZM124.633 8.69909C124.558 8.94887 124.502 9.2009 124.465 9.45334C124.679 9.28957 124.905 9.14132 125.141 9.01007C125.149 8.74269 125.177 8.47474 125.225 8.20839C125.017 8.35736 124.819 8.5213 124.633 8.69909ZM125.27 7.98486C125.084 8.10976 124.905 8.24599 124.735 8.39285C124.777 8.27866 124.823 8.16511 124.873 8.05238C124.912 7.9634 124.954 7.87603 124.998 7.79031C125.143 7.6285 125.297 7.47636 125.459 7.33443C125.382 7.54896 125.319 7.76617 125.27 7.98486ZM125.411 8.08129C125.352 8.36066 125.316 8.64231 125.303 8.92362C125.571 8.78604 125.851 8.66998 126.141 8.57742C126.122 8.27701 126.128 7.97465 126.159 7.67355C125.899 7.78958 125.649 7.92603 125.411 8.08129ZM126.181 7.49146C125.933 7.59736 125.692 7.72123 125.463 7.8618C125.526 7.61462 125.608 7.36981 125.708 7.12924C125.911 6.97179 126.126 6.82941 126.349 6.70302C126.273 6.96288 126.217 7.22643 126.181 7.49146ZM126.417 6.48543C126.489 6.273 126.574 6.06348 126.673 5.8581C126.496 5.98229 126.327 6.11749 126.166 6.26326C126.114 6.34403 126.063 6.42666 126.014 6.51111C125.953 6.61799 125.895 6.7261 125.841 6.83528C126.026 6.70699 126.218 6.59018 126.417 6.48543ZM125.578 7.02981C125.624 6.92307 125.673 6.81715 125.726 6.71222C125.578 6.88156 125.441 7.06151 125.314 7.25156C125.4 7.17479 125.488 7.10086 125.578 7.02981ZM126.537 5.76049C126.63 5.69314 126.726 5.62886 126.823 5.56767C126.88 5.46629 126.94 5.36614 127.003 5.26734C126.839 5.4203 126.683 5.5848 126.537 5.76049ZM124.607 8.28285C124.565 8.39262 124.528 8.50297 124.493 8.61377C124.411 8.69376 124.331 8.7764 124.254 8.86162C124.36 8.65959 124.478 8.46647 124.607 8.28285ZM122.311 13.5687C122.305 13.6863 122.303 13.8033 122.305 13.9195C122.251 14.0213 122.201 14.1249 122.153 14.2302C122.192 14.0047 122.245 13.7838 122.311 13.5687ZM121.761 19.3069C121.792 19.4203 121.826 19.532 121.864 19.6419C121.844 19.7551 121.828 19.8692 121.815 19.9838C121.783 19.7575 121.765 19.5315 121.761 19.3069ZM131.04 2.16167C131.149 2.12652 131.26 2.09488 131.371 2.06675C131.456 1.98782 131.544 1.91111 131.636 1.83678C131.431 1.93145 131.233 2.03973 131.04 2.16167ZM132.22 1.60582C132.138 1.65824 132.06 1.71313 131.98 1.77047C131.881 1.84294 131.784 1.91821 131.69 1.99608C131.911 1.95403 132.135 1.92552 132.358 1.91061C132.51 1.7457 132.673 1.58896 132.847 1.44161C132.636 1.48342 132.427 1.53814 132.22 1.60582ZM133.166 1.38854C132.959 1.5466 132.764 1.71776 132.587 1.90015C133.947 1.86577 135.321 2.33168 136.411 3.31356L140.06 6.59818C141.982 8.32993 143.435 10.4879 144.319 12.8704C144.39 12.84 144.46 12.8076 144.529 12.7736C143.87 10.5637 142.725 8.50491 141.152 6.75821L137.868 3.11026C136.636 1.74304 134.861 1.15821 133.166 1.38854ZM144.673 12.7008C144.005 10.4791 142.852 8.40942 141.27 6.65236L137.985 3.00443C136.786 1.67295 135.086 1.06218 133.429 1.20069C133.529 1.13292 133.633 1.06809 133.74 1.0064C133.825 0.957654 133.91 0.911474 133.995 0.867831C136.004 0.435087 138.17 1.18543 139.455 2.95436L142.34 6.92565C143.578 8.63041 144.449 10.5487 144.923 12.5608L144.832 12.6136C144.78 12.6437 144.726 12.6728 144.673 12.7008ZM144.575 12.9275C144.508 12.9596 144.441 12.9902 144.373 13.0193C144.422 13.1542 144.469 13.29 144.513 13.4265C144.575 13.4121 144.636 13.3965 144.698 13.3796C144.659 13.2283 144.618 13.0775 144.575 12.9275ZM144.849 13.3353C144.809 13.1747 144.766 13.0147 144.719 12.8556C144.783 12.822 144.847 12.787 144.91 12.7506L144.96 12.7221C144.999 12.901 145.037 13.0807 145.07 13.261C144.998 13.2876 144.924 13.3123 144.849 13.3353ZM144.736 13.5332C144.678 13.549 144.621 13.5638 144.562 13.5775C144.601 13.697 144.637 13.8168 144.672 13.9372C144.724 13.9342 144.776 13.9304 144.827 13.9257C144.799 13.7944 144.768 13.6636 144.736 13.5332ZM144.985 13.9085C144.955 13.7682 144.923 13.6283 144.889 13.489C144.959 13.4671 145.03 13.4438 145.1 13.4188C145.126 13.5725 145.152 13.7267 145.175 13.8814C145.111 13.8916 145.049 13.9008 144.985 13.9085ZM144.861 14.0814C144.813 14.0859 144.764 14.0897 144.716 14.0929C144.747 14.1987 144.775 14.3048 144.802 14.4113C144.844 14.4157 144.885 14.4195 144.927 14.4228C144.907 14.3088 144.884 14.1949 144.861 14.0814ZM145.089 14.4331C145.068 14.3097 145.044 14.1866 145.018 14.0638C145.078 14.0563 145.138 14.0477 145.196 14.0379C145.215 14.171 145.23 14.3042 145.246 14.4378C145.194 14.437 145.142 14.4355 145.089 14.4331ZM144.956 14.5837C144.918 14.581 144.881 14.5779 144.844 14.5744C144.867 14.6679 144.889 14.7616 144.91 14.8556C144.942 14.864 144.973 14.8722 145.004 14.88C144.989 14.781 144.973 14.6822 144.956 14.5837ZM145.171 14.9184C145.154 14.8096 145.136 14.7009 145.117 14.5926C145.166 14.5945 145.214 14.5956 145.262 14.5961C145.274 14.7116 145.284 14.8273 145.293 14.9429C145.252 14.9353 145.211 14.9271 145.171 14.9184ZM145.03 15.0488C145.003 15.0425 144.976 15.036 144.95 15.0293C144.968 15.1109 144.984 15.1928 145.001 15.275C145.022 15.2844 145.042 15.2935 145.064 15.3027C145.053 15.2179 145.041 15.1333 145.03 15.0488ZM145.232 15.3714C145.22 15.2758 145.208 15.1803 145.195 15.0849C145.232 15.0923 145.269 15.0993 145.305 15.1059C145.312 15.2057 145.318 15.3056 145.322 15.4055C145.291 15.3945 145.262 15.3831 145.232 15.3714ZM145.483 15.461C145.522 15.474 145.563 15.4864 145.603 15.4984C145.606 15.3823 145.608 15.2664 145.609 15.1503C145.561 15.1448 145.512 15.1386 145.465 15.1316C145.473 15.2414 145.478 15.3512 145.483 15.461ZM145.454 14.9701C145.505 14.978 145.557 14.985 145.609 14.9911C145.608 14.8567 145.605 14.7224 145.601 14.588C145.542 14.5916 145.482 14.594 145.421 14.5953C145.434 14.72 145.445 14.845 145.454 14.9701ZM145.404 14.4374C145.468 14.4361 145.533 14.4337 145.596 14.4299C145.59 14.2739 145.581 14.1179 145.569 13.9621C145.497 13.9798 145.425 13.9956 145.352 14.0099C145.371 14.1521 145.389 14.2946 145.404 14.4374ZM145.329 13.853C145.406 13.8381 145.482 13.821 145.558 13.8022C145.543 13.6194 145.525 13.4368 145.503 13.2547L145.451 13.2778C145.385 13.3075 145.318 13.3356 145.249 13.3622C145.279 13.5254 145.305 13.689 145.329 13.853ZM145.22 13.2036C145.276 13.1813 145.332 13.1578 145.387 13.1333L145.483 13.0904C145.458 12.8838 145.427 12.6777 145.392 12.4723L145.103 12.6393C145.145 12.8267 145.185 13.0148 145.22 13.2036ZM145.065 12.4783L145.364 12.3063C145.046 10.5313 144.423 8.80765 143.505 7.21624L141.05 2.9651C139.727 0.6746 136.968 -0.268419 134.568 0.617741C136.453 0.427466 138.389 1.21691 139.582 2.86138L142.469 6.83267C143.709 8.54152 144.585 10.4628 145.065 12.4783ZM145.539 12.3879C145.575 12.5991 145.606 12.8109 145.634 13.0232L150.766 10.7387C153.448 9.54459 156.574 10.6664 157.902 13.2434C157.785 12.737 157.592 12.2391 157.319 11.7656C155.841 9.2061 152.569 8.32916 150.009 9.80688L145.539 12.3879ZM158.006 13.8635C157.972 13.7737 157.935 13.6841 157.895 13.5953C156.693 10.8953 153.53 9.68109 150.829 10.8832L145.655 13.1873C145.677 13.3781 145.696 13.5694 145.713 13.7608C145.77 13.7445 145.829 13.7269 145.886 13.7083L151.484 11.889C154.057 11.0533 156.799 12.2115 158.037 14.5113C158.039 14.2958 158.029 14.0795 158.006 13.8635ZM158.022 14.8337C156.888 12.4368 154.122 11.1983 151.534 12.0394L145.934 13.8588C145.865 13.8812 145.796 13.9023 145.726 13.9216C145.737 14.0869 145.747 14.2525 145.754 14.4181C145.943 14.4008 146.133 14.3723 146.321 14.3323L152.08 13.1081C154.415 12.6117 156.721 13.6753 157.91 15.595C157.966 15.3447 158.002 15.0902 158.022 14.8337ZM158.027 15.7913C158.081 15.5737 158.123 15.3526 158.151 15.1295C158.197 15.2425 158.239 15.3577 158.277 15.4751C158.307 15.5678 158.334 15.6608 158.359 15.7539C158.359 15.971 158.347 16.1871 158.321 16.4011C158.235 16.1902 158.136 15.9866 158.027 15.7913ZM157.856 15.8139C156.728 13.8642 154.436 12.7691 152.113 13.2629L146.354 14.4869C146.156 14.5288 145.958 14.5587 145.759 14.5765C145.764 14.72 145.766 14.8636 145.766 15.0073C146.071 15.0335 146.38 15.0309 146.688 14.9984L152.543 14.3831C154.569 14.1702 156.453 15.0834 157.573 16.618C157.689 16.3577 157.784 16.0887 157.856 15.8139ZM157.679 16.768C157.793 16.5228 157.888 16.2698 157.966 16.0114C158.084 16.2374 158.187 16.4741 158.273 16.7202C158.227 16.9735 158.164 17.2228 158.082 17.4662C157.964 17.2224 157.83 16.9892 157.679 16.768ZM157.497 16.7827C156.416 15.2491 154.559 14.3304 152.56 14.5404L146.705 15.1558C146.391 15.1888 146.077 15.1918 145.766 15.1661C145.766 15.2914 145.764 15.4168 145.76 15.5422C146.156 15.6457 146.568 15.6994 146.984 15.6994H152.872C154.526 15.6994 156.009 16.428 157.02 17.5817C157.202 17.3286 157.362 17.061 157.497 16.7827ZM157.125 17.7057C157.304 17.4604 157.463 17.2017 157.599 16.9329C157.754 17.1686 157.889 17.4176 158.006 17.6784C157.905 17.9438 157.783 18.2012 157.641 18.448C157.489 18.1861 157.316 17.9379 157.125 17.7057ZM157.731 18.6081C157.856 18.8439 157.967 19.09 158.058 19.3447C158.164 19.1115 158.254 18.8703 158.326 18.6235C158.267 18.3696 158.188 18.1234 158.094 17.8861C157.991 18.1349 157.869 18.3763 157.731 18.6081ZM158.178 17.6736C158.267 17.8795 158.343 18.0921 158.408 18.3111C158.455 18.1007 158.49 17.8867 158.513 17.6703C158.498 17.5752 158.48 17.48 158.46 17.3847C158.434 17.2638 158.404 17.1448 158.371 17.0279C158.32 17.2471 158.255 17.4627 158.178 17.6736ZM158.437 16.7073C158.474 16.8171 158.508 16.9287 158.54 17.0421C158.536 16.8176 158.518 16.5917 158.485 16.3655C158.472 16.4801 158.456 16.5941 158.437 16.7073ZM158.574 18.2918C158.549 18.4048 158.521 18.5168 158.489 18.6276C158.516 18.7412 158.538 18.8561 158.557 18.9724C158.576 18.748 158.583 18.5207 158.574 18.2918ZM158.465 19.5942C158.46 19.4975 158.452 19.4005 158.442 19.3031C158.429 19.1804 158.411 19.0593 158.391 18.9396C158.317 19.152 158.23 19.3595 158.131 19.5608C158.198 19.7749 158.253 19.9946 158.293 20.219C158.362 20.0152 158.42 19.8066 158.465 19.5942ZM158.342 20.5426C158.356 20.6576 158.366 20.7739 158.372 20.8911C158.415 20.6709 158.444 20.4463 158.46 20.2185C158.424 20.328 158.385 20.4359 158.342 20.5426ZM158.32 15.1263C158.277 15.0167 158.231 14.9093 158.183 14.8039C158.19 14.6891 158.194 14.5741 158.196 14.4586C158.251 14.6803 158.293 14.9032 158.32 15.1263ZM133.389 1.03638C133.291 1.10081 133.196 1.16792 133.103 1.23757C132.989 1.2539 132.876 1.27381 132.763 1.29729C132.968 1.19618 133.177 1.10928 133.389 1.03638ZM156.933 25.7751C156.865 25.868 156.794 25.9588 156.72 26.0472C156.698 26.1611 156.672 26.275 156.641 26.3888C156.75 26.1923 156.848 25.9875 156.933 25.7751ZM156.305 26.9193C156.339 26.8294 156.372 26.7381 156.401 26.6453C156.439 26.528 156.474 26.4101 156.503 26.2922C156.349 26.4561 156.185 26.6104 156.013 26.7542C155.987 26.977 155.948 27.1997 155.893 27.4213C156.039 27.2631 156.178 27.0955 156.305 26.9193ZM155.806 27.7366C155.773 27.8477 155.735 27.9583 155.693 28.0684C155.822 27.8843 155.94 27.6906 156.047 27.488C155.969 27.5735 155.888 27.6563 155.806 27.7366ZM155.667 27.6513C155.742 27.4014 155.797 27.1493 155.835 26.8967C155.62 27.0605 155.394 27.2088 155.158 27.3401C155.15 27.6077 155.123 27.8756 155.074 28.1421C155.283 27.9931 155.481 27.829 155.667 27.6513ZM154.888 28.2692C154.947 27.9897 154.983 27.708 154.997 27.4266C154.729 27.5641 154.448 27.6802 154.159 27.7728C154.176 28.0732 154.171 28.3757 154.14 28.6768C154.4 28.5609 154.65 28.4243 154.888 28.2692ZM153.973 28.748C154.01 28.4391 154.019 28.1286 154.002 27.82C153.68 27.9126 153.346 27.9762 153.004 28.0081C153.062 28.3429 153.088 28.6824 153.083 29.0218C153.388 28.9563 153.686 28.8643 153.973 28.748ZM152.924 29.0533C152.931 28.7076 152.905 28.3616 152.846 28.0205C152.538 28.0403 152.226 28.0345 151.91 28.0014L151.655 27.9744C151.776 28.3551 151.855 28.7459 151.893 29.1394C152.242 29.1445 152.588 29.1149 152.924 29.0533ZM151.733 29.1347C151.694 28.7362 151.61 28.3407 151.482 27.9564L150.114 27.8125C150.297 28.1814 150.434 28.564 150.528 28.9534L150.851 29.0219C151.147 29.0847 151.441 29.1219 151.733 29.1347ZM150.357 28.9168C150.258 28.5325 150.114 28.1554 149.926 27.7928L148.472 27.64L148.654 27.9555C148.781 28.1741 148.89 28.3977 148.983 28.6248L150.357 28.9168ZM152.39 31.945C152.289 32.0022 152.188 32.0562 152.085 32.1069C152.018 32.2019 151.948 32.2952 151.874 32.3869C152.055 32.2519 152.226 32.1046 152.39 31.945Z" fill="#F0F2F5"/>
<path d="M4.54523 27.1573H0V47.6662H12.5825V43.6476H4.54523V27.1573Z" fill="#F0F2F5"/>
<path d="M13.0166 40.7098C13.0166 45.0888 15.9544 47.9988 20.3888 47.9988C24.7954 47.9988 27.7332 45.0888 27.7332 40.7098C27.7332 36.3309 24.7954 33.3931 20.3888 33.3931C15.9544 33.3931 13.0166 36.3309 13.0166 40.7098ZM17.3123 40.6821C17.3123 38.6035 18.5319 37.2177 20.3888 37.2177C22.2179 37.2177 23.4374 38.6035 23.4374 40.6821C23.4374 42.7885 22.2179 44.1742 20.3888 44.1742C18.5319 44.1742 17.3123 42.7885 17.3123 40.6821Z" fill="#F0F2F5"/>
<path d="M28.4197 40.4881C28.4197 44.6731 31.1358 47.5 34.9881 47.5C36.845 47.5 38.4525 46.8349 39.2562 45.754V47.6662C39.2562 49.5786 38.0644 50.8534 35.9582 50.8534C34.0736 50.8534 32.771 49.9666 32.6878 48.3869H28.3643C28.7523 52.1838 31.6901 54.7335 35.7088 54.7335C40.4479 54.7335 43.4411 51.6572 43.4411 46.7794V33.8088H39.5888L39.3671 35.2223C38.5911 34.0861 36.9559 33.3377 35.0713 33.3377C31.1912 33.3377 28.4197 36.2478 28.4197 40.4881ZM32.7432 40.3772C32.7432 38.3818 34.0736 37.0515 35.7641 37.0515C37.7319 37.0515 39.173 38.3541 39.173 40.3772C39.173 42.4005 37.7596 43.7862 35.7918 43.7862C34.1013 43.7862 32.7432 42.4005 32.7432 40.3772Z" fill="#F0F2F5"/>
<path d="M44.6851 40.7098C44.6851 45.0888 47.6228 47.9988 52.0572 47.9988C56.4639 47.9988 59.4016 45.0888 59.4016 40.7098C59.4016 36.3309 56.4639 33.3931 52.0572 33.3931C47.6228 33.3931 44.6851 36.3309 44.6851 40.7098ZM48.9809 40.6821C48.9809 38.6035 50.2004 37.2177 52.0572 37.2177C53.8865 37.2177 55.1059 38.6035 55.1059 40.6821C55.1059 42.7885 53.8865 44.1742 52.0572 44.1742C50.2004 44.1742 48.9809 42.7885 48.9809 40.6821Z" fill="#F0F2F5"/>
<path d="M63.0814 31.6471C64.4118 31.6471 65.4927 30.5663 65.4927 29.2082C65.4927 27.8502 64.4118 26.797 63.0814 26.797C61.7235 26.797 60.6426 27.8502 60.6426 29.2082C60.6426 30.5663 61.7235 31.6471 63.0814 31.6471ZM60.9198 47.6662H65.2155V33.8088H60.9198V47.6662Z" fill="#F0F2F5"/>
<path d="M67.7161 54.3178H71.9288V46.2806C72.7324 47.3337 74.5617 48.0543 76.474 48.0543C80.6034 48.0543 83.0978 44.8948 82.9869 40.5159C82.8761 36.0538 80.2987 33.3654 76.4462 33.3654C74.4785 33.3654 72.6216 34.2246 71.8456 35.4995L71.6239 33.8088H67.7161V54.3178ZM72.0119 40.7376C72.0119 38.659 73.3976 37.2732 75.3931 37.2732C77.4163 37.2732 78.6912 38.6867 78.6912 40.7376C78.6912 42.7885 77.4163 44.202 75.3931 44.202C73.3976 44.202 72.0119 42.8162 72.0119 40.7376Z" fill="#F0F2F5"/>
<path d="M83.4419 43.2873C83.5528 46.0866 85.7699 48.0266 89.262 48.0266C92.6155 48.0266 94.9435 46.2528 94.9435 43.3982C94.9435 41.3473 93.724 39.9893 91.4514 39.435L88.9849 38.8252C88.0979 38.6035 87.5436 38.3818 87.5436 37.6613C87.5436 36.9407 88.1257 36.4695 88.9849 36.4695C89.9548 36.4695 90.5922 37.1069 90.5646 38.0492H94.4169C94.306 35.1669 92.1166 33.3654 89.0679 33.3654C85.9916 33.3654 83.6913 35.1946 83.6913 37.9661C83.6913 39.8229 84.7167 41.3473 87.4606 42.0679L89.8994 42.7054C90.6199 42.8994 90.9248 43.232 90.9248 43.7031C90.9248 44.3959 90.2873 44.8393 89.2066 44.8393C87.9593 44.8393 87.2942 44.2574 87.2942 43.2873H83.4419Z" fill="#F0F2F5"/>
<path d="M101.477 48.0266C103.167 48.0266 104.858 47.2505 105.717 46.1142L105.994 47.6662H110.013V33.8088H105.745V41.0147C105.745 43.0933 105.135 44.2297 103.167 44.2297C101.643 44.2297 100.645 43.5367 100.645 40.9593V33.8088H96.3772V42.5113C96.3772 45.8094 98.2063 48.0266 101.477 48.0266Z" fill="#F0F2F5"/>
<path d="M116.781 47.6662V40.1002C116.781 37.7722 118.028 37.1069 119.248 37.1069C120.606 37.1069 121.492 37.9384 121.492 39.6567V47.6662H125.705V40.1002C125.705 37.7443 126.925 37.0792 128.143 37.0792C129.502 37.0792 130.416 37.9107 130.416 39.6567V47.6662H134.574V38.6035C134.574 35.444 132.91 33.3377 129.336 33.3377C127.341 33.3377 125.705 34.3078 124.985 35.8044C124.153 34.3078 122.712 33.3377 120.412 33.3377C118.887 33.3377 117.474 34.0306 116.642 35.1391L116.476 33.8088H112.485V47.6662H116.781Z" fill="#F0F2F5"/>
</g>
<rect x="0.5" y="0.630371" width="159" height="54.873" stroke="#161513"/>
<defs>
<clipPath id="clip0_228_940">
<rect y="0.130371" width="160" height="55.873" fill="white"/>
</clipPath>
</defs>
</svg>
