<svg width="160" height="43" viewBox="0 0 160 43" fill="none" xmlns="http://www.w3.org/2000/svg">
<path d="M29.654 18.2282C32.7343 18.2282 33.4273 19.5661 33.4273 21.2348C33.4273 23.0037 32.589 24.2709 29.6668 24.2709C26.7632 24.2709 25.924 23.0773 25.924 21.2348C25.924 19.4218 26.8388 18.2282 29.654 18.2282Z" fill="#F0F2F5"/>
<path d="M61.8444 18.2282C64.9247 18.2282 65.6177 19.5661 65.6177 21.2348C65.6177 23.0037 64.7784 24.2709 61.8572 24.2709C58.9546 24.2709 58.1144 23.0773 58.1144 21.2348C58.1144 19.4218 59.0292 18.2282 61.8444 18.2282Z" fill="#F0F2F5"/>
<path fill-rule="evenodd" clip-rule="evenodd" d="M2.38208 38.6267V3.82623H158.042V38.6267H2.38208ZM76.5691 36.6635H156.079V5.78942H76.5691V36.6635ZM29.6687 27.2333C35.1372 27.2333 37.4361 24.8746 37.4361 21.1906C37.4361 17.4468 34.8466 15.2216 29.6687 15.2216C24.5703 15.2216 21.8866 17.6383 21.8866 21.1906C21.8866 25.1995 24.7018 27.2333 29.6687 27.2333ZM10.6562 15.4866V27.0567H21.6932V23.9754H14.6493V15.4866H10.6562ZM49.7885 27.0567L49.6854 25.9357C48.3495 26.889 46.7236 27.3478 45.0866 27.2333C42.6258 27.2333 40.5762 26.4962 39.4267 25.0081C38.6685 23.9216 38.2857 22.6175 38.3362 21.2937C38.2931 19.9977 38.6892 18.7252 39.4601 17.6824C40.6233 16.2385 42.7318 15.2805 45.8709 15.2805C49.4822 15.2805 51.6044 16.3857 52.5173 18.2429C52.7132 18.6803 52.8284 19.1495 52.8569 19.6279H49.0366C48.9403 19.3372 48.7611 19.081 48.5212 18.8908C47.7602 18.3862 46.8514 18.1529 45.9416 18.2282C45.4079 18.1635 44.8664 18.2128 44.3533 18.3729C43.8401 18.533 43.3667 18.8002 42.9644 19.1568C42.5076 19.7821 42.2931 20.5518 42.3607 21.3232C42.3077 22.0591 42.5049 22.7913 42.9202 23.4012C43.3261 23.7794 43.8087 24.0658 44.335 24.2414C44.8614 24.4168 45.4193 24.4771 45.971 24.4181C47.0668 24.5073 48.1547 24.1693 49.0071 23.4748C49.1902 23.2459 49.3164 22.9768 49.3752 22.6895H45.2643V20.2032H52.957V27.0567H49.7885ZM61.8591 27.2333C67.3266 27.2333 69.6265 24.8746 69.6265 21.1906C69.6265 17.4468 67.033 15.2216 61.8591 15.2216C56.7607 15.2216 54.077 17.6383 54.077 21.1906C54.077 25.1995 56.8923 27.2333 61.8591 27.2333Z" fill="#F0F2F5"/>
<path d="M83.2952 27.0125V15.4424H86.1418V27.0125H83.2952Z" fill="#F0F2F5"/>
<path d="M100.76 22.1781C100.038 23.1215 98.7966 23.5524 97.0464 23.5632C96.6773 23.5632 91.7841 23.5485 91.7841 23.5485V27.0125H88.9983V15.4424H97.0474C97.6925 15.3742 98.345 15.4426 98.9615 15.6432C99.5789 15.8438 100.146 16.1721 100.628 16.6066C101.264 17.4353 101.574 18.4685 101.498 19.5102C101.563 20.4576 101.303 21.3989 100.76 22.1781ZM98.4756 18.4059C98.1811 17.9642 97.546 17.7188 96.4712 17.7188H91.7693V21.2407H96.4407C97.5902 21.2407 98.1958 21.0051 98.4756 20.5477C98.6415 20.2255 98.7131 19.8626 98.6817 19.5013C98.7063 19.1246 98.6356 18.7478 98.4756 18.4059Z" fill="#F0F2F5"/>
<path d="M109.707 27.1892C104.459 27.1892 102.854 25.226 102.854 23.2834H105.831C105.831 24.2415 107.142 24.9639 109.84 24.9639C112.521 24.9639 113.229 24.4918 113.229 23.7251C113.229 22.8702 112.699 22.6051 110.208 22.3254C109.717 22.2812 108.381 22.1193 107.879 22.0456C104.346 21.6471 102.985 20.6007 102.985 18.7288C102.985 16.7539 104.976 15.2658 109.294 15.2658C113.981 15.2658 115.779 17.1082 115.779 19.0243H112.834C112.834 18.0515 111.729 17.491 109.12 17.491C106.437 17.491 105.863 17.8591 105.863 18.5816C105.863 19.3335 106.452 19.5691 109.299 19.9077C109.948 19.9971 111.391 20.159 111.789 20.2022C114.797 20.5114 116.152 21.602 116.152 23.5328C116.147 25.8326 114.084 27.1892 109.707 27.1892Z" fill="#F0F2F5"/>
<path d="M124.535 27.1745C120.689 27.1745 118.183 25.6559 118.183 22.4628V15.4424H120.997V22.5021C120.997 23.9617 122.192 24.9335 124.653 24.9335C126.878 24.9335 128.205 24.0206 128.205 22.5021V15.4424H130.991V22.7249C130.991 25.6275 128.662 27.1745 124.535 27.1745Z" fill="#F0F2F5"/>
<path d="M146.245 27.0125V19.2893L142.634 27.0125H139.893L136.385 19.2893V27.0125H133.734V15.4424H137.325L141.305 24.2562L145.372 15.4424H148.906V27.0125H146.245Z" fill="#F0F2F5"/>
<rect x="0.5" y="1.33533" width="159" height="40.227" stroke="#161513"/>
</svg>
