<svg width="160" height="57" viewBox="0 0 160 57" fill="none" xmlns="http://www.w3.org/2000/svg">
<g clip-path="url(#clip0_228_1885)">
<path fill-rule="evenodd" clip-rule="evenodd" d="M146.87 35.1508C145.213 35.2893 143.512 34.6785 142.314 33.3471L138.373 28.9719C137.026 27.4756 135.99 25.7526 135.299 23.9019C135.223 23.9316 135.145 23.9635 135.07 23.9973C135.575 25.645 136.35 27.2138 137.383 28.6342L140.843 33.3973C142.128 35.1662 144.295 35.9165 146.302 35.4839C146.389 35.4402 146.474 35.394 146.559 35.3451C146.665 35.2834 146.769 35.2186 146.87 35.1508ZM147.133 34.963C145.437 35.1933 143.662 34.6084 142.43 33.2412L138.491 28.8661C137.158 27.3848 136.132 25.6793 135.448 23.8474C135.514 23.8247 135.578 23.8034 135.644 23.7836C136.54 25.7866 137.85 27.6016 139.512 29.0981L143.887 33.0377C144.978 34.0194 146.353 34.4853 147.712 34.451C147.534 34.6336 147.34 34.8049 147.133 34.963ZM147.195 35.114C147.102 35.1837 147.007 35.2509 146.909 35.3152C147.121 35.2424 147.331 35.1554 147.535 35.0542C147.422 35.0777 147.309 35.0976 147.195 35.114ZM148.079 34.7457C147.872 34.8134 147.662 34.8681 147.451 34.9099C147.625 34.7625 147.788 34.6057 147.94 34.4406C148.164 34.4257 148.387 34.3971 148.608 34.3551C148.514 34.4332 148.418 34.5085 148.319 34.5811C148.239 34.6384 148.159 34.6933 148.079 34.7457ZM148.147 34.8896C147.585 35.2512 146.978 35.4978 146.356 35.6342C143.768 36.9376 140.579 36.0076 139.111 33.4655L136.168 28.3668C135.423 27.0784 134.872 25.7042 134.517 24.2863L130.369 26.6807C127.735 28.2021 124.365 27.2992 122.844 24.6641C122.451 23.9844 122.22 23.2561 122.138 22.523C121.902 21.8977 121.787 21.2531 121.783 20.6168C121.613 19.97 121.566 19.3168 121.628 18.6834C121.527 18.0231 121.548 17.3692 121.677 16.7464C121.645 16.0782 121.734 15.4291 121.927 14.8223C121.965 14.1544 122.122 13.5183 122.378 12.9349C122.486 12.2749 122.708 11.6591 123.023 11.1059C123.199 10.461 123.485 9.87193 123.856 9.35473C124.098 8.73191 124.444 8.17604 124.866 7.70048C125.173 7.10608 125.575 6.58914 126.045 6.16018C126.412 5.60117 126.866 5.12916 127.378 4.75175C127.802 4.23411 128.302 3.81208 128.851 3.49029C129.327 3.01977 129.868 2.65245 130.448 2.38983C130.97 1.97157 131.548 1.66294 132.151 1.46236C132.714 1.10092 133.321 0.854333 133.942 0.717985C136.531 -0.585664 139.719 0.344289 141.187 2.88652L143.641 7.13764C144.56 8.72828 145.186 10.4497 145.509 12.2227L149.93 9.6704C152.565 8.149 155.934 9.05186 157.456 11.687C157.848 12.3662 158.079 13.0942 158.161 13.8267C158.397 14.4523 158.513 15.097 158.517 15.7335C158.687 16.3801 158.734 17.0332 158.672 17.6666C158.773 18.3282 158.752 18.9833 158.623 19.6072C158.655 20.2749 158.565 20.9232 158.372 21.5295C158.334 22.1966 158.178 22.8321 157.922 23.4149C157.815 24.0749 157.592 24.6907 157.277 25.2439C157.101 25.8891 156.815 26.4784 156.444 26.9959C156.202 27.6192 155.856 28.1756 155.432 28.6515C155.126 29.2458 154.724 29.7626 154.254 30.1914C153.887 30.7505 153.434 31.2225 152.921 31.6001C152.498 32.1177 151.996 32.5396 151.448 32.8614C150.973 33.332 150.43 33.6994 149.85 33.962C149.328 34.3804 148.752 34.6891 148.147 34.8896ZM149.26 34.1895C149.067 34.3116 148.867 34.42 148.663 34.5147C148.754 34.4403 148.842 34.3635 148.927 34.2845C149.039 34.2563 149.149 34.2247 149.26 34.1895ZM150.325 33.5353C150.517 33.4198 150.703 33.2911 150.884 33.1495C150.778 33.196 150.672 33.2391 150.564 33.2787C150.486 33.3662 150.408 33.4517 150.325 33.5353ZM150.253 33.3823C150.169 33.4697 150.08 33.5547 149.989 33.6373C149.916 33.7025 149.842 33.7654 149.768 33.826C149.569 33.9149 149.366 33.9912 149.161 34.0549C149.318 33.8901 149.464 33.7171 149.597 33.5371C149.818 33.4989 150.038 33.4472 150.253 33.3823ZM150.771 33.026C150.969 32.9411 151.163 32.844 151.351 32.7349C151.418 32.6667 151.486 32.5965 151.55 32.524C151.633 32.4323 151.712 32.3385 151.787 32.2429C151.58 32.33 151.368 32.4043 151.152 32.4655C151.037 32.6584 150.91 32.8457 150.771 33.026ZM150.931 32.523C150.794 32.7386 150.64 32.9462 150.471 33.1441C150.229 33.2309 149.981 33.3001 149.729 33.3513C149.882 33.1274 150.016 32.894 150.132 32.653C150.401 32.6293 150.668 32.5856 150.931 32.523ZM151.263 32.2669C151.507 32.1897 151.747 32.0949 151.978 31.9832C152.127 31.7686 152.258 31.5461 152.372 31.3173C152.117 31.4071 151.856 31.4783 151.591 31.5301C151.501 31.7819 151.392 32.0283 151.263 32.2669ZM151.411 31.5624C151.31 31.8257 151.19 32.0826 151.048 32.3301C150.773 32.4043 150.493 32.4567 150.209 32.4867C150.333 32.2098 150.432 31.924 150.507 31.6324C150.811 31.6341 151.114 31.6104 151.411 31.5624ZM151.472 31.3914C151.572 31.097 151.647 30.7952 151.694 30.4898C151.359 30.5132 151.02 30.506 150.678 30.4661C150.665 30.8057 150.62 31.1433 150.545 31.4744C150.857 31.4738 151.168 31.4457 151.472 31.3914ZM151.651 31.3566C151.743 31.0684 151.812 30.7739 151.856 30.4761C152.159 30.4459 152.457 30.3907 152.748 30.3118C152.677 30.5842 152.583 30.8523 152.467 31.1133C152.202 31.2157 151.929 31.2972 151.651 31.3566ZM152.585 31.237C152.491 31.4408 152.385 31.6403 152.265 31.8344C152.453 31.7292 152.636 31.6125 152.811 31.4844C152.872 31.4095 152.931 31.3325 152.988 31.2537C153.06 31.1537 153.129 31.0523 153.194 30.9493C152.997 31.0575 152.794 31.1536 152.585 31.237ZM153.357 30.6709C153.139 30.8062 152.91 30.9254 152.676 31.0278C152.778 30.7771 152.861 30.5208 152.924 30.2609C153.183 30.1817 153.435 30.0836 153.679 29.9678C153.59 30.2072 153.482 30.4421 153.357 30.6709ZM153.476 30.7834C153.42 30.8849 153.36 30.9851 153.295 31.084C153.46 30.931 153.616 30.7663 153.762 30.5904C153.669 30.6578 153.573 30.7222 153.476 30.7834ZM154.133 30.0878C153.972 30.2336 153.803 30.3688 153.627 30.493C153.726 30.2877 153.811 30.078 153.882 29.8656C154.081 29.761 154.273 29.6441 154.458 29.5159C154.404 29.625 154.347 29.733 154.284 29.8399C154.236 29.9244 154.185 30.0071 154.133 30.0878ZM154.573 29.6392C154.721 29.4698 154.858 29.2897 154.985 29.0996C154.899 29.1764 154.811 29.2504 154.721 29.3215C154.676 29.4283 154.626 29.5342 154.573 29.6392ZM154.841 29.017C154.917 28.8022 154.98 28.585 155.029 28.366C155.215 28.2411 155.394 28.1048 155.564 27.9579C155.524 28.0721 155.477 28.1856 155.427 28.2984C155.387 28.3875 155.346 28.4751 155.302 28.5611C155.157 28.7229 155.002 28.875 154.841 29.017ZM154.592 29.222C154.692 28.9813 154.773 28.7363 154.837 28.4891C154.607 28.6297 154.367 28.7535 154.118 28.8594C154.081 29.1245 154.027 29.3881 153.95 29.6481C154.174 29.5217 154.387 29.3794 154.592 29.222ZM153.752 29.755C153.84 29.4832 153.905 29.2068 153.948 28.9283C153.667 29.0371 153.376 29.1232 153.078 29.185C153.065 29.4858 153.027 29.7858 152.965 30.0821C153.236 29.994 153.5 29.8845 153.752 29.755ZM152.792 30.1354C152.861 29.8322 152.903 29.5243 152.918 29.2156C152.588 29.274 152.249 29.3023 151.905 29.2982C151.928 29.6373 151.919 29.9777 151.878 30.3149C152.189 30.2816 152.494 30.2213 152.792 30.1354ZM151.717 30.3296C151.76 29.9864 151.77 29.6396 151.746 29.2942C151.439 29.2816 151.129 29.2432 150.818 29.1771L150.566 29.1237C150.649 29.5151 150.687 29.9119 150.682 30.3074C151.03 30.3489 151.376 30.3556 151.717 30.3296ZM150.524 30.286C150.527 29.8855 150.485 29.4834 150.397 29.0877L149.053 28.8017C149.195 29.1876 149.293 29.5827 149.345 29.9797L149.658 30.0816C149.945 30.1749 150.235 30.2426 150.524 30.286ZM149.178 29.9254C149.12 29.5328 149.017 29.1428 148.867 28.7626L145.059 27.9531C142.001 27.3029 139.227 25.7697 137.063 23.5768C137.046 23.5767 137.03 23.5767 137.013 23.5768C138.874 25.7358 141.304 27.3669 144.06 28.2623L149.178 29.9254ZM136.81 23.5824C138.7 25.8116 141.186 27.4949 144.01 28.4126L149.2 30.0991C149.247 30.5019 149.247 30.9062 149.201 31.3042C148.918 31.2309 148.637 31.1333 148.362 31.0104L142.983 28.6158C140.476 27.4996 138.329 25.7577 136.729 23.5871C136.756 23.5853 136.783 23.5838 136.81 23.5824ZM136.881 23.4213C136.891 23.4209 136.902 23.4206 136.912 23.4204C136.86 23.3662 136.808 23.3117 136.757 23.2567C136.752 23.2561 136.748 23.2553 136.743 23.2547C136.789 23.3105 136.834 23.366 136.881 23.4213ZM136.516 23.2244C136.571 23.294 136.627 23.3631 136.684 23.4317C136.663 23.4332 136.641 23.4349 136.62 23.4368C136.568 23.3646 136.517 23.2923 136.466 23.2192C136.483 23.2209 136.499 23.2227 136.516 23.2244ZM137.293 23.583C139.417 25.6915 142.119 27.1663 145.092 27.7983L148.795 28.5853C148.714 28.3989 148.621 28.2153 148.517 28.0351L148.278 27.6201L146.055 27.3864C142.795 27.0439 139.746 25.7042 137.305 23.5837C137.302 23.5836 137.298 23.5833 137.293 23.583ZM137.78 23.7761C140.131 25.6949 143.007 26.9071 146.071 27.2291L148.18 27.4507L147.757 26.7188H146.984C143.663 26.7188 140.449 25.6777 137.78 23.7761ZM147.94 26.7188L148.375 27.4712L149.835 27.6247C149.736 27.4478 149.624 27.2747 149.502 27.1065L149.22 26.7188H147.94ZM149.106 26.5607H147.849L147.519 25.9881C147.625 25.979 147.733 25.9688 147.84 25.9575L148.608 25.8768L149.106 26.5607ZM149.416 26.7188L149.63 27.0135C149.778 27.2177 149.911 27.4286 150.027 27.6449L151.423 27.7917C151.285 27.4199 151.103 27.0597 150.879 26.7188H149.416ZM150.771 26.5607H149.302L148.79 25.8577L150.063 25.7239L150.385 26.0798C150.523 26.2345 150.653 26.3951 150.771 26.5607ZM151.067 26.7188C151.288 27.0666 151.464 27.4327 151.599 27.8101L151.926 27.8445C152.226 27.8761 152.524 27.8821 152.815 27.8644C152.735 27.4722 152.611 27.0876 152.443 26.7188H151.067ZM152.367 26.5607H150.963C150.824 26.3577 150.67 26.1616 150.502 25.974L150.258 25.7034L151.713 25.5505C151.972 25.8661 152.19 26.2053 152.367 26.5607ZM152.616 26.7188C152.777 27.0846 152.896 27.465 152.975 27.8524C153.323 27.8208 153.663 27.7554 153.991 27.659C153.962 27.3144 153.9 26.973 153.806 26.6402C153.502 26.6919 153.19 26.7188 152.872 26.7188H152.616ZM153.759 26.4874C153.47 26.5356 153.175 26.5607 152.872 26.5607H152.543C152.371 26.1994 152.156 25.8537 151.901 25.5309L153.269 25.387C153.474 25.7362 153.638 26.1057 153.759 26.4874ZM153.962 26.6111C154.053 26.9382 154.116 27.273 154.146 27.611C154.443 27.514 154.729 27.3913 155.002 27.2457C155.007 26.9345 154.984 26.6247 154.935 26.3196C154.623 26.4454 154.298 26.5437 153.962 26.6111ZM154.907 26.1602C154.59 26.2904 154.259 26.3911 153.916 26.4589C153.798 26.0816 153.639 25.7159 153.441 25.369L153.695 25.3422C154.011 25.3089 154.319 25.2495 154.616 25.1664C154.744 25.4876 154.842 25.8205 154.907 26.1602ZM155.084 26.2564C155.135 26.5533 155.161 26.8547 155.161 27.1574C155.407 27.0148 155.642 26.8529 155.863 26.6736C155.892 26.3895 155.898 26.1056 155.882 25.8243C155.63 25.9893 155.364 26.134 155.084 26.2564ZM155.869 25.6432C155.613 25.8168 155.341 25.9687 155.055 26.0963C154.989 25.7634 154.893 25.4368 154.767 25.1212C155.096 25.0189 155.409 24.8872 155.705 24.7293C155.787 25.0277 155.841 25.3335 155.869 25.6432ZM156.034 25.7215C156.055 25.9884 156.055 26.2577 156.034 26.5278C156.226 26.3577 156.406 26.1738 156.573 25.9773C156.621 25.7211 156.65 25.4646 156.66 25.2096C156.465 25.395 156.255 25.5662 156.034 25.7215ZM156.665 24.9843C156.465 25.1857 156.248 25.3712 156.018 25.5389C155.986 25.2379 155.929 24.9409 155.848 24.6509C156.113 24.5 156.362 24.3282 156.596 24.1378C156.641 24.4158 156.664 24.6987 156.665 24.9843ZM156.823 25.0493C156.82 25.2735 156.804 25.499 156.773 25.7249C156.903 25.5523 157.022 25.3714 157.13 25.1829C157.156 25.09 157.178 24.9959 157.197 24.9006C157.224 24.7798 157.246 24.659 157.262 24.5385C157.126 24.7177 156.979 24.8882 156.823 25.0493ZM157.298 24.2178C157.153 24.4304 156.994 24.6321 156.82 24.8213C156.813 24.5508 156.783 24.2829 156.736 24.0196C156.94 23.8421 157.13 23.65 157.305 23.4453C157.322 23.6999 157.319 23.9579 157.298 24.2178ZM157.453 24.2723C157.443 24.3879 157.429 24.5038 157.409 24.6199C157.498 24.4133 157.573 24.1996 157.636 23.9796C157.577 24.0792 157.516 24.1768 157.453 24.2723ZM157.769 23.3697C157.681 23.5683 157.582 23.7606 157.472 23.9457C157.478 23.7179 157.472 23.492 157.45 23.2689C157.589 23.0925 157.717 22.9076 157.834 22.7154C157.829 22.8369 157.821 22.9591 157.807 23.0818C157.797 23.1787 157.784 23.2746 157.769 23.3697ZM157.989 22.7804C158.055 22.566 158.108 22.3458 158.146 22.121C158.099 22.2258 158.048 22.3292 157.995 22.4307C157.996 22.5466 157.995 22.6632 157.989 22.7804ZM157.98 22.1038C158.07 21.9084 158.149 21.707 158.216 21.5004C158.221 21.404 158.223 21.307 158.223 21.2093C158.223 21.0862 158.22 20.964 158.211 20.8429C158.116 21.0462 158.008 21.2432 157.888 21.4331C157.931 21.6528 157.963 21.8766 157.98 22.1038ZM157.837 21.2106C157.968 20.9898 158.083 20.7596 158.179 20.5217C158.146 20.2629 158.095 20.0098 158.025 19.764C157.897 20.0006 157.751 20.2277 157.589 20.4437C157.69 20.6914 157.774 20.9476 157.837 21.2106ZM157.477 20.5885C157.578 20.851 157.66 21.1231 157.719 21.4024C157.566 21.6408 157.393 21.8671 157.202 22.0788C157.109 21.7911 156.99 21.5124 156.852 21.2454C157.078 21.043 157.288 20.823 157.477 20.5885ZM157.516 20.2751C157.684 20.0448 157.832 19.8016 157.961 19.5483C157.872 19.2768 157.763 19.0148 157.633 18.7644C157.47 19.0175 157.285 19.258 157.081 19.483C157.247 19.7339 157.393 19.9988 157.516 20.2751ZM156.97 19.6017C157.138 19.8605 157.285 20.1344 157.407 20.4203C157.218 20.6643 157.006 20.8928 156.775 21.1022C156.608 20.8059 156.416 20.5251 156.199 20.2638C156.479 20.0653 156.736 19.8432 156.97 19.6017ZM156.989 19.3486C157.197 19.1161 157.384 18.8669 157.548 18.6043C157.396 18.3326 157.222 18.0756 157.026 17.8359C156.819 18.1005 156.587 18.3483 156.329 18.5749C156.573 18.8121 156.794 19.0712 156.989 19.3486ZM156.208 18.6782C156.457 18.9192 156.682 19.1836 156.879 19.4675C156.644 19.7149 156.381 19.9415 156.095 20.1432C155.835 19.8465 155.54 19.5771 155.218 19.3408L155.44 19.213C155.714 19.054 155.972 18.8747 156.208 18.6782ZM156.213 18.4657C156.477 18.2354 156.714 17.9825 156.922 17.7118C155.942 16.5764 154.49 15.8581 152.872 15.8581H146.984C146.566 15.8581 146.154 15.8057 145.755 15.7046C145.75 15.8143 145.745 15.9241 145.738 16.0338C146.199 16.2397 146.695 16.374 147.206 16.4279L153.062 17.0432C154.286 17.1719 155.373 17.6919 156.213 18.4657ZM145.727 16.2017C146.188 16.4011 146.681 16.5316 147.19 16.5851L153.045 17.2006C154.226 17.3248 155.277 17.8246 156.093 18.5688C155.867 18.755 155.622 18.9249 155.36 19.0761L155.076 19.2402C154.499 18.8448 153.836 18.5535 153.109 18.3989L147.35 17.1749C146.758 17.049 146.201 16.8147 145.704 16.4893C145.712 16.3935 145.719 16.2976 145.727 16.2017ZM145.583 15.9617C145.59 15.8619 145.594 15.762 145.597 15.6622C145.562 15.6517 145.525 15.641 145.489 15.6297C145.493 15.7258 145.496 15.8219 145.497 15.9182C145.525 15.933 145.554 15.9475 145.583 15.9617ZM145.498 16.0962C145.524 16.1084 145.548 16.1203 145.573 16.1321C145.567 16.2172 145.561 16.3022 145.553 16.3872C145.535 16.3739 145.516 16.3604 145.497 16.3467C145.498 16.2632 145.498 16.1796 145.498 16.0962ZM145.337 15.8323C145.335 15.747 145.333 15.6618 145.329 15.5766C145.304 15.5674 145.277 15.5582 145.252 15.5486C145.261 15.6317 145.27 15.7149 145.277 15.798C145.296 15.8096 145.317 15.821 145.337 15.8323ZM145.294 15.9893C145.309 15.9977 145.324 16.006 145.34 16.0143C145.341 16.0851 145.341 16.156 145.34 16.2269C145.329 16.2187 145.319 16.2105 145.309 16.2022C145.304 16.1312 145.299 16.0601 145.294 15.9893ZM145.109 15.6953C145.101 15.6247 145.093 15.5542 145.086 15.4839C145.069 15.4773 145.054 15.4707 145.037 15.4638C145.05 15.5339 145.063 15.604 145.076 15.6742C145.086 15.6812 145.097 15.6883 145.109 15.6953ZM145.11 15.8829C145.116 15.8862 145.121 15.8896 145.126 15.8929C145.131 15.9483 145.136 16.0037 145.14 16.0591L145.136 16.0558C145.129 15.9982 145.12 15.9404 145.11 15.8829ZM144.893 15.5495C144.882 15.4948 144.872 15.4402 144.861 15.3856C144.856 15.3828 144.849 15.3799 144.843 15.3771C144.858 15.4335 144.874 15.49 144.888 15.5465L144.893 15.5495ZM144.787 15.1733C144.799 15.1792 144.81 15.1851 144.822 15.1909C144.808 15.1215 144.792 15.052 144.777 14.9827C144.761 14.9778 144.744 14.9729 144.728 14.9678C144.748 15.0361 144.767 15.1046 144.787 15.1733ZM144.543 14.9083C144.56 14.9616 144.576 15.0149 144.592 15.0685L144.588 15.066C144.568 15.0111 144.546 14.9564 144.526 14.9018C144.532 14.9039 144.537 14.9061 144.543 14.9083ZM144.672 14.7842C144.693 14.7914 144.715 14.7984 144.736 14.8053C144.717 14.7221 144.697 14.639 144.677 14.5563C144.649 14.5527 144.622 14.549 144.594 14.5451C144.621 14.6246 144.646 14.7043 144.672 14.7842ZM144.418 14.5163C144.441 14.5837 144.463 14.6511 144.485 14.7188C144.472 14.7142 144.46 14.7097 144.448 14.705C144.422 14.6387 144.395 14.5725 144.367 14.5066C144.383 14.5099 144.401 14.5132 144.418 14.5163ZM144.538 14.3763C144.57 14.3815 144.602 14.3864 144.634 14.3909C144.608 14.2942 144.582 14.1977 144.555 14.1015C144.517 14.1028 144.48 14.1036 144.442 14.1039C144.475 14.1945 144.507 14.2853 144.538 14.3763ZM144.273 14.1031C144.302 14.1831 144.331 14.2634 144.359 14.3441C144.336 14.3395 144.315 14.3348 144.292 14.33C144.259 14.2531 144.225 14.1767 144.19 14.1004C144.218 14.1015 144.246 14.1024 144.273 14.1031ZM144.383 13.9461C144.425 13.9461 144.467 13.9456 144.509 13.9446C144.476 13.8333 144.442 13.7224 144.408 13.6119C144.359 13.6214 144.312 13.6303 144.265 13.6384C144.306 13.7405 144.345 13.8431 144.383 13.9461ZM144.104 13.6634C144.142 13.7563 144.178 13.8495 144.213 13.9431C144.182 13.9419 144.149 13.9404 144.117 13.9386C144.076 13.8512 144.036 13.7643 143.994 13.6777C144.03 13.6733 144.067 13.6686 144.104 13.6634ZM144.204 13.4883C144.255 13.4798 144.307 13.4705 144.358 13.4605C144.316 13.3329 144.272 13.2059 144.226 13.0796C144.17 13.1014 144.114 13.1222 144.057 13.142C144.108 13.2568 144.156 13.3723 144.204 13.4883ZM143.907 13.1919C143.953 13.2981 143.999 13.4049 144.043 13.5122C144.001 13.5175 143.961 13.5224 143.919 13.5268C143.869 13.4284 143.82 13.3305 143.769 13.2332C143.815 13.2201 143.86 13.2064 143.907 13.1919ZM143.994 12.9969C144.053 12.9762 144.113 12.9541 144.173 12.931C143.298 10.5702 141.859 8.43191 139.954 6.7162L136.306 3.43158C135.204 2.43981 133.804 1.99003 132.433 2.06508C132.241 2.27751 132.07 2.50346 131.917 2.74027C132.95 2.79129 133.98 3.13313 134.879 3.78615L138.849 6.67147C141.106 8.31022 142.869 10.4981 143.994 12.9969ZM131.821 2.89464C132.853 2.92871 133.887 3.26134 134.786 3.91411L138.757 6.79942C140.985 8.41849 142.729 10.579 143.842 13.0465C143.792 13.0619 143.742 13.0765 143.693 13.0902C142.307 10.5176 140.226 8.355 137.655 6.8703L133.403 4.41591C132.772 4.0511 132.098 3.82569 131.417 3.73011C131.526 3.44141 131.662 3.16173 131.821 2.89464ZM131.733 2.73426C131.874 2.50687 132.033 2.28876 132.208 2.0821C131.953 2.10681 131.699 2.14975 131.449 2.21083C131.26 2.38974 131.086 2.5802 130.927 2.78031C131.194 2.74537 131.464 2.72991 131.733 2.73426ZM130.791 2.95996C131.072 2.91487 131.355 2.89198 131.639 2.89174C131.489 3.15419 131.361 3.42795 131.256 3.70989C130.952 3.67656 130.65 3.66864 130.349 3.68531C130.476 3.43386 130.623 3.19118 130.791 2.95996ZM130.701 2.81455C130.836 2.63462 130.98 2.46167 131.138 2.29692C130.932 2.3606 130.73 2.43692 130.532 2.5258C130.457 2.58641 130.382 2.64937 130.31 2.71468C130.218 2.7972 130.131 2.88216 130.046 2.96939C130.262 2.90447 130.48 2.85279 130.701 2.81455ZM129.829 3.20771C130.07 3.12085 130.317 3.05163 130.569 3.00038C130.416 3.22418 130.282 3.45763 130.166 3.6985C129.897 3.72241 129.63 3.76601 129.368 3.82867C129.505 3.61311 129.658 3.40549 129.829 3.20771ZM129.736 3.07307C129.812 2.98565 129.891 2.90014 129.973 2.81671C129.782 2.93215 129.595 3.06065 129.416 3.20213C129.521 3.15572 129.628 3.11269 129.736 3.07307ZM128.949 3.61681C129.136 3.50774 129.329 3.41068 129.528 3.32584C129.388 3.50616 129.261 3.6934 129.147 3.88631C128.931 3.94747 128.719 4.02173 128.512 4.10878C128.587 4.01312 128.665 3.91935 128.748 3.82766C128.814 3.75518 128.88 3.68489 128.949 3.61681ZM128.424 3.96433C128.245 4.09932 128.072 4.24667 127.909 4.40621C128.009 4.34899 128.11 4.29501 128.215 4.24431C128.281 4.14936 128.35 4.05598 128.424 3.96433ZM128.034 4.5174C127.845 4.6225 127.663 4.73928 127.488 4.86743C127.427 4.94225 127.368 5.01911 127.31 5.098C127.238 5.19779 127.169 5.29926 127.105 5.40221C127.303 5.29394 127.506 5.19787 127.714 5.11447C127.807 4.91071 127.914 4.71127 128.034 4.5174ZM127.624 5.32371C127.388 5.42607 127.161 5.54528 126.942 5.68059C126.817 5.90939 126.71 6.14437 126.621 6.38362C126.864 6.26784 127.116 6.16973 127.374 6.09039C127.439 5.83058 127.521 5.57427 127.624 5.32371ZM127.55 6.03944C127.623 5.76711 127.716 5.49909 127.832 5.2381C128.096 5.1357 128.369 5.05426 128.648 4.99483C128.555 5.28288 128.486 5.57735 128.442 5.87501C128.14 5.9053 127.841 5.9606 127.55 6.03944ZM127.333 6.2692C127.063 6.35742 126.8 6.46699 126.547 6.59655C126.459 6.86821 126.394 7.14454 126.351 7.42286C126.632 7.31405 126.923 7.22787 127.22 7.16611C127.234 6.86544 127.271 6.56539 127.333 6.2692ZM127.38 7.13546C127.396 6.82685 127.439 6.51907 127.507 6.21584C127.804 6.13001 128.11 6.0696 128.42 6.03631C128.38 6.3733 128.371 6.7136 128.394 7.05256C128.049 7.04869 127.712 7.07709 127.38 7.13546ZM127.216 7.32879C126.911 7.39436 126.613 7.48638 126.326 7.60282C126.289 7.91163 126.28 8.22216 126.296 8.53072C126.619 8.43811 126.953 8.37445 127.295 8.34247C127.238 8.00762 127.211 7.66818 127.216 7.32879ZM127.454 8.32996C127.394 7.98897 127.368 7.64297 127.375 7.29722C127.71 7.23567 128.056 7.20603 128.405 7.21092C128.443 7.60445 128.522 7.99518 128.644 8.37582L128.39 8.34918C128.074 8.31591 127.761 8.31015 127.454 8.32996ZM127.324 8.49864C126.976 8.53031 126.636 8.59585 126.308 8.69221C126.337 9.03681 126.399 9.37816 126.494 9.71109C126.797 9.65929 127.11 9.63232 127.427 9.63232L127.683 9.63231C127.521 9.26649 127.402 8.88617 127.324 8.49864ZM127.856 9.63231C127.688 9.26351 127.563 8.87892 127.483 8.48659C127.775 8.46883 128.072 8.47486 128.373 8.50648L128.7 8.54071C128.834 8.91816 129.011 9.28446 129.23 9.63231H127.856ZM127.755 9.79048H127.427C127.125 9.79048 126.828 9.81557 126.54 9.86376C126.661 10.2455 126.825 10.6149 127.031 10.9641L128.397 10.8204C128.142 10.4975 127.929 10.1518 127.755 9.79048ZM128.585 10.8007C128.326 10.4851 128.108 10.1459 127.931 9.79048H129.335C129.473 9.99374 129.628 10.1901 129.797 10.378L130.039 10.6479L128.585 10.8007ZM128.518 10.9668L127.122 11.1135C127.335 11.4485 127.587 11.7631 127.878 12.0498L129.308 11.7458L129.039 11.5027C128.851 11.3336 128.677 11.1544 128.518 10.9668ZM129.5 11.7051L129.144 11.3852C128.989 11.2457 128.844 11.0992 128.71 10.9467L130.17 10.7931L130.752 11.439C130.745 11.4404 130.738 11.4419 130.731 11.4433L129.5 11.7051ZM129.454 11.8766L128.016 12.182C128.166 12.3196 128.326 12.4502 128.495 12.5727L128.881 12.8538L130.079 12.4648C130.086 12.4626 130.093 12.4604 130.099 12.4581L129.454 11.8766ZM130.274 12.4027L129.644 11.8359L130.764 11.598C130.801 11.5902 130.838 11.5826 130.875 11.575L131.355 12.1084C130.992 12.1935 130.632 12.2916 130.274 12.4027ZM130.236 12.5807C130.199 12.592 130.164 12.6036 130.128 12.6152L129.04 12.9687L129.726 13.4666C130.07 13.3187 130.418 13.1834 130.769 13.0609L130.236 12.5807ZM130.94 13.0024L130.411 12.5261C130.763 12.4189 131.119 12.3245 131.476 12.2427L131.9 12.7136C131.577 12.7995 131.257 12.8958 130.94 13.0024ZM130.903 13.1818C130.557 13.3005 130.213 13.4314 129.874 13.5749L130.449 13.9933C130.754 13.8542 131.063 13.7249 131.374 13.6058L130.903 13.1818ZM131.54 13.5431L131.076 13.124C131.388 13.0213 131.702 12.9284 132.019 12.8458L132.389 13.2566C132.104 13.3439 131.821 13.4394 131.54 13.5431ZM131.506 13.7248C131.2 13.8402 130.896 13.9654 130.597 14.1003L132.466 15.458C133.298 16.0627 133.917 16.9042 134.251 17.8625C134.254 17.8505 134.255 17.8383 134.258 17.8262C134.121 16.6596 133.564 15.5781 132.687 14.7874L131.506 13.7248ZM134.197 18.2194C133.906 17.1654 133.266 16.2349 132.373 15.586L130.432 14.1757C130.1 14.3298 129.773 14.4961 129.45 14.6742L132.225 16.276C133.068 16.7634 133.745 17.4822 134.182 18.3373C134.187 18.298 134.192 18.2586 134.197 18.2194ZM134.145 18.6283C133.731 17.7038 133.034 16.926 132.145 16.413L129.289 14.7641C129.256 14.7828 129.223 14.8017 129.191 14.8206L128.201 15.3922L132.07 17.1147C132.902 17.4853 133.61 18.0724 134.126 18.805C134.132 18.746 134.138 18.6872 134.145 18.6283ZM134.103 19.0525C133.595 18.2702 132.87 17.6441 132.005 17.2591L128.032 15.49L126.759 16.2244C126.944 16.3089 127.136 16.3838 127.335 16.4482L132.003 17.965C132.803 18.2247 133.515 18.6787 134.084 19.2769C134.09 19.2021 134.095 19.1273 134.103 19.0525ZM134.07 19.4945C133.503 18.8614 132.776 18.3824 131.954 18.1155L127.285 16.5985C127.045 16.5204 126.814 16.4274 126.592 16.3208L125.377 17.0227C125.922 17.3851 126.544 17.6526 127.224 17.7971L132.025 18.8177C132.772 18.9764 133.465 19.3019 134.056 19.7613C134.06 19.6724 134.065 19.5836 134.07 19.4945ZM134.209 19.8855C134.212 19.8135 134.216 19.7414 134.218 19.6693C134.221 19.6727 134.225 19.676 134.227 19.6793C134.229 19.7545 134.23 19.8297 134.232 19.9048C134.225 19.8984 134.217 19.892 134.209 19.8855ZM134.049 19.9579C133.458 19.475 132.754 19.1343 131.992 18.9725L127.191 17.9519C126.464 17.7974 125.801 17.5061 125.224 17.1107L124.939 17.275C124.678 17.4262 124.433 17.5961 124.208 17.7822C125.022 18.5264 126.073 19.0262 127.255 19.1504L132.137 19.6636C132.813 19.7345 133.46 19.9415 134.043 20.265C134.044 20.1626 134.046 20.0603 134.049 19.9579ZM134.201 20.3561C134.201 20.2674 134.202 20.1785 134.204 20.0897C134.216 20.1006 134.229 20.1117 134.241 20.1227C134.245 20.2119 134.25 20.3009 134.255 20.3898C134.237 20.3785 134.218 20.3673 134.201 20.3561ZM134.042 20.4463C133.458 20.1084 132.804 19.8928 132.121 19.8209L127.238 19.3077C126.015 19.1791 124.927 18.6591 124.086 17.8853C123.823 18.1157 123.586 18.3687 123.377 18.6394C124.359 19.7747 125.809 20.4931 127.427 20.493H132.336C132.924 20.493 133.503 20.5968 134.046 20.7941C134.043 20.6783 134.042 20.5624 134.042 20.4463ZM134.206 20.8553C134.203 20.7509 134.202 20.6465 134.201 20.5422C134.223 20.5565 134.246 20.5711 134.269 20.586C134.277 20.6881 134.286 20.7902 134.295 20.892C134.265 20.8796 134.236 20.8672 134.206 20.8553ZM134.051 20.9646C133.509 20.7593 132.928 20.6512 132.336 20.6512H127.427C125.774 20.6512 124.29 19.9227 123.28 18.7691C123.097 19.0222 122.938 19.2897 122.803 19.5679C123.884 21.1015 125.741 22.0203 127.74 21.8102L132.621 21.2971C133.109 21.2459 133.596 21.2669 134.069 21.3557C134.061 21.2255 134.056 21.0951 134.051 20.9646ZM134.23 21.3885C134.222 21.2686 134.216 21.1486 134.212 21.0286C134.245 21.0429 134.279 21.0575 134.312 21.0724C134.325 21.1877 134.339 21.3028 134.353 21.4177C134.312 21.4074 134.27 21.3978 134.23 21.3885ZM134.079 21.5188C133.609 21.4264 133.124 21.4034 132.637 21.4544L127.756 21.9674C125.73 22.1804 123.846 21.2672 122.726 19.7326C122.61 19.9927 122.516 20.2613 122.443 20.5357C123.572 22.4859 125.864 23.5813 128.188 23.0874L132.989 22.0667C133.362 21.9875 133.74 21.9517 134.116 21.958C134.102 21.8119 134.089 21.6653 134.079 21.5188ZM134.276 21.9634C134.262 21.8269 134.25 21.6901 134.24 21.5532C134.286 21.5637 134.331 21.5749 134.376 21.5867C134.394 21.716 134.414 21.845 134.434 21.9738C134.381 21.9695 134.329 21.9659 134.276 21.9634ZM134.132 22.1166C133.762 22.1089 133.389 22.1433 133.022 22.2215L128.221 23.2421C125.884 23.7387 123.579 22.6747 122.39 20.7546C122.334 21.0049 122.297 21.2594 122.278 21.5159C123.412 23.9133 126.177 25.1522 128.767 24.3109L133.435 22.794C133.684 22.7132 133.938 22.6524 134.193 22.6116C134.17 22.4469 134.15 22.282 134.132 22.1166ZM134.349 22.5891C134.328 22.434 134.309 22.2784 134.291 22.1226C134.348 22.1257 134.405 22.1297 134.462 22.1348C134.488 22.2797 134.514 22.4242 134.543 22.5682C134.479 22.5739 134.414 22.5809 134.349 22.5891ZM134.215 22.7682C133.968 22.8077 133.724 22.8664 133.484 22.9444L128.815 24.4614C126.243 25.2972 123.501 24.1386 122.263 21.8383C122.26 22.0538 122.27 22.2699 122.294 22.4859C122.328 22.5761 122.365 22.6658 122.405 22.7551C123.607 25.4551 126.77 26.6693 129.47 25.4672L133.954 23.4707C134.071 23.4187 134.189 23.3715 134.309 23.329C134.274 23.1425 134.242 22.9556 134.215 22.7682ZM134.46 23.2777C134.428 23.1009 134.397 22.9235 134.372 22.7457C134.439 22.7371 134.508 22.7298 134.576 22.7241C134.611 22.8867 134.649 23.0487 134.688 23.2101C134.612 23.2308 134.536 23.2533 134.46 23.2777ZM134.339 23.4862C134.231 23.5253 134.124 23.5682 134.019 23.6152L129.534 25.6117C126.852 26.806 123.726 25.6838 122.398 23.1058C122.514 23.6128 122.707 24.1112 122.981 24.5851C124.458 27.1446 127.731 28.0215 130.291 26.5437L134.477 24.1263C134.427 23.9138 134.381 23.7004 134.339 23.4862ZM134.621 24.0446C134.573 23.842 134.529 23.6385 134.49 23.4342C134.569 23.4086 134.648 23.3851 134.728 23.3635C134.775 23.547 134.825 23.7296 134.879 23.9114C134.792 23.9532 134.706 23.9977 134.621 24.0446ZM134.659 24.2043C135.011 25.6234 135.561 26.9989 136.305 28.2877L139.248 33.3864C140.571 35.6768 143.331 36.6199 145.731 35.7339C143.844 35.9241 141.91 35.1347 140.715 33.4902L137.255 28.7272C136.217 27.2985 135.435 25.7213 134.926 24.0647C134.836 24.1083 134.747 24.1549 134.659 24.2043ZM135.025 23.8445C135.097 23.8124 135.171 23.782 135.244 23.7535C135.189 23.5971 135.134 23.4399 135.083 23.2818C135.015 23.2947 134.947 23.309 134.881 23.3248C134.926 23.4989 134.974 23.6721 135.025 23.8445ZM134.842 23.1714C134.905 23.1564 134.97 23.1427 135.034 23.1301C134.989 22.9899 134.947 22.8491 134.907 22.7078C134.849 22.7086 134.792 22.7105 134.736 22.7133C134.769 22.8666 134.804 23.0192 134.842 23.1714ZM134.703 22.5568C134.757 22.5537 134.81 22.5517 134.863 22.5504C134.828 22.4244 134.795 22.2982 134.764 22.1714C134.717 22.1644 134.672 22.1579 134.626 22.1522C134.65 22.2874 134.676 22.4223 134.703 22.5568ZM134.598 21.9897C134.64 21.9945 134.682 21.9998 134.724 22.0057C134.697 21.893 134.672 21.78 134.648 21.6666C134.612 21.6552 134.578 21.6443 134.542 21.6336C134.559 21.7524 134.578 21.8712 134.598 21.9897ZM134.518 21.4618C134.55 21.4707 134.58 21.4797 134.611 21.4891C134.59 21.3889 134.571 21.2884 134.554 21.1877C134.529 21.1753 134.505 21.1631 134.48 21.1512C134.493 21.2549 134.505 21.3584 134.518 21.4618ZM134.461 20.9663C134.48 20.9754 134.5 20.9847 134.519 20.9941C134.504 20.9062 134.49 20.8182 134.477 20.7301C134.463 20.7202 134.449 20.7105 134.437 20.7009C134.444 20.7894 134.452 20.8779 134.461 20.9663ZM134.422 20.4972C134.429 20.5028 134.438 20.5085 134.446 20.5141C134.436 20.4396 134.425 20.3649 134.416 20.2902C134.414 20.2872 134.41 20.284 134.408 20.281C134.411 20.3531 134.416 20.4252 134.422 20.4972ZM134.659 20.87C134.67 20.9413 134.683 21.0125 134.695 21.0836C134.703 21.0883 134.712 21.0931 134.721 21.098C134.703 21.025 134.687 20.9518 134.669 20.8785C134.665 20.8756 134.663 20.8728 134.659 20.87ZM134.776 21.3095C134.761 21.301 134.747 21.2928 134.731 21.2845C134.748 21.3716 134.766 21.4587 134.783 21.5456C134.804 21.5527 134.824 21.5598 134.844 21.5672C134.822 21.4815 134.797 21.3956 134.776 21.3095ZM135.03 21.6379C135.009 21.5687 134.99 21.4992 134.971 21.4297C134.975 21.4321 134.979 21.4345 134.982 21.4369C135.007 21.5079 135.031 21.5787 135.056 21.6493C135.048 21.6454 135.039 21.6417 135.03 21.6379ZM134.899 21.7563C134.874 21.7465 134.848 21.7368 134.823 21.7274C134.844 21.8293 134.869 21.9309 134.893 22.0322C134.924 22.0378 134.956 22.0436 134.988 22.0498C134.957 21.9523 134.927 21.8544 134.899 21.7563ZM135.166 22.0878C135.139 22.0034 135.112 21.9188 135.087 21.8338C135.102 21.8404 135.117 21.8472 135.133 21.854C135.164 21.9373 135.196 22.0203 135.228 22.1029C135.208 22.0977 135.187 22.0928 135.166 22.0878ZM135.042 22.2225C135.007 22.2148 134.97 22.2074 134.935 22.2006C134.964 22.3171 134.994 22.4333 135.027 22.5491C135.069 22.5495 135.112 22.5504 135.154 22.5519C135.116 22.4426 135.079 22.3328 135.042 22.2225ZM135.326 22.5607C135.29 22.4624 135.256 22.3638 135.223 22.2647C135.249 22.2713 135.276 22.2782 135.302 22.2853C135.341 22.38 135.38 22.4744 135.421 22.5682C135.389 22.5654 135.357 22.563 135.326 22.5607ZM135.211 22.7126C135.164 22.7104 135.119 22.7089 135.072 22.708C135.11 22.8399 135.149 22.9712 135.191 23.1022C135.243 23.0937 135.296 23.0859 135.35 23.0791C135.302 22.9575 135.256 22.8354 135.211 22.7126ZM135.512 23.0608C135.468 22.949 135.426 22.8366 135.384 22.7239C135.421 22.7269 135.458 22.7304 135.495 22.7343C135.542 22.8401 135.59 22.9455 135.639 23.0502C135.597 23.0531 135.554 23.0567 135.512 23.0608ZM135.409 23.2309C135.354 23.2378 135.296 23.2457 135.241 23.2544C135.289 23.4034 135.34 23.5516 135.393 23.6989C135.455 23.6773 135.517 23.6568 135.58 23.6378C135.521 23.5029 135.464 23.3673 135.409 23.2309ZM135.733 23.5935C135.679 23.4678 135.625 23.3411 135.573 23.214C135.62 23.21 135.666 23.2067 135.713 23.204C135.77 23.3213 135.829 23.438 135.888 23.554C135.836 23.5664 135.785 23.5795 135.733 23.5935ZM135.798 23.7399C136.684 25.7147 137.978 27.5042 139.618 28.9806L143.994 32.9201C145.095 33.9117 146.495 34.3616 147.867 34.2865C148.057 34.0741 148.229 33.8482 148.381 33.6112C147.349 33.5602 146.319 33.2184 145.421 32.5654L140.658 29.105C138.683 27.6704 137.086 25.8151 135.964 23.6987C135.909 23.7114 135.854 23.7251 135.798 23.7399ZM136.126 23.6648C137.234 25.7433 138.808 27.5658 140.75 28.977L145.514 32.4375C146.411 33.0901 147.445 33.4228 148.477 33.457C148.636 33.1898 148.772 32.91 148.881 32.6213C148.202 32.5257 147.528 32.3003 146.896 31.9356L141.797 28.9919C139.52 27.6774 137.628 25.8316 136.263 23.6403C136.217 23.6478 136.171 23.6559 136.126 23.6648ZM136.048 23.5188C136.09 23.5104 136.132 23.5024 136.174 23.4951C136.113 23.396 136.055 23.2963 135.996 23.196C135.959 23.1959 135.923 23.1963 135.886 23.1971C135.939 23.305 135.992 23.4123 136.048 23.5188ZM135.809 23.0411C135.842 23.0399 135.874 23.0391 135.906 23.0385C135.856 22.9494 135.807 22.8597 135.759 22.7696C135.732 22.7653 135.704 22.7612 135.677 22.7573C135.721 22.8524 135.765 22.947 135.809 23.0411ZM135.603 22.5875C135.623 22.5902 135.644 22.593 135.666 22.5959C135.625 22.517 135.585 22.4377 135.544 22.358C135.529 22.3528 135.512 22.3477 135.497 22.3427C135.531 22.4246 135.567 22.5062 135.603 22.5875ZM135.42 22.154C135.429 22.1566 135.439 22.1594 135.448 22.1624C135.416 22.0948 135.383 22.0271 135.351 21.9592C135.347 21.9571 135.343 21.9551 135.34 21.9531C135.366 22.0203 135.392 22.0872 135.42 22.154ZM135.761 22.4349C135.794 22.4991 135.827 22.563 135.862 22.6267C135.87 22.6285 135.881 22.6303 135.891 22.6321C135.851 22.5683 135.812 22.5042 135.774 22.4398C135.769 22.4382 135.765 22.4365 135.761 22.4349ZM136.008 22.8167C135.991 22.8131 135.975 22.8097 135.958 22.8064C136.001 22.8843 136.044 22.9617 136.089 23.0388C136.11 23.0392 136.132 23.0397 136.154 23.0404C136.104 22.9663 136.056 22.8918 136.008 22.8167ZM136.35 23.0507C136.31 22.9909 136.27 22.9309 136.231 22.8705C136.235 22.8717 136.239 22.873 136.244 22.8741C136.288 22.934 136.334 22.9937 136.381 23.053C136.371 23.0521 136.361 23.0515 136.35 23.0507ZM136.263 23.2036C136.236 23.2021 136.208 23.2008 136.182 23.1997C136.235 23.2897 136.288 23.3792 136.343 23.4681C136.375 23.4636 136.406 23.4594 136.438 23.4556C136.378 23.3721 136.32 23.2882 136.263 23.2036ZM136.545 23.6027C136.508 23.6065 136.471 23.6107 136.434 23.6154C137.783 25.7592 139.643 27.5653 141.877 28.8549L146.975 31.7987C147.599 32.1588 148.265 32.3791 148.937 32.4691C149.05 32.1424 149.133 31.8051 149.181 31.4624C148.884 31.3864 148.588 31.2841 148.297 31.1549L142.919 28.7602C140.357 27.6195 138.166 25.8316 136.545 23.6027ZM149.336 31.4995C149.288 31.8358 149.208 32.1669 149.098 32.4883C149.408 32.5203 149.721 32.5249 150.029 32.5027C150.159 32.2204 150.264 31.9279 150.344 31.6293C150.009 31.6175 149.671 31.5748 149.336 31.4995ZM149.356 31.3419C149.698 31.4195 150.042 31.4624 150.383 31.4722C150.462 31.1353 150.508 30.7914 150.521 30.4454C150.217 30.4008 149.912 30.3302 149.61 30.2321L149.365 30.1527C149.406 30.5504 149.402 30.9493 149.356 31.3419ZM149.949 32.6662C149.648 32.6829 149.346 32.6749 149.044 32.6416C148.938 32.9235 148.809 33.1974 148.659 33.4599C148.943 33.4596 149.228 33.4368 149.507 33.3917C149.675 33.1604 149.822 32.9178 149.949 32.6662ZM149.371 33.5714C149.105 33.6063 148.834 33.6217 148.565 33.6173C148.424 33.8448 148.265 34.0629 148.09 34.2697C148.345 34.2449 148.599 34.202 148.849 34.1409C149.039 33.962 149.214 33.7715 149.371 33.5714ZM138.375 23.9911C140.914 25.6551 143.902 26.5607 146.984 26.5607H147.666L147.343 26.0018C144.206 26.2323 141.087 25.5237 138.375 23.9911ZM138.989 24.1433C141.523 25.4478 144.38 26.0467 147.256 25.8496L146.979 25.37C144.25 25.6582 141.497 25.2327 138.989 24.1433ZM147.15 25.3509L147.431 25.8366C147.562 25.8261 147.693 25.814 147.823 25.8002L148.502 25.7291L148.122 25.2071C147.799 25.2652 147.474 25.3131 147.15 25.3509ZM148.019 25.0647C147.702 25.1202 147.383 25.1659 147.064 25.2016L146.819 24.7776C147.111 24.7323 147.403 24.6787 147.693 24.6168L148.019 25.0647ZM148.295 25.1751L148.683 25.7099L149.933 25.5786L149.368 24.9503L148.612 25.1109C148.507 25.1334 148.4 25.1547 148.295 25.1751ZM149.246 24.8147L148.579 24.9561C148.449 24.9836 148.321 25.0093 148.192 25.0335L147.862 24.58C148.18 24.5084 148.498 24.4269 148.814 24.3352L149.246 24.8147ZM149.545 24.9123L150.127 25.5582L151.589 25.4045C151.454 25.2521 151.309 25.1058 151.154 24.9664L150.799 24.646L149.545 24.9123ZM150.654 24.5152L149.423 24.7766L148.982 24.2854C149.084 24.2542 149.187 24.2218 149.29 24.1884L150.025 23.9497L150.654 24.5152ZM150.99 24.6054L151.261 24.849C151.449 25.018 151.622 25.1969 151.78 25.3843L153.177 25.2377C152.964 24.9027 152.712 24.588 152.42 24.3013L150.99 24.6054ZM152.282 24.1691L150.844 24.4746L150.199 23.8931L151.417 23.4975L151.804 23.7789C151.973 23.9013 152.132 24.0317 152.282 24.1691ZM152.606 24.2622C152.893 24.5565 153.142 24.878 153.352 25.2192L153.679 25.1848C153.98 25.1532 154.272 25.0973 154.554 25.0192C154.394 24.6523 154.192 24.3019 153.95 23.9762L152.606 24.2622ZM153.844 23.8371L152.471 24.1291C152.293 23.9593 152.102 23.7994 151.897 23.6509L151.602 23.437L152.994 22.9851C153.313 23.2398 153.597 23.5263 153.844 23.8371ZM154.119 23.9401C154.353 24.2644 154.55 24.6116 154.706 24.9745C155.041 24.871 155.36 24.7363 155.661 24.5738C155.561 24.2427 155.429 23.9218 155.267 23.6159C154.982 23.7296 154.682 23.8208 154.371 23.8868L154.119 23.9401ZM155.19 23.4761C154.918 23.5832 154.634 23.6693 154.338 23.7321L154.016 23.8006C153.771 23.4831 153.489 23.1895 153.173 22.9269L154.481 22.5018C154.756 22.8006 154.993 23.1278 155.19 23.4761ZM155.413 23.5551C155.572 23.8558 155.702 24.1705 155.802 24.4947C156.072 24.338 156.328 24.1584 156.564 23.9591C156.504 23.654 156.416 23.3556 156.306 23.0674C156.027 23.2553 155.729 23.419 155.413 23.5551ZM156.245 22.9173C155.963 23.1103 155.66 23.2778 155.338 23.4156C155.144 23.0711 154.913 22.7464 154.646 22.4482L154.89 22.3691C155.192 22.2708 155.481 22.1488 155.754 22.0058C155.947 22.2931 156.11 22.5985 156.245 22.9173ZM156.439 22.9744C156.55 23.2544 156.637 23.5438 156.701 23.8397C156.912 23.649 157.109 23.4418 157.286 23.2208C157.256 22.9368 157.204 22.6578 157.129 22.3862C156.917 22.5998 156.686 22.7969 156.439 22.9744ZM157.078 22.2118C156.863 22.4347 156.63 22.6398 156.377 22.8239C156.244 22.5119 156.081 22.2125 155.892 21.93C156.192 21.7617 156.471 21.5678 156.729 21.3518C156.87 21.627 156.987 21.9146 157.078 22.2118ZM156.653 21.209C156.486 20.906 156.289 20.6195 156.069 20.3538C155.812 20.5246 155.538 20.6761 155.247 20.8055L155.013 20.9095C155.309 21.1781 155.573 21.4769 155.803 21.7992C156.108 21.6285 156.392 21.4304 156.653 21.209ZM155.662 21.8749C155.43 21.5491 155.159 21.2484 154.856 20.98L153.599 21.5394C153.942 21.7676 154.251 22.0302 154.528 22.3203L154.841 22.2187C155.129 22.1253 155.403 22.0098 155.662 21.8749ZM154.361 22.3747C154.082 22.0912 153.771 21.836 153.427 21.6161L152.09 22.211L152.405 22.393C152.625 22.5192 152.83 22.6582 153.026 22.8086L154.361 22.3747ZM152.842 22.8681C152.678 22.7471 152.507 22.634 152.326 22.5298L151.912 22.2906L150.742 22.8114L151.445 23.3221L152.842 22.8681ZM151.258 23.3825L150.575 22.8857L149.869 23.2001C149.77 23.244 149.671 23.2868 149.572 23.3286L150.063 23.771L151.258 23.3825ZM149.889 23.8274L149.411 23.3958C149.106 23.5198 148.799 23.6342 148.489 23.7387L148.865 24.1554C148.99 24.1179 149.116 24.0788 149.242 24.038L149.889 23.8274ZM148.696 24.2045L148.325 23.7931C148.043 23.8849 147.759 23.9687 147.473 24.0444L147.76 24.4404C148.074 24.3716 148.386 24.2929 148.696 24.2045ZM147.591 24.4766L147.308 24.0869C147.048 24.1528 146.786 24.2121 146.523 24.2646L146.734 24.6305C147.021 24.5872 147.307 24.5361 147.591 24.4766ZM146.566 24.6552L146.359 24.2964C144.345 24.6765 142.274 24.6638 140.26 24.2553C142.312 24.8137 144.457 24.9504 146.566 24.6552ZM140.896 24.2106C142.681 24.5004 144.5 24.4798 146.276 24.1513L146.099 23.8471C144.401 24.2533 142.644 24.3776 140.896 24.2106ZM146.259 23.8079L146.439 24.1199C146.697 24.0694 146.954 24.0125 147.208 23.949L146.965 23.614C146.731 23.6841 146.495 23.7488 146.259 23.8079ZM146.866 23.4784C146.637 23.546 146.408 23.6083 146.176 23.6653L145.71 22.8573C145.175 21.9297 144.965 20.8566 145.102 19.8062C145.176 20.7146 145.497 21.5938 146.042 22.3434L146.866 23.4784ZM147.125 23.5651L147.373 23.907C147.653 23.834 147.933 23.7531 148.209 23.6643L147.887 23.3064C147.634 23.3992 147.38 23.4854 147.125 23.5651ZM147.773 23.1796C147.526 23.2694 147.277 23.3528 147.026 23.4299L146.169 22.2505C145.54 21.3837 145.218 20.3382 145.244 19.2789C145.413 20.1749 145.825 21.0159 146.444 21.7046L147.773 23.1796ZM148.046 23.2468L148.373 23.6106C148.678 23.5093 148.98 23.3984 149.28 23.278L148.869 22.9076C148.597 23.0285 148.322 23.1417 148.046 23.2468ZM148.739 22.7917C148.474 22.909 148.204 23.0186 147.933 23.1206L146.562 21.5988C145.849 20.8062 145.421 19.8054 145.333 18.7545L145.335 18.7481C145.597 19.6185 146.093 20.4088 146.78 21.027L148.739 22.7917ZM149.026 22.8364L149.442 23.2116C149.563 23.1612 149.684 23.1091 149.804 23.0556L150.427 22.7784L149.905 22.3992C149.615 22.5544 149.322 22.7001 149.026 22.8364ZM149.763 22.2958C149.478 22.4468 149.19 22.5885 148.898 22.7211L146.885 20.9095C146.146 20.2439 145.636 19.3724 145.409 18.4173C145.416 18.3917 145.421 18.366 145.426 18.3404C145.782 19.1213 146.335 19.8051 147.041 20.3183L149.763 22.2958ZM150.06 22.3155L150.594 22.7041L151.742 22.1928L151.011 21.7701L150.34 22.1568C150.248 22.2107 150.154 22.2636 150.06 22.3155ZM150.852 21.6788L150.262 22.0197C150.147 22.0857 150.033 22.1499 149.917 22.2126L147.134 20.1904C146.389 19.6483 145.818 18.9097 145.482 18.0667C145.489 18.0234 145.498 17.9801 145.506 17.9368C145.935 18.611 146.523 19.1792 147.228 19.5862L150.852 21.6788ZM151.168 21.6788L151.921 22.1133L153.263 21.5156C153.088 21.4123 152.905 21.3178 152.715 21.2331L152.278 21.0384L151.168 21.6788ZM152.099 20.9589L151.011 21.5875L147.307 19.4492C146.573 19.0252 145.968 18.4203 145.548 17.7011C145.557 17.6434 145.567 17.5856 145.576 17.5278C146.055 18.0843 146.654 18.5343 147.337 18.8384L152.099 20.9589ZM152.447 20.9406L152.78 21.0886C153.009 21.1913 153.23 21.308 153.44 21.4371L154.722 20.8661C154.416 20.6133 154.079 20.3921 153.714 20.2092L152.447 20.9406ZM153.54 20.1265L152.268 20.8611L147.401 18.6939C146.696 18.3803 146.084 17.9065 145.608 17.3185C145.618 17.2478 145.627 17.1771 145.636 17.1064C146.137 17.5404 146.724 17.8747 147.366 18.0835L152.966 19.9028C153.164 19.9672 153.356 20.042 153.54 20.1265ZM153.877 20.1151C154.241 20.3062 154.578 20.5349 154.882 20.7945L155.183 20.661C155.459 20.538 155.719 20.3945 155.964 20.2331C155.698 19.9335 155.398 19.6628 155.068 19.4275L153.877 20.1151ZM154.923 19.3282L153.708 20.03C153.487 19.9235 153.255 19.8304 153.015 19.7523L147.416 17.933C146.758 17.7197 146.161 17.3707 145.66 16.9159C145.669 16.8328 145.679 16.7497 145.686 16.6665C146.182 16.9792 146.734 17.2054 147.318 17.3296L153.077 18.5537C153.756 18.6981 154.378 18.9658 154.923 19.3282ZM145.538 16.5686C145.522 16.5587 145.509 16.5488 145.495 16.5387C145.492 16.6098 145.491 16.6811 145.487 16.7524C145.497 16.7617 145.506 16.771 145.516 16.7803C145.524 16.7097 145.53 16.6392 145.538 16.5686ZM145.493 16.9775C145.488 16.9729 145.483 16.9683 145.478 16.9637C145.476 17.0222 145.472 17.0806 145.468 17.139L145.472 17.1434C145.479 17.0882 145.486 17.0328 145.493 16.9775ZM145.335 16.5924C145.336 16.5367 145.337 16.4811 145.338 16.4255C145.333 16.4214 145.328 16.4175 145.322 16.4134C145.326 16.4717 145.328 16.5301 145.331 16.5885L145.335 16.5924ZM144.243 14.6211C144.222 14.5695 144.201 14.518 144.178 14.4666C144.171 14.4652 144.165 14.4637 144.159 14.4622C144.187 14.5144 144.212 14.5667 144.239 14.6191L144.243 14.6211ZM144.062 14.2745C144.075 14.2779 144.086 14.2812 144.099 14.2844C144.071 14.2195 144.042 14.1547 144.013 14.0902C143.995 14.089 143.978 14.0876 143.961 14.086C143.995 14.1486 144.028 14.2115 144.062 14.2745ZM143.769 14.066C143.796 14.1146 143.822 14.1635 143.849 14.2125L143.845 14.211C143.813 14.1617 143.782 14.1124 143.75 14.0636C143.756 14.0643 143.763 14.0652 143.769 14.066ZM143.868 13.9182C143.891 13.9207 143.914 13.923 143.936 13.925C143.9 13.8478 143.863 13.7709 143.825 13.6943C143.798 13.6966 143.77 13.6986 143.743 13.7004C143.785 13.7726 143.826 13.8453 143.868 13.9182ZM143.564 13.7089C143.601 13.77 143.637 13.8314 143.671 13.893C143.658 13.8911 143.646 13.8891 143.633 13.8871C143.594 13.8279 143.553 13.7688 143.512 13.7102C143.53 13.7099 143.548 13.7094 143.564 13.7089ZM143.652 13.5471C143.685 13.5456 143.717 13.5437 143.749 13.5414C143.704 13.4521 143.658 13.3632 143.611 13.2749C143.575 13.2839 143.539 13.2924 143.502 13.3006C143.553 13.3823 143.602 13.4644 143.652 13.5471ZM143.337 13.3347C143.383 13.4069 143.427 13.4796 143.472 13.5527C143.449 13.553 143.426 13.5531 143.403 13.553C143.354 13.4846 143.305 13.4168 143.256 13.3494C143.283 13.3447 143.31 13.3399 143.337 13.3347ZM143.412 13.1583C143.453 13.1497 143.493 13.1405 143.534 13.1307C142.164 10.5989 140.11 8.47054 137.576 7.00728L133.324 4.55289C132.701 4.19259 132.034 3.97227 131.361 3.8822C131.248 4.20878 131.166 4.54587 131.117 4.88843C131.416 4.96456 131.712 5.0668 132.003 5.19628L136.486 7.19287C139.351 8.46837 141.751 10.553 143.412 13.1583ZM131.097 5.04658C131.38 5.11999 131.662 5.21772 131.938 5.34078L136.423 7.33736C139.239 8.59154 141.602 10.6359 143.246 13.1907C143.214 13.1963 143.182 13.2015 143.15 13.2064C141.203 10.609 138.489 8.65266 135.359 7.63584L131.097 6.2512C131.051 5.84857 131.051 5.44443 131.097 5.04658ZM130.963 4.85141C131.012 4.5153 131.091 4.18438 131.201 3.86315C130.89 3.83111 130.578 3.82667 130.269 3.84885C130.14 4.13107 130.034 4.42332 129.954 4.72191C130.291 4.73356 130.627 4.77622 130.963 4.85141ZM129.915 4.87895C130.256 4.88865 130.601 4.93139 130.942 5.00893C130.896 5.40145 130.893 5.80004 130.933 6.19763L130.691 6.11894C130.387 6.02052 130.082 5.94977 129.778 5.90526C129.79 5.55944 129.836 5.21562 129.915 4.87895ZM129.792 4.71867C129.867 4.42732 129.967 4.14166 130.089 3.86494C129.806 3.89495 129.526 3.94742 129.252 4.02158C129.109 4.26899 128.988 4.52572 128.888 4.789C129.185 4.74098 129.488 4.71714 129.792 4.71867ZM128.827 4.95991C129.131 4.90559 129.441 4.87745 129.754 4.87681C129.679 5.20774 129.633 5.5452 129.62 5.88459C129.279 5.84485 128.94 5.8377 128.604 5.86121C128.651 5.55593 128.726 5.25426 128.827 4.95991ZM128.582 6.0215C128.538 6.36457 128.528 6.71137 128.552 7.05666C128.86 7.06906 129.171 7.10752 129.482 7.17373L129.731 7.22666C129.649 6.83541 129.611 6.43858 129.616 6.0434C129.269 6.00198 128.922 5.99542 128.582 6.0215ZM129.774 6.06465C129.771 6.46504 129.813 6.86705 129.901 7.26271L131.246 7.5486C131.102 7.16263 131.006 6.76757 130.952 6.3705L130.641 6.26936C130.354 6.17584 130.063 6.10803 129.774 6.06465ZM131.12 6.4249C131.178 6.81742 131.281 7.20746 131.43 7.58775L134.283 8.19433C137.644 8.90857 140.66 10.6886 142.902 13.2384C142.924 13.236 142.947 13.2336 142.97 13.2308C141.045 10.6944 138.38 8.78374 135.31 7.78626L131.12 6.4249ZM143.079 13.3764C143.062 13.3789 143.045 13.3811 143.027 13.3833C143.074 13.4374 143.12 13.4917 143.166 13.5466C143.178 13.5472 143.192 13.5479 143.205 13.5484C143.163 13.4909 143.121 13.4335 143.079 13.3764ZM143.319 13.7103C143.313 13.7102 143.307 13.71 143.3 13.7098C143.337 13.7552 143.374 13.8008 143.409 13.8467L143.415 13.8477C143.384 13.8017 143.352 13.7559 143.319 13.7103ZM142.945 13.5301C142.909 13.4877 142.872 13.4455 142.836 13.4035C142.829 13.404 142.823 13.4046 142.816 13.4051C142.857 13.4464 142.899 13.4878 142.94 13.5296L142.945 13.5301ZM142.665 13.2568C142.678 13.2561 142.692 13.2553 142.705 13.2545C140.494 10.7774 137.539 9.0479 134.25 8.34903L131.503 7.76499C131.583 7.95193 131.676 8.13619 131.782 8.3169L132.02 8.73067L133.272 8.86229C136.825 9.23567 140.128 10.794 142.665 13.2568ZM132.118 8.89998L133.256 9.01958C136.721 9.38384 139.947 10.887 142.444 13.2636H142.438C139.66 10.9694 136.17 9.68047 132.541 9.63364L132.118 8.89998ZM131.826 8.71022L131.644 8.39598C131.517 8.17688 131.408 7.95269 131.314 7.7249L129.942 7.43307C130.041 7.81744 130.183 8.19467 130.371 8.55733L131.826 8.71022ZM130.462 8.72597L131.924 8.87954L132.358 9.63233C132.35 9.63232 132.343 9.63231 132.336 9.63231L131.077 9.63232L130.796 9.24568C130.673 9.0769 130.562 8.90337 130.462 8.72597ZM130.184 8.53765C130.001 8.1687 129.863 7.78589 129.769 7.39647L129.449 7.32845C129.153 7.26551 128.857 7.2284 128.565 7.21554C128.604 7.6141 128.687 8.00959 128.816 8.39394L130.184 8.53765ZM128.875 8.55911L130.27 8.70582C130.387 8.92255 130.519 9.134 130.668 9.33864L130.881 9.63232H129.42C129.195 9.29129 129.013 8.93106 128.875 8.55911ZM129.528 9.79048C129.646 9.95636 129.774 10.1172 129.914 10.2722L130.234 10.6274L131.486 10.4958C131.493 10.4951 131.5 10.4943 131.507 10.4936L130.997 9.79048H129.528ZM131.192 9.79048L131.69 10.4757C132.063 10.4414 132.436 10.4203 132.808 10.4124L132.449 9.79088C132.411 9.79062 132.373 9.79048 132.336 9.79048H131.192ZM132.634 9.79328L132.989 10.4096C136.178 10.3783 139.303 11.3088 141.956 13.0796C139.294 11.0189 136.028 9.85744 132.634 9.79328ZM141.409 12.9171C138.91 11.3709 136.024 10.555 133.081 10.5671L133.393 11.1093C136.17 10.9977 138.937 11.6178 141.409 12.9171ZM133.215 11.1175L132.899 10.5689C132.532 10.5747 132.165 10.5933 131.798 10.6249L132.217 11.2005C132.549 11.1623 132.882 11.1346 133.215 11.1175ZM132.324 11.3477C132.65 11.312 132.978 11.2866 133.304 11.2715L133.581 11.7502C133.284 11.7765 132.987 11.8112 132.692 11.8544L132.324 11.3477ZM132.037 11.2223L131.615 10.6417C131.577 10.6454 131.54 10.6492 131.502 10.6531L130.364 10.7727L130.932 11.4021C131.299 11.329 131.667 11.269 132.037 11.2223ZM131.055 11.5391C131.417 11.4693 131.779 11.4125 132.143 11.3685L132.516 11.8811C132.187 11.9329 131.858 11.9952 131.531 12.068L131.055 11.5391ZM131.653 12.2032L132.072 12.6686C132.362 12.5948 132.653 12.5293 132.945 12.4721L132.62 12.0249C132.296 12.0741 131.973 12.1336 131.653 12.2032ZM132.796 11.9991L133.116 12.4395C133.379 12.3912 133.642 12.3495 133.906 12.3145L133.667 11.9014C133.376 11.9258 133.087 11.9584 132.796 11.9991ZM133.842 11.8877L134.076 12.2929C136.15 12.041 138.264 12.1995 140.295 12.7716C138.223 12.0275 136.024 11.7291 133.842 11.8877ZM139.729 12.7864C137.902 12.3388 136.016 12.2247 134.162 12.4419L134.235 12.568C134.277 12.6404 134.317 12.7136 134.356 12.7875C136.123 12.4833 137.942 12.4795 139.729 12.7864ZM134.192 12.8165C134.161 12.7595 134.131 12.7031 134.099 12.6471L133.992 12.4629C133.733 12.496 133.477 12.5355 133.22 12.5815L133.495 12.9601C133.726 12.907 133.958 12.8591 134.192 12.8165ZM133.596 13.0992C133.818 13.0492 134.042 13.0041 134.265 12.9637C134.736 13.9375 134.867 15.0421 134.637 16.101C134.625 15.0707 134.295 14.0617 133.681 13.217L133.596 13.0992ZM133.328 12.9993L133.048 12.6134C132.761 12.6681 132.475 12.7308 132.192 12.8015L132.556 13.2062C132.811 13.1306 133.069 13.0618 133.328 12.9993ZM132.673 13.3366C132.923 13.2641 133.176 13.1978 133.429 13.138L133.553 13.3099C134.264 14.2874 134.582 15.4924 134.451 16.6879C134.331 15.6648 133.897 14.6959 133.199 13.9201L132.673 13.3366ZM132.505 13.3862C132.226 13.4705 131.949 13.5627 131.674 13.6628L132.792 14.6698C133.568 15.3681 134.1 16.2859 134.326 17.2906C134.331 16.0883 133.889 14.9236 133.081 14.026L132.505 13.3862ZM138.579 23.6511C141.039 24.2689 143.589 24.2773 146.016 23.7041L145.573 22.9364C144.909 21.7865 144.73 20.4199 145.073 19.1372C145.082 19.1065 145.089 19.0756 145.098 19.0449C145.109 18.9023 145.124 18.7596 145.147 18.6173C145.152 18.5856 145.157 18.554 145.162 18.5222C145.157 18.3795 145.158 18.2361 145.166 18.0924C145.167 18.06 145.169 18.0275 145.171 17.995C145.15 17.854 145.138 17.7117 145.13 17.5683C145.128 17.5363 145.126 17.5043 145.125 17.4723C145.091 17.3337 145.062 17.1932 145.039 17.051C145.034 17.0194 145.029 16.9876 145.023 16.9559C144.975 16.8218 144.932 16.685 144.895 16.5461C144.886 16.5147 144.877 16.4835 144.87 16.4523C144.808 16.3241 144.75 16.1928 144.698 16.0589C144.687 16.0285 144.676 15.9984 144.664 15.9682C144.588 15.8473 144.518 15.7227 144.453 15.5949C144.438 15.5663 144.424 15.5378 144.409 15.5095C144.321 15.3968 144.237 15.2799 144.16 15.1592C144.142 15.1326 144.124 15.1062 144.108 15.0798C144.008 14.9766 143.912 14.8689 143.822 14.7566C143.802 14.7321 143.782 14.7076 143.762 14.6832C143.652 14.5909 143.547 14.4938 143.444 14.3917C143.422 14.369 143.399 14.3464 143.376 14.3237C143.258 14.2437 143.143 14.1584 143.031 14.068C143.006 14.0476 142.98 14.0271 142.955 14.0069C142.829 13.9399 142.706 13.8672 142.587 13.7891C142.56 13.7719 142.533 13.7546 142.505 13.7375C142.373 13.6836 142.242 13.6241 142.114 13.5585C142.086 13.5441 142.057 13.5297 142.029 13.5155C141.892 13.4759 141.755 13.4303 141.62 13.3786C141.591 13.3673 141.562 13.356 141.531 13.3448C141.39 13.3198 141.251 13.2886 141.111 13.2512C138.91 12.6617 136.631 12.5632 134.428 12.9356C134.931 14.0029 135.044 15.2187 134.735 16.3672C134.663 16.6387 134.598 16.9114 134.54 17.1851C134.512 17.3817 134.488 17.5784 134.467 17.7753C134.46 17.973 134.456 18.1706 134.456 18.3678C134.47 18.5676 134.488 18.7668 134.508 18.9653C134.542 19.1612 134.58 19.3561 134.621 19.55C134.676 19.7408 134.734 19.9301 134.795 20.118C134.869 20.3028 134.946 20.4858 135.027 20.667C135.121 20.8441 135.218 21.0191 135.318 21.1918C135.43 21.3579 135.544 21.5216 135.661 21.6829C135.789 21.8356 135.92 21.9856 136.052 22.1329C136.194 22.2705 136.339 22.4051 136.485 22.5368C136.641 22.6591 136.799 22.7781 136.959 22.8939C137.129 23.001 137.302 23.1044 137.476 23.2045C137.653 23.292 137.834 23.3759 138.015 23.4564C138.202 23.525 138.39 23.5899 138.579 23.6511ZM140.858 12.8164C138.56 11.7066 136.027 11.1755 133.483 11.2642L133.755 11.7357C136.164 11.5488 138.596 11.914 140.858 12.8164ZM139.625 24.2337C141.929 25.1284 144.419 25.4699 146.891 25.22L146.651 24.8027C144.297 25.1422 141.895 24.9478 139.625 24.2337ZM128.707 4.82126C128.442 4.87316 128.182 4.94437 127.928 5.03406C128.041 4.80544 128.171 4.58296 128.32 4.36854C128.552 4.25687 128.791 4.16216 129.035 4.08494C128.907 4.32339 128.797 4.56958 128.707 4.82126ZM157.256 22.254C157.44 22.0562 157.609 21.8455 157.762 21.6237C157.804 21.8752 157.83 22.132 157.836 22.3926C157.714 22.6191 157.576 22.8363 157.423 23.0424C157.388 22.7743 157.331 22.5108 157.256 22.254ZM122.105 21.8906C122.105 21.7754 122.109 21.6604 122.117 21.5457C122.068 21.4404 122.022 21.333 121.98 21.2236C122.007 21.4464 122.048 21.6691 122.105 21.8906ZM121.941 20.596C121.966 20.6892 121.993 20.7823 122.023 20.8751C122.062 20.9924 122.103 21.1074 122.149 21.2201C122.177 20.997 122.219 20.7759 122.274 20.5583C122.164 20.363 122.065 20.1596 121.979 19.9486C121.953 20.1626 121.94 20.3789 121.941 20.596ZM122.027 19.6294C122.113 19.8756 122.216 20.1122 122.334 20.3384C122.411 20.0802 122.507 19.8276 122.62 19.5828C122.47 19.3616 122.335 19.1284 122.217 18.8848C122.136 19.1277 122.072 19.3766 122.027 19.6294ZM122.123 18.6774C122.045 18.8878 121.981 19.1031 121.929 19.3218C121.896 19.205 121.866 19.0862 121.841 18.9657C121.82 18.87 121.803 18.7745 121.788 18.6792C121.81 18.4634 121.845 18.2502 121.893 18.0403C121.957 18.2591 122.034 18.4717 122.123 18.6774ZM122.293 18.6726C122.41 18.9331 122.546 19.1822 122.701 19.4177C122.837 19.1489 122.995 18.8904 123.175 18.6451C122.984 18.4129 122.811 18.1648 122.659 17.903C122.517 18.1497 122.394 18.407 122.293 18.6726ZM122.569 17.7429C122.431 17.9747 122.309 18.2161 122.206 18.4648C122.112 18.2277 122.034 17.9817 121.974 17.7279C122.046 17.481 122.135 17.2399 122.241 17.0065C122.333 17.2613 122.443 17.5072 122.569 17.7429ZM122.752 17.7472C122.904 18.0187 123.078 18.2756 123.273 18.5154C123.48 18.2507 123.713 18.0029 123.971 17.7761C123.727 17.5389 123.507 17.2798 123.311 17.0024C123.102 17.2351 122.916 17.4845 122.752 17.7472ZM123.219 16.8681C123.014 17.0931 122.83 17.3339 122.666 17.5871C122.537 17.3367 122.428 17.0749 122.339 16.8035C122.468 16.5499 122.616 16.3066 122.783 16.076C122.907 16.3523 123.053 16.6171 123.219 16.8681ZM123.421 16.8836C123.618 17.1674 123.843 17.4318 124.092 17.6728C124.328 17.4764 124.585 17.2971 124.86 17.1381L125.082 17.01C124.76 16.7738 124.466 16.5043 124.205 16.2077C123.919 16.4092 123.657 16.6361 123.421 16.8836ZM124.101 16.0869C123.821 16.2855 123.564 16.5077 123.33 16.7494C123.161 16.4905 123.015 16.2167 122.892 15.9309C123.082 15.6867 123.294 15.4581 123.526 15.2486C123.692 15.5448 123.884 15.8256 124.101 16.0869ZM124.336 16.1178C124.602 16.4173 124.902 16.6881 125.232 16.9234L126.423 16.2357C126.059 16.0446 125.722 15.8159 125.417 15.5563L125.117 15.69C124.841 15.8129 124.58 15.9564 124.336 16.1178ZM125.286 15.4413L125.053 15.5455C124.762 15.6749 124.488 15.8262 124.232 15.9969C124.01 15.7312 123.814 15.4449 123.648 15.1419C123.908 14.9204 124.192 14.7222 124.498 14.5517C124.726 14.874 124.99 15.1728 125.286 15.4413ZM125.578 15.4848C125.884 15.7376 126.221 15.9588 126.586 16.1417L127.853 15.4105L127.52 15.2625C127.29 15.1598 127.069 15.0431 126.86 14.9138L125.578 15.4848ZM126.701 14.8116L125.445 15.3709C125.141 15.1024 124.871 14.8017 124.638 14.476C124.897 14.341 125.172 14.2256 125.459 14.1321L125.771 14.0307C126.048 14.3208 126.358 14.5834 126.701 14.8116ZM127.036 14.8355C127.211 14.9389 127.394 15.0333 127.585 15.118L128.022 15.3127L129.111 14.6836C129.117 14.6799 129.124 14.6763 129.13 14.6726L128.378 14.238L127.036 14.8355ZM128.208 14.1403L126.873 14.7351C126.529 14.515 126.216 14.2597 125.939 13.9763L127.274 13.5427C127.468 13.693 127.675 13.8322 127.895 13.9585L128.208 14.1403ZM128.556 14.1585L129.29 14.582C129.616 14.3989 129.949 14.2281 130.286 14.0695L129.705 13.6476C129.671 13.6627 129.636 13.6779 129.601 13.6934L128.556 14.1585ZM129.557 13.54C129.55 13.5429 129.544 13.5458 129.536 13.5489L128.387 14.0608L127.973 13.8217C127.793 13.7174 127.62 13.6043 127.456 13.4831L128.853 13.0291L129.557 13.54ZM128.696 12.9142L128.401 12.7007C128.197 12.5521 128.006 12.392 127.829 12.2221L126.455 12.5139C126.702 12.8249 126.985 13.1113 127.305 13.3662L128.696 12.9142ZM127.126 13.4243C126.809 13.1616 126.527 12.868 126.283 12.5505L125.963 12.6186C125.667 12.6815 125.382 12.7677 125.109 12.8749C125.307 13.2232 125.544 13.5504 125.818 13.8492L127.126 13.4243ZM125.653 13.9028C125.387 13.6046 125.156 13.2799 124.962 12.9356C124.64 13.0732 124.337 13.2406 124.055 13.4336C124.189 13.7523 124.354 14.0576 124.547 14.345C124.82 14.202 125.108 14.0801 125.41 13.9817L125.653 13.9028ZM124.407 14.4208C124.219 14.1382 124.057 13.8389 123.923 13.5269C123.671 13.7111 123.436 13.9161 123.222 14.1391C123.313 14.4363 123.431 14.7239 123.572 14.9989C123.829 14.7831 124.108 14.589 124.407 14.4208ZM123.449 15.1053C123.31 14.8384 123.192 14.5598 123.098 14.2721C122.908 14.4839 122.734 14.7104 122.58 14.949C122.64 15.2283 122.722 15.5001 122.824 15.7626C123.013 15.5279 123.221 15.3079 123.449 15.1053ZM122.711 15.9075C122.61 15.6597 122.526 15.4036 122.462 15.1409C122.332 15.362 122.217 15.5926 122.12 15.8308C122.153 16.0893 122.205 16.3422 122.274 16.5877C122.403 16.3509 122.549 16.1235 122.711 15.9075ZM122.169 16.7904C122.102 16.5766 122.048 16.3571 122.007 16.133C121.937 16.3372 121.88 16.5461 121.836 16.7588C121.84 16.8547 121.848 16.9509 121.858 17.0476C121.871 17.1704 121.888 17.2919 121.909 17.4117C121.983 17.1994 122.07 16.9919 122.169 16.7904ZM121.81 17.7237C121.784 17.6109 121.762 17.4966 121.743 17.3809C121.724 17.604 121.718 17.83 121.727 18.0577C121.751 17.9453 121.779 17.834 121.81 17.7237ZM121.84 16.1343C121.876 16.0247 121.915 15.9164 121.958 15.8096C121.944 15.6942 121.934 15.5777 121.927 15.4603C121.884 15.681 121.854 15.906 121.84 16.1343ZM122.084 14.8514C122.079 14.9475 122.076 15.0444 122.076 15.1418C122.076 15.2653 122.08 15.388 122.088 15.5095C122.184 15.3058 122.293 15.1084 122.412 14.9183C122.368 14.6984 122.337 14.4742 122.32 14.2468C122.229 14.4426 122.15 14.6444 122.084 14.8514ZM122.464 13.958C122.47 14.219 122.495 14.476 122.538 14.7277C122.691 14.5057 122.86 14.2948 123.044 14.0968C122.969 13.8399 122.913 13.5763 122.876 13.308C122.724 13.5142 122.586 13.7315 122.464 13.958ZM122.85 13.0816C122.711 13.258 122.583 13.443 122.466 13.6354C122.471 13.514 122.479 13.3918 122.492 13.2691C122.503 13.1719 122.515 13.0756 122.531 12.9803C122.618 12.7816 122.718 12.5893 122.828 12.4042C122.822 12.6321 122.829 12.8582 122.85 13.0816ZM123.014 13.1297C123.044 13.4138 123.097 13.6929 123.171 13.9646C123.383 13.7511 123.614 13.554 123.861 13.3764C123.751 13.0963 123.663 12.8069 123.599 12.5109C123.388 12.7015 123.192 12.9085 123.014 13.1297ZM123.564 12.331C123.36 12.5085 123.17 12.7005 122.995 12.9051C122.979 12.6504 122.981 12.3922 123.002 12.1321C123.147 11.9196 123.306 11.7181 123.48 11.5291C123.488 11.7997 123.516 12.0676 123.564 12.331ZM123.736 12.3916C123.797 12.6967 123.883 12.9951 123.995 13.2835C124.273 13.0957 124.571 12.932 124.886 12.7959C124.728 12.4952 124.598 12.1805 124.497 11.8563C124.227 12.013 123.973 12.1924 123.736 12.3916ZM124.452 11.7001C124.188 11.8509 123.938 12.0226 123.704 12.2128C123.659 11.9348 123.636 11.6517 123.635 11.3661C123.836 11.1649 124.052 10.9795 124.282 10.8121C124.314 11.1131 124.371 11.4101 124.452 11.7001ZM124.639 11.7772C124.739 12.1083 124.871 12.4292 125.033 12.7351C125.319 12.6213 125.618 12.5301 125.93 12.4639L126.179 12.4109C125.945 12.0866 125.749 11.7395 125.593 11.3767C125.258 11.4801 124.94 11.6148 124.639 11.7772ZM125.532 11.23C125.204 11.3323 124.891 11.464 124.594 11.6216C124.514 11.3233 124.459 11.0175 124.431 10.7077C124.687 10.5343 124.958 10.3825 125.244 10.2549C125.31 10.5879 125.406 10.9144 125.532 11.23ZM125.746 11.3319C125.906 11.6989 126.108 12.0491 126.349 12.3749L127.694 12.089C127.406 11.7946 127.157 11.4731 126.947 11.1319L126.621 11.1662C126.32 11.1978 126.028 11.2538 125.746 11.3319ZM126.858 10.9822L126.604 11.0089C126.288 11.0422 125.98 11.1016 125.684 11.1848C125.555 10.8636 125.457 10.5307 125.392 10.191C125.708 10.061 126.04 9.96024 126.383 9.89236C126.501 10.2696 126.66 10.6353 126.858 10.9822ZM126.338 9.74007C126.246 9.41304 126.184 9.07822 126.153 8.74018C125.856 8.83731 125.57 8.9599 125.297 9.10564C125.293 9.41664 125.315 9.72649 125.364 10.0316C125.676 9.90579 126.001 9.8076 126.338 9.74007ZM125.214 10.0948C125.165 9.79796 125.139 9.49662 125.138 9.19392C124.892 9.33645 124.657 9.49824 124.437 9.67745C124.408 9.96148 124.401 10.2454 124.417 10.5266C124.669 10.3618 124.936 10.2171 125.214 10.0948ZM124.265 10.6295C124.246 10.3626 124.245 10.0932 124.265 9.82328C124.074 9.99317 123.894 10.1768 123.728 10.373C123.679 10.6293 123.65 10.8858 123.64 11.1408C123.835 10.9556 124.044 10.7846 124.265 10.6295ZM123.477 11.3011C123.48 11.0769 123.496 10.8513 123.527 10.6254C123.397 10.7979 123.278 10.9786 123.17 11.1669C123.145 11.2602 123.122 11.3546 123.102 11.4502C123.077 11.5708 123.055 11.6912 123.038 11.8114C123.174 11.6324 123.321 11.462 123.477 11.3011ZM122.848 12.0776C122.858 11.962 122.872 11.846 122.89 11.7298C122.802 11.9365 122.727 12.1503 122.665 12.3704C122.723 12.2708 122.784 12.1731 122.848 12.0776ZM123.367 10.5745C123.436 10.4815 123.506 10.3909 123.58 10.3027C123.602 10.1888 123.629 10.075 123.659 9.96142C123.549 10.1577 123.452 10.3622 123.367 10.5745ZM123.996 9.43085C123.961 9.52085 123.929 9.61229 123.898 9.70511C123.86 9.82236 123.827 9.93999 123.797 10.0578C123.951 9.89403 124.115 9.73993 124.287 9.59628C124.313 9.37365 124.352 9.15106 124.406 8.92967C124.26 9.08765 124.123 9.25494 123.996 9.43085ZM124.633 8.69958C124.558 8.94936 124.502 9.20139 124.465 9.45383C124.679 9.29006 124.905 9.14181 125.141 9.01055C125.149 8.74318 125.177 8.47523 125.225 8.20888C125.017 8.35784 124.819 8.52179 124.633 8.69958ZM125.27 7.98535C125.084 8.11025 124.905 8.24648 124.735 8.39334C124.777 8.27915 124.823 8.1656 124.873 8.05287C124.912 7.96389 124.954 7.87652 124.998 7.7908C125.143 7.62899 125.297 7.47685 125.459 7.33492C125.382 7.54945 125.319 7.76666 125.27 7.98535ZM125.411 8.08178C125.352 8.36115 125.316 8.6428 125.303 8.9241C125.571 8.78653 125.851 8.67047 126.141 8.57791C126.122 8.2775 126.128 7.97514 126.159 7.67403C125.899 7.79007 125.649 7.92652 125.411 8.08178ZM126.181 7.49195C125.933 7.59784 125.692 7.72172 125.463 7.86229C125.526 7.61511 125.608 7.3703 125.708 7.12973C125.911 6.97228 126.126 6.82989 126.349 6.70351C126.273 6.96337 126.217 7.22692 126.181 7.49195ZM126.417 6.48592C126.489 6.27349 126.574 6.06396 126.673 5.85859C126.496 5.98278 126.327 6.11798 126.166 6.26375C126.114 6.34452 126.063 6.42715 126.014 6.5116C125.953 6.61848 125.895 6.72659 125.841 6.83577C126.026 6.70748 126.218 6.59067 126.417 6.48592ZM125.578 7.0303C125.624 6.92356 125.673 6.81764 125.726 6.71271C125.578 6.88205 125.441 7.062 125.314 7.25205C125.4 7.17528 125.488 7.10135 125.578 7.0303ZM126.537 5.76098C126.63 5.69363 126.726 5.62935 126.823 5.56815C126.88 5.46678 126.94 5.36663 127.003 5.26782C126.839 5.42079 126.683 5.58528 126.537 5.76098ZM124.607 8.28334C124.565 8.39311 124.528 8.50346 124.493 8.61426C124.411 8.69425 124.331 8.77689 124.254 8.86211C124.36 8.66008 124.478 8.46696 124.607 8.28334ZM122.311 13.5692C122.305 13.6868 122.303 13.8037 122.305 13.9199C122.251 14.0218 122.201 14.1254 122.153 14.2307C122.192 14.0051 122.245 13.7843 122.311 13.5692ZM121.761 19.3074C121.792 19.4208 121.826 19.5325 121.864 19.6424C121.844 19.7556 121.828 19.8697 121.815 19.9843C121.783 19.758 121.765 19.532 121.761 19.3074ZM131.04 2.16216C131.149 2.12701 131.26 2.09537 131.371 2.06724C131.456 1.98831 131.544 1.9116 131.636 1.83727C131.431 1.93194 131.233 2.04022 131.04 2.16216ZM132.22 1.60631C132.138 1.65873 132.06 1.71361 131.98 1.77096C131.881 1.84343 131.784 1.91869 131.69 1.99657C131.911 1.95452 132.135 1.92601 132.358 1.9111C132.51 1.74619 132.673 1.58945 132.847 1.4421C132.636 1.48391 132.427 1.53863 132.22 1.60631ZM133.166 1.38903C132.959 1.54709 132.764 1.71825 132.587 1.90064C133.947 1.86626 135.321 2.33217 136.411 3.31405L140.06 6.59867C141.982 8.33041 143.435 10.4884 144.319 12.8709C144.39 12.8404 144.46 12.8081 144.529 12.7741C143.87 10.5642 142.725 8.5054 141.152 6.75869L137.868 3.11074C136.636 1.74353 134.861 1.1587 133.166 1.38903ZM144.673 12.7013C144.005 10.4796 142.852 8.40991 141.27 6.65285L137.985 3.00492C136.786 1.67344 135.086 1.06267 133.429 1.20118C133.529 1.13341 133.633 1.06858 133.74 1.00688C133.825 0.958143 133.91 0.911962 133.995 0.868319C136.004 0.435575 138.17 1.18592 139.455 2.95485L142.34 6.92614C143.578 8.6309 144.449 10.5492 144.923 12.5613L144.832 12.6141C144.78 12.6442 144.726 12.6733 144.673 12.7013ZM144.575 12.9279C144.508 12.9601 144.441 12.9907 144.373 13.0197C144.422 13.1547 144.469 13.2905 144.513 13.427C144.575 13.4126 144.636 13.397 144.698 13.3801C144.659 13.2288 144.618 13.078 144.575 12.9279ZM144.849 13.3358C144.809 13.1752 144.766 13.0152 144.719 12.8561C144.783 12.8225 144.847 12.7875 144.91 12.7511L144.96 12.7226C144.999 12.9015 145.037 13.0812 145.07 13.2615C144.998 13.2881 144.924 13.3128 144.849 13.3358ZM144.736 13.5337C144.678 13.5495 144.621 13.5643 144.562 13.578C144.601 13.6975 144.637 13.8173 144.672 13.9377C144.724 13.9347 144.776 13.9309 144.827 13.9262C144.799 13.7949 144.768 13.6641 144.736 13.5337ZM144.985 13.909C144.955 13.7687 144.923 13.6288 144.889 13.4895C144.959 13.4676 145.03 13.4443 145.1 13.4192C145.126 13.573 145.152 13.7272 145.175 13.8818C145.111 13.8921 145.049 13.9013 144.985 13.909ZM144.861 14.0818C144.813 14.0864 144.764 14.0902 144.716 14.0934C144.747 14.1992 144.775 14.3053 144.802 14.4117C144.844 14.4162 144.885 14.42 144.927 14.4233C144.907 14.3093 144.884 14.1954 144.861 14.0818ZM145.089 14.4336C145.068 14.3102 145.044 14.1871 145.018 14.0643C145.078 14.0568 145.138 14.0482 145.196 14.0384C145.215 14.1715 145.23 14.3047 145.246 14.4383C145.194 14.4375 145.142 14.436 145.089 14.4336ZM144.956 14.5842C144.918 14.5815 144.881 14.5784 144.844 14.5749C144.867 14.6684 144.889 14.7621 144.91 14.8561C144.942 14.8644 144.973 14.8727 145.004 14.8804C144.989 14.7815 144.973 14.6827 144.956 14.5842ZM145.171 14.9189C145.154 14.8101 145.136 14.7014 145.117 14.5931C145.166 14.595 145.214 14.5961 145.262 14.5966C145.274 14.7121 145.284 14.8277 145.293 14.9434C145.252 14.9358 145.211 14.9276 145.171 14.9189ZM145.03 15.0493C145.003 15.043 144.976 15.0365 144.95 15.0298C144.968 15.1114 144.984 15.1933 145.001 15.2755C145.022 15.2849 145.042 15.294 145.064 15.3032C145.053 15.2184 145.041 15.1338 145.03 15.0493ZM145.232 15.3719C145.22 15.2763 145.208 15.1808 145.195 15.0854C145.232 15.0928 145.269 15.0997 145.305 15.1064C145.312 15.2062 145.318 15.3061 145.322 15.406C145.291 15.395 145.262 15.3836 145.232 15.3719ZM145.483 15.4615C145.522 15.4745 145.563 15.4869 145.603 15.4989C145.606 15.3828 145.608 15.2669 145.609 15.1508C145.561 15.1453 145.512 15.1391 145.465 15.1321C145.473 15.2418 145.478 15.3517 145.483 15.4615ZM145.454 14.9706C145.505 14.9785 145.557 14.9855 145.609 14.9916C145.608 14.8572 145.605 14.7229 145.601 14.5885C145.542 14.5921 145.482 14.5945 145.421 14.5957C145.434 14.7204 145.445 14.8455 145.454 14.9706ZM145.404 14.4379C145.468 14.4366 145.533 14.4342 145.596 14.4304C145.59 14.2744 145.581 14.1184 145.569 13.9626C145.497 13.9803 145.425 13.9961 145.352 14.0104C145.371 14.1526 145.389 14.2951 145.404 14.4379ZM145.329 13.8535C145.406 13.8385 145.482 13.8215 145.558 13.8027C145.543 13.6199 145.525 13.4373 145.503 13.2552L145.451 13.2783C145.385 13.308 145.318 13.3361 145.249 13.3627C145.279 13.5259 145.305 13.6895 145.329 13.8535ZM145.22 13.2041C145.276 13.1818 145.332 13.1583 145.387 13.1338L145.483 13.0909C145.458 12.8843 145.427 12.6782 145.392 12.4728L145.103 12.6398C145.145 12.8271 145.185 13.0153 145.22 13.2041ZM145.065 12.4788L145.364 12.3068C145.046 10.5318 144.423 8.80814 143.505 7.21673L141.05 2.96559C139.727 0.675089 136.968 -0.267931 134.568 0.618229C136.453 0.427955 138.389 1.2174 139.582 2.86187L142.469 6.83316C143.709 8.54201 144.585 10.4633 145.065 12.4788ZM145.539 12.3884C145.575 12.5995 145.606 12.8114 145.634 13.0237L150.766 10.7392C153.448 9.54508 156.574 10.6668 157.902 13.2439C157.785 12.7375 157.592 12.2396 157.319 11.7661C155.841 9.20659 152.569 8.32965 150.009 9.80737L145.539 12.3884ZM158.006 13.8639C157.972 13.7742 157.935 13.6846 157.895 13.5957C156.693 10.8958 153.53 9.68158 150.829 10.8837L145.655 13.1877C145.677 13.3786 145.696 13.5698 145.713 13.7613C145.77 13.745 145.829 13.7274 145.886 13.7088L151.484 11.8895C154.057 11.0538 156.799 12.212 158.037 14.5118C158.039 14.2963 158.029 14.0799 158.006 13.8639ZM158.022 14.8342C156.888 12.4373 154.122 11.1988 151.534 12.0399L145.934 13.8592C145.865 13.8817 145.796 13.9028 145.726 13.9221C145.737 14.0874 145.747 14.253 145.754 14.4186C145.943 14.4013 146.133 14.3728 146.321 14.3328L152.08 13.1086C154.415 12.6121 156.721 13.6757 157.91 15.5955C157.966 15.3452 158.002 15.0907 158.022 14.8342ZM158.027 15.7918C158.081 15.5742 158.123 15.3531 158.151 15.13C158.197 15.243 158.239 15.3582 158.277 15.4756C158.307 15.5683 158.334 15.6613 158.359 15.7544C158.359 15.9715 158.347 16.1876 158.321 16.4016C158.235 16.1907 158.136 15.9871 158.027 15.7918ZM157.856 15.8144C156.728 13.8647 154.436 12.7695 152.113 13.2634L146.354 14.4874C146.156 14.5293 145.958 14.5592 145.759 14.577C145.764 14.7204 145.766 14.8641 145.766 15.0078C146.071 15.034 146.38 15.0314 146.688 14.9989L152.543 14.3836C154.569 14.1707 156.453 15.0839 157.573 16.6185C157.689 16.3582 157.784 16.0892 157.856 15.8144ZM157.679 16.7684C157.793 16.5232 157.888 16.2703 157.966 16.0119C158.084 16.2379 158.187 16.4746 158.273 16.7207C158.227 16.974 158.164 17.2233 158.082 17.4667C157.964 17.2229 157.83 16.9897 157.679 16.7684ZM157.497 16.7832C156.416 15.2496 154.559 14.3309 152.56 14.5409L146.705 15.1563C146.391 15.1893 146.077 15.1923 145.766 15.1665C145.766 15.2919 145.764 15.4173 145.76 15.5427C146.156 15.6462 146.568 15.6999 146.984 15.6999H152.872C154.526 15.6999 156.009 16.4285 157.02 17.5822C157.202 17.3291 157.362 17.0615 157.497 16.7832ZM157.125 17.7062C157.304 17.4609 157.463 17.2022 157.599 16.9334C157.754 17.1691 157.889 17.4181 158.006 17.6789C157.905 17.9443 157.783 18.2017 157.641 18.4484C157.489 18.1866 157.316 17.9384 157.125 17.7062ZM157.731 18.6086C157.856 18.8444 157.967 19.0905 158.058 19.3452C158.164 19.1119 158.254 18.8708 158.326 18.6239C158.267 18.3701 158.188 18.1239 158.094 17.8865C157.991 18.1354 157.869 18.3768 157.731 18.6086ZM158.178 17.6741C158.267 17.8799 158.343 18.0926 158.408 18.3116C158.455 18.1011 158.49 17.8872 158.513 17.6708C158.498 17.5757 158.48 17.4804 158.46 17.3852C158.434 17.2643 158.404 17.1453 158.371 17.0284C158.32 17.2476 158.255 17.4632 158.178 17.6741ZM158.437 16.7077C158.474 16.8176 158.508 16.9292 158.54 17.0426C158.536 16.8181 158.518 16.5922 158.485 16.366C158.472 16.4806 158.456 16.5946 158.437 16.7077ZM158.574 18.2923C158.549 18.4053 158.521 18.5173 158.489 18.6281C158.516 18.7417 158.538 18.8566 158.557 18.9729C158.576 18.7485 158.583 18.5212 158.574 18.2923ZM158.465 19.5947C158.46 19.498 158.452 19.401 158.442 19.3036C158.429 19.1809 158.411 19.0597 158.391 18.9401C158.317 19.1524 158.23 19.3599 158.131 19.5613C158.198 19.7754 158.253 19.9951 158.293 20.2195C158.362 20.0157 158.42 19.8071 158.465 19.5947ZM158.342 20.5431C158.356 20.6581 158.366 20.7744 158.372 20.8916C158.415 20.6714 158.444 20.4468 158.46 20.219C158.424 20.3284 158.385 20.4364 158.342 20.5431ZM158.32 15.1268C158.277 15.0172 158.231 14.9098 158.183 14.8044C158.19 14.6896 158.194 14.5745 158.196 14.4591C158.251 14.6808 158.293 14.9037 158.32 15.1268ZM133.389 1.03687C133.291 1.1013 133.196 1.16841 133.103 1.23806C132.989 1.25439 132.876 1.27429 132.763 1.29778C132.968 1.19666 133.177 1.10976 133.389 1.03687ZM156.933 25.7756C156.865 25.8685 156.794 25.9593 156.72 26.0477C156.698 26.1616 156.672 26.2755 156.641 26.3893C156.75 26.1928 156.848 25.988 156.933 25.7756ZM156.305 26.9198C156.339 26.8299 156.372 26.7386 156.401 26.6458C156.439 26.5284 156.474 26.4106 156.503 26.2926C156.349 26.4566 156.185 26.6109 156.013 26.7547C155.987 26.9775 155.948 27.2002 155.893 27.4218C156.039 27.2636 156.178 27.0959 156.305 26.9198ZM155.806 27.7371C155.773 27.8482 155.735 27.9588 155.693 28.0689C155.822 27.8848 155.94 27.6911 156.047 27.4884C155.969 27.574 155.888 27.6568 155.806 27.7371ZM155.667 27.6518C155.742 27.4018 155.797 27.1498 155.835 26.8972C155.62 27.061 155.394 27.2093 155.158 27.3406C155.15 27.6082 155.123 27.8761 155.074 28.1425C155.283 27.9936 155.481 27.8295 155.667 27.6518ZM154.888 28.2697C154.947 27.9902 154.983 27.7085 154.997 27.4271C154.729 27.5646 154.448 27.6807 154.159 27.7733C154.176 28.0737 154.171 28.3762 154.14 28.6773C154.4 28.5613 154.65 28.4248 154.888 28.2697ZM153.973 28.7485C154.01 28.4396 154.019 28.1291 154.002 27.8205C153.68 27.9131 153.346 27.9767 153.004 28.0086C153.062 28.3434 153.088 28.6829 153.083 29.0223C153.388 28.9568 153.686 28.8648 153.973 28.7485ZM152.924 29.0538C152.931 28.7081 152.905 28.3621 152.846 28.021C152.538 28.0408 152.226 28.035 151.91 28.0018L151.655 27.9749C151.776 28.3556 151.855 28.7464 151.893 29.1399C152.242 29.145 152.588 29.1154 152.924 29.0538ZM151.733 29.1352C151.694 28.7367 151.61 28.3411 151.482 27.9569L150.114 27.813C150.297 28.1819 150.434 28.5645 150.528 28.9538L150.851 29.0224C151.147 29.0851 151.441 29.1224 151.733 29.1352ZM150.357 28.9173C150.258 28.533 150.114 28.1559 149.926 27.7933L148.472 27.6404L148.654 27.956C148.781 28.1745 148.89 28.3982 148.983 28.6253L150.357 28.9173ZM152.39 31.9455C152.289 32.0027 152.188 32.0567 152.085 32.1074C152.018 32.2024 151.948 32.2957 151.874 32.3874C152.055 32.2524 152.226 32.1051 152.39 31.9455Z" fill="#161513"/>
<path d="M4.54523 27.1582H0V47.6672H12.5825V43.6485H4.54523V27.1582Z" fill="#161513"/>
<path d="M13.0166 40.7103C13.0166 45.0893 15.9544 47.9993 20.3888 47.9993C24.7954 47.9993 27.7332 45.0893 27.7332 40.7103C27.7332 36.3313 24.7954 33.3936 20.3888 33.3936C15.9544 33.3936 13.0166 36.3313 13.0166 40.7103ZM17.3123 40.6826C17.3123 38.604 18.5319 37.2182 20.3888 37.2182C22.2179 37.2182 23.4374 38.604 23.4374 40.6826C23.4374 42.789 22.2179 44.1746 20.3888 44.1746C18.5319 44.1746 17.3123 42.789 17.3123 40.6826Z" fill="#161513"/>
<path d="M28.4197 40.4882C28.4197 44.6733 31.1358 47.5002 34.9881 47.5002C36.845 47.5002 38.4525 46.835 39.2562 45.7541V47.6664C39.2562 49.5788 38.0644 50.8536 35.9582 50.8536C34.0736 50.8536 32.771 49.9667 32.6878 48.387H28.3643C28.7523 52.184 31.6901 54.7337 35.7088 54.7337C40.4479 54.7337 43.4411 51.6574 43.4411 46.7795V33.809H39.5888L39.3671 35.2225C38.5911 34.0862 36.9559 33.3379 35.0713 33.3379C31.1912 33.3379 28.4197 36.248 28.4197 40.4882ZM32.7432 40.3774C32.7432 38.382 34.0736 37.0517 35.7641 37.0517C37.7319 37.0517 39.173 38.3543 39.173 40.3774C39.173 42.4006 37.7596 43.7864 35.7918 43.7864C34.1013 43.7864 32.7432 42.4006 32.7432 40.3774Z" fill="#161513"/>
<path d="M44.6851 40.7103C44.6851 45.0893 47.6228 47.9993 52.0572 47.9993C56.4639 47.9993 59.4016 45.0893 59.4016 40.7103C59.4016 36.3313 56.4639 33.3936 52.0572 33.3936C47.6228 33.3936 44.6851 36.3313 44.6851 40.7103ZM48.9809 40.6826C48.9809 38.604 50.2004 37.2182 52.0572 37.2182C53.8865 37.2182 55.1059 38.604 55.1059 40.6826C55.1059 42.789 53.8865 44.1746 52.0572 44.1746C50.2004 44.1746 48.9809 42.789 48.9809 40.6826Z" fill="#161513"/>
<path d="M63.0814 31.6479C64.4118 31.6479 65.4927 30.5671 65.4927 29.209C65.4927 27.8511 64.4118 26.7979 63.0814 26.7979C61.7235 26.7979 60.6426 27.8511 60.6426 29.209C60.6426 30.5671 61.7235 31.6479 63.0814 31.6479ZM60.9198 47.6671H65.2155V33.8097H60.9198V47.6671Z" fill="#161513"/>
<path d="M67.7161 54.3186H71.9288V46.2814C72.7324 47.3345 74.5617 48.0551 76.474 48.0551C80.6034 48.0551 83.0978 44.8956 82.9869 40.5167C82.8761 36.0546 80.2987 33.3662 76.4462 33.3662C74.4785 33.3662 72.6216 34.2254 71.8456 35.5003L71.6239 33.8096H67.7161V54.3186ZM72.0119 40.7384C72.0119 38.6598 73.3976 37.274 75.3931 37.274C77.4163 37.274 78.6912 38.6875 78.6912 40.7384C78.6912 42.7893 77.4163 44.2028 75.3931 44.2028C73.3976 44.2028 72.0119 42.817 72.0119 40.7384Z" fill="#161513"/>
<path d="M83.4419 43.2881C83.5528 46.0874 85.7699 48.0274 89.262 48.0274C92.6155 48.0274 94.9435 46.2536 94.9435 43.399C94.9435 41.3481 93.724 39.9901 91.4514 39.4358L88.9849 38.826C88.0979 38.6043 87.5436 38.3826 87.5436 37.6621C87.5436 36.9414 88.1257 36.4703 88.9849 36.4703C89.9548 36.4703 90.5922 37.1077 90.5646 38.05H94.4169C94.306 35.1677 92.1166 33.3662 89.0679 33.3662C85.9916 33.3662 83.6913 35.1954 83.6913 37.9668C83.6913 39.8237 84.7167 41.3481 87.4606 42.0687L89.8994 42.7062C90.6199 42.9002 90.9248 43.2328 90.9248 43.7039C90.9248 44.3967 90.2873 44.8401 89.2066 44.8401C87.9593 44.8401 87.2942 44.2581 87.2942 43.2881H83.4419Z" fill="#161513"/>
<path d="M101.477 48.0273C103.167 48.0273 104.858 47.2512 105.717 46.115L105.994 47.667H110.013V33.8096H105.745V41.0154C105.745 43.094 105.135 44.2304 103.167 44.2304C101.643 44.2304 100.645 43.5374 100.645 40.96V33.8096H96.3772V42.512C96.3772 45.8101 98.2063 48.0273 101.477 48.0273Z" fill="#161513"/>
<path d="M116.781 47.6664V40.1003C116.781 37.7723 118.028 37.107 119.248 37.107C120.606 37.107 121.492 37.9385 121.492 39.6569V47.6664H125.705V40.1003C125.705 37.7445 126.925 37.0794 128.143 37.0794C129.502 37.0794 130.416 37.9108 130.416 39.6569V47.6664H134.574V38.6037C134.574 35.4442 132.91 33.3379 129.336 33.3379C127.341 33.3379 125.705 34.3079 124.985 35.8046C124.153 34.3079 122.712 33.3379 120.412 33.3379C118.887 33.3379 117.474 34.0307 116.642 35.1393L116.476 33.809H112.485V47.6664H116.781Z" fill="#161513"/>
</g>
<rect x="0.5" y="0.630859" width="159" height="54.873" stroke="#F0F2F5"/>
<defs>
<clipPath id="clip0_228_1885">
<rect y="0.130859" width="160" height="55.873" fill="white"/>
</clipPath>
</defs>
</svg>
