<svg width="160" height="21" viewBox="0 0 160 21" fill="none" xmlns="http://www.w3.org/2000/svg">
<path d="M79.6769 17.7255H74.2874V3.31705H79.6769V17.7255ZM74.8137 17.1992H79.1506V3.84336H74.8137V17.1992ZM87.1758 17.7255H81.8948V3.31705H92.9284C94.5091 3.18905 96.0832 3.63281 97.3642 4.56757C97.9157 5.07211 98.3432 5.69725 98.6132 6.3942C98.8833 7.09115 98.9887 7.84108 98.9211 8.58547C98.9998 9.87175 98.5904 11.1404 97.7748 12.1381C96.8095 13.2455 95.2032 13.816 93.0011 13.836C92.4463 13.8507 88.2895 13.836 87.179 13.836L87.1758 17.7255ZM82.4179 17.1992H86.6495V13.3044H86.9137C86.9674 13.3044 92.3642 13.3213 92.9884 13.3044C95.04 13.2865 96.5148 12.7781 97.3769 11.7855C98.103 10.8828 98.4636 9.74036 98.3874 8.58442C98.4521 7.91744 98.3623 7.24451 98.1251 6.61783C97.8877 5.99114 97.5093 5.42754 97.019 4.97073C95.8312 4.11821 94.3779 3.71803 92.9211 3.84231H82.4211L82.4179 17.1992ZM91.8106 10.5992H86.6137V6.67705H91.8453C92.2161 6.62581 92.5939 6.66909 92.9435 6.80287C93.2932 6.93666 93.6034 7.15661 93.8453 7.44231C94.0648 7.80751 94.1682 8.23071 94.1421 8.65599C94.1618 9.05084 94.0765 9.44386 93.8948 9.79494C93.6452 10.0959 93.3223 10.3275 92.9573 10.4676C92.5923 10.6077 92.1974 10.6516 91.8106 10.5949V10.5992ZM87.14 10.0728H91.8106C92.6737 10.0728 93.2085 9.89284 93.4453 9.52231C93.5757 9.253 93.6348 8.95469 93.6169 8.65599C93.6399 8.34237 93.5719 8.02877 93.4211 7.75284L93.4148 7.74336C93.1642 7.37494 92.6663 7.20336 91.8453 7.20336H87.14V10.0728ZM108.526 17.9381C103.8 17.9381 100.979 16.7644 99.9042 14.3507C99.7283 13.8845 99.609 13.3989 99.5484 12.9044L99.5021 12.6013H105.125L105.162 12.8223C105.205 13.0467 105.301 13.258 105.44 13.4392C105.662 13.7076 106.403 14.1581 108.862 14.1581C111.818 14.1581 111.818 13.6392 111.818 13.3602C111.818 12.8897 111.476 12.7286 109.065 12.4718L108.607 12.4286C107.7 12.3434 106.553 12.2349 106.028 12.1897C101.607 11.7897 99.6337 10.416 99.6337 7.73705C99.6337 4.92336 102.993 3.10547 108.192 3.10547C112.433 3.10547 115.165 4.22336 116.312 6.43073C116.583 6.94418 116.766 7.5002 116.852 8.07494L116.888 8.37073H111.259L111.236 8.13284C111.214 7.94692 111.135 7.77251 111.008 7.63389C110.798 7.35178 110.133 6.88547 108.067 6.88547C105.532 6.88547 105.182 7.20968 105.182 7.55915C105.182 8.02547 105.983 8.19073 108.551 8.46547C109.621 8.55284 111.342 8.72968 111.932 8.80126C115.638 9.20336 117.292 10.5434 117.292 13.1476C117.293 15.3318 115.772 17.9381 108.526 17.9381ZM100.117 13.1276C100.17 13.4747 100.26 13.8149 100.387 14.1423C101.366 16.3413 104.029 17.4118 108.526 17.4118C112.286 17.4118 116.769 16.6749 116.769 13.1476C116.769 10.8392 115.306 9.696 111.876 9.32442C111.286 9.25284 109.576 9.07705 108.507 8.98863C105.771 8.69179 104.658 8.53389 104.658 7.55915C104.658 6.55073 105.857 6.35915 108.069 6.35915C109.818 6.35915 110.947 6.67494 111.426 7.31178C111.557 7.46868 111.656 7.64963 111.717 7.84442H116.279C116.187 7.43731 116.042 7.04409 115.847 6.67494C114.795 4.65494 112.223 3.63178 108.194 3.63178C103.315 3.63178 100.162 5.24336 100.162 7.73705C100.162 10.116 101.932 11.2907 106.077 11.6655C106.603 11.7107 107.749 11.8192 108.659 11.9055L109.12 11.9486C111.359 12.1844 112.346 12.3318 112.346 13.3602C112.346 14.4676 111.069 14.6844 108.864 14.6844C106.824 14.6844 105.536 14.3781 105.038 13.7749C104.884 13.5826 104.769 13.3629 104.697 13.1276H100.117ZM127.292 17.9202C121.797 17.9202 118.765 15.6981 118.765 11.6623V3.31705H124.083V11.6623C124.083 13.0465 125.322 13.8402 127.481 13.8402C129.544 13.8402 130.825 13.0118 130.825 11.6802V3.31705H136.088V12.1044C136.094 15.8002 132.884 17.9202 127.288 17.9202H127.292ZM119.292 3.84336V11.6623C119.292 16.6497 124.3 17.3939 127.292 17.3939C130.384 17.3939 135.571 16.7065 135.571 12.1044V3.84336H131.36V11.6802C131.36 13.3118 129.84 14.3665 127.489 14.3665C125.033 14.3665 123.565 13.356 123.565 11.6623V3.84336H119.292ZM158.392 17.7255H153.373V11.2202L150.526 17.7255H146.148L143.332 11.2328V17.7255H138.295V3.31705H144.92L148.362 11.2613L151.971 3.31705H158.398L158.392 17.7255ZM153.899 17.1992H157.865V3.84336H152.305L148.345 12.5581L144.571 3.84336H138.817V17.1992H142.801V8.70021L146.485 17.2023H150.169L153.893 8.71284L153.899 17.1992ZM6.37266 3.58021H1.57898V17.4623H14.8253V13.7665H6.37266V3.58021ZM24.5011 3.26442C18.3821 3.26442 15.1642 6.16442 15.1642 10.4223C15.1642 15.2328 18.5421 17.6728 24.5011 17.6728C31.0611 17.6728 33.82 14.8434 33.82 10.4223C33.82 5.93284 30.7074 3.26231 24.5011 3.26231V3.26442ZM24.4832 6.87178C24.8997 6.86983 25.316 6.89408 25.7295 6.94442L20.3706 12.3034C20.117 11.7298 19.9933 11.1072 20.0085 10.4802C20.0085 8.30231 21.1053 6.86968 24.4832 6.86968V6.87178ZM24.5011 14.1223C24.0997 14.1241 23.6987 14.1016 23.3 14.0549L28.6685 8.68652C28.9126 9.25063 29.0294 9.86161 29.0106 10.476C29.0106 12.5949 28 14.1202 24.5011 14.1202V14.1223ZM43.3179 12.2276H48.2516C48.179 12.57 48.0276 12.8907 47.8095 13.1644C46.7867 13.9977 45.4813 14.4032 44.1663 14.296C43.5045 14.3668 42.8352 14.2945 42.2037 14.084C41.5722 13.8736 40.9933 13.5298 40.5063 13.076C40.0075 12.3443 39.7706 11.4656 39.8337 10.5823C39.753 9.65677 40.0107 8.73338 40.559 7.98336C41.2484 7.20442 42.4158 6.86863 44.1316 6.86863C45.2233 6.77824 46.3136 7.05861 47.2263 7.66442C47.514 7.89292 47.7291 8.20011 47.8453 8.54863H52.4211C52.3878 7.97439 52.2497 7.41108 52.0137 6.88652C50.9179 4.6581 48.3706 3.33178 44.039 3.33178C40.2716 3.33178 37.7432 4.48126 36.3463 6.21494C35.4238 7.4669 34.9502 8.9933 35.0021 10.5476C34.9424 12.137 35.4038 13.7024 36.3158 15.0055C37.6958 16.7949 40.1537 17.6749 43.1074 17.6749C45.0711 17.8119 47.0214 17.2619 48.6242 16.1192L48.7485 17.4623H52.5495V9.23915H43.3179V12.2276ZM63.3379 3.26126C57.22 3.26126 54.0011 6.16126 54.0011 10.4192C54.0011 15.2297 57.3779 17.6697 63.3379 17.6697C69.899 17.6697 72.6579 14.8402 72.6579 10.4192C72.6579 5.93284 69.5453 3.26231 63.3379 3.26231V3.26126ZM63.3211 6.86863C63.7267 6.86743 64.1319 6.89063 64.5348 6.9381L59.1969 12.2792C58.9512 11.7119 58.8316 11.0982 58.8463 10.4802C58.8421 8.30231 59.9432 6.86968 63.3211 6.86968V6.86863ZM63.3379 14.1192C62.9259 14.1209 62.5142 14.0969 62.1053 14.0476L67.4916 8.66021C67.745 9.23182 67.8662 9.85318 67.8463 10.4781C67.8484 12.5949 66.8421 14.1202 63.3379 14.1202V14.1192Z" fill="#161513"/>
<rect x="0.5" y="0.989258" width="159" height="19" stroke="#F0F2F5"/>
</svg>
