<svg width="160" height="31" viewBox="0 0 160 31" fill="none" xmlns="http://www.w3.org/2000/svg">
<g clip-path="url(#clip0_228_1871)">
<path d="M38.5656 1.76367H42.5602V23.5527H49.1333V27.1843H38.5656V1.76367Z" fill="#161513"/>
<path d="M56.6812 27.5473C54.7202 27.5473 53.2192 26.9905 52.1781 25.8768C51.1371 24.7631 50.6166 23.1895 50.6166 21.1558V7.79186C50.6166 5.75821 51.1371 4.18455 52.1781 3.07089C53.2192 1.95722 54.7202 1.40039 56.6812 1.40039C58.6422 1.40039 60.1432 1.95722 61.1843 3.07089C62.2253 4.18455 62.7458 5.75821 62.7458 7.79186V21.1558C62.7458 23.1895 62.2253 24.7631 61.1843 25.8768C60.1432 26.9905 58.6422 27.5473 56.6812 27.5473ZM56.6812 23.9158C58.0612 23.9158 58.7512 23.0805 58.7512 21.41V7.53765C58.7512 5.86715 58.0612 5.0319 56.6812 5.0319C55.3012 5.0319 54.6112 5.86715 54.6112 7.53765V21.41C54.6112 23.0805 55.3012 23.9158 56.6812 23.9158Z" fill="#161513"/>
<path d="M71.1124 27.5473C69.1756 27.5473 67.6988 27.0026 66.6819 25.9131C65.6651 24.7995 65.1567 23.2137 65.1567 21.1558V7.79186C65.1567 5.734 65.6651 4.16034 66.6819 3.07089C67.6988 1.95722 69.1756 1.40039 71.1124 1.40039C73.0492 1.40039 74.526 1.95722 75.5428 3.07089C76.5597 4.16034 77.0681 5.734 77.0681 7.79186V9.97076H73.2913V7.53765C73.2913 5.86715 72.6013 5.0319 71.2213 5.0319C69.8414 5.0319 69.1514 5.86715 69.1514 7.53765V21.4464C69.1514 23.0927 69.8414 23.9158 71.2213 23.9158C72.6013 23.9158 73.2913 23.0927 73.2913 21.4464V16.4712H71.294V12.8397H77.0681V21.1558C77.0681 23.2137 76.5597 24.7995 75.5428 25.9131C74.526 27.0026 73.0492 27.5473 71.1124 27.5473Z" fill="#161513"/>
<path d="M85.407 27.5473C83.446 27.5473 81.945 26.9905 80.904 25.8768C79.8629 24.7631 79.3424 23.1895 79.3424 21.1558V7.79186C79.3424 5.75821 79.8629 4.18455 80.904 3.07089C81.945 1.95722 83.446 1.40039 85.407 1.40039C87.3681 1.40039 88.8691 1.95722 89.9101 3.07089C90.9512 4.18455 91.4717 5.75821 91.4717 7.79186V21.1558C91.4717 23.1895 90.9512 24.7631 89.9101 25.8768C88.8691 26.9905 87.3681 27.5473 85.407 27.5473ZM85.407 23.9158C86.787 23.9158 87.477 23.0805 87.477 21.41V7.53765C87.477 5.86715 86.787 5.0319 85.407 5.0319C84.0271 5.0319 83.3371 5.86715 83.3371 7.53765V21.41C83.3371 23.0805 84.0271 23.9158 85.407 23.9158Z" fill="#161513"/>
<path d="M94.1808 1.76367H98.1755V27.1843H94.1808V1.76367Z" fill="#161513"/>
<path d="M101.167 1.76367H107.05C109.035 1.76367 110.524 2.29629 111.517 3.36154C112.51 4.42678 113.006 5.98833 113.006 8.04619V10.5519C113.006 12.6098 112.51 14.1713 111.517 15.2366C110.524 16.3018 109.035 16.8344 107.05 16.8344H105.162V27.1843H101.167V1.76367ZM107.05 13.2029C107.704 13.2029 108.188 13.0213 108.503 12.6582C108.842 12.295 109.011 11.6777 109.011 10.8061V7.79199C109.011 6.92042 108.842 6.30306 108.503 5.93991C108.188 5.57676 107.704 5.39519 107.05 5.39519H105.162V13.2029H107.05Z" fill="#161513"/>
<path d="M120.51 27.5473C118.574 27.5473 117.109 27.0026 116.116 25.9131C115.124 24.7995 114.627 23.2137 114.627 21.1558V19.7032H118.404V21.4464C118.404 23.0927 119.094 23.9158 120.474 23.9158C121.152 23.9158 121.66 23.7221 121.999 23.3348C122.362 22.9232 122.544 22.2695 122.544 21.3737C122.544 20.3085 122.302 19.3764 121.818 18.5775C121.334 17.7543 120.438 16.7738 119.13 15.6359C117.484 14.1833 116.334 12.876 115.68 11.7139C115.027 10.5276 114.7 9.19604 114.7 7.71923C114.7 5.70979 115.208 4.16034 116.225 3.07089C117.242 1.95722 118.719 1.40039 120.656 1.40039C122.568 1.40039 124.009 1.95722 124.977 3.07089C125.97 4.16034 126.466 5.734 126.466 7.79186V8.845H122.689V7.53765C122.689 6.66609 122.52 6.03662 122.181 5.64926C121.842 5.23769 121.346 5.0319 120.692 5.0319C119.36 5.0319 118.695 5.84294 118.695 7.46502C118.695 8.385 118.937 9.24446 119.421 10.0434C119.929 10.8423 120.837 11.8107 122.145 12.9486C123.815 14.4012 124.965 15.7207 125.595 16.907C126.224 18.0933 126.539 19.4853 126.539 21.0832C126.539 23.1653 126.018 24.7631 124.977 25.8768C123.96 26.9905 122.471 27.5473 120.51 27.5473Z" fill="#161513"/>
<path d="M134.64 27.5474C132.703 27.5474 131.226 27.0027 130.209 25.9132C129.192 24.7996 128.684 23.2138 128.684 21.1559V1.76367H132.679V21.4465C132.679 22.318 132.848 22.9475 133.187 23.3349C133.55 23.7222 134.059 23.9159 134.712 23.9159C135.366 23.9159 135.862 23.7222 136.201 23.3349C136.564 22.9475 136.746 22.318 136.746 21.4465V1.76367H140.595V21.1559C140.595 23.2138 140.087 24.7996 139.07 25.9132C138.053 27.0027 136.576 27.5474 134.64 27.5474Z" fill="#161513"/>
<path d="M143.44 1.76367H149.142L151.684 19.9575H151.756L154.299 1.76367H160V27.1843H156.223V7.93725H156.151L153.245 27.1843H149.904L146.999 7.93725H146.927V27.1843H143.44V1.76367Z" fill="#161513"/>
<path d="M0 27.1846C4.91448 27.1846 8.89841 23.2006 8.89841 18.2862C8.89841 13.3717 4.91448 9.3877 0 9.3877V15.6166C1.47433 15.6166 2.66951 16.8118 2.66951 18.2862C2.66951 19.7605 1.47433 20.9557 0 20.9557V27.1846Z" fill="#161513"/>
<path d="M29.6614 12.3539C28.1408 11.8722 26.5215 11.6123 24.8414 11.6123C16.0363 11.6123 8.89844 18.7503 8.89844 27.5553C8.89844 28.4391 8.97036 29.3061 9.10862 30.1507H19.0145C18.6609 29.3579 18.4643 28.4796 18.4643 27.5553C18.4643 24.0333 21.3194 21.1781 24.8414 21.1781C26.7664 21.1781 28.4921 22.031 29.6614 23.3795V12.3539Z" fill="#161513"/>
<path d="M1.56445 0.489258C2.30219 7.163 7.96024 12.3539 14.8306 12.3539C21.7009 12.3539 27.359 7.163 28.0967 0.489258H18.5512C17.9619 1.96656 16.5181 3.01047 14.8306 3.01047C13.143 3.01047 11.6993 1.96656 11.1099 0.489258H1.56445Z" fill="#161513"/>
</g>
<rect x="0.5" y="0.989258" width="159" height="29" stroke="#F0F2F5"/>
<defs>
<clipPath id="clip0_228_1871">
<rect y="0.489258" width="160" height="30" fill="white"/>
</clipPath>
</defs>
</svg>
