<svg width="160" height="33" viewBox="0 0 160 33" fill="none" xmlns="http://www.w3.org/2000/svg">
<g clip-path="url(#clip0_228_1844)">
<path d="M48.0728 24.7274V8.43945H51.1442V21.9352H58.5901V24.7274H48.0728Z" fill="#161513"/>
<path d="M65.2214 25.0531C64.0735 25.0531 63.0419 24.8204 62.1267 24.355C61.2114 23.8897 60.4901 23.2149 59.9627 22.3307C59.4353 21.4465 59.1716 20.3839 59.1716 19.1429V18.7706C59.1716 17.5296 59.4353 16.467 59.9627 15.5828C60.4901 14.6986 61.2114 14.0238 62.1267 13.5584C63.0419 13.0931 64.0735 12.8604 65.2214 12.8604C66.3693 12.8604 67.4009 13.0931 68.3161 13.5584C69.2313 14.0238 69.9526 14.6986 70.4801 15.5828C71.0075 16.467 71.2712 17.5296 71.2712 18.7706V19.1429C71.2712 20.3839 71.0075 21.4465 70.4801 22.3307C69.9526 23.2149 69.2313 23.8897 68.3161 24.355C67.4009 24.8204 66.3693 25.0531 65.2214 25.0531ZM65.2214 22.447C66.1211 22.447 66.8657 22.16 67.4552 21.5861C68.0446 20.9966 68.3394 20.1589 68.3394 19.0731V18.8404C68.3394 17.7545 68.0446 16.9246 67.4552 16.3506C66.8812 15.7612 66.1366 15.4664 65.2214 15.4664C64.3217 15.4664 63.5771 15.7612 62.9876 16.3506C62.3981 16.9246 62.1034 17.7545 62.1034 18.8404V19.0731C62.1034 20.1589 62.3981 20.9966 62.9876 21.5861C63.5771 22.16 64.3217 22.447 65.2214 22.447Z" fill="#161513"/>
<path d="M72.3721 19.0033V18.631C72.3721 17.421 72.6125 16.3894 73.0934 15.5362C73.5743 14.6676 74.2103 14.0083 75.0014 13.5584C75.8081 13.0931 76.6845 12.8604 77.6308 12.8604C78.6856 12.8604 79.4845 13.0465 80.0274 13.4188C80.5704 13.7911 80.9659 14.1789 81.2141 14.5822H81.633V13.1861H84.5183V26.7748C84.5183 27.566 84.2856 28.1943 83.8202 28.6596C83.3548 29.1406 82.7344 29.3809 81.9587 29.3809H74.2336V26.8215H80.9349C81.3693 26.8215 81.5864 26.5887 81.5864 26.1233V23.1218H81.1676C81.0125 23.37 80.7953 23.6258 80.5161 23.8897C80.2369 24.1377 79.8646 24.3473 79.3992 24.5179C78.9338 24.6885 78.3444 24.7739 77.6308 24.7739C76.6845 24.7739 75.8081 24.5489 75.0014 24.0991C74.2103 23.6336 73.5743 22.9744 73.0934 22.1212C72.6125 21.2526 72.3721 20.2132 72.3721 19.0033ZM78.4685 22.2143C79.3682 22.2143 80.1205 21.9273 80.7255 21.3534C81.3305 20.7794 81.633 19.9728 81.633 18.9335V18.7008C81.633 17.6459 81.3305 16.8393 80.7255 16.2808C80.136 15.7069 79.3837 15.4199 78.4685 15.4199C77.5687 15.4199 76.8164 15.7069 76.2114 16.2808C75.6064 16.8393 75.3039 17.6459 75.3039 18.7008V18.9335C75.3039 19.9728 75.6064 20.7794 76.2114 21.3534C76.8164 21.9273 77.5687 22.2143 78.4685 22.2143Z" fill="#161513"/>
<path d="M92.213 25.0531C91.0651 25.0531 90.0335 24.8204 89.1182 24.355C88.203 23.8897 87.4817 23.2149 86.9543 22.3307C86.4269 21.4465 86.1631 20.3839 86.1631 19.1429V18.7706C86.1631 17.5296 86.4269 16.467 86.9543 15.5828C87.4817 14.6986 88.203 14.0238 89.1182 13.5584C90.0335 13.0931 91.0651 12.8604 92.213 12.8604C93.3609 12.8604 94.3924 13.0931 95.3077 13.5584C96.2229 14.0238 96.9442 14.6986 97.4717 15.5828C97.9991 16.467 98.2628 17.5296 98.2628 18.7706V19.1429C98.2628 20.3839 97.9991 21.4465 97.4717 22.3307C96.9442 23.2149 96.2229 23.8897 95.3077 24.355C94.3924 24.8204 93.3609 25.0531 92.213 25.0531ZM92.213 22.447C93.1127 22.447 93.8573 22.16 94.4467 21.5861C95.0362 20.9966 95.3309 20.1589 95.3309 19.0731V18.8404C95.3309 17.7545 95.0362 16.9246 94.4467 16.3506C93.8728 15.7612 93.1282 15.4664 92.213 15.4664C91.3132 15.4664 90.5687 15.7612 89.9792 16.3506C89.3897 16.9246 89.095 17.7545 89.095 18.8404V19.0731C89.095 20.1589 89.3897 20.9966 89.9792 21.5861C90.5687 22.16 91.3132 22.447 92.213 22.447Z" fill="#161513"/>
<path d="M99.922 24.727V13.1858H102.854V24.727H99.922ZM101.388 11.8363C100.86 11.8363 100.411 11.6656 100.038 11.3243C99.6816 10.9831 99.5032 10.5332 99.5032 9.97476C99.5032 9.41632 99.6816 8.96646 100.038 8.62519C100.411 8.28392 100.86 8.11328 101.388 8.11328C101.931 8.11328 102.381 8.28392 102.737 8.62519C103.094 8.96646 103.273 9.41632 103.273 9.97476C103.273 10.5332 103.094 10.9831 102.737 11.3243C102.381 11.6656 101.931 11.8363 101.388 11.8363Z" fill="#161513"/>
<path d="M105.056 29.3809V13.1861H107.941V14.5822H108.36C108.623 14.1324 109.034 13.7368 109.593 13.3955C110.151 13.0388 110.95 12.8604 111.99 12.8604C112.92 12.8604 113.781 13.0931 114.572 13.5584C115.364 14.0083 116 14.6753 116.48 15.5595C116.961 16.4437 117.202 17.5141 117.202 18.7706V19.1429C117.202 20.3994 116.961 21.4697 116.48 22.3539C116 23.2381 115.364 23.9128 114.572 24.3783C113.781 24.828 112.92 25.0531 111.99 25.0531C111.292 25.0531 110.702 24.9677 110.221 24.7971C109.756 24.6419 109.376 24.4403 109.081 24.1921C108.802 23.9284 108.577 23.6647 108.406 23.401H107.987V29.3809H105.056ZM111.105 22.4935C112.021 22.4935 112.773 22.2066 113.362 21.6326C113.967 21.0431 114.27 20.19 114.27 19.0731V18.8404C114.27 17.7235 113.967 16.8781 113.362 16.3041C112.757 15.7146 112.005 15.4199 111.105 15.4199C110.206 15.4199 109.453 15.7146 108.848 16.3041C108.243 16.8781 107.941 17.7235 107.941 18.8404V19.0731C107.941 20.19 108.243 21.0431 108.848 21.6326C109.453 22.2066 110.206 22.4935 111.105 22.4935Z" fill="#161513"/>
<path d="M123.64 25.0531C122.135 25.0531 120.902 24.7273 119.94 24.0758C118.979 23.4243 118.397 22.4935 118.195 21.2836L120.894 20.5855C121.003 21.1285 121.181 21.555 121.43 21.8653C121.693 22.1755 122.011 22.4005 122.384 22.5401C122.771 22.6642 123.19 22.7262 123.64 22.7262C124.323 22.7262 124.827 22.6099 125.152 22.3772C125.478 22.129 125.641 21.8265 125.641 21.4697C125.641 21.1129 125.486 20.8415 125.176 20.6553C124.865 20.4537 124.369 20.2908 123.687 20.1667L123.035 20.0503C122.228 19.8952 121.492 19.6858 120.825 19.4221C120.157 19.1429 119.622 18.7628 119.219 18.2819C118.816 17.8011 118.614 17.1806 118.614 16.4205C118.614 15.2725 119.033 14.3961 119.871 13.7911C120.708 13.1706 121.81 12.8604 123.175 12.8604C124.462 12.8604 125.533 13.1473 126.386 13.7213C127.239 14.2953 127.797 15.0476 128.061 15.9784L125.339 16.816C125.215 16.2266 124.959 15.8077 124.571 15.5595C124.198 15.3113 123.733 15.1872 123.175 15.1872C122.616 15.1872 122.19 15.2881 121.895 15.4897C121.6 15.6759 121.453 15.9396 121.453 16.2808C121.453 16.6531 121.608 16.9324 121.918 17.1185C122.228 17.2891 122.647 17.421 123.175 17.5141L123.826 17.6304C124.695 17.7855 125.478 17.995 126.176 18.2587C126.89 18.5069 127.448 18.8714 127.852 19.3523C128.27 19.8177 128.48 20.4537 128.48 21.2603C128.48 22.4703 128.038 23.4088 127.154 24.0758C126.285 24.7273 125.114 25.0531 123.64 25.0531Z" fill="#161513"/>
<path d="M134.4 24.9139C133.5 24.9139 132.709 24.7122 132.026 24.3089C131.359 23.8901 130.84 23.3161 130.467 22.587C130.095 21.8579 129.909 21.0203 129.909 20.074V13.1865H132.841V19.8413C132.841 20.71 133.05 21.3615 133.469 21.7959C133.903 22.2302 134.516 22.4474 135.307 22.4474C136.207 22.4474 136.905 22.1527 137.401 21.5632C137.898 20.9582 138.146 20.1205 138.146 19.0502V13.1865H141.078V24.7277H138.192V23.2153H137.774C137.588 23.6031 137.238 23.9831 136.727 24.3554C136.215 24.7277 135.439 24.9139 134.4 24.9139Z" fill="#161513"/>
<path d="M143.293 24.7273V13.1861H146.178V14.4426H146.597C146.799 14.0548 147.133 13.7213 147.598 13.4421C148.063 13.1473 148.676 13 149.436 13C150.258 13 150.918 13.1629 151.414 13.4886C151.91 13.7989 152.29 14.2099 152.554 14.7219H152.973C153.237 14.2255 153.609 13.8144 154.09 13.4886C154.571 13.1629 155.253 13 156.137 13C156.851 13 157.495 13.1551 158.069 13.4654C158.658 13.7601 159.124 14.2177 159.465 14.8382C159.822 15.4432 160 16.211 160 17.1418V24.7273H157.068V17.3512C157.068 16.7152 156.905 16.2421 156.58 15.9318C156.254 15.6061 155.796 15.4432 155.207 15.4432C154.54 15.4432 154.02 15.6603 153.648 16.0947C153.291 16.5135 153.113 17.1185 153.113 17.9096V24.7273H150.181V17.3512C150.181 16.7152 150.018 16.2421 149.692 15.9318C149.366 15.6061 148.909 15.4432 148.319 15.4432C147.652 15.4432 147.132 15.6603 146.76 16.0947C146.403 16.5135 146.225 17.1185 146.225 17.9096V24.7273H143.293Z" fill="#161513"/>
<path d="M38.781 16.002C38.781 11.8878 37.1466 7.94201 34.2374 5.03282C31.3282 2.12363 27.3825 0.489258 23.2683 0.489258C19.1541 0.489257 15.2084 2.12363 12.2992 5.03282C9.38999 7.94201 7.75562 11.8878 7.75562 16.002H12.6034C14.2098 16.002 15.4626 14.6558 16.051 13.161C16.4373 12.1796 17.0235 11.2777 17.7837 10.5174C19.2383 9.06278 21.2112 8.2456 23.2683 8.2456C25.3254 8.2456 27.2983 9.06278 28.7529 10.5174C30.2075 11.972 31.0246 13.9449 31.0246 16.002H38.781Z" fill="white"/>
<path d="M29.8444 21.9384C30.624 20.0563 31.0253 18.0391 31.0253 16.002H38.7808C38.7808 24.5694 31.8355 31.5146 23.2681 31.5146C21.9264 31.5146 20.6244 31.3443 19.3828 31.0241C20.0853 30.8431 20.7758 30.6126 21.449 30.3338C23.3311 29.5542 25.0412 28.4116 26.4817 26.9711C27.9222 25.5306 29.0649 23.8205 29.8444 21.9384Z" fill="#161513"/>
<path d="M0 16.002C-2.91433e-07 18.0392 0.401247 20.0564 1.18083 21.9385C1.96042 23.8206 3.10307 25.5307 4.54356 26.9712C5.98404 28.4116 7.69415 29.5543 9.57623 30.3339C11.4583 31.1135 13.4755 31.5147 15.5127 31.5147C17.5498 31.5147 19.567 31.1135 21.4491 30.3339C23.3312 29.5543 25.0413 28.4116 26.4818 26.9712C27.9223 25.5307 29.0649 23.8206 29.8445 21.9385C30.6241 20.0564 31.0254 18.0392 31.0254 16.002H26.1776C24.5712 16.002 23.3184 17.3482 22.73 18.8429C22.7133 18.8855 22.6961 18.9279 22.6786 18.9703C22.2888 19.9113 21.7175 20.7664 20.9972 21.4866C20.277 22.2068 19.4219 22.7782 18.4809 23.168C17.5399 23.5578 16.5313 23.7584 15.5127 23.7584C14.4941 23.7584 13.4855 23.5578 12.5445 23.168C11.6034 22.7782 10.7484 22.2068 10.0281 21.4866C9.30787 20.7664 8.73655 19.9113 8.34676 18.9703C7.95696 18.0292 7.75634 17.0206 7.75634 16.002H0Z" fill="white"/>
<path d="M0.00146484 16.002C0.00146484 7.4345 6.94671 0.489258 15.5141 0.489258C16.8555 0.489258 18.1571 0.659504 19.3986 0.979581C16.7347 1.66583 14.2773 3.05461 12.299 5.03283C9.3898 7.94199 7.75545 11.8878 7.75545 16.002H0.00146484Z" fill="#161513"/>
</g>
<rect x="0.5" y="0.989258" width="159" height="31" stroke="#F0F2F5"/>
<defs>
<clipPath id="clip0_228_1844">
<rect y="0.489258" width="160" height="32" fill="white"/>
</clipPath>
</defs>
</svg>
