<svg width="160" height="43" viewBox="0 0 160 43" fill="none" xmlns="http://www.w3.org/2000/svg">
<path d="M29.654 18.2275C32.7343 18.2275 33.4273 19.5655 33.4273 21.2342C33.4273 23.003 32.589 24.2702 29.6668 24.2702C26.7632 24.2702 25.924 23.0766 25.924 21.2342C25.924 19.4212 26.8388 18.2275 29.654 18.2275Z" fill="#161513"/>
<path d="M61.8444 18.2275C64.9247 18.2275 65.6177 19.5655 65.6177 21.2342C65.6177 23.003 64.7784 24.2702 61.8572 24.2702C58.9546 24.2702 58.1144 23.0766 58.1144 21.2342C58.1144 19.4212 59.0292 18.2275 61.8444 18.2275Z" fill="#161513"/>
<path fill-rule="evenodd" clip-rule="evenodd" d="M2.38208 38.6267V3.82617H158.042V38.6267H2.38208ZM76.5691 36.6635H156.079V5.78936H76.5691V36.6635ZM29.6687 27.2333C35.1372 27.2333 37.4361 24.8745 37.4361 21.1906C37.4361 17.4468 34.8466 15.2215 29.6687 15.2215C24.5703 15.2215 21.8866 17.6382 21.8866 21.1906C21.8866 25.1994 24.7018 27.2333 29.6687 27.2333ZM10.6562 15.4865V27.0566H21.6932V23.9754H14.6493V15.4865H10.6562ZM49.7885 27.0566L49.6854 25.9356C48.3495 26.8889 46.7236 27.3477 45.0866 27.2333C42.6258 27.2333 40.5762 26.4961 39.4267 25.008C38.6685 23.9216 38.2857 22.6174 38.3362 21.2937C38.2931 19.9977 38.6892 18.7251 39.4601 17.6824C40.6233 16.2384 42.7318 15.2804 45.8709 15.2804C49.4822 15.2804 51.6044 16.3857 52.5173 18.2429C52.7132 18.6803 52.8284 19.1495 52.8569 19.6279H49.0366C48.9403 19.3371 48.7611 19.0809 48.5212 18.8907C47.7602 18.3862 46.8514 18.1528 45.9416 18.2281C45.4079 18.1634 44.8664 18.2127 44.3533 18.3728C43.8401 18.5329 43.3667 18.8001 42.9644 19.1567C42.5076 19.782 42.2931 20.5518 42.3607 21.3231C42.3077 22.059 42.5049 22.7913 42.9202 23.4011C43.3261 23.7794 43.8087 24.0658 44.335 24.2413C44.8614 24.4167 45.4193 24.4771 45.971 24.4181C47.0668 24.5072 48.1547 24.1692 49.0071 23.4748C49.1902 23.2458 49.3164 22.9767 49.3752 22.6895H45.2643V20.2031H52.957V27.0566H49.7885ZM61.8591 27.2333C67.3266 27.2333 69.6265 24.8745 69.6265 21.1906C69.6265 17.4468 67.033 15.2215 61.8591 15.2215C56.7607 15.2215 54.077 17.6382 54.077 21.1906C54.077 25.1994 56.8923 27.2333 61.8591 27.2333Z" fill="#161513"/>
<path d="M83.2952 27.0124V15.4424H86.1418V27.0124H83.2952Z" fill="#161513"/>
<path d="M100.76 22.1773C100.038 23.1207 98.7966 23.5516 97.0464 23.5624C96.6773 23.5624 91.7841 23.5476 91.7841 23.5476V27.0117H88.9983V15.4416H97.0474C97.6925 15.3734 98.345 15.4418 98.9615 15.6424C99.5789 15.843 100.146 16.1713 100.628 16.6058C101.264 17.4345 101.574 18.4677 101.498 19.5094C101.563 20.4568 101.303 21.398 100.76 22.1773ZM98.4756 18.4051C98.1811 17.9634 97.546 17.718 96.4712 17.718H91.7693V21.2399H96.4407C97.5902 21.2399 98.1958 21.0043 98.4756 20.5469C98.6415 20.2247 98.7131 19.8618 98.6817 19.5005C98.7063 19.1238 98.6356 18.747 98.4756 18.4051Z" fill="#161513"/>
<path d="M109.707 27.1891C104.459 27.1891 102.854 25.2259 102.854 23.2833H105.831C105.831 24.2413 107.142 24.9638 109.84 24.9638C112.521 24.9638 113.229 24.4916 113.229 23.725C113.229 22.87 112.699 22.605 110.208 22.3253C109.717 22.2811 108.381 22.1191 107.879 22.0455C104.346 21.647 102.985 20.6006 102.985 18.7287C102.985 16.7537 104.976 15.2656 109.294 15.2656C113.981 15.2656 115.779 17.1081 115.779 19.0242H112.834C112.834 18.0514 111.729 17.4909 109.12 17.4909C106.437 17.4909 105.863 17.859 105.863 18.5815C105.863 19.3334 106.452 19.5689 109.299 19.9076C109.948 19.9969 111.391 20.1589 111.789 20.2021C114.797 20.5113 116.152 21.6018 116.152 23.5326C116.147 25.8325 114.084 27.1891 109.707 27.1891Z" fill="#161513"/>
<path d="M124.535 27.1744C120.689 27.1744 118.183 25.6559 118.183 22.4628V15.4424H120.997V22.502C120.997 23.9616 122.192 24.9334 124.653 24.9334C126.878 24.9334 128.205 24.0205 128.205 22.502V15.4424H130.991V22.7248C130.991 25.6274 128.662 27.1744 124.535 27.1744Z" fill="#161513"/>
<path d="M146.245 27.0124V19.2893L142.634 27.0124H139.893L136.385 19.2893V27.0124H133.734V15.4424H137.325L141.305 24.2561L145.372 15.4424H148.906V27.0124H146.245Z" fill="#161513"/>
<rect x="0.5" y="1.33496" width="159" height="40.227" stroke="#F0F2F5"/>
</svg>
