<svg width="160" height="41" viewBox="0 0 160 41" fill="none" xmlns="http://www.w3.org/2000/svg">
<path d="M46.5923 28.4349H58.0433V24.9858H50.6622V11.9941H46.5923V28.4349Z" fill="#161513"/>
<path d="M64.8277 26.1363C63.1951 26.1363 62.3443 24.7106 62.3443 22.5722C62.3443 20.4338 63.1951 18.9851 64.8277 18.9851C66.4602 18.9851 67.334 20.4338 67.334 22.5722C67.334 24.7106 66.4602 26.1363 64.8277 26.1363ZM64.8506 28.8036C68.6447 28.8036 71.128 26.1133 71.128 22.5722C71.128 19.0311 68.6447 16.3408 64.8506 16.3408C61.0796 16.3408 58.5503 19.0311 58.5503 22.5722C58.5503 26.1133 61.0796 28.8036 64.8506 28.8036Z" fill="#161513"/>
<path d="M77.6952 32.5052C79.4427 32.5052 80.9833 32.1143 82.018 31.1945C82.9608 30.3437 83.5816 29.0561 83.5816 27.2855V16.6623H79.9946V17.927H79.9486C79.2588 16.9382 78.201 16.3174 76.6374 16.3174C73.7172 16.3174 71.6937 18.7547 71.6937 22.2039C71.6937 25.8139 74.1541 27.7914 76.7984 27.7914C78.224 27.7914 79.1208 27.2165 79.8106 26.4347H79.9026V27.6074C79.9026 29.0331 79.2358 29.8609 77.6492 29.8609C76.4075 29.8609 75.7867 29.332 75.5797 28.7112H71.9467C72.3146 31.1715 74.453 32.5052 77.6952 32.5052ZM77.6722 25.0091C76.2695 25.0091 75.3498 23.8594 75.3498 22.0889C75.3498 20.2953 76.2695 19.1456 77.6722 19.1456C79.2358 19.1456 80.0635 20.4793 80.0635 22.0659C80.0635 23.7215 79.3047 25.0091 77.6722 25.0091Z" fill="#161513"/>
<path d="M90.9573 26.1363C89.3247 26.1363 88.4739 24.7106 88.4739 22.5722C88.4739 20.4338 89.3247 18.9851 90.9573 18.9851C92.5899 18.9851 93.4636 20.4338 93.4636 22.5722C93.4636 24.7106 92.5899 26.1363 90.9573 26.1363ZM90.9803 28.8036C94.7743 28.8036 97.2579 26.1133 97.2579 22.5722C97.2579 19.0311 94.7743 16.3408 90.9803 16.3408C87.2093 16.3408 84.6799 19.0311 84.6799 22.5722C84.6799 26.1133 87.2093 28.8036 90.9803 28.8036Z" fill="#161513"/>
<path d="M98.3521 28.4349H102.1V16.6619H98.3521V28.4349ZM98.3521 15.0294H102.1V11.9941H98.3521V15.0294Z" fill="#161513"/>
<path d="M103.726 32.3212H107.474V27.2165H107.52C108.256 28.2053 109.336 28.8031 110.854 28.8031C113.935 28.8031 115.982 26.3658 115.982 22.5488C115.982 19.0077 114.073 16.3174 110.946 16.3174C109.336 16.3174 108.187 17.0302 107.382 18.0879H107.313V16.6623H103.726V32.3212ZM109.888 25.9059C108.279 25.9059 107.359 24.5952 107.359 22.6867C107.359 20.7782 108.187 19.3296 109.819 19.3296C111.429 19.3296 112.188 20.6633 112.188 22.6867C112.188 24.6872 111.314 25.9059 109.888 25.9059Z" fill="#161513"/>
<path d="M122.085 28.8031C125.166 28.8031 127.442 27.4695 127.442 24.8942C127.442 21.8819 125.005 21.3531 122.936 21.0082C121.441 20.7322 120.107 20.6173 120.107 19.7895C120.107 19.0537 120.82 18.7088 121.74 18.7088C122.775 18.7088 123.487 19.0307 123.625 20.0884H127.074C126.891 17.766 125.097 16.3174 121.763 16.3174C118.981 16.3174 116.681 17.605 116.681 20.0884C116.681 22.8477 118.866 23.3995 120.912 23.7444C122.476 24.0204 123.901 24.1353 123.901 25.1931C123.901 25.9519 123.188 26.3658 122.062 26.3658C120.82 26.3658 120.038 25.7909 119.9 24.6182H116.359C116.474 27.2165 118.636 28.8031 122.085 28.8031Z" fill="#161513"/>
<path d="M132.533 28.78C134.165 28.78 135.2 28.1361 136.051 26.9864H136.12V28.435H139.707V16.6621H135.959V23.2384C135.959 24.641 135.177 25.6068 133.889 25.6068C132.694 25.6068 132.119 24.894 132.119 23.6063V16.6621H128.394V24.3881C128.394 27.0094 129.819 28.78 132.533 28.78Z" fill="#161513"/>
<path d="M141.338 28.4352H145.086V21.8359C145.086 20.4333 145.775 19.4446 146.948 19.4446C148.075 19.4446 148.604 20.1804 148.604 21.445V28.4352H152.352V21.8359C152.352 20.4333 153.018 19.4446 154.214 19.4446C155.341 19.4446 155.87 20.1804 155.87 21.445V28.4352H159.618V20.7782C159.618 18.1339 158.284 16.3174 155.617 16.3174C154.099 16.3174 152.835 16.9612 151.915 18.3868H151.869C151.271 17.1222 150.098 16.3174 148.558 16.3174C146.856 16.3174 145.729 17.1222 144.994 18.3409H144.925V16.6623H141.338V28.4352Z" fill="#161513"/>
<path fill-rule="evenodd" clip-rule="evenodd" d="M8.2914 4.57694C6.92071 5.53537 5.68124 6.66854 4.60526 7.94415C9.00219 7.53594 14.5883 8.2025 21.0738 11.4453C27.9994 14.908 33.5762 15.025 37.4574 14.2764C37.1052 13.2101 36.6618 12.1854 36.1367 11.2112C31.6938 11.6798 25.998 11.0595 19.36 7.74064C15.1448 5.63304 11.4292 4.76486 8.2914 4.57694ZM33.5413 7.51709C30.0327 3.59694 24.9339 1.12988 19.2588 1.12988C17.5922 1.12988 15.9752 1.34268 14.4336 1.74256C16.5215 2.31224 18.7394 3.14568 21.0738 4.31289C25.9338 6.74284 30.1296 7.52524 33.5413 7.51709ZM38.2872 18.0191C33.5984 18.9449 27.1235 18.7548 19.36 14.873C12.1019 11.244 6.32513 11.2897 2.42905 12.1555C2.22795 12.2001 2.03158 12.2471 1.83995 12.2959C1.32986 13.4053 0.922686 14.5719 0.630535 15.7833C0.942568 15.6999 1.26501 15.6207 1.59768 15.5467C6.3243 14.4964 13.0026 14.542 21.0738 18.5776C28.332 22.2066 34.1087 22.1609 38.0049 21.2951C38.1383 21.2655 38.2699 21.2349 38.3992 21.2032C38.4134 20.9012 38.4205 20.5972 38.4205 20.2915C38.4205 19.5227 38.3753 18.7644 38.2872 18.0191ZM37.7736 25.247C33.1302 26.0588 26.844 25.7472 19.36 22.0054C12.1019 18.3763 6.32513 18.422 2.42905 19.2878C1.56423 19.4799 0.786259 19.714 0.0999752 19.9611C0.098104 20.071 0.097168 20.1812 0.097168 20.2915C0.097168 30.8742 8.67613 39.4532 19.2588 39.4532C28.1279 39.4532 35.5896 33.4277 37.7736 25.247Z" fill="#161513"/>
<rect x="0.5" y="1.34863" width="159" height="38.2814" stroke="#F0F2F5"/>
</svg>
