<svg width="160" height="37" viewBox="0 0 160 37" fill="none" xmlns="http://www.w3.org/2000/svg">
<path d="M46.8669 24.3616C46.8669 25.1327 46.7085 25.7252 46.3919 26.1392C46.0836 26.5532 45.5682 26.7601 44.8458 26.7601C44.1639 26.7601 43.681 26.5532 43.3968 26.1392C43.1209 25.7252 42.9829 25.1327 42.9829 24.3616V11.4923C42.9829 10.7212 43.1209 10.1287 43.3968 9.7147C43.681 9.30073 44.1639 9.09375 44.8458 9.09375C45.5682 9.09375 46.0836 9.30073 46.3919 9.7147C46.7085 10.1287 46.8669 10.7212 46.8669 11.4923V24.3616Z" fill="#161513"/>
<path d="M48.0459 20.6236C48.0459 19.7632 48.1839 18.9515 48.4599 18.1885C48.744 17.4174 49.166 16.7438 49.7261 16.1674C50.2943 15.5911 51.0005 15.1325 51.8447 14.7916C52.6969 14.4507 53.6952 14.2803 54.8398 14.2803C55.9356 14.2803 56.9055 14.4385 57.7497 14.7551C58.5938 15.0716 59.3041 15.514 59.8803 16.0822C60.4566 16.6422 60.8949 17.3119 61.1953 18.0911C61.4956 18.8622 61.6458 19.7064 61.6458 20.6236C61.6458 21.4759 61.5037 22.2835 61.2196 23.0465C60.9356 23.8013 60.5094 24.467 59.9412 25.0433C59.3731 25.6114 58.6628 26.0659 57.8106 26.4069C56.9582 26.7397 55.968 26.906 54.8398 26.906C53.7278 26.906 52.7456 26.7478 51.8933 26.4312C51.0491 26.1066 50.339 25.6642 49.7627 25.1041C49.1945 24.536 48.7642 23.8704 48.4721 23.1074C48.1879 22.3363 48.0459 21.5083 48.0459 20.6236ZM52.1003 20.6236C52.1003 21.1593 52.149 21.6707 52.2464 22.1577C52.3438 22.6365 52.4981 23.0587 52.7091 23.424C52.9282 23.7892 53.2123 24.0814 53.5613 24.3005C53.9104 24.5115 54.3365 24.6171 54.8398 24.6171C55.3024 24.6171 55.7042 24.5198 56.0451 24.3248C56.3942 24.1301 56.6782 23.8581 56.8974 23.5092C57.1247 23.1602 57.2951 22.7421 57.4087 22.2551C57.5224 21.76 57.5792 21.2162 57.5792 20.6236C57.5792 20.0879 57.5264 19.5805 57.421 19.1017C57.3235 18.6147 57.1653 18.1885 56.9461 17.8232C56.7269 17.4499 56.4429 17.1577 56.0938 16.9467C55.7529 16.7275 55.3348 16.6179 54.8398 16.6179C54.3446 16.6179 53.9226 16.7234 53.5735 16.9345C53.2245 17.1455 52.9404 17.4336 52.7212 17.7989C52.5021 18.1642 52.3438 18.5903 52.2464 19.0774C52.149 19.5643 52.1003 20.0798 52.1003 20.6236Z" fill="#161513"/>
<path d="M71.6398 24.4102C71.4206 24.8161 71.1528 25.161 70.8362 25.4452C70.5278 25.7292 70.1828 25.9646 69.8014 26.1513C69.428 26.3298 69.0262 26.4638 68.596 26.5531C68.1739 26.6342 67.7397 26.6749 67.2932 26.6749C66.5464 26.6749 65.8647 26.5409 65.2477 26.273C64.6309 26.0052 64.0993 25.6196 63.6528 25.1164C63.2145 24.6051 62.8736 23.98 62.6301 23.2414C62.3865 22.5027 62.2648 21.6586 62.2648 20.7089C62.2648 19.8161 62.3784 18.98 62.6058 18.2008C62.833 17.4216 63.1617 16.7439 63.5919 16.1675C64.0303 15.5912 64.566 15.1367 65.1991 14.8039C65.8321 14.4711 66.5546 14.3047 67.3663 14.3047C68.2916 14.3047 69.1114 14.4833 69.8257 14.8404C70.5481 15.1976 71.1691 15.782 71.6886 16.5936V16.2772C71.6886 15.6927 71.8468 15.2544 72.1634 14.9621C72.488 14.6619 72.9345 14.5116 73.5027 14.5116C73.8436 14.5116 74.1317 14.5685 74.3671 14.6821C74.6024 14.7877 74.7891 14.95 74.9271 15.1692C75.0652 15.3802 75.1625 15.644 75.2194 15.9606C75.2843 16.2689 75.3167 16.6221 75.3167 17.0198V25.1773C75.3167 26.1675 75.191 27.0522 74.9394 27.8314C74.6958 28.6107 74.3143 29.2682 73.7948 29.8039C73.2754 30.3396 72.6098 30.7454 71.7981 31.0215C70.9864 31.3055 70.0205 31.4475 68.9004 31.4475C68.1131 31.4475 67.415 31.4111 66.8062 31.3379C66.2056 31.2731 65.6861 31.1716 65.2477 31.0336C64.8095 30.8793 64.4767 30.7089 64.2494 30.5222C64.0303 30.3355 63.9207 30.092 63.9207 29.7918C63.9207 29.6213 63.945 29.459 63.9937 29.3047C64.0424 29.1505 64.1155 29.0125 64.2128 28.8908C64.3184 28.7771 64.4523 28.6838 64.6147 28.6107C64.7851 28.5458 64.992 28.5133 65.2356 28.5133C65.4953 28.5133 65.7551 28.5295 66.0148 28.562C66.2826 28.5945 66.5587 28.627 66.8427 28.6594C67.1349 28.7 67.4393 28.7365 67.7559 28.769C68.0806 28.8014 68.4296 28.8177 68.803 28.8177C69.2494 28.8177 69.6471 28.7731 69.9962 28.6838C70.3452 28.5945 70.6414 28.4362 70.8849 28.2089C71.1285 27.9817 71.3152 27.6773 71.445 27.2958C71.5749 26.9224 71.6398 26.4435 71.6398 25.8591V24.4102ZM71.6398 20.6238C71.6398 20.0311 71.5952 19.4914 71.5059 19.0044C71.4248 18.5174 71.2826 18.1034 71.0797 17.7625C70.8768 17.4135 70.6049 17.1456 70.264 16.9589C69.9231 16.7641 69.497 16.6668 68.9856 16.6668C68.4823 16.6668 68.0644 16.7682 67.7316 16.9711C67.4069 17.174 67.1472 17.4541 66.9524 17.8112C66.7575 18.1684 66.6196 18.5863 66.5383 19.0653C66.4653 19.5442 66.4288 20.0555 66.4288 20.5993C66.4288 21.8412 66.6479 22.7747 67.0863 23.3996C67.5245 24.0247 68.1617 24.3372 68.9978 24.3372C69.3874 24.3291 69.7405 24.256 70.057 24.118C70.3817 23.9719 70.6618 23.7487 70.8971 23.4484C71.1325 23.148 71.3152 22.7665 71.445 22.3039C71.5749 21.8412 71.6398 21.2812 71.6398 20.6238Z" fill="#161513"/>
<path d="M76.4349 20.6236C76.4349 19.7632 76.5729 18.9515 76.8489 18.1885C77.133 17.4174 77.555 16.7438 78.1151 16.1674C78.6833 15.5911 79.3894 15.1325 80.2336 14.7916C81.0859 14.4507 82.0843 14.2803 83.2288 14.2803C84.3245 14.2803 85.2945 14.4385 86.1386 14.7551C86.9828 15.0716 87.693 15.514 88.2693 16.0822C88.8456 16.6422 89.284 17.3119 89.5842 18.0911C89.8846 18.8622 90.0347 19.7064 90.0347 20.6236C90.0347 21.4759 89.8927 22.2835 89.6086 23.0465C89.3245 23.8013 88.8984 24.467 88.3302 25.0433C87.762 25.6114 87.0518 26.0659 86.1995 26.4069C85.3472 26.7397 84.357 26.906 83.2288 26.906C82.1167 26.906 81.1346 26.7478 80.2823 26.4312C79.4382 26.1066 78.7279 25.6642 78.1516 25.1041C77.5835 24.536 77.1533 23.8704 76.861 23.1074C76.577 22.3363 76.4349 21.5083 76.4349 20.6236ZM80.4893 20.6236C80.4893 21.1593 80.538 21.6707 80.6355 22.1577C80.7328 22.6365 80.887 23.0587 81.0981 23.424C81.3172 23.7892 81.6013 24.0814 81.9504 24.3005C82.2993 24.5115 82.7255 24.6171 83.2288 24.6171C83.6914 24.6171 84.0932 24.5198 84.4341 24.3248C84.7831 24.1301 85.0672 23.8581 85.2864 23.5092C85.5137 23.1602 85.6841 22.7421 85.7977 22.2551C85.9114 21.76 85.9682 21.2162 85.9682 20.6236C85.9682 20.0879 85.9155 19.5805 85.8099 19.1017C85.7125 18.6147 85.5542 18.1885 85.3351 17.8232C85.116 17.4499 84.8318 17.1577 84.4828 16.9467C84.1419 16.7275 83.7239 16.6179 83.2288 16.6179C82.7336 16.6179 82.3115 16.7234 81.9625 16.9345C81.6135 17.1455 81.3294 17.4336 81.1103 17.7989C80.8911 18.1642 80.7328 18.5903 80.6355 19.0774C80.538 19.5643 80.4893 20.0798 80.4893 20.6236Z" fill="#161513"/>
<path d="M95.256 10.1774C95.256 10.4453 95.1952 10.6847 95.0734 10.8957C94.9516 11.0987 94.7934 11.2691 94.5986 11.4071C94.4038 11.5451 94.1764 11.6506 93.9167 11.7236C93.6652 11.7885 93.4054 11.8211 93.1375 11.8211C92.8534 11.8211 92.5815 11.7845 92.3218 11.7115C92.0702 11.6384 91.847 11.533 91.6522 11.3949C91.4574 11.2488 91.3031 11.0743 91.1894 10.8714C91.0759 10.6685 91.019 10.4371 91.019 10.1774C91.019 9.942 91.0718 9.72691 91.1773 9.5321C91.2909 9.32918 91.4411 9.15467 91.6278 9.00856C91.8145 8.86246 92.0378 8.74882 92.2975 8.66765C92.5572 8.58648 92.8413 8.5459 93.1497 8.5459C93.4176 8.5459 93.6773 8.58243 93.929 8.65548C94.1887 8.72853 94.4159 8.83404 94.6107 8.97204C94.8055 9.11002 94.9598 9.28048 95.0734 9.48339C95.1952 9.68632 95.256 9.91765 95.256 10.1774ZM95.0734 24.3616C95.0734 25.1328 94.9152 25.7253 94.5986 26.1392C94.2901 26.5532 93.7747 26.7602 93.0523 26.7602C92.3705 26.7602 91.8875 26.5532 91.6035 26.1392C91.3275 25.7253 91.1894 25.1328 91.1894 24.3616V16.9103C91.1894 16.1392 91.3275 15.5467 91.6035 15.1328C91.8875 14.7188 92.3705 14.5118 93.0523 14.5118C93.7747 14.5118 94.2901 14.7188 94.5986 15.1328C94.9152 15.5467 95.0734 16.1392 95.0734 16.9103V24.3616Z" fill="#161513"/>
<path d="M100.672 20.5993C100.672 21.1432 100.713 21.6505 100.794 22.1213C100.883 22.5921 101.029 23.006 101.232 23.3632C101.443 23.7122 101.719 23.9881 102.06 24.191C102.409 24.394 102.839 24.4954 103.351 24.4954C103.821 24.4954 104.215 24.3981 104.532 24.2033C104.856 24.0004 105.116 23.7243 105.311 23.3753C105.505 23.0181 105.644 22.6002 105.725 22.1213C105.814 21.6424 105.859 21.1229 105.859 20.5629C105.859 20.1164 105.826 19.6619 105.761 19.1992C105.697 18.7284 105.575 18.3023 105.396 17.9208C105.218 17.5393 104.97 17.2268 104.654 16.9832C104.337 16.7398 103.923 16.618 103.412 16.618C102.9 16.618 102.466 16.6992 102.109 16.8616C101.76 17.0239 101.476 17.2714 101.257 17.6042C101.045 17.937 100.895 18.3551 100.806 18.8582C100.717 19.3534 100.672 19.9338 100.672 20.5993ZM100.66 16.9102C100.863 16.4801 101.123 16.1026 101.439 15.7779C101.756 15.4533 102.105 15.1814 102.486 14.9621C102.868 14.743 103.265 14.5806 103.679 14.4752C104.102 14.3615 104.519 14.3047 104.933 14.3047C105.68 14.3047 106.354 14.4711 106.955 14.8039C107.555 15.1367 108.066 15.5912 108.488 16.1675C108.918 16.7358 109.248 17.4094 109.475 18.1886C109.702 18.9598 109.816 19.7877 109.816 20.6724C109.816 21.5896 109.694 22.4297 109.45 23.1927C109.216 23.9557 108.878 24.6132 108.439 25.1651C108.009 25.7089 107.49 26.135 106.881 26.4435C106.281 26.752 105.611 26.9061 104.873 26.9061C103.964 26.9061 103.152 26.6951 102.438 26.273C101.723 25.851 101.131 25.2585 100.66 24.4954V28.8786C100.66 29.6496 100.502 30.2422 100.185 30.6562C99.8766 31.0701 99.3612 31.2772 98.6388 31.2772C97.957 31.2772 97.474 31.0701 97.1899 30.6562C96.914 30.2422 96.776 29.6496 96.776 28.8786V16.9102C96.776 16.1391 96.914 15.5466 97.1899 15.1326C97.474 14.7187 97.957 14.5116 98.6388 14.5116C99.3612 14.5116 99.8766 14.7187 100.185 15.1326C100.502 15.5466 100.66 16.1391 100.66 16.9102Z" fill="#161513"/>
<path d="M114.1 17.7746C114.1 18.0911 114.238 18.3387 114.513 18.5173C114.79 18.6878 115.171 18.8298 115.658 18.9434C116.121 19.0489 116.595 19.1504 117.083 19.2478C117.57 19.3452 118.045 19.4589 118.507 19.5887C118.969 19.7104 119.404 19.8566 119.81 20.027C120.215 20.1975 120.573 20.4125 120.881 20.6723C121.19 20.9239 121.433 21.2324 121.611 21.5976C121.79 21.9548 121.88 22.385 121.88 22.8882C121.88 23.5213 121.75 24.0855 121.49 24.5805C121.23 25.0676 120.861 25.4815 120.382 25.8225C119.912 26.1634 119.348 26.4272 118.69 26.6139C118.032 26.8006 117.306 26.8979 116.51 26.906C115.756 26.906 115.029 26.8574 114.33 26.76C113.633 26.6707 113.012 26.5286 112.468 26.3338C111.933 26.139 111.502 25.8996 111.177 25.6154C110.853 25.3233 110.691 24.9824 110.691 24.5928C110.691 24.2518 110.8 23.988 111.019 23.8013C111.238 23.6147 111.518 23.5213 111.86 23.5213C111.99 23.5213 112.143 23.5456 112.322 23.5944C112.501 23.6431 112.695 23.704 112.906 23.777C113.117 23.85 113.34 23.9312 113.576 24.0205C113.819 24.1017 114.071 24.1747 114.33 24.2396C114.656 24.329 114.988 24.402 115.329 24.4589C115.678 24.5075 116.035 24.5319 116.401 24.5319C116.628 24.5319 116.851 24.5115 117.07 24.471C117.289 24.4223 117.485 24.3533 117.655 24.2641C117.834 24.1666 117.979 24.0448 118.094 23.8988C118.207 23.7527 118.275 23.5741 118.3 23.3631C118.324 23.3144 118.345 23.2656 118.361 23.2169C118.377 23.1683 118.385 23.1114 118.385 23.0465C118.385 22.8192 118.28 22.6163 118.069 22.4377C117.866 22.2592 117.577 22.1171 117.204 22.0116C116.579 21.8655 115.982 21.7316 115.414 21.6098C114.847 21.4881 114.319 21.3582 113.832 21.2202C113.353 21.0822 112.914 20.9239 112.516 20.7453C112.127 20.5668 111.794 20.3476 111.518 20.0879C111.251 19.8281 111.039 19.5156 110.885 19.1504C110.739 18.7851 110.666 18.3427 110.666 17.8232C110.666 17.2632 110.792 16.764 111.043 16.3257C111.303 15.8792 111.673 15.5059 112.152 15.2056C112.631 14.9052 113.21 14.678 113.893 14.5238C114.575 14.3614 115.345 14.2803 116.206 14.2803C117.748 14.2803 118.921 14.467 119.725 14.8403C120.536 15.2056 120.942 15.6844 120.942 16.2771C120.942 16.6098 120.832 16.8655 120.613 17.044C120.394 17.2145 120.13 17.2997 119.822 17.2997C119.659 17.2997 119.489 17.2713 119.31 17.2145C119.14 17.1496 118.933 17.0806 118.69 17.0075C118.446 16.9264 118.154 16.8574 117.813 16.8006C117.481 16.7356 117.066 16.7031 116.571 16.7031C116.197 16.7031 115.857 16.7193 115.548 16.7519C115.248 16.7843 114.988 16.8411 114.769 16.9222C114.558 17.0035 114.392 17.113 114.27 17.2511C114.156 17.3891 114.1 17.5635 114.1 17.7746Z" fill="#161513"/>
<path d="M126.821 22.243C126.821 22.6245 126.87 22.9573 126.967 23.2415C127.072 23.5255 127.215 23.765 127.393 23.9598C127.572 24.1465 127.779 24.2885 128.013 24.3859C128.258 24.4753 128.517 24.5199 128.793 24.5199C129.118 24.5199 129.431 24.4712 129.731 24.3737C130.031 24.2764 130.295 24.1262 130.523 23.9233C130.757 23.7203 130.944 23.4647 131.083 23.1562C131.22 22.8478 131.289 22.4866 131.289 22.0727V16.9103C131.289 16.1391 131.428 15.5466 131.703 15.1327C131.988 14.7188 132.471 14.5117 133.152 14.5117C133.874 14.5117 134.39 14.7188 134.698 15.1327C135.015 15.5466 135.173 16.1391 135.173 16.9103V24.3616C135.173 25.1327 135.015 25.7252 134.698 26.1391C134.39 26.5532 133.874 26.7601 133.152 26.7601C132.471 26.7601 131.988 26.5532 131.703 26.1391C131.428 25.7252 131.289 25.1327 131.289 24.3616C131.119 24.735 130.896 25.0759 130.619 25.3843C130.351 25.6928 130.035 25.9607 129.67 26.1879C129.312 26.4071 128.915 26.5775 128.477 26.6993C128.047 26.821 127.579 26.8819 127.076 26.8819C126.533 26.8819 126.009 26.7885 125.505 26.6019C125.011 26.4071 124.572 26.1229 124.191 25.7495C123.81 25.3681 123.505 24.8973 123.278 24.3373C123.05 23.7772 122.937 23.1238 122.937 22.377V16.9103C122.937 16.1391 123.075 15.5466 123.351 15.1327C123.635 14.7188 124.117 14.5117 124.8 14.5117C125.522 14.5117 126.037 14.7188 126.346 15.1327C126.663 15.5466 126.821 16.1391 126.821 16.9103V22.243Z" fill="#161513"/>
<path d="M136.936 16.9102C136.936 16.1391 137.074 15.5466 137.351 15.1326C137.634 14.7187 138.117 14.5116 138.799 14.5116C139.522 14.5116 140.037 14.7187 140.346 15.1326C140.662 15.5466 140.821 16.1391 140.821 16.9102C140.983 16.5206 141.202 16.1675 141.478 15.851C141.762 15.5263 142.083 15.2504 142.439 15.023C142.805 14.7958 143.199 14.6213 143.621 14.4995C144.043 14.3696 144.481 14.3047 144.936 14.3047C145.358 14.3047 145.771 14.3615 146.178 14.4752C146.591 14.5806 146.973 14.7552 147.323 14.9987C147.679 15.234 147.992 15.5344 148.26 15.8997C148.528 16.2649 148.734 16.7032 148.881 17.2146C149.132 16.6708 149.429 16.2122 149.769 15.8388C150.11 15.4654 150.48 15.1651 150.877 14.9378C151.275 14.7105 151.689 14.5482 152.119 14.4508C152.558 14.3534 152.995 14.3047 153.434 14.3047C153.953 14.3047 154.449 14.3981 154.919 14.5847C155.398 14.7714 155.816 15.0555 156.173 15.4371C156.539 15.8103 156.827 16.2853 157.038 16.8616C157.257 17.4297 157.366 18.0953 157.366 18.8582V24.3615C157.366 25.1326 157.208 25.7252 156.891 26.1391C156.584 26.5531 156.067 26.7601 155.345 26.7601C154.664 26.7601 154.181 26.5531 153.897 26.1391C153.621 25.7252 153.483 25.1326 153.483 24.3615V19.0287C153.483 18.6634 153.434 18.3388 153.337 18.0547C153.239 17.7625 153.101 17.519 152.923 17.3242C152.752 17.1213 152.55 16.9711 152.314 16.8737C152.079 16.7682 151.826 16.7154 151.559 16.7154C151.226 16.7154 150.91 16.7682 150.61 16.8737C150.31 16.9792 150.046 17.1416 149.818 17.3607C149.599 17.5799 149.42 17.8599 149.282 18.2008C149.152 18.5417 149.088 18.9516 149.088 19.4305V24.3615C149.088 25.1326 148.929 25.7252 148.613 26.1391C148.304 26.5531 147.789 26.7601 147.066 26.7601C146.384 26.7601 145.901 26.5531 145.618 26.1391C145.341 25.7252 145.203 25.1326 145.203 24.3615V19.26C145.203 18.4241 145.029 17.7909 144.68 17.3607C144.339 16.9306 143.872 16.7154 143.28 16.7154C142.931 16.7154 142.606 16.7722 142.305 16.8859C142.005 16.9995 141.745 17.1659 141.526 17.3851C141.307 17.6042 141.132 17.8761 141.003 18.2008C140.881 18.5255 140.821 18.8989 140.821 19.3209V24.3615C140.821 25.1326 140.662 25.7252 140.346 26.1391C140.037 26.5531 139.522 26.7601 138.799 26.7601C138.117 26.7601 137.634 26.5531 137.351 26.1391C137.074 25.7252 136.936 25.1326 136.936 24.3615V16.9102Z" fill="#161513"/>
<path d="M17.6624 24.6824C14.2195 24.6824 11.4286 21.8914 11.4286 18.4486C11.4286 15.0058 14.2195 12.2148 17.6624 12.2148C21.1052 12.2148 23.8961 15.0058 23.8961 18.4486C23.8961 21.8914 21.1052 24.6824 17.6624 24.6824Z" fill="#161513"/>
<path d="M5.58568 20.5775C3.77919 20.8961 2.54094 22.6411 3.23439 24.3394C4.20254 26.7103 5.74709 28.8227 7.74949 30.4734C10.6128 32.8336 14.2242 34.0948 17.9343 34.0301C21.6445 33.9654 25.2098 32.5789 27.989 30.1201C29.9325 28.4006 31.4024 26.2355 32.2873 23.8323C32.921 22.1108 31.6225 20.41 29.806 20.1548C27.9896 19.8995 26.3586 21.2217 25.4614 22.8217C24.9751 23.6889 24.3437 24.4757 23.5873 25.1449C21.9927 26.5557 19.9471 27.3511 17.8185 27.3883C15.6898 27.4254 13.6177 26.7019 11.9748 25.3476C11.1955 24.7052 10.5371 23.9409 10.0208 23.0912C9.06828 21.5235 7.39218 20.259 5.58568 20.5775Z" fill="#161513"/>
<path d="M33.1262 20.3962C33.2058 19.7582 33.2467 19.1082 33.2467 18.4487C33.2467 9.84164 26.2694 2.86426 17.6623 2.86426C9.05526 2.86426 2.07788 9.84164 2.07788 18.4487C2.07788 19.2951 2.14536 20.1258 2.27524 20.9356C2.99107 19.9557 4.10828 19.2562 5.31503 19.0434C6.62069 18.8131 7.80731 19.1298 8.81063 19.7217C8.75136 19.3059 8.72069 18.8809 8.72069 18.4487C8.72069 13.5104 12.724 9.50706 17.6623 9.50706C22.6006 9.50706 26.6039 13.5104 26.6039 18.4487C26.6039 18.7743 26.5865 19.0958 26.5526 19.4124C27.5347 18.7856 28.7098 18.4275 30.0229 18.6121C31.236 18.7826 32.3766 19.4423 33.1262 20.3962Z" fill="white"/>
<rect x="0.5" y="1.28613" width="159" height="34.3247" stroke="#F0F2F5"/>
</svg>
