<svg width="160" height="61" viewBox="0 0 160 61" fill="none" xmlns="http://www.w3.org/2000/svg">
<path d="M32.6082 30.8801C32.6082 28.6605 33.9334 27.1143 35.9587 27.1143C37.9839 27.1143 39.3091 28.6605 39.3091 30.8801C39.3091 33.0749 37.9839 34.646 35.9587 34.646C33.9334 34.646 32.6082 33.0749 32.6082 30.8801Z" fill="#161513"/>
<path d="M49.7364 27.0146C47.8111 27.0146 46.511 28.511 46.511 30.5561C46.511 32.6261 47.8361 34.1723 49.7364 34.1723C51.8366 34.1723 53.2369 32.6011 53.2369 30.5561C53.2369 28.5359 51.8366 27.0146 49.7364 27.0146Z" fill="#161513"/>
<path d="M60.8972 30.8801C60.8972 28.6605 62.2224 27.1143 64.2477 27.1143C66.273 27.1143 67.5981 28.6605 67.5981 30.8801C67.5981 33.0749 66.273 34.646 64.2477 34.646C62.2224 34.646 60.8972 33.0749 60.8972 30.8801Z" fill="#161513"/>
<path d="M81.2729 30.9055C81.2729 28.6859 82.6231 27.1396 84.7484 27.1396C86.8737 27.1396 88.1488 28.7108 88.1488 30.9055C88.1488 33.1002 86.8737 34.6464 84.7484 34.6464C82.6231 34.6464 81.2729 33.1251 81.2729 30.9055Z" fill="#161513"/>
<path fill-rule="evenodd" clip-rule="evenodd" d="M80 56.9721C122.483 56.9721 156.923 44.9183 156.923 30.049C156.923 15.1798 122.483 3.12598 80 3.12598C37.5166 3.12598 3.0769 15.1798 3.0769 30.049C3.0769 44.9183 37.5166 56.9721 80 56.9721ZM27.6658 37.0657V18.5106H24.6153V37.0657H27.6658ZM29.5328 30.8806C29.5328 34.6714 32.0832 37.365 35.9587 37.365C39.8342 37.365 42.3845 34.6714 42.3845 30.8806C42.3845 27.0898 39.8342 24.3963 35.9587 24.3963C32.0832 24.3963 29.5328 27.0898 29.5328 30.8806ZM49.2113 36.8163C45.7358 36.8163 43.4104 34.2226 43.4104 30.6312C43.4104 27.015 45.7858 24.3464 49.3112 24.3464C51.1365 24.3464 52.6867 25.1196 53.4368 26.4165L53.6118 24.7455H56.3122V36.4422C56.3122 40.5074 53.7619 43.1259 49.7614 43.1259C46.3608 43.1259 43.8855 41.0311 43.4855 37.8138H46.5609C46.7359 39.4349 48.0361 40.3577 49.9363 40.3577C52.0616 40.3577 53.3368 39.0109 53.3368 36.9908V34.896C52.5617 36.093 51.0115 36.8163 49.2113 36.8163ZM57.8217 30.8806C57.8217 34.6714 60.3721 37.365 64.2477 37.365C68.1232 37.365 70.6735 34.6714 70.6735 30.8806C70.6735 27.0898 68.1232 24.3963 64.2477 24.3963C60.3721 24.3963 57.8217 27.0898 57.8217 30.8806ZM75.8 20.406C75.8 21.4285 74.9749 22.2266 73.9747 22.2266C72.9496 22.2266 72.1745 21.4285 72.1745 20.406C72.1745 19.4084 72.9496 18.6103 73.9747 18.6103C74.9749 18.6103 75.8 19.4084 75.8 20.406ZM75.4999 24.7455V37.0657H72.4496V24.7455H75.4999ZM78.1723 42.7768H81.1478V35.3698C81.9229 36.6417 83.5981 37.3898 85.4484 37.3898C89.0989 37.3898 91.2741 34.5967 91.2241 30.7559C91.1491 26.8903 88.9238 24.3714 85.4233 24.3714C83.5481 24.3714 81.8479 25.1944 81.0978 26.616L80.9227 24.7455H78.1723V42.7768ZM96.9493 37.3898C93.9989 37.3898 92.0986 35.8186 91.9987 33.3746H94.774C94.774 34.447 95.5491 35.0705 96.8993 35.0705C98.0245 35.0705 98.9496 34.6216 98.9496 33.6489C98.9496 32.9506 98.4495 32.5765 97.6494 32.3521L95.4992 31.8034C93.1238 31.1799 92.1987 29.8581 92.1987 28.2619C92.1987 25.9176 94.1739 24.3714 96.8243 24.3714C99.4996 24.3714 101.325 25.9176 101.425 28.3618H98.6496C98.6496 27.2893 97.8994 26.6409 96.7493 26.6409C95.6491 26.6409 94.9741 27.2394 94.9741 28.0874C94.9741 28.8855 95.5991 29.2097 96.5242 29.4591L98.6996 29.9828C100.725 30.4816 101.825 31.6787 101.825 33.4495C101.825 35.8436 99.8497 37.3898 96.9493 37.3898ZM108.153 37.3898C109.827 37.3898 111.427 36.6167 112.152 35.4695L112.353 37.0657H115.203V24.7455H112.152V31.2049C112.152 33.4245 111.302 34.6714 109.302 34.6714C107.753 34.6714 106.677 33.9233 106.677 31.3795V24.7455H103.627V32.4518C103.627 35.3947 105.227 37.3898 108.153 37.3898ZM120.946 29.9828V37.0657H117.895V24.7455H120.695L120.846 26.1421C121.571 25.0448 122.871 24.3714 124.321 24.3714C126.371 24.3714 127.722 25.2692 128.397 26.7157C128.997 25.2692 130.472 24.3714 132.348 24.3714C135.348 24.3714 136.923 26.1671 136.923 29.0102V37.0657H133.972V29.7084C133.972 27.9627 133.023 27.04 131.548 27.04C130.097 27.04 128.947 27.9877 128.947 30.0077V37.0657H125.971V29.7084C125.971 27.9627 125.022 27.04 123.571 27.04C122.122 27.04 120.946 27.9877 120.946 29.9828Z" fill="#161513"/>
<rect x="0.5" y="0.548828" width="159" height="59.8" stroke="#F0F2F5"/>
</svg>
