<svg width="160" height="31" viewBox="0 0 160 31" fill="none" xmlns="http://www.w3.org/2000/svg">
<g clip-path="url(#clip0_228_1911)">
<path d="M63.2347 5.97656H59.8831V21.1001H69.1616V18.1367H63.2347V5.97656Z" fill="#161513"/>
<path d="M69.4817 15.9707C69.4817 19.1998 71.648 21.3456 74.9179 21.3456C78.1674 21.3456 80.3338 19.1998 80.3338 15.9707C80.3338 12.7416 78.1674 10.5752 74.9179 10.5752C71.648 10.5752 69.4817 12.7416 69.4817 15.9707ZM72.6494 15.9502C72.6494 14.4174 73.5487 13.3956 74.9179 13.3956C76.2668 13.3956 77.1661 14.4174 77.1661 15.9502C77.1661 17.5035 76.2668 18.5253 74.9179 18.5253C73.5487 18.5253 72.6494 17.5035 72.6494 15.9502Z" fill="#161513"/>
<path d="M80.8401 15.807C80.8401 18.8929 82.843 20.9775 85.6837 20.9775C87.053 20.9775 88.2384 20.487 88.831 19.69V21.1002C88.831 22.5103 87.9522 23.4504 86.399 23.4504C85.0092 23.4504 84.0487 22.7964 83.9874 21.6315H80.7992C81.0853 24.4314 83.2517 26.3116 86.2151 26.3116C89.7098 26.3116 91.917 24.0431 91.917 20.4461V10.8816H89.0762L88.9128 11.9238C88.3405 11.0859 87.1347 10.5342 85.7451 10.5342C82.8838 10.5342 80.8401 12.6801 80.8401 15.807ZM84.0283 15.7252C84.0283 14.2537 85.0092 13.2727 86.2559 13.2727C87.707 13.2727 88.7697 14.2333 88.7697 15.7252C88.7697 17.2171 87.7274 18.239 86.2763 18.239C85.0297 18.239 84.0283 17.2171 84.0283 15.7252Z" fill="#161513"/>
<path d="M92.8342 15.9707C92.8342 19.1998 95.0007 21.3456 98.2709 21.3456C101.52 21.3456 103.687 19.1998 103.687 15.9707C103.687 12.7416 101.52 10.5752 98.2709 10.5752C95.0007 10.5752 92.8342 12.7416 92.8342 15.9707ZM96.0019 15.9502C96.0019 14.4174 96.901 13.3956 98.2709 13.3956C99.6192 13.3956 100.518 14.4174 100.518 15.9502C100.518 17.5035 99.6192 18.5253 98.2709 18.5253C96.901 18.5253 96.0019 17.5035 96.0019 15.9502Z" fill="#161513"/>
<path d="M106.4 9.28744C107.381 9.28744 108.178 8.49039 108.178 7.48897C108.178 6.48755 107.381 5.71094 106.4 5.71094C105.399 5.71094 104.602 6.48755 104.602 7.48897C104.602 8.49039 105.399 9.28744 106.4 9.28744ZM104.806 21.1001H107.974V10.8816H104.806V21.1001Z" fill="#161513"/>
<path d="M109.818 26.0052H112.924V20.0784C113.517 20.855 114.866 21.3864 116.276 21.3864C119.321 21.3864 121.16 19.0566 121.079 15.8275C120.996 12.5371 119.096 10.5547 116.255 10.5547C114.804 10.5547 113.435 11.1882 112.863 12.1284L112.699 10.8817H109.818V26.0052ZM112.985 15.9909C112.985 14.4582 114.007 13.4364 115.479 13.4364C116.97 13.4364 117.911 14.4786 117.911 15.9909C117.911 17.5034 116.97 18.5456 115.479 18.5456C114.007 18.5456 112.985 17.5238 112.985 15.9909Z" fill="#161513"/>
<path d="M121.414 17.8712C121.495 19.9354 123.131 21.3659 125.706 21.3659C128.179 21.3659 129.896 20.0579 129.896 17.953C129.896 16.4406 128.997 15.4392 127.32 15.0304L125.502 14.5808C124.848 14.4173 124.439 14.2538 124.439 13.7224C124.439 13.191 124.867 12.8436 125.502 12.8436C126.217 12.8436 126.686 13.3137 126.667 14.0085H129.507C129.425 11.8831 127.811 10.5547 125.563 10.5547C123.295 10.5547 121.598 11.9036 121.598 13.9472C121.598 15.3165 122.354 16.4406 124.377 16.972L126.175 17.442C126.707 17.585 126.931 17.8303 126.931 18.1777C126.931 18.6887 126.462 19.0157 125.665 19.0157C124.745 19.0157 124.255 18.5865 124.255 17.8712H121.414Z" fill="#161513"/>
<path d="M134.712 21.3651C135.96 21.3651 137.206 20.7928 137.84 19.9549L138.044 21.0994H141.008V10.8809H137.86V16.1945C137.86 17.7273 137.411 18.5652 135.96 18.5652C134.835 18.5652 134.1 18.0543 134.1 16.1537V10.8809H130.952V17.2981C130.952 19.7302 132.301 21.3651 134.712 21.3651Z" fill="#161513"/>
<path d="M145.999 21.1002V15.5208C145.999 13.8041 146.918 13.3136 147.818 13.3136C148.819 13.3136 149.473 13.9267 149.473 15.1938V21.1002H152.579V15.5208C152.579 13.7837 153.478 13.2932 154.378 13.2932C155.379 13.2932 156.053 13.9062 156.053 15.1938V21.1002H159.12V14.4172C159.12 12.0874 157.893 10.5342 155.256 10.5342C153.785 10.5342 152.579 11.2494 152.048 12.353C151.435 11.2494 150.372 10.5342 148.676 10.5342C147.552 10.5342 146.51 11.0451 145.897 11.8626L145.774 10.8816H142.83V21.1002H145.999Z" fill="#161513"/>
<path d="M0 15.0674C0 6.79931 6.70263 0.0966797 14.9708 0.0966797H34.6199C42.888 0.0966797 49.5906 6.79931 49.5906 15.0674V30.0382H14.9708C6.70263 30.0382 0 23.3356 0 15.0674Z" fill="#161513"/>
<path d="M34.6199 5.71094H14.9707C9.80316 5.71094 5.61401 9.90009 5.61401 15.0677C5.61401 20.2352 9.80316 24.4244 14.9707 24.4244H34.6199C39.7874 24.4244 43.9766 20.2352 43.9766 15.0677C43.9766 9.90009 39.7874 5.71094 34.6199 5.71094Z" fill="white"/>
<path d="M14.9707 19.7454C17.5545 19.7454 19.6491 17.6508 19.6491 15.067C19.6491 12.4832 17.5545 10.3887 14.9707 10.3887C12.3869 10.3887 10.2924 12.4832 10.2924 15.067C10.2924 17.6508 12.3869 19.7454 14.9707 19.7454Z" fill="#F0F2F5"/>
<path d="M13.0994 14.1321C13.6161 14.1321 14.035 13.7132 14.035 13.1964C14.035 12.6797 13.6161 12.2607 13.0994 12.2607C12.5826 12.2607 12.1637 12.6797 12.1637 13.1964C12.1637 13.7132 12.5826 14.1321 13.0994 14.1321Z" fill="#161513"/>
<path d="M35.5556 19.7454C38.1393 19.7454 40.2339 17.6508 40.2339 15.067C40.2339 12.4832 38.1393 10.3887 35.5556 10.3887C32.9718 10.3887 30.8772 12.4832 30.8772 15.067C30.8772 17.6508 32.9718 19.7454 35.5556 19.7454Z" fill="#F0F2F5"/>
<path d="M33.6842 14.1321C34.201 14.1321 34.6199 13.7132 34.6199 13.1964C34.6199 12.6797 34.201 12.2607 33.6842 12.2607C33.1674 12.2607 32.7485 12.6797 32.7485 13.1964C32.7485 13.7132 33.1674 14.1321 33.6842 14.1321Z" fill="#161513"/>
</g>
<rect x="0.5" y="0.59668" width="159" height="28.9415" stroke="#F0F2F5"/>
<defs>
<clipPath id="clip0_228_1911">
<rect y="0.0966797" width="160" height="29.9415" fill="white"/>
</clipPath>
</defs>
</svg>
