<svg width="160" height="37" viewBox="0 0 160 37" fill="none" xmlns="http://www.w3.org/2000/svg">
<g clip-path="url(#clip0_228_1817)">
<path d="M155.789 7.17031L159.605 11.0127C159.739 11.1189 159.837 11.2621 159.888 11.4244C159.966 12.3702 159.25 12.4219 158.519 12.4748C158.203 12.4976 157.883 12.5208 157.625 12.6166C156.341 12.9639 155.196 13.6975 154.345 14.7179C153.493 15.7382 152.976 16.9959 152.864 18.3202C152.782 18.4731 152.657 18.599 152.505 18.6827C152.353 18.7664 152.18 18.8043 152.006 18.7919C151.805 18.7741 151.617 18.6861 151.474 18.5432L150.222 17.282C150.231 17.3683 150.231 17.4538 150.231 17.5225V18.3544C150.231 18.407 150.233 18.4577 150.226 18.5082C150.218 18.5649 150.199 18.6214 150.154 18.6803V18.7576C150.154 18.797 150.159 18.8336 150.163 18.8708C150.172 18.947 150.182 19.0254 150.154 19.135C150.127 19.2371 150.124 19.3562 150.12 19.4626C150.119 19.5257 150.117 19.5844 150.111 19.6323C150.102 19.6988 150.102 19.7698 150.096 19.8406C150.091 19.907 150.08 19.9733 150.051 20.0355C150.011 20.1225 149.997 20.2056 149.993 20.2901C149.99 20.3305 149.99 20.3712 149.99 20.4129L149.939 20.6787L147.993 29.9588L147.838 30.6535L147.778 31.6656L146.92 36.0483L146.783 36.7345H77.3712L77.0367 36.4L76.9766 36.6916H69.5492L65.4151 32.5319L65.8096 30.6535H63.4767L62.0273 29.1869C60.2285 30.4968 58.0511 31.1834 55.8263 31.1425C53.4347 31.2366 51.1032 30.3791 49.3423 28.7581L47.0865 26.4853L46.5977 28.7666C46.5377 29.0926 46.4604 29.4014 46.3747 29.7016L46.2975 29.9846L46.1689 30.3962C46.1583 30.432 46.1439 30.4665 46.126 30.4992C45.9983 30.8773 45.8465 31.2469 45.6714 31.6056C45.676 31.6195 45.676 31.6345 45.6714 31.6484C45.6489 31.696 45.6231 31.7418 45.5941 31.7857C45.4647 32.0419 45.3216 32.291 45.1653 32.5319C45.1364 32.5757 45.1106 32.6216 45.0882 32.6691L44.9938 32.772C44.7842 33.0727 44.555 33.3592 44.3077 33.6297C44.2398 33.6975 44.172 33.7613 44.103 33.8238C44.0326 33.8878 43.9611 33.9506 43.8874 34.0156L43.6987 34.1957C43.5798 34.2946 43.4581 34.3899 43.3339 34.4818C43.2314 34.5576 43.1271 34.6309 43.0212 34.7018C41.2536 35.7491 39.2146 36.2476 37.1632 36.1341C34.3329 36.1341 32.0686 35.3107 30.6363 33.8699L26.6052 29.813C24.995 30.7242 23.1718 31.1918 21.3219 31.1682C18.9375 31.2419 16.6201 30.3729 14.8721 28.7495L12.6165 26.4767L11.8875 29.9846L11.7416 30.6793H4.15119L0 26.4938L0.214419 25.4818L4.77728 3.56805L4.91448 2.88192H12.5307L12.728 3.07063V2.88192H64.0429L64.2316 3.07063V2.88192H71.6591L75.8102 7.06739L75.6044 8.07086L75.3814 9.16871H77.517L77.8515 9.50325C78.7912 8.95252 79.8586 8.65685 80.9477 8.64555C81.7487 8.62973 82.544 8.78186 83.2826 9.09207C84.0212 9.40231 84.6866 9.86366 85.2361 10.4466L85.1246 10.318L87.1401 12.3507C88.3666 10.0436 91.1197 8.64555 94.859 8.64555C97.7582 8.64555 99.8939 9.38311 101.189 10.7211L102.647 12.1878L103.136 9.8291L103.281 9.14295H110.717L112.845 11.2786L113.145 9.83769L113.291 9.15154H127.923L128.317 9.54613C129.308 8.96131 130.443 8.66428 131.594 8.68842C132.286 8.6614 132.976 8.78814 133.614 9.05952C134.251 9.3309 134.821 9.74023 135.281 10.258C135.258 10.231 135.235 10.204 135.212 10.1775C135.171 10.1283 135.13 10.0803 135.086 10.0359L135.831 10.7811C136.48 10.1089 137.261 9.57648 138.123 9.21666C138.986 8.85682 139.913 8.67701 140.848 8.68842C141.344 8.6579 141.84 8.70014 142.32 8.81253L141.509 7.9937C141.398 7.87534 141.323 7.72808 141.293 7.56899C141.263 7.40991 141.278 7.24543 141.337 7.09472C141.396 6.94395 141.497 6.81308 141.627 6.71718C141.758 6.62128 141.913 6.56427 142.075 6.5528H142.726C142.902 6.53605 143.077 6.5103 143.249 6.47559C144.161 6.28399 145.019 5.89222 145.76 5.32853C146.502 4.7649 147.109 4.04348 147.538 3.21643C147.576 3.15245 147.61 3.08665 147.641 3.01917V2.9763C147.936 2.34105 148.115 1.65868 148.173 0.960724C148.187 0.743843 148.285 0.540783 148.444 0.392742C148.603 0.244647 148.813 0.162565 149.03 0.163088H149.099C149.229 0.175443 149.355 0.217426 149.467 0.285793C149.578 0.354213 149.672 0.447184 149.743 0.55764C150.36 1.15802 153.79 4.64873 153.79 4.64873C154.076 4.95612 154.055 5.35518 154.033 5.75894C154.02 6.00859 154.006 6.26007 154.064 6.49276C154.221 6.52076 154.379 6.54197 154.536 6.55631C154.688 6.56997 154.84 6.5774 154.992 6.57851C155.169 6.58222 155.342 6.64117 155.484 6.74722C155.627 6.85323 155.734 7.00112 155.789 7.17031Z" fill="#F0F2F5"/>
<path d="M39.2559 9.99189H44.6765L41.6403 24.3923C41.0829 27.1197 40.0193 28.6807 38.4068 29.7871C36.7759 30.7335 34.9032 31.1807 33.0207 31.0736C29.4356 31.0736 25.9962 29.5727 25.6532 25.9275H31.108C31.2795 26.7852 32.0686 27.2741 33.2694 27.2741C34.8904 27.2741 35.6366 26.2963 35.9711 24.7611L36.2969 23.1743H36.1769C35.6983 23.7005 35.1177 24.1238 34.4705 24.4187C33.8232 24.7135 33.1228 24.8738 32.4117 24.8897C29.2555 24.8897 26.751 22.3767 26.8024 18.6973C26.8711 14.4089 29.6671 9.53731 34.3587 9.53731C35.2477 9.47742 36.1353 9.67335 36.9166 10.102C37.6978 10.5305 38.3399 11.1739 38.7671 11.956H38.8614L39.2559 9.99189ZM34.5987 20.8672C36.683 20.8672 37.8408 18.4658 37.8751 16.3987C37.8751 15.0179 37.3347 13.6027 35.7395 13.6027C33.5609 13.6027 32.4546 16.0299 32.4203 18.114C32.4203 19.5207 32.9606 20.8672 34.5559 20.8672M95.4515 21.3304C95.4515 22.2481 94.6616 22.6169 93.6238 22.6169C91.9086 22.6169 91.3342 21.7592 91.3256 20.5585H85.9309C85.8365 25.0355 89.8333 26.1419 93.3843 26.1419C97.921 26.1419 100.863 24.1779 100.924 20.2583C100.924 17.1277 98.2556 16.1758 95.6316 15.5667C93.6156 15.1037 92.7324 14.7691 92.7406 14.0058C92.7498 13.2424 93.6504 12.9337 94.5336 12.9337C95.6399 12.9337 96.3941 13.3282 96.4718 14.3403H101.713C101.652 10.6008 98.2812 9.50302 94.8508 9.50302C90.6824 9.50302 87.4318 11.3984 87.3803 14.9835C87.3803 17.8053 89.2844 18.8431 92.1573 19.5807C94.0014 20.0696 95.468 20.2239 95.4515 21.3304ZM135.53 12.3162H135.436C135.203 11.4716 134.687 10.7322 133.976 10.2205C133.265 9.70883 132.4 9.45566 131.525 9.50302C129.192 9.50302 127.769 10.6609 126.422 12.4105H126.328L126.825 9.99189H121.37L118.102 25.6188H123.806L125.521 17.1878C125.916 15.3523 126.851 14.0659 128.266 14.0659C129.681 14.0659 129.87 15.1979 129.578 16.5789L127.691 25.6188H133.394L135.11 17.1878C135.505 15.2323 136.44 14.0659 137.854 14.0659C139.27 14.0659 139.459 15.1379 139.167 16.5789L137.28 25.6188H142.983L145.025 16.3301C145.883 12.4105 144.571 9.46864 140.806 9.46864C139.758 9.46435 138.726 9.72272 137.805 10.2202C136.883 10.7176 136.102 11.4383 135.53 12.3162ZM1.04639 25.6188H6.93864L11.4929 3.70508H5.60924L1.04639 25.6188ZM18.7832 9.52871C22.7628 9.52871 26.5624 11.7072 26.5023 16.6388C26.4508 22.0337 22.78 26.0734 17.1707 26.0734C13.3112 26.0734 9.45168 23.9292 9.52025 19.0232C9.61461 13.7571 13.234 9.52871 18.7832 9.52871ZM17.3337 22.2481C19.8467 22.2481 20.7644 18.6029 20.7644 16.4587C20.7644 14.9235 20.2927 13.4226 18.6373 13.4226C16.1501 13.4226 15.301 17.2821 15.301 19.272C15.301 20.8672 15.747 22.2481 17.368 22.2481M13.457 3.70508L12.5993 8.08782H62.0788L62.9365 3.70508H13.457ZM53.2533 9.52871C57.2329 9.52871 61.0324 11.7072 60.9724 16.6388C60.9209 22.0337 57.2415 26.0734 51.6323 26.0734C47.7727 26.0734 43.9131 23.9292 43.9904 19.0232C44.1104 13.7571 47.7298 9.52871 53.2533 9.52871ZM51.8296 22.2481C54.3426 22.2481 55.2602 18.6029 55.2602 16.4587C55.2602 14.9235 54.78 13.4226 53.1246 13.4226C50.6459 13.4226 49.7882 17.2821 49.7882 19.272C49.7882 20.8672 50.2342 22.2481 51.8638 22.2481M64.9606 3.70508L64.1029 8.08782H69.7979L70.6556 3.70508H64.9606ZM60.3978 25.6188H66.1013L69.369 9.99189H63.6312L60.3978 25.6188ZM78.5977 26.1419C77.6899 26.2064 76.7822 26.0167 75.9761 25.594C75.1702 25.1713 74.4979 24.5324 74.0348 23.7491H73.9405L72.2252 31.6568H66.4529L71.0844 9.99189H76.5049L76.0761 12.076C76.6422 11.3062 77.3754 10.6747 78.2207 10.229C79.0659 9.78334 80.0013 9.53511 80.9563 9.50302C84.387 9.50302 86.4025 12.4448 86.3426 16.2701C86.2653 21.0816 83.7695 26.1419 78.5634 26.1419H78.5977ZM78.3747 13.9286C76.1705 13.9286 74.8153 16.7504 74.7811 18.9203C74.7811 20.4298 75.3128 22.1108 77.1225 22.1108C79.4811 22.1108 80.4503 18.9889 80.476 16.9047C80.476 15.4896 80.0643 13.9286 78.3747 13.9286ZM111.353 23.1572H111.447L110.95 25.636H116.369L119.638 10.009H113.943L112.124 18.7401C111.756 20.5499 110.641 21.5019 109.234 21.5019C107.827 21.5019 107.518 20.1811 107.802 18.8002L109.646 10.009H103.951L101.935 19.6579C101.077 23.8605 103.033 26.1248 106.31 26.1248C107.338 26.1148 108.347 25.8336 109.232 25.3096C110.117 24.7855 110.849 24.0371 111.353 23.14V23.1572ZM141.946 31.7341L142.803 27.3512H75.167L74.3093 31.7341H141.946Z" fill="#161513"/>
<path d="M148.078 14.2808C148.022 14.2765 147.967 14.261 147.917 14.2353C147.866 14.2097 147.821 14.1743 147.784 14.1313C147.748 14.0882 147.72 14.0384 147.703 13.9845C147.686 13.9307 147.679 13.874 147.684 13.8176C147.755 13.0538 147.664 12.2834 147.418 11.5571C147.171 10.8308 146.773 10.1647 146.25 9.60282C145.728 9.04086 145.093 8.59558 144.387 8.29616C143.68 7.99674 142.918 7.84992 142.151 7.86534C142.038 7.86534 141.929 7.82016 141.849 7.73973C141.768 7.65931 141.723 7.55023 141.723 7.43649C141.723 7.32275 141.768 7.21369 141.849 7.13327C141.929 7.05284 142.038 7.00765 142.151 7.00765C142.357 7.02095 142.564 7.02095 142.769 7.00765C144.293 6.84536 145.712 6.15709 146.782 5.06129C147.854 3.9655 148.508 2.53071 148.635 1.0039C148.645 0.896214 148.693 0.795765 148.773 0.72262C148.852 0.649475 148.956 0.609031 149.064 0.609377C149.121 0.613706 149.176 0.629147 149.226 0.654803C149.276 0.680458 149.321 0.715826 149.358 0.758871C149.395 0.801918 149.423 0.851788 149.44 0.905618C149.457 0.959447 149.464 1.01617 149.459 1.07252C149.388 1.83564 149.478 2.60524 149.724 3.33098C149.971 4.05671 150.368 4.72225 150.889 5.28408C151.411 5.8459 152.045 6.29136 152.75 6.59132C153.456 6.89129 154.216 7.039 154.982 7.02481C155.096 7.02481 155.205 7.07 155.286 7.15042C155.366 7.23084 155.411 7.33991 155.411 7.45365C155.411 7.56739 155.366 7.67647 155.286 7.75689C155.205 7.83731 155.096 7.88249 154.982 7.88249C153.353 7.9094 151.791 8.5371 150.596 9.64515C149.401 10.7532 148.656 12.2635 148.507 13.8862C148.498 13.9939 148.45 14.0944 148.37 14.1676C148.291 14.2407 148.187 14.2811 148.078 14.2808Z" fill="#161513"/>
</g>
<rect x="0.5" y="0.663086" width="159" height="35.5714" stroke="#F0F2F5"/>
<defs>
<clipPath id="clip0_228_1817">
<rect y="0.163086" width="160" height="36.5714" fill="white"/>
</clipPath>
</defs>
</svg>
