<svg width="160" height="42" viewBox="0 0 160 42" fill="none" xmlns="http://www.w3.org/2000/svg">
<path d="M47.5742 13.4151H51.4452V29.0667H47.5742V13.4151ZM52.9807 23.157C52.9807 19.2861 55.3549 16.9764 59.0194 16.9764C62.6839 16.9764 65.0581 19.2861 65.0581 23.157C65.0581 27.028 62.7355 29.3506 59.0194 29.3506C55.3033 29.3506 52.9807 27.0925 52.9807 23.157ZM61.1742 23.157C61.1742 21.028 60.3355 19.7764 59.0194 19.7764C57.7033 19.7764 56.8774 21.0667 56.8774 23.157C56.8774 25.2474 57.6904 26.5119 59.0194 26.5119C60.3484 26.5119 61.1742 25.3248 61.1742 23.1699V23.157ZM66.5162 29.828H70.2323C70.4092 30.2209 70.7082 30.5462 71.0848 30.7555C71.4614 30.9646 71.8956 31.0467 72.3226 30.9893C73.7936 30.9893 74.5678 30.1893 74.5678 29.028V26.8603H74.4903C74.182 27.5246 73.6814 28.0813 73.0536 28.4586C72.4257 28.8357 71.6991 29.0161 70.9678 28.9764C68.142 28.9764 66.271 26.8215 66.271 23.1183C66.271 19.4151 68.0516 17.0796 71.0194 17.0796C71.7737 17.0501 72.519 17.2517 73.1555 17.6575C73.792 18.0635 74.2893 18.6542 74.5807 19.3506V17.1957H78.4516V28.9377C78.4516 31.7635 75.9613 33.5183 72.2839 33.5183C68.8645 33.5183 66.7355 31.9828 66.5162 29.8409V29.828ZM74.5807 23.1441C74.5807 21.2603 73.7162 20.0732 72.3484 20.0732C70.9807 20.0732 70.142 21.2474 70.142 23.1441C70.142 25.0409 70.9678 26.1119 72.3484 26.1119C73.7291 26.1119 74.5807 25.0667 74.5807 23.157V23.1441ZM79.9097 23.1441C79.9097 19.2732 82.2839 16.9635 85.9484 16.9635C89.6129 16.9635 92 19.2732 92 23.1441C92 27.0151 89.6774 29.3377 85.9484 29.3377C82.2194 29.3377 79.9097 27.0925 79.9097 23.157V23.1441ZM88.1032 23.1441C88.1032 21.0151 87.2645 19.7635 85.9484 19.7635C84.6323 19.7635 83.871 21.0667 83.871 23.1699C83.871 25.2732 84.6839 26.5248 86 26.5248C87.3162 26.5248 88.1032 25.3248 88.1032 23.1699V23.1441ZM93.471 14.3828C93.4608 13.992 93.567 13.607 93.7759 13.2765C93.9849 12.9461 94.2873 12.6851 94.6447 12.5267C95.0021 12.3683 95.3985 12.3196 95.7836 12.3868C96.1688 12.4539 96.5253 12.634 96.808 12.904C97.0909 13.174 97.287 13.5219 97.3718 13.9036C97.4565 14.2853 97.4261 14.6835 97.2842 15.0479C97.1423 15.4121 96.8955 15.7262 96.575 15.9501C96.2546 16.1739 95.8747 16.2977 95.4839 16.3054C95.2248 16.3232 94.9648 16.2872 94.7203 16.1997C94.4756 16.1123 94.2519 15.9752 94.0629 15.797C93.8738 15.619 93.7236 15.4036 93.6218 15.1646C93.5199 14.9258 93.4685 14.6684 93.471 14.4086V14.3828ZM93.471 17.2215H97.342V29.0667H93.471V17.2215ZM111.394 23.1441C111.394 27.0151 109.677 29.2215 106.736 29.2215C105.981 29.2699 105.23 29.0855 104.584 28.6933C103.938 28.3009 103.428 27.7196 103.123 27.028H103.045V32.8603H99.1742V17.1957H103.045V19.3119H103.123C103.413 18.6088 103.914 18.0124 104.556 17.6037C105.197 17.1951 105.95 16.9941 106.71 17.028C109.677 17.0796 111.445 19.299 111.445 23.1699L111.394 23.1441ZM107.523 23.1441C107.523 21.2603 106.658 20.0603 105.303 20.0603C103.948 20.0603 103.084 21.2732 103.071 23.1441C103.058 25.0151 103.948 26.2151 105.303 26.2151C106.658 26.2151 107.523 25.0409 107.523 23.1699V23.1441ZM118.039 16.9506C121.252 16.9506 123.2 18.4732 123.29 20.9119H119.768C119.768 20.0732 119.071 19.5441 118 19.5441C116.929 19.5441 116.452 19.957 116.452 20.5635C116.452 21.1699 116.877 21.3635 117.742 21.5441L120.219 22.0474C122.581 22.5506 123.587 23.5054 123.587 25.299C123.587 27.7506 121.355 29.3248 118.065 29.3248C114.774 29.3248 112.619 27.7506 112.452 25.3377H116.181C116.297 26.2151 116.994 26.7312 118.129 26.7312C119.265 26.7312 119.781 26.357 119.781 25.7377C119.781 25.1183 119.419 24.9893 118.49 24.7957L116.258 24.3183C113.948 23.8409 112.736 22.6151 112.736 20.8086C112.761 18.4861 114.839 16.9764 118.039 16.9764V16.9506ZM136.503 29.0409H132.774V26.8344H132.697C132.492 27.5752 132.04 28.2236 131.416 28.672C130.791 29.1203 130.032 29.3415 129.265 29.299C128.676 29.3324 128.088 29.2392 127.539 29.0257C126.99 28.8121 126.493 28.4833 126.082 28.0613C125.671 27.6393 125.356 27.1339 125.157 26.5795C124.958 26.025 124.88 25.4343 124.929 24.8474V17.1957H128.8V23.957C128.8 25.3635 129.523 26.1119 130.723 26.1119C131.004 26.1124 131.283 26.0529 131.539 25.9372C131.795 25.8214 132.025 25.6521 132.21 25.4408C132.395 25.2293 132.534 24.9806 132.616 24.7115C132.697 24.4422 132.721 24.1586 132.684 23.8796V17.1957H136.555L136.503 29.0409ZM138.374 17.1957H142.116V19.4796H142.194C142.399 18.7486 142.841 18.1063 143.45 17.6534C144.059 17.2005 144.803 16.9623 145.561 16.9764C146.334 16.9146 147.101 17.1457 147.711 17.6239C148.32 18.1021 148.728 18.7921 148.852 19.557H148.929C149.163 18.784 149.648 18.111 150.307 17.6437C150.965 17.1765 151.761 16.9417 152.568 16.9764C153.094 16.9587 153.618 17.052 154.106 17.2502C154.595 17.4483 155.035 17.747 155.4 18.1266C155.765 18.5063 156.046 18.9586 156.226 19.4539C156.404 19.9493 156.477 20.4769 156.439 21.0022V29.0667H152.568V22.0344C152.568 20.7441 151.987 20.1506 150.903 20.1506C150.662 20.1485 150.422 20.1983 150.201 20.2966C149.981 20.395 149.783 20.5395 149.623 20.7205C149.463 20.9015 149.343 21.1147 149.272 21.3458C149.201 21.577 149.182 21.8206 149.213 22.0603V29.0667H145.536V21.9828C145.536 20.7957 144.955 20.1506 143.897 20.1506C143.653 20.1507 143.41 20.2026 143.188 20.3028C142.965 20.4032 142.765 20.5497 142.604 20.7325C142.441 20.9154 142.32 21.1306 142.246 21.364C142.174 21.5973 142.151 21.8434 142.181 22.0861V29.0667H138.31L138.374 17.1957Z" fill="#161513"/>
<path d="M36.7484 14.1249C36.0917 12.6235 35.2227 11.2242 34.1677 9.97009C32.6084 8.06085 30.6623 6.5035 28.4576 5.40054C26.253 4.2976 23.8397 3.67405 21.3767 3.57094C18.9138 3.46783 16.4569 3.8875 14.1677 4.80234C11.8786 5.71716 9.80922 7.10641 8.09571 8.87865C6.38218 10.6509 5.06341 12.7659 4.22618 15.0845C3.38896 17.4031 3.05225 19.8728 3.23824 22.3309C3.42424 24.7891 4.12869 27.1799 5.30526 29.3461C6.48182 31.5124 8.10382 33.4049 10.0645 34.8991C11.3226 35.8771 12.7127 36.672 14.1935 37.2604C16.2696 38.1113 18.4917 38.5494 20.7354 38.5507C25.3669 38.5405 29.8054 36.6944 33.078 33.4169C36.3505 30.1395 38.1902 25.6983 38.1935 21.0669C38.1969 18.6778 37.7049 16.3141 36.7484 14.1249ZM20.7225 7.11847C22.7375 7.11826 24.7281 7.55865 26.5548 8.40879C26.1094 8.60127 25.641 8.7357 25.1613 8.8088C23.5827 9.0373 22.1204 9.77018 20.9925 10.8981C19.8646 12.0259 19.1317 13.4883 18.9032 15.0669C18.8029 15.9522 18.4002 16.7758 17.7632 17.3987C17.1262 18.0217 16.2938 18.4057 15.4064 18.4862C13.8278 18.7147 12.3655 19.4476 11.2376 20.5755C10.1098 21.7034 9.37687 23.1657 9.14837 24.7443C9.071 25.5861 8.71184 26.3772 8.12901 26.9894C7.1234 24.8647 6.67166 22.5199 6.81581 20.1736C6.95996 17.8273 7.69533 15.5555 8.95349 13.5697C10.2116 11.584 11.9517 9.94881 14.0117 8.81634C16.0717 7.68386 18.3847 7.09092 20.7354 7.09266L20.7225 7.11847ZM10.0516 30.0991C10.2064 29.9572 10.3613 29.8282 10.5161 29.6733C11.664 28.5604 12.4009 27.0913 12.6064 25.5056C12.6898 24.6142 13.0877 23.7817 13.729 23.1572C14.3462 22.5149 15.1767 22.1202 16.0645 22.0475C17.6431 21.819 19.1054 21.0861 20.2333 19.9582C21.3611 18.8303 22.094 17.368 22.3225 15.7894C22.3784 14.8572 22.7784 13.9789 23.4451 13.3249C24.0775 12.6951 24.916 12.3147 25.8064 12.2539C27.2566 12.0544 28.6091 11.4097 29.6774 10.4088C30.8938 11.4179 31.9242 12.6319 32.7225 13.9959C32.6735 14.0621 32.6173 14.1227 32.5548 14.1765C31.9389 14.8245 31.1094 15.2279 30.2193 15.312C28.6391 15.5365 27.1745 16.2682 26.0459 17.3967C24.9174 18.5253 24.1858 19.9898 23.9613 21.5701C23.8703 22.4583 23.4751 23.2879 22.8425 23.9181C22.2099 24.5484 21.3789 24.9405 20.4903 25.0282C18.9071 25.2549 17.4393 25.9864 16.3049 27.1137C15.1705 28.2412 14.43 29.7044 14.1935 31.2862C14.1241 31.9168 13.9074 32.5224 13.5613 33.054C12.2374 32.2679 11.0517 31.2697 10.0516 30.0991ZM20.7225 35.0798C19.4133 35.0812 18.1102 34.8987 16.8516 34.5378C17.2822 33.7353 17.562 32.8605 17.6774 31.9572C17.7678 31.0709 18.1613 30.2429 18.7912 29.6129C19.4211 28.983 20.2491 28.5896 21.1354 28.4991C22.7164 28.2732 24.1816 27.5414 25.3121 26.4133C26.4424 25.2853 27.1773 23.8214 27.4064 22.2411C27.4969 21.3547 27.8903 20.5267 28.5202 19.8968C29.1502 19.2669 29.9782 18.8734 30.8645 18.783C32.0542 18.6283 33.1881 18.1853 34.1677 17.4927C34.7117 19.5545 34.7761 21.7134 34.3561 23.804C33.9361 25.8946 33.0427 27.8613 31.7446 29.5531C30.4465 31.2447 28.7783 32.6167 26.8676 33.5635C24.957 34.5104 22.8549 35.007 20.7225 35.0153V35.0798Z" fill="#161513"/>
<rect x="0.5" y="0.921875" width="159" height="40.2903" stroke="#F0F2F5"/>
</svg>
